<svg width="285" height="38" viewBox="0 0 285 38" fill="none" xmlns="http://www.w3.org/2000/svg">
<g opacity="0.7">
<path d="M19.534 0.353424H177.449L162.07 35.4115C161.29 37.2227 159.774 37.9562 157.944 37.9562H0.119141L15.543 2.74851C16.1582 1.26655 17.5985 0.353424 19.534 0.353424Z" fill="#008DD2"/>
<path d="M183.225 0.353424H283.78L268.417 35.4115C267.621 37.2227 266.121 37.9562 264.276 37.9562H163.81L179.249 2.74851C179.864 1.26655 181.305 0.353424 183.225 0.353424Z" fill="#E31E24"/>
<path d="M273.923 7.64343L273.473 7.65839L273.203 8.61642H273.668C273.998 8.60146 274.418 8.55654 274.538 8.1374C274.628 7.76317 274.268 7.64343 273.923 7.64343ZM274.118 7.28417C274.643 7.28417 275.123 7.59852 275.003 8.16736C274.898 8.5865 274.583 8.88588 274.148 8.91582L274.463 10.1882H273.908L273.653 8.96073H273.113L272.767 10.2182H272.212L273.023 7.29915L274.118 7.28417ZM275.918 8.76613C275.918 8.45178 275.843 8.13743 275.723 7.853C275.603 7.56859 275.438 7.31411 275.213 7.10453C274.988 6.87999 274.733 6.71534 274.433 6.59558C274.148 6.49079 273.848 6.43092 273.518 6.43092C273.203 6.44589 272.903 6.50577 272.617 6.62552C272.332 6.74528 272.092 6.90994 271.882 7.13448C271.657 7.35902 271.477 7.62846 271.357 7.92785C271.252 8.21226 271.192 8.51165 271.192 8.82601C271.192 9.1254 271.267 9.42479 271.387 9.7092C271.507 9.97864 271.687 10.2331 271.912 10.4577C272.137 10.6822 272.392 10.8469 272.692 10.9666C272.978 11.0864 273.278 11.1313 273.578 11.1313C273.893 11.1313 274.193 11.0714 274.478 10.9367C274.763 10.8169 275.033 10.6523 275.258 10.4127C275.483 10.2032 275.648 9.9487 275.753 9.66428C275.873 9.37987 275.918 9.0805 275.918 8.76613ZM273.503 6.07166C273.878 6.07166 274.223 6.13154 274.553 6.26625C274.898 6.40098 275.183 6.59558 275.453 6.85005C275.708 7.10453 275.903 7.38894 276.053 7.71827C276.188 8.0476 276.263 8.37692 276.263 8.73619C276.278 9.11042 276.218 9.45472 276.083 9.78403C275.963 10.1134 275.768 10.3978 275.513 10.6523C275.243 10.9217 274.958 11.1313 274.613 11.266C274.298 11.4157 273.953 11.4905 273.593 11.4905C273.233 11.5055 272.888 11.4307 272.557 11.2959C272.227 11.1612 271.927 10.9666 271.672 10.7121C271.402 10.4577 271.207 10.1732 271.057 9.84392C270.922 9.51459 270.847 9.18527 270.847 8.826C270.832 8.46674 270.892 8.12245 271.042 7.77816C271.177 7.44883 271.372 7.14945 271.627 6.87999C271.867 6.61055 272.152 6.41595 272.467 6.28122C272.783 6.14649 273.128 6.08662 273.503 6.07166ZM193.623 7.29913C190.922 13.1671 188.281 19.0949 185.806 24.9479C189.347 24.9928 192.917 24.9479 196.458 24.8731C195.468 26.9388 194.553 29.0046 193.698 31.0703C187.591 30.9655 181.425 30.9655 175.213 31.0703C178.889 23.1516 182.4 15.2328 185.761 7.29912C188.371 7.34403 190.982 7.34404 193.623 7.29913ZM215.438 7.29913C211.807 15.2329 208.281 23.1516 204.89 31.0704C202.325 31.0554 199.699 31.0554 197.058 31.0704C200.689 23.2115 204.215 15.2927 207.606 7.29913C210.217 7.35902 212.827 7.35902 215.438 7.29913ZM244.395 7.29913C240.794 15.143 237.284 23.0618 233.848 31.0704C231.177 31.0404 228.521 31.0404 225.881 31.0704C225.131 27.1484 224.275 23.2115 223.315 19.2895C223.21 18.8853 223.06 18.092 223.06 17.6429C222.955 18.092 222.625 18.8854 222.445 19.2895C220.659 23.2115 218.949 27.1484 217.299 31.0704C214.688 31.0404 212.062 31.0404 209.437 31.0704C213.037 23.1516 216.563 15.2329 219.984 7.29913C222.625 7.35902 225.251 7.35902 227.876 7.29913C228.716 11.2211 229.632 15.143 230.607 19.065C230.697 19.4242 230.847 20.1128 230.847 20.517C230.967 20.0829 231.222 19.4392 231.387 19.065C233.173 15.1879 234.883 11.266 236.533 7.29913C239.174 7.34404 241.8 7.34404 244.395 7.29913ZM250.397 21.6547C249.902 22.7025 249.482 23.7803 249.017 24.8731C253.428 24.918 257.839 24.918 262.235 24.8731C261.275 26.9388 260.359 29.0046 259.489 31.0703C252.452 30.9955 245.431 30.9955 238.394 31.0703C242.04 23.1965 245.551 15.2628 248.957 7.29912C255.843 7.40391 262.76 7.40391 269.707 7.29912C268.746 9.36488 267.831 11.4306 266.961 13.4964C262.655 13.4365 258.364 13.4215 254.058 13.4964C253.593 14.4844 253.098 15.5172 252.662 16.4902C256.368 16.5501 260.149 16.5052 263.855 16.4603C263.045 18.1967 262.265 19.9481 261.53 21.6846C257.824 21.6546 254.103 21.6098 250.397 21.6547Z" fill="#FEFEFE"/>
<path d="M55.5279 16.2507C58.4237 16.2657 61.3194 16.2657 64.2151 16.2507C61.9495 21.1606 59.789 26.1005 57.7335 31.0703C54.8378 31.0254 51.942 31.0254 49.0463 31.0703C51.2819 26.1304 53.4274 21.1906 55.5279 16.2507Z" fill="#FEFEFE"/>
<path d="M76.5932 7.26916C75.588 9.48461 74.6277 11.7001 73.6975 13.9155C58.5887 13.8706 43.4799 13.8556 28.3711 13.9155C26.7507 13.9305 26.3456 16.2058 27.3809 16.2208C30.9968 16.2657 34.6277 16.2657 38.2436 16.2208C43.0898 16.2208 45.0253 19.6487 43.2548 23.6905C41.0943 28.6153 37.8235 31.0404 32.2871 31.0404C25.6254 30.9655 18.9938 30.9655 12.3921 31.0404C13.4273 28.8249 14.4026 26.6095 15.3028 24.394C21.3794 24.4539 27.4559 24.4539 33.5474 24.394C35.4229 24.3491 35.903 22.1187 34.5377 22.0888C30.6817 22.0588 26.8257 22.0588 22.9698 22.0888C17.7484 22.0888 17.5684 17.6279 19.1138 14.1101C20.9893 9.81394 24.6502 7.26917 29.4514 7.26917C45.1903 7.31408 60.8993 7.31406 76.5932 7.26916Z" fill="#FEFEFE"/>
<path d="M94.5827 16.2208C94.9128 15.4573 95.2129 14.6939 95.528 13.9155C92.9023 13.8856 90.2767 13.8856 87.651 13.9155C85.9256 13.9155 84.5452 14.6789 83.9001 16.2956C81.6795 21.2056 79.534 26.1304 77.4634 31.0404C74.5677 30.9955 71.672 31.0104 68.7763 31.0404C71.1319 25.8311 73.3974 20.5918 75.603 15.3077C77.6735 10.3229 81.1094 7.26914 87.2159 7.26914C93.8476 7.32903 100.494 7.32903 107.126 7.26914C103.57 15.1879 100.104 23.1216 96.7283 31.0404C93.8326 31.0104 90.9518 31.0104 88.0561 31.0404C89.3164 28.2261 90.5917 25.3969 91.807 22.5827C89.0463 22.5378 86.2256 22.5378 83.4649 22.5827C84.2451 20.8163 85.0253 19.0649 85.7605 17.3135C86.1506 16.4752 86.7208 16.2208 87.651 16.2208C89.9616 16.2357 92.3022 16.2357 94.5827 16.2208Z" fill="#FEFEFE"/>
<path d="M109.031 31.0404C111.432 25.2922 113.923 19.5739 116.503 13.9155C120.299 13.8856 124.095 13.8706 127.891 13.9155C129.316 13.9455 128.566 16.2507 127.171 16.2208C123.81 16.2807 120.674 16.2807 117.313 16.2208C117.599 21.1606 117.794 26.1005 117.914 31.0404C121.094 30.9955 124.275 30.9955 127.471 31.0404C127.051 28.6004 126.691 26.1604 126.406 23.7054C126.361 23.3611 126.301 22.8372 126.121 22.463C126.406 22.6576 126.916 22.6725 127.216 22.6576C131.582 22.4929 134.283 20.502 136.143 17.2986C138.589 13.1221 137.464 7.26914 130.997 7.26914C123.57 7.34399 118.169 7.34399 110.727 7.26914C107.351 15.1879 103.9 23.1216 100.344 31.0404C103.225 31.0104 106.121 31.0104 109.031 31.0404Z" fill="#FEFEFE"/>
<path d="M146.556 16.2507C149.452 16.2956 152.347 16.2956 155.243 16.2507C153.022 21.1906 150.862 26.1304 148.761 31.0703C145.866 31.0553 142.97 31.0553 140.074 31.0703C142.325 26.1304 144.485 21.1906 146.556 16.2507Z" fill="#FEFEFE"/>
<path d="M142.235 7.2991C150.697 7.344 159.159 7.344 167.621 7.2991C166.616 9.51455 165.656 11.73 164.725 13.9455C156.263 13.8407 147.786 13.8407 139.324 13.9455C140.344 11.7599 141.319 9.52952 142.235 7.2991Z" fill="#FEFEFE"/>
</g>
</svg>
