<svg width="228" height="38" viewBox="0 0 228 38" fill="none" xmlns="http://www.w3.org/2000/svg">
<g opacity="0.7" clip-path="url(#clip0_197_1664)">
<path fill-rule="evenodd" clip-rule="evenodd" d="M106.675 33.2468C108.097 32.6054 108.14 31.6489 108.14 31.0075V23H114V31.3369C114 32.4199 113.647 33.6322 111.291 34.6244C108.186 35.9481 103.343 36 100.499 36C97.6586 36 92.8176 35.9481 89.7061 34.6244C87.3561 33.6322 87.0004 32.42 87.0004 31.3369V23H92.8591V31.0075C92.8591 31.7203 92.9092 32.5854 94.3715 33.2468C96.0162 33.9811 98.6818 34.0718 100.499 34.0718C102.188 34.0718 105.077 33.9811 106.675 33.2468ZM3.9184 35.9999C2.91821 35.9999 1.78595 35.9082 1.09 35.6667C0.609446 35.4983 0 35.1467 0 34.5903V23H5.75066V33.3448C5.75066 33.3573 5.75034 33.3704 5.75001 33.384C5.74637 33.534 5.74113 33.7496 6.14078 33.9017C6.31428 33.9588 9.11352 34.0507 10.0266 34.0507H24V35.9975L35.4909 24.4488C36.5776 23.3677 37.7568 23 40.4963 23C43.1095 23 44.4142 23.3677 45.5043 24.4488L56.9975 36H50.9459L47.8119 32.7522H33.1407L30.049 36H24L3.9184 35.9999ZM39.6605 25.7537L39.6254 25.7905L34.6179 31.0258H46.3313L41.369 25.7905L41.3289 25.7487C41.1483 25.5597 40.8607 25.2587 40.4963 25.2587C40.13 25.2587 39.8394 25.565 39.6605 25.7537ZM62.2535 36C60.8354 36 57.9993 35.9443 57.9993 34.6607C57.9993 33.8645 59.0166 33.3089 59.9061 32.9161L76.8379 25.5822C77.1054 25.4722 77.3709 25.322 77.3709 25.192C77.3709 25.1173 77.2388 24.9514 76.5301 24.9514H59.1975V23H81.4948C83.226 23 84.9993 23.2768 84.9993 24.338C84.9993 25.1554 84.1453 25.5308 83.2794 25.9114L83.226 25.9349L66.0672 33.5097L66.0631 33.5114C65.8438 33.6046 65.6234 33.6982 65.6234 33.8459C65.6234 34.0138 65.8902 34.0493 66.1558 34.0493H84.5106V35.9999L62.2535 36ZM118.261 23.52C117.045 24.0213 117 24.6713 117 25.2103L116.999 36H122.739V25.8797C122.739 25.6206 122.739 25.3785 123.347 25.1568C123.823 24.9692 124.261 24.9503 124.87 24.9503H134.173C135.087 24.9503 136.478 24.9503 137.388 25.3398C137.999 25.6003 138.477 26.1211 138.477 27.1417C138.477 27.589 138.389 28.5152 137.783 28.9259C137 29.4466 135.651 29.5012 134.652 29.5012H128.914C127.264 29.5012 126.349 29.8722 126.349 30.3937V30.6895C126.349 31.0595 127.173 31.5237 127.782 31.7848L137.783 35.9999H144.999L133.437 31.413V31.3192H137.351C140.821 31.3192 142.304 30.6153 143.085 29.9844C144.304 29.0168 144.39 27.9954 144.39 27.0504C144.39 26.1019 144.303 25.0806 142.867 24.1879C141.088 23.0532 138.477 23 136.347 23H121.912C120.787 23 119.353 23.0721 118.261 23.52ZM152.001 23H147.001V36H152.001V23ZM165.104 24.9478V36H170.96V24.9478H182.001V23H154.001V24.9478H165.104Z" fill="#1257A1"/>
<path d="M228 0H190V38H228V0Z" fill="#1257A1"/>
<path fill-rule="evenodd" clip-rule="evenodd" d="M199.57 26.03C199.57 26.7574 199.593 27.4843 199.617 28.0861L199.695 29.9999H200.871L200.58 25H199.009L198.441 26.6612C198.267 27.2177 198.086 27.8782 197.935 28.4564H197.911C197.793 27.8706 197.627 27.2469 197.463 26.6687L196.941 25.0001H195.338L195 30H196.112L196.207 28.1011C196.234 27.6782 196.254 27.1874 196.273 26.7044C196.282 26.4752 196.292 26.2476 196.301 26.03H196.317C196.444 26.6837 196.627 27.3954 196.798 27.9819L197.368 29.9181H198.307L198.953 27.9669C199.16 27.3807 199.381 26.6687 199.546 26.03H199.57ZM202.606 27.8853H204.693V26.966H202.606V25.9275H204.819V25H201.323V30H204.935V29.0725H202.606V27.8853ZM209.014 25V25.9099H206.619V26.762C206.804 26.7394 207.063 26.7258 207.282 26.7258C207.834 26.7258 208.408 26.85 208.821 27.1291C209.201 27.3788 209.452 27.7673 209.452 28.311C209.452 28.796 209.25 29.1699 208.934 29.427C208.408 29.853 207.551 30 206.716 30C206.109 30 205.663 29.963 205.387 29.9261V25H209.014ZM206.609 29.1343C206.748 29.155 206.918 29.1625 207.089 29.1625C207.387 29.1625 207.688 29.0746 207.89 28.9054C208.051 28.7745 208.155 28.5753 208.155 28.3331C208.155 28.084 208.042 27.9002 207.865 27.7753C207.647 27.6211 207.339 27.554 207.047 27.554C206.909 27.554 206.764 27.5627 206.609 27.5841V29.1343ZM211.478 27.8853H213.303V26.966H211.478V25.9275H213.413V25H210.355V30H213.516V29.0725H211.478V27.8853ZM218.032 25V29.9271H216.972V25.9139H215.903V27.0838C215.903 28.348 215.749 29.32 215.036 29.7588C214.799 29.8977 214.477 30 214.101 30L213.968 29.1002C214.198 29.0715 214.388 28.9687 214.506 28.8377C214.792 28.531 214.861 27.9024 214.861 27.1567V25H218.032ZM220.481 26.7178V25H219.387V29.9261C219.632 29.963 220.035 30 220.576 30C221.331 30 222.144 29.853 222.611 29.3686C222.848 29.1108 223 28.7597 223 28.2889C223 27.1877 222.116 26.6815 221.072 26.6815C220.864 26.6815 220.632 26.7032 220.481 26.7178ZM220.884 29.1625C220.726 29.1625 220.598 29.155 220.475 29.1343V27.5694C220.611 27.5541 220.739 27.5399 220.899 27.5399C221.424 27.5399 221.849 27.7753 221.849 28.3404C221.849 28.8993 221.416 29.1625 220.884 29.1625Z" fill="white"/>
</g>
<defs>
<clipPath id="clip0_197_1664">
<rect width="228" height="38" fill="white"/>
</clipPath>
</defs>
</svg>
