<svg width="136" height="38" viewBox="0 0 136 38" fill="none" xmlns="http://www.w3.org/2000/svg">
<path fill-rule="evenodd" clip-rule="evenodd" d="M29.2729 36.1971H36.2958V12.2751H29.2729V36.1971ZM32.7506 2C30.5223 2 28.6991 3.6696 28.6991 5.78875C28.6991 7.94027 30.5223 9.60988 32.7506 9.60988C35.0128 9.60988 36.7688 7.87614 36.7688 5.78875C36.7688 3.6696 35.0128 2 32.7506 2ZM25.7618 5.82082H17.9286L7.36043 19.4357V5.82082H0V36.1971H7.36043V21.3942L18.0972 36.1971H26.6056L14.7208 19.7888L25.7618 5.82082ZM49.7675 5.05031H42.7448V25.6007C42.7448 33.9496 45.8173 36.1971 52.5362 36.1971H55.8791V30.8025H54.8323C50.9155 30.8025 49.8349 30.0321 49.7675 25.2156V17.7017H56.3855V12.2751H49.7675V5.05031ZM104.87 22.8394V36.1971H111.893V24.6696C111.893 21.0733 112.095 17.8302 117.936 17.8302H119.827V12.2751H115.911C108.382 12.2751 104.971 15.6788 104.87 22.8394ZM61.011 15.0685V36.1971H68.0335V17.7017H74.7526V12.2751H68.0335V12.0182C68.0335 8.51838 70.5322 7.87614 74.4152 7.87614H76.2719V2.70609H74.6515C66.9874 2.70609 61.011 3.50896 61.011 15.0685ZM94.0993 24.4449C94.0993 20.5596 93.1202 16.8988 88.7982 16.8988C84.1728 16.8988 83.4979 20.6561 83.4979 23.9632C83.4979 27.8485 84.4766 31.5093 88.7982 31.5093C93.424 31.5093 94.0993 27.752 94.0993 24.4449ZM101.257 24.0595C101.359 31.766 97.3744 37 88.7982 37C80.3238 37 76.3734 31.9267 76.3397 24.3807C76.2382 16.6743 80.2223 11.4401 88.7982 11.4401C97.2733 11.4401 101.223 16.5137 101.257 24.0595ZM129.382 17.7017V25.2156C129.45 30.0321 130.53 30.8025 134.447 30.8025H135.494V36.1971H132.151C125.432 36.1971 122.359 33.9496 122.359 25.6007V5.05031H129.382V12.2751H136V17.7017H129.382Z" fill="black"/>
</svg>
