<svg width="197" height="38" viewBox="0 0 197 38" fill="none" xmlns="http://www.w3.org/2000/svg">
<g opacity="0.7" clip-path="url(#clip0_197_1669)">
<path d="M63.4844 14.1312L70.9921 8.3125H62.2232L58.5595 11.1625L54.8357 8.3125H46.1268L53.5744 14.1312H53.8146L46.307 19.95H55.0159L58.5595 17.2188L62.043 19.95H70.8119L63.3043 14.1312H63.4844Z" fill="#202020"/>
<path d="M32.0726 18.2281V15.0219H40.9015L39.34 13.3H32.0726V10.0344H42.4031L44.8055 10.45L42.9436 8.3125H32.0726H24.625H24.1445L24.625 9.7375V18.4656L24.1445 19.95H24.625H32.0726H42.9436L44.8055 17.7531L42.4031 18.2281H32.0726Z" fill="#202020"/>
<path d="M94.8964 9.7375L95.3769 8.3125H94.8964H88.1696H87.5089V13.3H80.7821V8.3125H80.1214H73.3946H72.9141L73.3946 9.7375V18.4656L72.9141 19.95H73.3946H80.1214H80.7821V15.0219H87.5089V19.95H88.1696H94.8964H95.3769L94.8964 18.4656V9.7375Z" fill="#202020"/>
<path d="M119.942 8.3125H98.7402L98.2598 9.79688V18.7031L98.9805 19.95H119.942L120.542 18.5844V9.79688L119.942 8.3125ZM105.707 18.2281V10.0344H113.155V18.2281H105.707Z" fill="#202020"/>
<path d="M172.015 9.7375L172.495 8.3125H172.015H165.288H164.627V10.2719L157.9 15.4969V8.3125H157.24H150.513H150.032L150.513 9.7375V18.4656L150.032 19.95H150.513H152.254H152.194H155.798H155.858H157.24H157.9V18.3469L164.627 13.1219V19.95H165.288H172.015H172.495L172.015 18.4656V9.7375Z" fill="#202020"/>
<path d="M20.2405 10.0344L22.5829 10.45L20.7811 8.3125H15.1954H7.80791H1.982L0.360352 10.45L2.52255 10.0344H7.80791V18.2281H7.74785L7.2073 19.95H7.80791H15.1954H15.736L15.1954 18.2281V10.0344H20.2405Z" fill="#202020"/>
<path d="M194.357 10.0344L196.76 10.45L194.898 8.3125H189.312H181.925H176.099L174.477 10.45L176.639 10.0344H181.925V18.2281H181.865L181.324 19.95H181.925H189.312H189.853L189.312 18.2281V10.0344H194.357Z" fill="#202020"/>
<path d="M146.669 9.7375L147.149 8.3125H146.669H139.942H139.281H138.26L123.365 19.95H127.029L139.281 10.3906V19.8906H139.942H146.669H147.149L146.669 18.4656V9.7375Z" fill="#202020"/>
<path d="M123.846 8.075V15.2L132.915 8.075V0.59375L123.846 8.075Z" fill="#E6610E"/>
<path d="M0.360352 31.8844H5.10517V36.8125H3.84389V32.9531H1.62163V36.8125H0.360352V31.8844Z" fill="#202020"/>
<path d="M6.42651 31.8844H8.46859C9.78993 31.8844 11.1113 31.8844 11.1113 33.725C11.1113 35.5656 9.78993 35.5656 8.46859 35.5656H7.68779V36.7531H6.42651V31.8844ZM7.68779 34.5562H8.94907C9.72987 34.5562 9.72987 34.5562 9.72987 33.7844C9.72987 33.0125 9.72987 33.0125 8.94907 33.0125H7.68779V34.5562Z" fill="#202020"/>
<path d="M14.8951 31.7656C17.3576 31.7656 17.3576 33.5469 17.3576 34.1406V34.5562C17.3576 35.15 17.3576 36.9312 14.8951 36.9312H14.4146C11.9521 36.9312 11.9521 35.15 11.9521 34.5562V34.1406C11.9521 33.5469 11.9521 31.7656 14.4146 31.7656H14.8951ZM13.2735 34.3188V34.4375C13.2735 35.7438 13.2735 35.7437 14.5948 35.7437C15.9162 35.7437 15.9162 35.7438 15.9162 34.4375V34.2594C15.9162 32.9531 15.9162 32.9531 14.5948 32.9531C13.2735 32.9531 13.2735 32.9531 13.2735 34.3188Z" fill="#202020"/>
<path d="M20.0604 35.0906C20.0604 34.6156 20.4207 34.0812 21.8622 31.9437H23.3637V36.8125H22.1024V33.6656H21.7421C21.7421 34.2 21.3817 34.7344 19.9402 36.8125H18.4387V31.8844H19.7V35.0312H20.0604V35.0906Z" fill="#202020"/>
<path d="M24.4448 36.6937V35.5656H24.8052L25.8262 35.8031H27.1476C27.6281 35.8031 27.6281 35.8031 27.6281 35.3875C27.6281 34.9719 27.6281 34.9719 27.1476 34.9719H25.8262V33.8437H27.1476C27.6281 33.8437 27.6281 33.8437 27.6281 33.4281C27.6281 33.0125 27.6281 33.0125 27.1476 33.0125H25.8262L24.8052 33.25H24.4448V32.0625C25.5259 31.825 26.1866 31.825 26.607 31.825C28.9494 31.825 29.0695 32.8937 29.0695 33.1906C29.0695 33.4281 29.0695 34.0812 28.2287 34.3187V34.4375C29.0695 34.675 29.0695 35.3281 29.0695 35.5656C29.0695 35.9219 29.0095 36.9312 26.607 36.9312C26.1866 36.9906 25.5259 36.9906 24.4448 36.6937Z" fill="#202020"/>
<path d="M32.5531 31.8844C33.454 31.8844 34.8954 31.8844 34.8954 33.1906C34.8954 33.4281 34.8954 34.0812 34.0546 34.2594V34.4375C34.8954 34.675 34.8954 35.3281 34.8954 35.5062C34.8954 36.8125 33.514 36.8125 32.5531 36.8125H30.2107V31.8844H32.5531ZM32.9735 33.8437C33.454 33.8437 33.454 33.8437 33.454 33.4281C33.454 33.0125 33.454 33.0125 32.9735 33.0125H31.472V33.8437H32.9735ZM31.472 34.9125V35.7437H32.9735C33.454 35.7437 33.454 35.7437 33.454 35.3281C33.454 34.9125 33.454 34.9125 32.9735 34.9125H31.472Z" fill="#202020"/>
<path d="M38.7394 31.7656C41.2019 31.7656 41.2019 33.5469 41.2019 34.1406V34.5562C41.2019 35.15 41.2019 36.9312 38.7394 36.9312H38.2589C35.7964 36.9312 35.7964 35.15 35.7964 34.5562V34.1406C35.7964 33.5469 35.7964 31.7656 38.2589 31.7656H38.7394ZM37.1778 34.3188V34.4375C37.1778 35.7438 37.1778 35.7437 38.4991 35.7437C39.8205 35.7437 39.8205 35.7438 39.8205 34.4375V34.2594C39.8205 32.9531 39.8205 32.9531 38.4991 32.9531C37.1778 32.9531 37.1778 32.9531 37.1778 34.3188Z" fill="#202020"/>
<path d="M41.6222 35.7437H42.1027C42.9435 34.6156 42.9435 33.1312 42.9435 31.8844H46.8475V35.7437H47.5682V36.1594C47.2079 37.4656 47.2079 37.6437 47.2079 37.8219H46.1268V37.4656L46.3069 36.8125H42.7033V37.8219H41.6222V35.7437ZM43.4841 35.7437H45.5862V33.0125H43.9646C43.9646 33.4875 43.9646 34.7344 43.4841 35.7437Z" fill="#202020"/>
<path d="M50.0308 35.0906C50.0308 34.6156 50.3912 34.0812 51.8327 31.9437H53.3342V36.8125H52.0729V33.6656H51.7125C51.7125 34.2 51.3522 34.7344 49.9107 36.8125H48.4092V31.8844H49.6705V35.0312H50.0308V35.0906Z" fill="#202020"/>
<path d="M59.0999 31.8844V32.9531H57.238V36.8125H55.9768V32.9531H54.1149V31.8844H59.0999Z" fill="#202020"/>
<path d="M61.142 35.7437H64.0249V36.8125H59.8807V31.8844H64.0249V32.9531H61.142V33.8437H63.4844V34.9125H61.142V35.7437Z" fill="#202020"/>
<path d="M69.7909 36.8125H68.5296V32.9531H66.9079C66.9079 33.9625 66.8479 35.625 65.947 36.8125H64.6256V36.3969C65.8869 34.7344 65.8869 32.2406 65.8869 31.8844H69.7909V36.8125Z" fill="#202020"/>
<path d="M71.1122 31.8844H72.3735V33.25H73.1543C74.3555 33.25 75.7369 33.25 75.7369 35.0312C75.7369 36.8125 74.4155 36.8125 73.1543 36.8125H71.1122V31.8844ZM72.3735 35.7437H73.5747C74.3555 35.7437 74.3555 35.7437 74.3555 35.0312C74.3555 34.3781 74.3555 34.3781 73.5747 34.3781H72.3735V35.7437Z" fill="#202020"/>
<path d="M79.3406 31.8844H84.0854V36.8125H82.8241V32.9531H80.6019V36.8125H79.3406V31.8844Z" fill="#202020"/>
<path d="M86.668 35.7437H89.551V36.8125H85.4067V31.8844H89.551V32.9531H86.668V33.8437H89.0104V34.9125H86.668V35.7437Z" fill="#202020"/>
<path d="M95.0164 31.8844V36.8125H93.7551V35.3281C93.0945 35.5062 92.7341 35.5656 92.2536 35.5656C90.3917 35.5656 90.3917 34.4969 90.3917 33.5469V31.9437H91.653V33.5469C91.653 34.5562 91.653 34.5562 92.674 34.5562H92.7341L93.7551 34.3187V31.9437H95.0164V31.8844Z" fill="#202020"/>
<path d="M97.6591 35.7437H100.542V36.8125H96.3978V31.8844H100.542V32.9531H97.6591V33.8437H100.001V34.9125H97.6591V35.7437Z" fill="#202020"/>
<path d="M103.245 35.0906C103.245 34.6156 103.605 34.0812 105.047 31.9437H106.548V36.8125H105.287V33.6656H104.927C104.927 34.2 104.566 34.7344 103.125 36.8125H101.623V31.8844H102.884V35.0312H103.245V35.0906ZM104.446 30.7562C104.866 30.7562 104.866 30.7562 105.047 30.5187L105.587 30.9344C105.107 31.5875 104.746 31.5875 104.206 31.5875H103.966C103.425 31.5875 103.065 31.5875 102.584 30.9344L103.125 30.5187C103.305 30.7562 103.305 30.7562 103.725 30.7562H104.446Z" fill="#202020"/>
<path d="M109.852 35.7437H110.332C111.173 34.6156 111.173 33.1312 111.173 31.8844H115.077V35.7437H115.798V36.1594C115.437 37.4656 115.437 37.6437 115.437 37.8219H114.356V37.4656L114.536 36.8125H110.933V37.8219H109.852V35.7437ZM111.713 35.7437H113.816V33.0125H112.194C112.194 33.4875 112.194 34.7344 111.713 35.7437Z" fill="#202020"/>
<path d="M121.203 36.8125H119.942V32.9531H118.32C118.32 33.9625 118.26 35.625 117.359 36.8125H116.038V36.3969C117.299 34.7344 117.299 32.2406 117.299 31.8844H121.203V36.8125Z" fill="#202020"/>
<path d="M123.365 35.15C122.885 34.7937 122.464 34.4969 122.464 33.6062C122.464 31.9437 123.846 31.9437 125.047 31.9437H127.149V36.8125H125.888V35.4468H124.326C124.326 35.9812 124.086 36.3375 123.666 36.8125H122.344V36.3969L123.365 35.15ZM125.828 33.0125H124.506C123.786 33.0125 123.786 33.0125 123.786 33.725C123.786 34.3781 123.786 34.3781 124.506 34.3781H125.828V33.0125Z" fill="#202020"/>
<path d="M130.993 31.8844H133.035C134.356 31.8844 135.678 31.8844 135.678 33.725C135.678 35.5656 134.356 35.5656 133.035 35.5656H132.254V36.7531H130.993V31.8844ZM132.254 34.5562H133.515C134.296 34.5562 134.296 34.5562 134.296 33.7844C134.296 33.0125 134.296 33.0125 133.515 33.0125H132.254V34.5562Z" fill="#202020"/>
<path d="M136.038 32.3594V31.9437H137.359C137.96 33.1312 138.14 33.4281 138.14 33.9625H139.221C139.221 33.4875 139.402 33.1312 140.002 31.9437H141.323V32.3594L139.702 35.5062C139.041 36.8125 138.38 36.8125 137.48 36.8125H137.419V35.7437H137.78C138.14 35.7437 138.14 35.7437 138.32 35.3875L138.561 34.9719H137.419L136.038 32.3594Z" fill="#202020"/>
<path d="M144.387 31.7656C146.549 31.7656 146.549 33.1312 146.549 33.4875L145.287 33.7844C145.047 32.8937 145.047 32.8937 144.206 32.8937C143.005 32.8937 143.005 32.8937 143.005 34.2V34.4375C143.005 35.7437 143.005 35.7437 144.327 35.7437H144.987L146.008 35.5062H146.369V36.6344C145.287 36.8719 144.627 36.8719 144.206 36.8719C141.684 36.8719 141.684 35.2094 141.684 34.4969V34.0812C141.684 33.4875 141.684 31.7062 144.026 31.7062H144.387V31.7656Z" fill="#202020"/>
<path d="M150.092 31.7656C152.255 31.7656 152.255 33.1312 152.255 33.4875L150.993 33.7844C150.753 32.8937 150.753 32.8937 149.912 32.8937C148.711 32.8937 148.711 32.8937 148.711 34.2V34.4375C148.711 35.7437 148.711 35.7437 150.032 35.7437H150.693L151.714 35.5062H152.074V36.6344C150.993 36.8719 150.333 36.8719 149.912 36.8719C147.39 36.8719 147.39 35.2094 147.39 34.4969V34.0812C147.39 33.4875 147.39 31.7062 149.732 31.7062H150.092V31.7656Z" fill="#202020"/>
<path d="M156.579 34.3781L158.141 36.3969V36.8125H156.759C155.978 35.8031 155.678 35.3875 155.678 34.9125H154.597V36.8125H153.336V31.8844H154.597V33.8437H155.678C155.678 33.3687 156.038 32.9531 156.759 31.9437H158.081V32.3594L156.579 34.3781Z" fill="#202020"/>
<path d="M161.744 31.7656C164.207 31.7656 164.207 33.5469 164.207 34.1406V34.5562C164.207 35.15 164.207 36.9312 161.744 36.9312H161.264C158.801 36.9312 158.801 35.15 158.801 34.5562V34.1406C158.801 33.5469 158.801 31.7656 161.264 31.7656H161.744ZM160.122 34.3188V34.4375C160.122 35.7438 160.122 35.7437 161.444 35.7437C162.765 35.7437 162.765 35.7438 162.765 34.4375V34.2594C162.765 32.9531 162.765 32.9531 161.444 32.9531C160.122 32.9531 160.122 32.9531 160.122 34.3188Z" fill="#202020"/>
<path d="M166.97 35.0906C166.97 34.6156 167.33 34.0812 168.771 31.9437H170.273V36.8125H169.012V33.6656H168.651C168.651 34.2 168.291 34.7344 166.849 36.8125H165.348V31.8844H166.609V35.0312H166.97V35.0906ZM168.111 30.7562C168.531 30.7562 168.531 30.7562 168.711 30.5187L169.252 30.9344C168.771 31.5875 168.411 31.5875 167.87 31.5875H167.63C167.09 31.5875 166.729 31.5875 166.249 30.9344L166.789 30.5187C166.97 30.7562 166.97 30.7562 167.39 30.7562H168.111Z" fill="#202020"/>
<path d="M174.117 31.8844H178.141V32.9531H175.378V33.8437H176.459C177.36 33.8437 178.681 33.8437 178.681 35.3281C178.681 36.8125 177.36 36.8125 176.459 36.8125H174.117V31.8844ZM175.378 35.7437H176.88C177.36 35.7437 177.36 35.7437 177.36 35.3281C177.36 34.9125 177.36 34.9125 176.88 34.9125H175.378V35.7437Z" fill="#202020"/>
<path d="M183.126 31.8844L184.928 36.3969V36.8125H183.726L183.306 35.7437H180.844L180.423 36.8125H179.222V36.3969L181.024 31.8844H183.126ZM181.264 34.7344H182.946C182.585 33.9031 182.465 33.4875 182.465 33.0719H181.805C181.744 33.4875 181.564 33.9031 181.264 34.7344Z" fill="#202020"/>
<path d="M187.03 33.8437H189.252V31.9437H190.513V36.8125H189.252V34.9125H187.03V36.8125H185.769V31.8844H187.03V33.8437Z" fill="#202020"/>
<path d="M193.456 35.0906C193.456 34.6156 193.817 34.0812 195.258 31.9437H196.76V36.8125H195.498V33.6656H195.138C195.138 34.2 194.778 34.7344 193.336 36.8125H191.835V31.8844H193.096V35.0312H193.456V35.0906Z" fill="#202020"/>
</g>
<defs>
<clipPath id="clip0_197_1669">
<rect width="197" height="38" fill="white"/>
</clipPath>
</defs>
</svg>
