<svg width="149" height="38" viewBox="0 0 149 38" fill="none" xmlns="http://www.w3.org/2000/svg">
<g clip-path="url(#clip0_453_3562)">
<path d="M1.04805 15.2235L1.74676 14.253C4.07575 11.3877 7.45286 9.95508 11.878 9.95508C14.4399 9.95508 16.6691 10.4018 18.5656 11.2953C20.4621 12.158 21.8928 13.4982 22.8576 15.3159C23.6229 16.7641 24.0056 18.2891 24.0056 19.8912V35.5581H19.7135V30.7979C19.3142 31.599 18.7152 32.3539 17.9168 33.0625C17.1182 33.7711 16.2699 34.3257 15.3715 34.7262C13.4084 35.7122 11.3623 36.2051 9.23289 36.2051C7.76892 36.2051 6.33825 35.9125 4.94084 35.327C3.57669 34.7416 2.51202 33.9714 1.74676 33.0162C1.14786 32.1844 0.698705 31.4142 0.399252 30.7055C0.133084 29.9661 0 29.1496 0 28.2561C0 26.9313 0.349346 25.7143 1.04805 24.6051C1.78003 23.4652 2.79482 22.5409 4.0924 21.8322C5.22363 21.2469 6.33825 20.831 7.43621 20.5844C8.53418 20.338 10.1645 20.0608 12.3271 19.7526C13.0258 19.691 13.5249 19.6294 13.8244 19.5677L19.0148 18.8745C18.9149 18.1967 18.6821 17.5652 18.316 16.9797C17.95 16.3943 17.4676 15.9014 16.8687 15.5008C15.5712 14.6074 13.9741 14.1606 12.0776 14.1606C9.3826 14.1606 7.3863 14.9155 6.0887 16.4251C5.78927 16.7948 5.58964 17.0568 5.48981 17.2108L1.04805 15.2235ZM17.9168 22.8028L13.1257 23.5422C11.329 23.8195 9.88168 24.0968 8.78371 24.3741C7.68576 24.6206 6.75415 25.052 5.98889 25.6681C5.22363 26.2536 4.84103 27.0545 4.84103 28.0713C4.84103 29.1496 5.32344 30.0894 6.28835 30.8904C7.25323 31.6915 8.41772 32.092 9.78187 32.092C11.5453 32.092 13.2422 31.6607 14.8724 30.7979C16.536 29.9353 17.6839 28.7799 18.316 27.3318C18.7152 26.5616 18.9649 25.8376 19.0646 25.1597C19.1645 24.4819 19.2145 23.6346 19.2145 22.6179L17.9168 22.8028Z" fill="black"/>
<path d="M30.0569 15.2235L30.7798 14.253C33.189 11.3877 36.6826 9.95508 41.2603 9.95508C43.9106 9.95508 46.2166 10.4018 48.1784 11.2953C50.1404 12.158 51.6207 13.4982 52.6184 15.3159C53.4102 16.7641 53.806 18.2891 53.806 19.8912V35.5581H49.3659V30.7979C48.9528 31.599 48.3332 32.3539 47.5073 33.0625C46.6811 33.7711 45.8034 34.3257 44.8742 34.7262C42.8437 35.7122 40.727 36.2051 38.5239 36.2051C37.0095 36.2051 35.5295 35.9125 34.084 35.327C32.6728 34.7416 31.5714 33.9714 30.7798 33.0162C30.1602 32.1844 29.6955 31.4142 29.3858 30.7055C29.1104 29.9661 28.9727 29.1496 28.9727 28.2561C28.9727 26.9313 29.3341 25.7143 30.0569 24.6051C30.8141 23.4652 31.8639 22.5409 33.2063 21.8322C34.3764 21.2469 35.5295 20.831 36.6654 20.5844C37.8012 20.338 39.4879 20.0608 41.7248 19.7526C42.4477 19.691 42.9639 19.6294 43.2738 19.5677L48.6431 18.8745C48.5398 18.1967 48.2991 17.5652 47.9203 16.9797C47.5419 16.3943 47.0426 15.9014 46.423 15.5008C45.0807 14.6074 43.4286 14.1606 41.4667 14.1606C38.6787 14.1606 36.6138 14.9155 35.2714 16.4251C34.9615 16.7948 34.7551 17.0568 34.6518 17.2108L30.0569 15.2235ZM47.5073 22.8028L42.5509 23.5422C40.6923 23.8195 39.195 24.0968 38.0593 24.3741C36.9235 24.6206 35.9597 25.052 35.1681 25.6681C34.3764 26.2536 33.9807 27.0545 33.9807 28.0713C33.9807 29.1496 34.4797 30.0894 35.4779 30.8904C36.476 31.6915 37.6807 32.092 39.0919 32.092C40.9162 32.092 42.6715 31.6607 44.3579 30.7979C46.079 29.9353 47.2665 28.7799 47.9203 27.3318C48.3332 26.5616 48.5914 25.8376 48.6947 25.1597C48.798 24.4819 48.8497 23.6346 48.8497 22.6179L47.5073 22.8028Z" fill="black"/>
<path d="M67.5032 25.7998C67.5032 27.1373 67.5191 28.1016 67.5515 28.6926C67.6157 29.2525 67.7927 29.7501 68.0825 30.1856C68.3724 30.6833 68.7751 31.1032 69.2901 31.4454C69.8378 31.7564 70.4173 31.943 71.0295 32.0053C71.3193 32.0363 71.77 32.0519 72.382 32.0519C73.3157 32.0519 74.2981 31.9742 75.3283 31.8186V35.7845C74.2656 36.0645 73.0097 36.2045 71.5604 36.2045C70.6269 36.2045 69.7573 36.1267 68.9523 35.9712C66.4726 35.4113 64.7819 34.2604 63.88 32.5185C63.4293 31.6787 63.1395 30.7766 63.0104 29.8124C62.8817 28.817 62.8176 27.5728 62.8176 26.0798V14.2754H57.1172V10.5895H62.8176V3.59082H67.5032V10.5895H75.3283V14.2754H67.5032V25.7998Z" fill="black"/>
<path d="M93.1011 36.2051C91.1458 36.2051 89.3209 35.8521 87.6266 35.1459C85.9323 34.4397 84.5149 33.4265 83.3742 32.1064C81.3213 29.7117 80.2949 26.7028 80.2949 23.0801C80.2949 19.4573 81.3213 16.4331 83.3742 14.0077C84.482 12.7182 85.8995 11.7204 87.6266 11.0143C89.3538 10.3081 91.1783 9.95508 93.1011 9.95508C95.0562 9.95508 96.8811 10.3081 98.5753 11.0143C100.303 11.6897 101.736 12.6876 102.877 14.0077C104.93 16.4331 105.956 19.4573 105.956 23.0801C105.956 26.6415 104.93 29.6502 102.877 32.1064C101.704 33.4573 100.27 34.4857 98.5753 35.1919C96.9135 35.8673 95.0887 36.2051 93.1011 36.2051ZM99.1131 29.3893C100.319 27.885 100.922 25.7818 100.922 23.0801C100.922 20.3476 100.319 18.2292 99.1131 16.7248C98.4612 15.8959 97.5978 15.2665 96.5225 14.8367C95.4796 14.4068 94.3395 14.1919 93.1011 14.1919C91.8627 14.1919 90.7223 14.4068 89.6795 14.8367C88.6367 15.2665 87.7897 15.8959 87.1379 16.7248C85.9323 18.2292 85.3294 20.3476 85.3294 23.0801C85.3294 25.7818 85.9323 27.885 87.1379 29.3893C87.7897 30.2182 88.6367 30.863 89.6795 31.3235C90.7223 31.7534 91.8627 31.9682 93.1011 31.9682C94.3395 31.9682 95.4796 31.7534 96.5225 31.3235C97.5653 30.863 98.4287 30.2182 99.1131 29.3893Z" fill="black"/>
<path d="M145.969 12.0782C147.176 13.0755 147.974 14.2497 148.365 15.6008C148.789 16.9519 149 18.6408 149 20.6674L148.952 36.2051H144.209L144.258 20.6674C144.258 19.3806 144.128 18.3834 143.867 17.6757C143.638 16.9358 143.15 16.2281 142.401 15.5525C141.944 15.1021 141.39 14.7482 140.738 14.491C140.087 14.2336 139.434 14.1049 138.782 14.1049C137.935 14.1049 137.137 14.2818 136.387 14.6357C135.637 14.9574 135.002 15.4238 134.48 16.0351C133.959 16.6463 133.601 17.2897 133.405 17.9652C133.242 18.6085 133.16 19.3646 133.16 20.2331V20.6674V36.2051H128.418V20.6674C128.418 19.3806 128.304 18.3834 128.076 17.6757C127.848 16.9358 127.359 16.2281 126.609 15.5525C125.566 14.5875 124.344 14.1049 122.943 14.1049C122.095 14.1049 121.296 14.2818 120.547 14.6357C119.83 14.9574 119.211 15.4238 118.689 16.0351C118.135 16.6463 117.76 17.2897 117.565 17.9652C117.402 18.6085 117.32 19.3646 117.32 20.2331V36.2051H112.578V10.1481H116.783V13.4776C117.663 12.3839 118.754 11.5314 120.058 10.9201C121.394 10.2768 122.796 9.95508 124.263 9.95508C125.305 9.95508 126.332 10.1481 127.343 10.5341C128.385 10.888 129.314 11.4027 130.129 12.0782C130.879 12.6895 131.514 13.4294 132.036 14.298L132.183 14.0084C133.03 12.7538 134.154 11.7726 135.556 11.0649C136.99 10.325 138.489 9.95508 140.054 9.95508C141.096 9.95508 142.14 10.1481 143.183 10.5341C144.225 10.888 145.154 11.4027 145.969 12.0782Z" fill="black"/>
</g>
<defs>
<clipPath id="clip0_453_3562">
<rect width="149" height="38" fill="white"/>
</clipPath>
</defs>
</svg>
