<svg width="217" height="38" viewBox="0 0 217 38" fill="none" xmlns="http://www.w3.org/2000/svg">
<path d="M6.26902 0H6.3504C7.02513 0.384002 7.7982 0.5518 8.53396 0.797045C13.9352 2.55571 19.3636 4.23692 24.7581 6.01495C23.5612 6.09562 22.3677 5.98268 21.1708 5.99881C17.1767 6.00849 13.1791 6.00527 9.18496 5.96009C6.55723 10.2648 3.93627 14.5727 1.30176 18.8774V18.3191L1.3594 18.4934C3.00385 12.3332 4.63813 6.16661 6.26902 0Z" fill="#373736"/>
<path d="M16.0747 11.4168C16.1968 10.9457 16.2714 10.4584 16.4985 10.0195C16.6443 13.8273 16.7935 17.6382 16.9631 21.4428C19.3975 22.0946 21.8218 22.7787 24.2529 23.4402C24.8395 23.6048 25.443 23.7339 26.0025 23.9727C21.6252 24.105 17.2445 24.2405 12.8672 24.3405C13.9285 20.0294 15.0067 15.7247 16.0747 11.4168Z" fill="#373736"/>
<path d="M25.6973 6.16699C26.1279 6.45419 26.4907 6.81883 26.8772 7.15765C31.424 11.2235 36.0014 15.2669 40.5312 19.3489C35.6352 23.6052 30.7696 27.8905 25.9143 32.1887C26.1686 31.5724 26.5687 31.0303 26.8942 30.4494C29.1082 26.7256 31.3155 22.9953 33.5398 19.2779C30.9426 14.899 28.2775 10.5556 25.6973 6.16699Z" fill="#FDC800"/>
<path d="M49.0889 9.23242C49.9806 9.23242 50.8757 9.23242 51.7709 9.23242C51.7675 15.1086 51.7675 20.9816 51.7675 26.8545C56.3109 26.8578 60.8543 26.8578 65.3978 26.8578C65.3978 27.6387 65.3978 28.4228 65.3978 29.2037C59.9626 29.2005 54.5274 29.2037 49.0889 29.2037C49.0889 22.5466 49.0889 15.8895 49.0889 9.23242Z" fill="#646363"/>
<path d="M68.0801 13.7664C68.9616 13.7664 69.8398 13.7632 70.7214 13.7697C70.7146 18.9133 70.7146 24.057 70.7248 29.1975C69.8432 29.2072 68.9616 29.2007 68.0801 29.2039C68.0801 24.057 68.0801 18.9101 68.0801 13.7664Z" fill="#646363"/>
<path d="M79.8899 14.7468C82.1853 13.7271 84.7995 13.5915 87.2781 13.8852C89.7837 14.2111 92.1673 15.4018 93.7372 17.3154C93.0896 17.7736 92.4352 18.2221 91.7673 18.6545C90.1601 16.7571 87.5018 15.9181 85.0063 15.9827C82.6702 15.9343 80.212 16.7281 78.6896 18.4803C77.0926 20.2744 77.1299 23.1754 78.7778 24.9276C80.3002 26.625 82.7211 27.3672 85.0131 27.322C87.1831 27.3478 89.5396 26.7896 91.0959 25.2632C91.7266 24.7308 91.3875 23.866 91.4723 23.169C90.0923 23.1496 88.7123 23.1722 87.3323 23.1561C87.3391 22.4332 87.3391 21.7104 87.3323 20.9876C89.56 20.9747 91.7876 20.9844 94.0186 20.9811C94.0051 22.501 94.039 24.0209 94.0051 25.5375C93.4287 26.5992 92.442 27.4317 91.418 28.1061C88.9768 29.6615 85.8947 29.9261 83.0466 29.6002C80.5002 29.2872 78.0081 28.1126 76.4348 26.1409C74.8345 24.1532 74.5497 21.3684 75.4516 19.0482C76.2348 17.1056 77.9538 15.6277 79.8899 14.7468Z" fill="#646363"/>
<path d="M98.623 13.782C99.491 13.7465 100.359 13.7691 101.227 13.7659C101.227 15.7762 101.23 17.7898 101.227 19.8034C105.011 19.8099 108.792 19.8099 112.575 19.8034C112.569 17.7898 112.572 15.7762 112.572 13.7659C113.42 13.7659 114.271 13.7659 115.122 13.7659C115.122 18.9095 115.122 24.0565 115.122 29.2034C114.271 29.2034 113.42 29.2034 112.572 29.2034C112.575 26.7993 112.565 24.3953 112.575 21.9945C108.792 21.9783 105.011 21.9848 101.224 21.9912C101.23 24.3953 101.227 26.7993 101.227 29.2034C100.359 29.2001 99.491 29.2163 98.623 29.1872C98.64 24.0532 98.6468 18.9192 98.623 13.782Z" fill="#646363"/>
<path d="M117.627 13.7627C123.049 13.7659 128.47 13.7659 133.892 13.7627C133.892 14.4887 133.892 15.218 133.892 15.9441C131.603 15.9441 129.318 15.9409 127.033 15.9441C127.033 20.3649 127.033 24.7826 127.033 29.2034C126.178 29.197 125.324 29.2196 124.473 29.1873C124.5 24.7729 124.476 20.3585 124.483 15.9441C122.198 15.9441 119.912 15.9441 117.627 15.9441C117.627 15.218 117.627 14.4887 117.627 13.7627Z" fill="#646363"/>
<path d="M135.441 13.763C136.286 13.8146 137.208 13.6694 138.011 13.8307C139.337 17.5255 140.602 21.2429 141.907 24.9442C143.284 21.2365 144.627 17.5158 145.939 13.7855C146.668 13.75 147.4 13.7662 148.129 13.7662C149.326 17.0512 150.506 20.3426 151.696 23.6308C151.852 24.0503 151.964 24.4924 152.215 24.8764C153.534 21.1881 154.815 17.4836 156.111 13.7855C156.962 13.7468 157.813 13.7662 158.667 13.7726C156.85 18.9163 155.029 24.0568 153.225 29.2037C152.595 29.2037 151.967 29.2037 151.337 29.2005C150.14 25.8735 148.919 22.553 147.722 19.2229C147.498 18.6323 147.312 18.0289 147.037 17.4545C145.627 21.3655 144.176 25.2669 142.782 29.1875C142.162 29.2069 141.541 29.2069 140.921 29.2037C139.093 24.0568 137.259 18.9131 135.441 13.763Z" fill="#646363"/>
<path d="M160.698 13.7788C165.788 13.7434 170.877 13.7756 175.963 13.7659C175.963 14.492 175.963 15.218 175.963 15.9441C171.742 15.9473 167.52 15.9376 163.299 15.9473C163.302 17.2865 163.306 18.6289 163.299 19.968C166.069 19.9842 168.839 19.9713 171.609 19.9745C171.609 20.7006 171.609 21.4266 171.609 22.1527C168.839 22.1559 166.069 22.1462 163.299 22.1591C163.306 23.779 163.306 25.3989 163.299 27.0188C167.754 27.0317 172.213 27.0188 176.668 27.0253C176.665 27.7513 176.665 28.4774 176.668 29.2034C171.345 29.1938 166.022 29.2228 160.698 29.1905C160.715 24.0533 160.719 18.9161 160.698 13.7788Z" fill="#646363"/>
<path d="M179.218 13.7662C182.866 13.763 186.511 13.7694 190.159 13.763C191.522 13.7049 192.974 13.9146 194.086 14.7246C195.92 16.0315 196.154 18.7518 194.96 20.5266C194.265 21.5818 193.065 22.2691 191.787 22.4788C193.224 24.728 194.686 26.9675 196.14 29.2037C195.201 29.2005 194.265 29.2037 193.33 29.2037C191.797 26.9707 190.281 24.728 188.752 22.4885C186.423 22.495 184.093 22.4788 181.761 22.4982C181.774 24.7344 181.764 26.9675 181.768 29.2037C180.916 29.2037 180.065 29.2037 179.218 29.2037C179.218 24.0568 179.218 18.9099 179.218 13.7662ZM181.761 15.9508C181.768 17.4029 181.771 18.8518 181.761 20.3039C184.507 20.32 187.254 20.3104 189.997 20.3071C190.929 20.2942 192.017 20.2426 192.658 19.4972C193.397 18.5711 193.279 16.977 192.173 16.3509C191.465 15.9379 190.603 15.9702 189.807 15.9444C187.125 15.9476 184.443 15.9347 181.761 15.9508Z" fill="#646363"/>
<path d="M199.969 13.7659C200.83 13.7659 201.695 13.7659 202.559 13.7627C202.563 16.0118 202.559 18.2578 202.559 20.5069C205.458 18.3352 208.222 15.9925 211.073 13.7627C212.212 13.7691 213.352 13.7595 214.491 13.7691C212.233 15.6117 209.941 17.4123 207.703 19.2742C210.307 22.5818 212.904 25.8958 215.508 29.2034C214.616 29.1937 213.725 29.2163 212.833 29.2002C212.578 29.2583 212.45 29.0292 212.321 28.8775C210.185 26.1411 208.005 23.4369 205.865 20.707C204.77 21.5847 203.692 22.485 202.58 23.3466C202.542 25.2956 202.559 27.2415 202.569 29.1905C201.701 29.2163 200.833 29.2002 199.969 29.2034C199.969 24.0565 199.969 18.9096 199.969 13.7659Z" fill="#646363"/>
<path d="M1.30176 19.7549C4.10241 24.0047 6.78779 28.3191 9.56132 32.585C12.6095 32.6786 15.6577 32.6205 18.7058 32.6367C20.8284 32.6109 22.9475 32.7044 25.07 32.6915C24.3038 32.9271 23.5205 33.0981 22.7441 33.2853C17.4174 34.5728 12.0975 35.87 6.77084 37.1511C4.97041 31.4685 3.16999 25.786 1.38313 20.1002L1.30176 20.3002V19.7549Z" fill="#646363"/>
</svg>
