<svg width="167" height="38" viewBox="0 0 167 38" fill="none" xmlns="http://www.w3.org/2000/svg">
<path d="M9.92266 9.82067H19.6749C19.684 9.82073 19.6929 9.82308 19.7008 9.82748C19.7087 9.83188 19.7153 9.8382 19.7201 9.84584C19.7249 9.85348 19.7276 9.86219 19.728 9.87116C19.7284 9.88012 19.7265 9.88904 19.7225 9.89708L17.2874 14.7178C17.283 14.7265 17.2762 14.7339 17.2678 14.7391C17.2594 14.7443 17.2497 14.7471 17.2398 14.7472L9.92266 14.7281C9.90849 14.7281 9.89489 14.7336 9.88487 14.7436C9.87484 14.7535 9.86921 14.7669 9.86921 14.781V24.4606C9.86921 24.4746 9.86358 24.488 9.85356 24.498C9.84353 24.5079 9.82993 24.5135 9.81576 24.5135H4.98565C4.97147 24.5135 4.95787 24.5079 4.94785 24.498C4.93783 24.488 4.93219 24.4746 4.93219 24.4606V4.98821C4.93219 4.97419 4.92656 4.96073 4.91654 4.95081C4.90651 4.94089 4.89292 4.93532 4.87874 4.93532H2.47928C2.46938 4.93525 2.4597 4.93247 2.45132 4.92728C2.44293 4.92209 2.43616 4.9147 2.43176 4.90594L0.00557002 0.108739C0.00154032 0.100702 -0.00035729 0.091784 5.54227e-05 0.0828218C0.000468136 0.0738596 0.00317776 0.0651487 0.00792941 0.057508C0.0126811 0.0498674 0.0193186 0.0435476 0.0272177 0.0391443C0.0351169 0.034741 0.044018 0.0323997 0.0530841 0.0323378H24.6224C24.6314 0.0323997 24.6403 0.034741 24.6482 0.0391443C24.6561 0.0435476 24.6628 0.0498674 24.6675 0.057508C24.6723 0.0651487 24.675 0.0738596 24.6754 0.0828218C24.6758 0.091784 24.6739 0.100702 24.6699 0.108739L22.2452 4.90594C22.2408 4.9147 22.234 4.92209 22.2256 4.92728C22.2172 4.93247 22.2075 4.93525 22.1976 4.93532L9.92266 4.93385C9.90849 4.93385 9.89489 4.93942 9.88487 4.94934C9.87484 4.95926 9.86921 4.97272 9.86921 4.98675V9.76778C9.86921 9.77472 9.87059 9.7816 9.87328 9.78802C9.87597 9.79444 9.8799 9.80027 9.88487 9.80518C9.88983 9.81009 9.89572 9.81399 9.90221 9.81665C9.90869 9.8193 9.91565 9.82067 9.92266 9.82067Z" fill="#626262"/>
<path d="M29.6396 0.091108C29.6516 0.0676788 29.6701 0.0480062 29.6929 0.0342636C29.7157 0.020521 29.7419 0.0132436 29.7687 0.0132364H32.0123C32.0466 0.0132364 32.0794 0.0268595 32.1036 0.0511073C32.1279 0.0753551 32.1415 0.108242 32.1415 0.142534V24.44C32.1415 24.4595 32.1336 24.4782 32.1197 24.4919C32.1058 24.5057 32.0869 24.5135 32.0672 24.5135H27.2802C27.2287 24.5135 27.203 24.488 27.203 24.4371C27.2089 18.0584 27.2064 11.6808 27.1955 5.30411C27.1955 5.0749 27.246 4.85745 27.347 4.65175C28.0864 3.13937 28.8506 1.61916 29.6396 0.091108Z" fill="#626262"/>
<path d="M51.9682 19.6737L54.3514 24.3944C54.3577 24.4071 54.3607 24.4211 54.36 24.4353C54.3593 24.4494 54.3549 24.4631 54.3473 24.475C54.3397 24.487 54.3291 24.4968 54.3166 24.5035C54.304 24.5103 54.2899 24.5137 54.2756 24.5135H37.1616C37.1396 24.5135 37.1184 24.5048 37.1028 24.4894C37.0872 24.4739 37.0785 24.453 37.0785 24.4312V0.0955157C37.0785 0.0736938 37.0872 0.0527655 37.1028 0.0373351C37.1184 0.0219046 37.1396 0.0132364 37.1616 0.0132364H41.9338C41.9559 0.0132364 41.977 0.0219046 41.9926 0.0373351C42.0082 0.0527655 42.017 0.0736938 42.017 0.0955157L42.0155 19.5458C42.0155 19.5677 42.0243 19.5886 42.0399 19.604C42.0555 19.6194 42.0766 19.6281 42.0987 19.6281H51.894C51.9094 19.6281 51.9245 19.6324 51.9376 19.6405C51.9508 19.6485 51.9613 19.66 51.9682 19.6737Z" fill="#626262"/>
<path d="M59.3062 0.0176442C59.3213 0.0176142 59.3361 0.0218727 59.349 0.02993C59.3619 0.0379873 59.3723 0.049516 59.379 0.0631915C60.1332 1.57165 60.9004 3.08648 61.6804 4.60767C61.7834 4.80847 61.8348 5.02054 61.8348 5.24387C61.8388 11.645 61.8393 18.0432 61.8363 24.4385C61.8363 24.4584 61.8284 24.4775 61.8142 24.4915C61.7999 24.5056 61.7807 24.5135 61.7606 24.5135H59.428C59.3824 24.5135 59.3493 24.4929 59.3285 24.4517C58.5395 22.9266 57.7669 21.3947 57.0107 19.8558C56.9107 19.6511 56.8607 19.4347 56.8607 19.2064C56.8647 12.8376 56.8652 6.47904 56.8622 0.130779C56.8622 0.115026 56.8653 0.0994292 56.8715 0.0848935C56.8776 0.0703577 56.8866 0.0571718 56.8979 0.0461011C56.9093 0.0350305 56.9227 0.0262955 56.9375 0.0204018C56.9522 0.014508 56.968 0.0115736 56.9839 0.0117681L59.3062 0.0176442Z" fill="#626262"/>
<path d="M74.1989 19.7016V24.44C74.1989 24.489 74.1742 24.5135 74.1247 24.5135H69.3361C69.2866 24.5135 69.2619 24.489 69.2619 24.44V5.02788C69.2619 5.00334 69.252 4.97979 69.2345 4.96243C69.217 4.94507 69.1932 4.93532 69.1684 4.93532H66.8699C66.8204 4.93532 66.7842 4.91328 66.7615 4.8692L64.3457 0.104331C64.34 0.0935423 64.3373 0.0815018 64.3378 0.0693719C64.3382 0.057242 64.3419 0.0454332 64.3483 0.0350904C64.3547 0.0247475 64.3637 0.0162205 64.3744 0.0103326C64.3852 0.00444472 64.3973 0.00139567 64.4095 0.00148144C69.3945 0.0426212 74.39 0.0612328 79.3958 0.0573148C84.6713 0.0543762 88.9714 4.55184 89.0441 9.63114C89.1095 14.2564 85.8963 18.3954 81.2741 19.3842C79.2518 19.8162 76.5167 19.6413 74.2821 19.6193C74.2266 19.6183 74.1989 19.6457 74.1989 19.7016ZM74.1722 5.00144L74.2227 14.684C74.2227 14.6984 74.2285 14.7122 74.2388 14.7224C74.2491 14.7326 74.263 14.7383 74.2776 14.7383L79.1434 14.7134C80.4586 14.7067 81.7173 14.1895 82.6426 13.2755C83.5679 12.3615 84.084 11.1257 84.0774 9.83977V9.74574C84.0742 9.10898 83.9426 8.4791 83.6904 7.89207C83.4381 7.30504 83.07 6.77236 82.6072 6.32443C82.1443 5.87651 81.5957 5.52212 80.9927 5.28151C80.3897 5.04089 79.7442 4.91877 79.0929 4.9221L74.2271 4.94707C74.2126 4.94707 74.1986 4.9528 74.1883 4.963C74.178 4.97319 74.1722 4.98702 74.1722 5.00144Z" fill="#626262"/>
<path d="M93.9099 4.93532H91.6129C91.5893 4.93532 91.5662 4.92885 91.5463 4.91664C91.5263 4.90444 91.5103 4.88698 91.5 4.86626L89.0991 0.117557C89.0926 0.105125 89.0896 0.0912591 89.0902 0.0773137C89.0908 0.0633682 89.0951 0.0498179 89.1025 0.037981C89.11 0.0261442 89.1205 0.0164244 89.1329 0.0097707C89.1453 0.00311698 89.1592 -0.000243827 89.1733 1.37684e-05C94.2098 0.038215 99.2532 0.0548663 104.304 0.0499687C105.068 0.0489892 105.864 0.172898 106.691 0.421696C110.578 1.59124 113.342 4.89271 113.738 8.89356C114.218 13.7378 110.954 18.2455 106.169 19.3416C105.464 19.5042 104.481 19.5953 103.22 19.6149C101.829 19.6364 100.438 19.6359 99.0473 19.6134C98.9879 19.6124 98.9583 19.6418 98.9583 19.7016V24.4356C98.9583 24.4562 98.95 24.476 98.9352 24.4907C98.9204 24.5053 98.9004 24.5135 98.8795 24.5135H94.0955C94.0659 24.5135 94.0376 24.5019 94.0167 24.4812C93.9958 24.4605 93.9841 24.4325 93.9841 24.4033V5.00878C93.9841 4.95981 93.9594 4.93532 93.9099 4.93532ZM98.9479 4.98528L98.9657 14.6649C98.9657 14.6809 98.9721 14.6962 98.9835 14.7075C98.9949 14.7188 99.0104 14.7251 99.0266 14.7251L103.84 14.7163C105.168 14.7139 106.44 14.1958 107.377 13.2757C108.314 12.3557 108.839 11.1092 108.837 9.81039V9.80451C108.836 9.1614 108.705 8.52483 108.452 7.93112C108.2 7.33741 107.83 6.7982 107.364 6.34428C106.899 5.89036 106.346 5.53062 105.739 5.28559C105.131 5.04056 104.48 4.91505 103.823 4.91622L99.0087 4.92503C98.9926 4.92503 98.9771 4.93138 98.9657 4.94268C98.9543 4.95398 98.9479 4.9693 98.9479 4.98528Z" fill="#626262"/>
<path d="M144.728 13.466V0.102863C144.728 0.0912856 144.73 0.0798215 144.735 0.0691258C144.739 0.0584301 144.746 0.0487114 144.754 0.0405253C144.762 0.0323392 144.772 0.0258476 144.783 0.0214173C144.794 0.016987 144.805 0.0147049 144.817 0.0147049L149.576 0.0132364C149.599 0.0132364 149.622 0.0225243 149.639 0.0390569C149.655 0.0555895 149.665 0.0780134 149.665 0.101394V11.4178C149.665 11.4295 149.667 11.4412 149.672 11.452C149.676 11.4629 149.683 11.4727 149.691 11.481L155.801 17.527C155.818 17.5432 155.841 17.5522 155.864 17.5522C155.887 17.5522 155.91 17.5432 155.926 17.527L162.036 11.481C162.045 11.4727 162.051 11.4629 162.056 11.452C162.061 11.4412 162.063 11.4295 162.063 11.4178L162.061 0.105802C162.061 0.0824211 162.071 0.0599971 162.088 0.0434645C162.104 0.0269319 162.127 0.0176441 162.151 0.0176441L166.911 0.011768C166.935 0.011768 166.957 0.0210558 166.974 0.0375884C166.991 0.054121 167 0.0765427 167 0.0999233V13.438C167 13.4498 166.998 13.4614 166.993 13.4723C166.989 13.4831 166.982 13.493 166.973 13.5012L155.911 24.4488C155.895 24.465 155.872 24.474 155.849 24.474C155.826 24.474 155.803 24.465 155.787 24.4488L144.754 13.5291C144.746 13.5209 144.739 13.5111 144.735 13.5002C144.73 13.4894 144.728 13.4777 144.728 13.466Z" fill="#626262"/>
<path d="M141.622 12.2685C141.622 13.875 141.302 15.4657 140.68 16.9499C140.059 18.4341 139.149 19.7827 138.001 20.9187C136.853 22.0546 135.49 22.9557 133.99 23.5705C132.49 24.1853 130.882 24.5017 129.259 24.5017C125.98 24.5017 122.836 23.2129 120.517 20.9187C118.199 18.6245 116.896 15.5129 116.896 12.2685C116.896 9.02404 118.199 5.91247 120.517 3.6183C122.836 1.32413 125.98 0.0352747 129.259 0.0352747C132.538 0.0352747 135.682 1.32413 138.001 3.6183C140.319 5.91247 141.622 9.02404 141.622 12.2685ZM136.671 12.2685C136.671 10.3232 135.89 8.45763 134.5 7.08212C133.11 5.70661 131.225 4.93385 129.259 4.93385C127.293 4.93385 125.408 5.70661 124.018 7.08212C122.628 8.45763 121.847 10.3232 121.847 12.2685C121.847 14.2138 122.628 16.0794 124.018 17.4549C125.408 18.8304 127.293 19.6031 129.259 19.6031C131.225 19.6031 133.11 18.8304 134.5 17.4549C135.89 16.0794 136.671 14.2138 136.671 12.2685Z" fill="#626262"/>
<path d="M41.4216 31.9127C41.4216 31.8975 41.4277 31.883 41.4385 31.8722C41.4494 31.8615 41.4641 31.8554 41.4795 31.8554H43.8359C44.6644 31.8554 45.4591 32.1748 46.0449 32.7432C46.6308 33.3117 46.9599 34.0827 46.9599 34.8866V34.9512C46.9599 35.7551 46.6308 36.5261 46.0449 37.0945C45.4591 37.663 44.6644 37.9823 43.8359 37.9823H41.4795C41.4641 37.9823 41.4494 37.9763 41.4385 37.9656C41.4277 37.9548 41.4216 37.9402 41.4216 37.925V31.9127ZM42.6406 33.1499L42.6525 36.6879C42.6529 36.7056 42.6602 36.7224 42.673 36.7347C42.6858 36.7471 42.7029 36.754 42.7208 36.754L43.8418 36.7511C44.0905 36.7503 44.3367 36.7027 44.5662 36.6111C44.7956 36.5194 45.0039 36.3855 45.1792 36.217C45.3545 36.0485 45.4932 35.8487 45.5876 35.629C45.6819 35.4092 45.73 35.174 45.729 34.9365V34.8778C45.7271 34.3987 45.526 33.9399 45.1699 33.6024C44.8138 33.2649 44.3318 33.0763 43.8299 33.0779L42.7089 33.0808C42.6998 33.0808 42.6908 33.0826 42.6824 33.0861C42.674 33.0896 42.6664 33.0947 42.6601 33.1011C42.6537 33.1076 42.6487 33.1152 42.6454 33.1236C42.642 33.1319 42.6404 33.1409 42.6406 33.1499Z" fill="#626262"/>
<path d="M56.8978 37.9368L56.8889 35.8005C56.889 35.7911 56.8864 35.782 56.8815 35.774L54.4568 31.9377C54.452 31.9301 54.4494 31.9214 54.4492 31.9125C54.4489 31.9036 54.4511 31.8947 54.4555 31.8869C54.4599 31.8791 54.4664 31.8727 54.4742 31.8681C54.4819 31.8636 54.4908 31.8613 54.4998 31.8613L55.8496 31.8599C55.8582 31.8598 55.8666 31.862 55.8742 31.8661C55.8817 31.8702 55.8881 31.8761 55.8926 31.8834L57.4532 34.3958C57.4577 34.4031 57.464 34.4091 57.4715 34.4133C57.4791 34.4175 57.4876 34.4197 57.4962 34.4197C57.5049 34.4197 57.5134 34.4175 57.5209 34.4133C57.5284 34.4091 57.5348 34.4031 57.5393 34.3958L59.1102 31.8834C59.1148 31.8761 59.1211 31.8702 59.1287 31.8661C59.1362 31.862 59.1447 31.8598 59.1533 31.8599H60.5015C60.5105 31.8598 60.5194 31.8622 60.5272 31.8667C60.535 31.8712 60.5414 31.8777 60.5458 31.8855C60.5502 31.8933 60.5524 31.9021 60.5522 31.911C60.552 31.92 60.5493 31.9287 60.5445 31.9363L58.1332 35.7549C58.1283 35.7629 58.1257 35.772 58.1258 35.7814V37.9485C58.1258 37.9618 58.1205 37.9745 58.111 37.9839C58.1015 37.9932 58.0887 37.9985 58.0753 37.9985L56.9468 37.9853C56.934 37.9849 56.9217 37.9797 56.9126 37.9707C56.9035 37.9617 56.8982 37.9495 56.8978 37.9368Z" fill="#626262"/>
<path d="M69.2574 34.2533L69.2634 37.8501C69.2634 37.87 69.2594 37.8898 69.2516 37.9081C69.2438 37.9265 69.2324 37.9432 69.218 37.9571C69.2036 37.9711 69.1866 37.9821 69.1678 37.9894C69.1491 37.9968 69.1291 38.0004 69.109 38L68.0978 37.975C68.0723 37.9742 68.0482 37.9638 68.0304 37.946C68.0127 37.9282 68.0028 37.9043 68.0028 37.8795L67.9983 31.9524C67.9983 31.8907 68.0295 31.8599 68.0919 31.8599H69.1802C69.2039 31.8599 69.2272 31.8658 69.248 31.8771C69.2687 31.8884 69.2863 31.9047 69.299 31.9245L71.6376 35.5624C71.6436 35.5711 71.6522 35.5777 71.6622 35.5812C71.6722 35.5847 71.6831 35.5851 71.6933 35.5821C71.7035 35.5792 71.7125 35.5732 71.719 35.5649C71.7255 35.5566 71.7293 35.5465 71.7297 35.536L71.7044 31.9554C71.7042 31.9429 71.7066 31.9305 71.7113 31.9189C71.7161 31.9073 71.7232 31.8968 71.7322 31.8879C71.7411 31.879 71.7518 31.872 71.7637 31.8672C71.7755 31.8623 71.7881 31.8599 71.8009 31.8599H72.8819C72.9433 31.8599 72.9739 31.8907 72.9739 31.9524V37.9045C72.9739 37.9271 72.9649 37.9487 72.9487 37.9647C72.9326 37.9807 72.9107 37.9897 72.8878 37.9897L71.8395 37.9956C71.7732 37.9965 71.7217 37.9691 71.6851 37.9133C70.8922 36.6908 70.1038 35.465 69.3198 34.2357C69.2782 34.171 69.2574 34.1769 69.2574 34.2533Z" fill="#626262"/>
<path d="M84.5629 36.4543L82.4011 36.4499C82.3818 36.45 82.3631 36.4558 82.3472 36.4665C82.3313 36.4773 82.3191 36.4924 82.312 36.5101L81.7359 37.9339C81.7288 37.9515 81.7165 37.9667 81.7006 37.9774C81.6847 37.9882 81.666 37.994 81.6468 37.9941H80.5257C80.51 37.994 80.4946 37.9901 80.4808 37.9828C80.4669 37.9754 80.4551 37.9649 80.4463 37.952C80.4375 37.9391 80.4321 37.9243 80.4304 37.9088C80.4287 37.8934 80.4308 37.8778 80.4366 37.8633L82.8406 31.9201C82.8477 31.9024 82.8599 31.8872 82.8758 31.8765C82.8917 31.8658 82.9104 31.86 82.9296 31.8599H84.0358C84.0551 31.86 84.0738 31.8658 84.0897 31.8765C84.1056 31.8872 84.1178 31.9024 84.1249 31.9201L86.5274 37.8619C86.5332 37.8763 86.5353 37.8919 86.5336 37.9074C86.5319 37.9228 86.5265 37.9376 86.5177 37.9505C86.5089 37.9634 86.4971 37.974 86.4833 37.9813C86.4694 37.9886 86.454 37.9925 86.4383 37.9926H85.3128C85.2935 37.9925 85.2748 37.9867 85.2589 37.976C85.2431 37.9652 85.2308 37.9501 85.2237 37.9324L84.652 36.5145C84.6449 36.4968 84.6327 36.4817 84.6168 36.4709C84.6009 36.4602 84.5822 36.4544 84.5629 36.4543ZM82.8614 35.1775C82.8584 35.1849 82.8574 35.1928 82.8583 35.2007C82.8592 35.2086 82.8621 35.2161 82.8666 35.2226C82.8712 35.2291 82.8773 35.2345 82.8844 35.2381C82.8915 35.2418 82.8994 35.2437 82.9074 35.2436L84.067 35.2363C84.0752 35.2364 84.0833 35.2346 84.0906 35.2308C84.0979 35.2271 84.1041 35.2216 84.1086 35.2149C84.1132 35.2082 84.116 35.2004 84.1168 35.1923C84.1176 35.1843 84.1163 35.1761 84.1131 35.1687L83.5221 33.7376C83.5184 33.7287 83.5121 33.7211 83.504 33.7158C83.496 33.7105 83.4865 33.7076 83.4768 33.7076C83.4671 33.7076 83.4576 33.7105 83.4496 33.7158C83.4415 33.7211 83.4352 33.7287 83.4315 33.7376L82.8614 35.1775Z" fill="#626262"/>
<path d="M97.8342 36.7423C98.4608 36.7393 98.492 35.5448 97.7615 35.5375C96.6152 35.5242 95.0992 35.8049 94.3568 34.7529C93.7124 33.836 94.0034 32.5519 95.0487 32.0641C95.9277 31.6527 97.8506 31.8599 98.8751 31.8599C98.9305 31.8599 98.9583 31.8878 98.9583 31.9436V32.9883C98.9583 33.0431 98.9305 33.0705 98.8751 33.0705C98.1416 33.072 96.1386 32.8972 95.558 33.1587C95.1378 33.3482 95.1378 34.0755 95.5996 34.2518C95.7025 34.291 95.8713 34.3121 96.1059 34.315C96.8587 34.3224 97.858 34.2004 98.5054 34.5075C99.91 35.1716 99.9011 37.1933 98.4519 37.806C98.2361 37.8971 97.9184 37.949 97.4987 37.9618C96.4642 37.9941 95.4387 38.0039 94.4221 37.9912C94.4093 37.991 94.3966 37.9877 94.3855 37.9814C94.3743 37.9751 94.3649 37.966 94.3582 37.9552C94.3515 37.9443 94.3477 37.9319 94.3472 37.9192C94.3467 37.9064 94.3495 37.8938 94.3553 37.8824L94.8958 36.8128C94.9065 36.7921 94.9228 36.7746 94.943 36.7625C94.9631 36.7503 94.9864 36.7438 95.0101 36.7437C95.9555 36.7467 96.8968 36.7462 97.8342 36.7423Z" fill="#626262"/>
<path d="M106.976 32.9985V31.9333C106.976 31.9138 106.984 31.8951 106.998 31.8814C107.012 31.8676 107.031 31.8599 107.051 31.8599H112.47C112.49 31.8599 112.509 31.8676 112.523 31.8814C112.537 31.8951 112.544 31.9138 112.544 31.9333V32.9985C112.544 33.018 112.537 33.0367 112.523 33.0505C112.509 33.0643 112.49 33.072 112.47 33.072H110.466C110.446 33.072 110.427 33.0798 110.413 33.0935C110.399 33.1073 110.391 33.126 110.391 33.1455V37.9206C110.391 37.9401 110.384 37.9588 110.37 37.9726C110.356 37.9864 110.337 37.9941 110.317 37.9941H109.241C109.221 37.9941 109.202 37.9864 109.188 37.9726C109.174 37.9588 109.166 37.9401 109.166 37.9206V33.1455C109.166 33.126 109.159 33.1073 109.145 33.0935C109.131 33.0798 109.112 33.072 109.092 33.072H107.051C107.031 33.072 107.012 33.0643 106.998 33.0505C106.984 33.0367 106.976 33.018 106.976 32.9985Z" fill="#626262"/>
<path d="M123.119 34.3988L124.68 31.8848C124.684 31.8772 124.691 31.8709 124.699 31.8665C124.706 31.8622 124.715 31.8599 124.724 31.8599H126.074C126.083 31.8597 126.093 31.8621 126.101 31.8667C126.109 31.8714 126.116 31.8781 126.12 31.8863C126.125 31.8944 126.127 31.9037 126.127 31.913C126.127 31.9223 126.124 31.9314 126.119 31.9392L123.688 35.7828C123.683 35.7912 123.68 35.8009 123.68 35.8107V37.9397C123.68 37.9534 123.675 37.9664 123.665 37.9761C123.655 37.9857 123.642 37.9912 123.628 37.9912H122.507C122.494 37.9912 122.48 37.9857 122.471 37.9761C122.461 37.9664 122.455 37.9534 122.455 37.9397V35.7887C122.456 35.7789 122.453 35.7692 122.448 35.7608L120.031 31.9392C120.026 31.9314 120.023 31.9223 120.022 31.913C120.022 31.9037 120.024 31.8944 120.029 31.8863C120.034 31.8781 120.04 31.8714 120.048 31.8667C120.057 31.8621 120.066 31.8597 120.075 31.8599H121.425C121.434 31.8599 121.443 31.8622 121.451 31.8665C121.458 31.8709 121.465 31.8772 121.47 31.8848L123.03 34.3988C123.035 34.4064 123.041 34.4127 123.049 34.417C123.057 34.4214 123.066 34.4237 123.075 34.4237C123.084 34.4237 123.092 34.4214 123.1 34.417C123.108 34.4127 123.115 34.4064 123.119 34.3988Z" fill="#626262"/>
</svg>
