<svg width="224" height="38" viewBox="0 0 224 38" fill="none" xmlns="http://www.w3.org/2000/svg">
<g opacity="0.7">
<path d="M11.5023 30.4C8.62674 30.4 6.20304 29.7871 4.23121 28.5613C2.25938 27.3082 0.848981 25.5649 0 23.3312L5.669 20.0624C6.81923 22.7047 8.83214 24.0258 11.7077 24.0258C14.3094 24.0258 15.6103 23.2495 15.6103 21.6968C15.6103 20.8251 15.1858 20.1713 14.3368 19.7355C13.4605 19.2179 11.8994 18.6595 9.65373 18.0602C7.35327 17.4337 5.40883 16.5348 3.82041 15.3634C2.06768 13.947 1.19131 11.9448 1.19131 9.35699C1.19131 6.71469 2.13615 4.60358 4.02581 3.02366C5.94287 1.44373 8.21594 0.653762 10.845 0.653762C13.2003 0.653762 15.2817 1.21219 17.0892 2.32903C18.8967 3.41864 20.3208 5.01219 21.3615 7.10968L15.8157 10.3376C14.775 8.13118 13.1181 7.02796 10.845 7.02796C9.88652 7.02796 9.13339 7.23226 8.58566 7.64086C8.03793 8.04946 7.76407 8.56703 7.76407 9.19355C7.76407 9.87455 8.0927 10.4875 8.74998 11.0323C9.46203 11.5771 10.8587 12.1491 12.9401 12.7484L15.6103 13.6065C16.295 13.8244 17.0892 14.1921 17.9929 14.7097C18.9788 15.2 19.7183 15.7312 20.2112 16.3032C21.5258 17.7197 22.183 19.4903 22.183 21.6151C22.183 24.3118 21.1971 26.4638 19.2253 28.071C17.2535 29.6237 14.6792 30.4 11.5023 30.4Z" fill="#202020"/>
<path d="M36.697 9.39785V15.2817H32.4658V22.514C32.4658 23.3039 32.7808 23.8215 33.4106 24.0667C34.0405 24.2846 35.136 24.3527 36.697 24.271V29.828C32.8081 30.2366 30.0969 29.8688 28.5632 28.7247C27.057 27.5534 26.3039 25.4832 26.3039 22.514V15.2817H23.0175V9.39785H26.3039V5.51613L32.4658 3.67742V9.39785H36.697Z" fill="#202020"/>
<path d="M57.3669 27.2946C55.2855 29.3649 52.7112 30.4 49.6439 30.4C46.5766 30.4 44.0023 29.3649 41.9209 27.2946C39.8121 25.1971 38.7577 22.6366 38.7577 19.6129C38.7577 16.6165 39.8121 14.0695 41.9209 11.972C44.0296 9.87455 46.604 8.82581 49.6439 8.82581C52.6838 8.82581 55.2581 9.87455 57.3669 11.972C59.4756 14.0695 60.53 16.6165 60.53 19.6129C60.53 22.6366 59.4756 25.1971 57.3669 27.2946ZM44.9197 19.6129C44.9197 21.0294 45.3716 22.1871 46.2753 23.086C47.1791 23.9849 48.3019 24.4344 49.6439 24.4344C50.9858 24.4344 52.1087 23.9849 53.0124 23.086C53.9162 22.1871 54.368 21.0294 54.368 19.6129C54.368 18.1964 53.9162 17.0387 53.0124 16.1398C52.1087 15.2409 50.9858 14.7914 49.6439 14.7914C48.3019 14.7914 47.1791 15.2409 46.2753 16.1398C45.3716 17.0387 44.9197 18.1964 44.9197 19.6129Z" fill="#202020"/>
<path d="M81.5975 27.2946C79.5161 29.3649 76.9418 30.4 73.8745 30.4C70.8072 30.4 68.2329 29.3649 66.1515 27.2946C64.0427 25.1971 62.9884 22.6366 62.9884 19.6129C62.9884 16.6165 64.0427 14.0695 66.1515 11.972C68.2603 9.87455 70.8346 8.82581 73.8745 8.82581C76.9144 8.82581 79.4887 9.87455 81.5975 11.972C83.7062 14.0695 84.7606 16.6165 84.7606 19.6129C84.7606 22.6366 83.7062 25.1971 81.5975 27.2946ZM69.1503 19.6129C69.1503 21.0294 69.6022 22.1871 70.506 23.086C71.4097 23.9849 72.5325 24.4344 73.8745 24.4344C75.2164 24.4344 76.3393 23.9849 77.243 23.086C78.1468 22.1871 78.5987 21.0294 78.5987 19.6129C78.5987 18.1964 78.1468 17.0387 77.243 16.1398C76.3393 15.2409 75.2164 14.7914 73.8745 14.7914C72.5325 14.7914 71.4097 15.2409 70.506 16.1398C69.6022 17.0387 69.1503 18.1964 69.1503 19.6129Z" fill="#202020"/>
<path d="M94.4079 29.828H88.246V0H94.4079V29.828Z" fill="#202020"/>
<path d="M123.359 15.6495H137.737V17.3656C137.737 21.0975 136.45 24.2029 133.876 26.6817C131.302 29.1333 127.892 30.3591 123.647 30.3591C119.265 30.3591 115.637 28.929 112.761 26.0688C109.913 23.1541 108.489 19.6401 108.489 15.5269C108.489 11.4136 109.913 7.91326 112.761 5.0258C115.637 2.13835 119.238 0.694622 123.565 0.694622C126.194 0.694622 128.631 1.33477 130.877 2.61505C133.15 3.89534 134.862 5.55699 136.012 7.6L132.726 9.52043C131.904 7.96774 130.658 6.72832 128.987 5.80215C127.317 4.84875 125.496 4.37204 123.524 4.37204C120.21 4.37204 117.512 5.44803 115.431 7.6C113.322 9.75197 112.268 12.3943 112.268 15.5269C112.268 18.6595 113.322 21.3018 115.431 23.4538C117.567 25.5785 120.32 26.6409 123.688 26.6409C126.509 26.6409 128.809 25.9599 130.59 24.5978C132.397 23.2086 133.506 21.3699 133.917 19.0817H123.359V15.6495Z" fill="#202020"/>
<path d="M145.587 9.39785V12.8301C146.765 10.2968 148.901 9.03011 151.996 9.03011V12.7484C150.243 12.6667 148.737 13.1297 147.477 14.1376C146.217 15.1455 145.587 16.7663 145.587 19V29.828H142.013V9.39785H145.587Z" fill="#202020"/>
<path d="M171.705 27.2538C169.623 29.324 167.063 30.3591 164.023 30.3591C160.983 30.3591 158.422 29.324 156.341 27.2538C154.26 25.1835 153.219 22.6366 153.219 19.6129C153.219 16.5892 154.26 14.0423 156.341 11.972C158.422 9.90179 160.983 8.86667 164.023 8.86667C167.063 8.86667 169.623 9.90179 171.705 11.972C173.814 14.0695 174.868 16.6165 174.868 19.6129C174.868 22.6093 173.814 25.1563 171.705 27.2538ZM164.023 26.886C166.077 26.886 167.802 26.1914 169.199 24.8022C170.596 23.4129 171.294 21.6832 171.294 19.6129C171.294 17.5427 170.596 15.8129 169.199 14.4237C167.802 13.0344 166.077 12.3398 164.023 12.3398C161.996 12.3398 160.285 13.0344 158.888 14.4237C157.491 15.8129 156.793 17.5427 156.793 19.6129C156.793 21.6832 157.491 23.4129 158.888 24.8022C160.285 26.1914 161.996 26.886 164.023 26.886Z" fill="#202020"/>
<path d="M193.254 20.2258V9.39785H196.828V29.828H193.254V26.886C191.83 29.2014 189.611 30.3591 186.599 30.3591C184.189 30.3591 182.258 29.61 180.807 28.1118C179.355 26.5864 178.629 24.5297 178.629 21.9419V9.39785H182.203V21.7376C182.203 23.372 182.655 24.6523 183.559 25.5785C184.463 26.5047 185.709 26.9677 187.297 26.9677C189.132 26.9677 190.584 26.4093 191.652 25.2925C192.72 24.1484 193.254 22.4595 193.254 20.2258Z" fill="#202020"/>
<path d="M213.607 8.86667C216.482 8.86667 218.934 9.91541 220.96 12.0129C222.987 14.1104 224 16.6437 224 19.6129C224 22.6093 222.987 25.1563 220.96 27.2538C218.961 29.324 216.51 30.3591 213.607 30.3591C210.211 30.3591 207.623 29.0108 205.843 26.314V38H202.269V9.39785H205.843V12.9118C207.623 10.2151 210.211 8.86667 213.607 8.86667ZM213.155 26.9269C215.209 26.9269 216.934 26.2323 218.331 24.843C219.728 23.3993 220.426 21.6559 220.426 19.6129C220.426 17.5427 219.728 15.8129 218.331 14.4237C216.934 13.0072 215.209 12.2989 213.155 12.2989C211.074 12.2989 209.335 13.0072 207.938 14.4237C206.541 15.8129 205.843 17.5427 205.843 19.6129C205.843 21.6559 206.541 23.3993 207.938 24.843C209.335 26.2323 211.074 26.9269 213.155 26.9269Z" fill="#202020"/>
</g>
</svg>
