<svg width="18" height="18" viewBox="0 0 18 18" fill="none" xmlns="http://www.w3.org/2000/svg">
<path d="M17.6996 1.75025C18.1 1.34982 18.1 0.700701 17.6996 0.300273C17.2992 -0.100091 16.6501 -0.100091 16.2497 0.300273L8.99996 7.55003L1.75036 0.300337C1.34993 -0.100091 0.70081 -0.100091 0.300384 0.300337C-0.0999788 0.700701 -0.0999788 1.34989 0.300384 1.75025L7.55005 8.99994L0.30032 16.2497C-0.100107 16.6501 -0.100107 17.2993 0.30032 17.6997C0.700682 18.1 1.34987 18.1 1.75023 17.6997L8.99996 10.4499L16.2498 17.6997C16.6502 18.1001 17.2993 18.1001 17.6997 17.6997C18.1001 17.2993 18.1001 16.6501 17.6997 16.2498L10.4499 8.99994L17.6996 1.75025Z" fill="#CEC7D8"/>
</svg>
