<svg width="70" height="70" viewBox="0 0 70 70" fill="none" xmlns="http://www.w3.org/2000/svg">
<path d="M39.319 23.1836L44.8655 30.9458L44.2949 22.7603L39.1102 20.1875L39.319 23.1836Z" fill="#E1D8FC"/>
<path d="M46.1041 31.9019L45.4608 22.6736L50.3542 19.2834L50.9975 28.5111L46.1041 31.9019Z" fill="#E1D8FC"/>
<path d="M39.6213 19.1104L44.8061 21.6843L49.6995 18.2941L44.5147 15.7202L39.6213 19.1104Z" fill="#E1D8FC"/>
<path fill-rule="evenodd" clip-rule="evenodd" d="M21.2707 17.8078L45.3118 1.1543L69.0738 34.4157L45.0327 51.0692L21.2707 17.8078ZM45.9205 33.4743L51.9319 29.308C52.1046 29.1894 52.2021 28.9838 52.1877 28.7702L51.4484 18.165C51.4336 17.952 51.3087 17.7638 51.1207 17.6706L44.7216 14.4943C44.5363 14.4009 44.3107 14.4175 44.1386 14.5373L38.1271 18.7024C37.9538 18.8211 37.8564 19.0268 37.8712 19.2398L38.164 23.4402C38.1719 23.5528 38.2099 23.6598 38.274 23.7504L45.1195 33.3326C45.1489 33.3726 45.1848 33.3983 45.2217 33.4247L45.2326 33.4326L45.2518 33.4467C45.2668 33.4564 45.279 33.4686 45.2909 33.4805C45.3052 33.4948 45.3192 33.5088 45.3374 33.5178L45.3386 33.5184L45.3403 33.5187L45.3435 33.5191C45.4332 33.5615 45.5323 33.5832 45.6342 33.5757C45.6836 33.5721 45.7422 33.5605 45.7937 33.5405C45.8199 33.5308 45.8425 33.5159 45.8649 33.5011C45.8729 33.4958 45.881 33.4906 45.8891 33.4855C45.8908 33.4845 45.8925 33.4836 45.8942 33.4829C45.8958 33.4823 45.8975 33.4817 45.8991 33.4813L45.9047 33.4799C45.9075 33.4793 45.9103 33.4786 45.9131 33.4777C45.9156 33.4768 45.9181 33.4758 45.9205 33.4743Z" fill="#E1D8FC"/>
<path d="M36.4435 6.05923L24.8013 12.3826L8.85523 23.4304L20.4986 17.1075L36.4435 6.05923Z" fill="#E1D8FC"/>
<path d="M40.115 67.707L28.1104 61.7476L27.8146 57.5009L39.851 63.9203L40.115 67.707Z" fill="#E1D8FC"/>
<path d="M39.769 62.7432L27.7326 56.3238L27.5551 53.7774L39.5625 59.781L39.769 62.7432Z" fill="#E1D8FC"/>
<path d="M40.9905 63.5351L41.2751 67.6181L65.1671 51.0683L64.903 47.2746L57.3454 52.4138C57.3012 52.5036 57.2348 52.582 57.1505 52.6398L49.5127 57.9313C49.4305 57.9875 49.3268 58.0258 49.2265 58.0332C49.1814 58.0366 49.136 58.0344 49.091 58.0268L40.9905 63.5351Z" fill="#E1D8FC"/>
<path d="M48.5794 57.1654L40.91 62.3805L40.7244 59.7181L48.4006 54.6007L48.5794 57.1654Z" fill="#E1D8FC"/>
<path d="M57.3438 51.2056L64.8226 46.12L64.7028 44.3992L57.2172 49.3896L57.3438 51.2056Z" fill="#E1D8FC"/>
<path d="M56.0172 48.9877L55.9995 48.9995L56.0202 49.0306L56.2163 51.8438L49.6961 56.3603L49.5213 53.8535L49.5542 53.8316L49.5158 53.7739L49.32 50.9656L49.4854 50.8737L49.2889 50.5201L49.2253 49.6077L55.7456 45.0917L56.0172 48.9877Z" fill="#E1D8FC"/>
<path d="M57.1372 48.2411L64.6229 43.2506L64.5033 41.5323L57.0174 46.5228L57.1372 48.2411Z" fill="#E1D8FC"/>
<path d="M56.9373 45.3743L64.4233 40.3837L64.3366 39.1384L56.8636 44.3169L56.9373 45.3743Z" fill="#E1D8FC"/>
<path d="M48.1141 50.4916L48.1066 50.3834L47.2876 50.9507L48.1141 50.4916Z" fill="#E1D8FC"/>
<path d="M44.6335 52.4252C44.6318 52.425 44.6301 52.4247 44.6287 52.4241L42.5025 51.3661L40.2217 52.5065L40.3808 54.7879L44.6335 52.4252Z" fill="#E1D8FC"/>
<path d="M39.2736 55.6366L27.2664 49.633L27.4744 52.619L39.4817 58.6226L39.2736 55.6366Z" fill="#E1D8FC"/>
<path d="M39.1928 54.4781L27.1857 48.4746L27.1531 48.0061C27.1384 47.7964 27.0136 47.6082 26.8254 47.5139L18.5319 43.399C18.3443 43.3041 18.1219 43.3205 17.9489 43.442C17.8472 43.5103 17.7717 43.6092 17.7296 43.7222L5.63128 37.2698L5.52653 35.7671L39.0636 52.6252L39.1928 54.4781Z" fill="#E1D8FC"/>
<path d="M38.9828 51.4653L5.44567 34.6072L5.30981 32.6581L38.8469 49.5163L38.9828 51.4653Z" fill="#E1D8FC"/>
<path d="M40.1464 51.4261L41.3817 50.8085L40.0574 50.1496L40.1464 51.4261Z" fill="#E1D8FC"/>
<path d="M42.8674 50.0656L42.7147 50.142L39.6644 48.6285C39.531 48.5624 39.3787 48.5518 39.2398 48.5946L4.44877 31.1061L4.43091 31.1416L0.478516 29.18L20.2683 18.4325L42.8674 50.0656Z" fill="#E1D8FC"/>
<path d="M5.71333 38.4469L5.84848 40.3856L17.8902 46.8079L17.755 44.8691L5.71333 38.4469Z" fill="#E1D8FC"/>
<path d="M17.9722 47.9849L5.93054 41.5627L6.14371 44.6208L18.2109 51.4086L17.9722 47.9849Z" fill="#E1D8FC"/>
<path d="M19.4405 52.2157L19.4898 52.128L19.4321 52.0955L18.9323 44.9264L26.0117 48.4378L26.0446 48.9097L25.9996 48.9996L26.0527 49.0261L26.2893 52.4202L26.2841 52.4305L19.7699 56.9422L19.4405 52.2157Z" fill="#E1D8FC"/>
<path d="M18.2941 52.6028L6.22696 45.815L6.59314 51.068L18.6025 57.0271L18.2941 52.6028Z" fill="#E1D8FC"/>
<path d="M40.6444 58.5696L40.4523 55.8141L40.4854 55.8737L48.1909 51.5929L48.3205 53.4522L40.6444 58.5696Z" fill="#E1D8FC"/>
</svg>
