<svg width="24" height="24" viewBox="0 0 24 24" fill="none" xmlns="http://www.w3.org/2000/svg">
<rect width="24" height="24" rx="12" fill="#734CA5"/>
<path d="M13.1947 9.10593V18.6663H10.8161V9.10593H13.1947ZM10.668 6.61421C10.668 6.2431 10.7887 5.93679 11.0301 5.69528C11.2715 5.45376 11.5953 5.33301 12.0013 5.33301C12.4019 5.33301 12.7228 5.45376 12.9643 5.69528C13.2112 5.93679 13.3346 6.2431 13.3346 6.61421C13.3346 6.98532 13.2112 7.29163 12.9643 7.53314C12.7228 7.77465 12.4019 7.89541 12.0013 7.89541C11.5953 7.89541 11.2715 7.77465 11.0301 7.53314C10.7887 7.29163 10.668 6.98532 10.668 6.61421Z" fill="white"/>
</svg>
