<svg width="70" height="70" viewBox="0 0 70 70" fill="none" xmlns="http://www.w3.org/2000/svg">
<path d="M37.7852 64.4836L32.1833 61.2605L32.3276 63.9799L37.7852 67.3932V64.4836Z" fill="#E1D8FC"/>
<path d="M31.0835 65.4062L38.9839 69.9985V40.3051L31.0835 35.6934V65.4062ZM38.1423 52.6223L38.0528 53.4048C38.0528 53.409 38.0474 53.4114 38.0474 53.4163C38.042 53.4465 38.0372 53.4768 38.0233 53.5064L37.735 54.0892C37.7248 54.1091 37.705 54.1194 37.6912 54.137C37.6845 54.1466 37.6875 54.1587 37.6779 54.1684L37.3445 54.5043C37.3421 54.5067 37.3385 54.5049 37.3361 54.5079C37.3301 54.514 37.3259 54.5212 37.3199 54.5261L37.3181 54.5279L37.207 54.6174C37.2034 54.6199 37.2004 54.618 37.1968 54.6217C37.1709 54.6398 37.1433 54.6592 37.1109 54.6695L36.5552 54.848C36.5258 54.8577 36.4951 54.8625 36.4645 54.8625C36.4543 54.8625 36.4447 54.8625 36.4345 54.8607L35.7689 54.7941C35.7515 54.7923 35.7389 54.7838 35.7214 54.7796C35.707 54.776 35.692 54.776 35.6776 54.7699L34.967 54.4577C34.9532 54.451 34.9435 54.4401 34.9309 54.4323C34.9249 54.4286 34.9171 54.4304 34.9117 54.4256L34.2011 53.91C34.1927 53.9046 34.1933 53.8925 34.1854 53.8864C34.1788 53.8798 34.1674 53.8828 34.1602 53.875L33.4946 53.1821C33.4904 53.1778 33.4922 53.17 33.488 53.1645C33.4802 53.1548 33.4688 53.1512 33.4622 53.1421L32.8849 52.2931C32.8813 52.2871 32.8849 52.2798 32.8813 52.275C32.8759 52.2671 32.8675 52.2635 32.8633 52.2556L32.4188 51.3371C32.4134 51.3256 32.4134 51.3135 32.4092 51.3026C32.4074 51.2965 32.4014 51.2941 32.3996 51.288L32.1329 50.3495C32.1305 50.338 32.1323 50.3289 32.1305 50.3174C32.1299 50.312 32.1244 50.3096 32.1238 50.3041L32.0127 49.4315C32.0109 49.4176 32.0151 49.4055 32.0151 49.3916C32.0151 49.3777 32.0109 49.365 32.0127 49.3498L32.1238 48.5674C32.1256 48.5517 32.1341 48.5396 32.1383 48.5256C32.1419 48.5117 32.1407 48.4996 32.1467 48.4863L32.4134 47.8824C32.4296 47.8461 32.453 47.8158 32.4795 47.7886C32.4795 47.7886 32.4801 47.7868 32.4813 47.785L32.9258 47.3614L32.9282 47.3596C32.9594 47.3311 32.9943 47.3069 33.0369 47.2936L33.1697 47.2476H33.1751L33.1787 47.2458L33.6052 47.1163C33.6472 47.1 33.6923 47.0921 33.7403 47.0988L33.7439 47.0994L34.4059 47.1659C34.4215 47.1678 34.4341 47.1756 34.4492 47.1799C34.4648 47.1841 34.481 47.1835 34.4966 47.1901L35.2072 47.5024C35.2229 47.509 35.2331 47.5205 35.2475 47.5302C35.2517 47.5338 35.2577 47.5308 35.2631 47.5345L35.9725 48.0482C35.9822 48.0549 35.9809 48.0676 35.99 48.0748C35.9984 48.0815 36.0098 48.0791 36.0176 48.0869L36.6832 48.8034C36.6868 48.807 36.685 48.8119 36.6886 48.8167C36.697 48.827 36.7078 48.833 36.715 48.8445L37.2707 49.6935C37.2731 49.6972 37.2707 49.7014 37.2731 49.705C37.2773 49.7129 37.2851 49.7183 37.2887 49.725L37.7332 50.6194C37.7368 50.6272 37.7368 50.6357 37.7398 50.643C37.7434 50.6496 37.7494 50.6575 37.7518 50.6654L38.0401 51.6039C38.0438 51.6154 38.0408 51.6257 38.0438 51.636C38.0456 51.6463 38.0516 51.6541 38.0522 51.6638L38.1411 52.5582C38.1429 52.5697 38.1375 52.5788 38.1375 52.5896C38.1393 52.6005 38.1435 52.6108 38.1423 52.6223ZM32.0151 41.7507L32.104 40.9682C32.104 40.964 32.1094 40.9622 32.1094 40.9579C32.1136 40.9283 32.1178 40.8998 32.1316 40.8702L32.4212 40.2663C32.4368 40.2348 32.4584 40.2088 32.4824 40.1846C32.4842 40.1828 32.483 40.1792 32.486 40.1767L32.9071 39.7749L32.9107 39.7731C32.9408 39.7447 32.9768 39.7205 33.0195 39.7071L33.1528 39.6612H33.1582L33.1624 39.6587L33.5949 39.5286C33.6352 39.5141 33.6784 39.5081 33.7235 39.5141L34.3668 39.5807C34.3812 39.5825 34.3933 39.5904 34.4071 39.594C34.4209 39.5976 34.4347 39.5964 34.4485 39.6025L35.1592 39.8923C35.1772 39.9002 35.1904 39.9129 35.2066 39.9238C35.212 39.9274 35.218 39.9244 35.2222 39.928L35.9335 40.4418C35.9431 40.4496 35.9419 40.4617 35.9509 40.4702C35.9605 40.4781 35.9725 40.4757 35.9809 40.4847L36.6243 41.2006C36.6303 41.2066 36.6267 41.2163 36.6321 41.2212C36.6375 41.2266 36.6465 41.2272 36.6501 41.2345L37.2058 42.0623C37.2094 42.0665 37.2058 42.0708 37.2094 42.0756C37.2148 42.0841 37.2232 42.0901 37.2274 42.0992L37.6719 43.016C37.6755 43.0244 37.6755 43.0335 37.6779 43.0414C37.6815 43.0499 37.6875 43.0553 37.6911 43.0638L37.9572 43.9818C37.9608 43.992 37.9578 43.9999 37.9608 44.0102C37.9626 44.0187 37.9674 44.0265 37.9686 44.0356L38.0582 44.9076C38.0588 44.9191 38.0557 44.9294 38.0545 44.9403C38.0545 44.9524 38.0587 44.962 38.0569 44.9741L37.9674 45.7348C37.9674 45.7408 37.9608 45.7433 37.9596 45.7505C37.9554 45.7741 37.9536 45.7989 37.9434 45.8225L37.6767 46.4264C37.6647 46.4531 37.6407 46.4682 37.6232 46.4888C37.6136 46.4991 37.6166 46.5148 37.6058 46.5245L37.2724 46.8379L37.2682 46.8397C37.264 46.8434 37.2604 46.8464 37.2568 46.85L37.255 46.8524L37.1439 46.9426C37.1403 46.945 37.1373 46.9432 37.1337 46.9468C37.1072 46.965 37.0802 46.9844 37.046 46.9953L36.4903 47.1738C36.4609 47.184 36.4302 47.1883 36.3996 47.1883C36.3882 47.1883 36.3792 47.1877 36.3678 47.1865L35.7256 47.1199C35.7082 47.1181 35.6956 47.1096 35.6794 47.1054C35.6649 47.1011 35.6499 47.103 35.6343 47.0957L34.9237 46.7823C34.9093 46.7756 34.8996 46.7641 34.8876 46.7568C34.8822 46.7526 34.8744 46.7544 34.8696 46.7502L34.159 46.2364C34.1494 46.2298 34.1506 46.2171 34.1428 46.2098C34.1343 46.2031 34.1223 46.2056 34.1145 46.1977L33.4712 45.5048C33.4676 45.5006 33.4694 45.4945 33.4658 45.4903C33.4598 45.4837 33.4514 45.4806 33.4459 45.4722L33.4045 45.4141L33.3072 45.3899C33.297 45.3874 33.2898 45.3802 33.2808 45.3765C33.2633 45.3705 33.2483 45.362 33.2327 45.3542C33.2249 45.3487 33.2171 45.3475 33.2105 45.3421C33.1949 45.3318 33.1846 45.3185 33.1714 45.3063C33.1648 45.2985 33.1552 45.2961 33.1492 45.2882L32.838 44.9082C32.8278 44.8949 32.8326 44.8797 32.8248 44.8658C32.8116 44.8459 32.7912 44.8338 32.7834 44.8102L32.7395 44.6764C32.7377 44.6698 32.7389 44.6625 32.7371 44.6565C32.7329 44.6383 32.7311 44.6171 32.7305 44.5978C32.7299 44.5778 32.7287 44.5572 32.7311 44.5372C32.7317 44.5306 32.7305 44.5233 32.7311 44.5179L32.7527 44.4174L32.4193 43.7058C32.4151 43.6973 32.4157 43.6876 32.4127 43.6792C32.4109 43.6737 32.4061 43.6725 32.4043 43.6671L32.1148 42.7267C32.1106 42.7128 32.113 42.6983 32.1106 42.6831C32.11 42.6771 32.104 42.6747 32.1028 42.6686L32.0139 41.8196C32.0133 41.8075 32.0163 41.7978 32.0175 41.7869C32.0181 41.7724 32.0133 41.7622 32.0151 41.7507ZM31.5459 59.0295V57.6655C31.5459 57.6619 31.5477 57.6589 31.5477 57.6552C31.5483 57.6359 31.5543 57.6171 31.5597 57.5978C31.564 57.5778 31.5676 57.5572 31.576 57.5391C31.5778 57.5354 31.5766 57.5324 31.5784 57.5294C31.585 57.5155 31.5964 57.507 31.6048 57.4949C31.618 57.4767 31.6288 57.4592 31.6444 57.4435C31.6547 57.4332 31.6667 57.4259 31.6787 57.4192C31.6751 57.4168 31.6733 57.4138 31.6703 57.4114C31.6529 57.3981 31.6366 57.386 31.6228 57.369C31.615 57.3605 31.6072 57.3509 31.6006 57.3412C31.5988 57.3376 31.5946 57.3369 31.5928 57.3333C31.5886 57.3267 31.5886 57.3194 31.585 57.3133C31.5784 57.2988 31.5718 57.2867 31.567 57.271C31.5628 57.2589 31.5591 57.2474 31.5567 57.2353C31.5543 57.2214 31.5531 57.2099 31.5525 57.196C31.5525 57.1875 31.5483 57.1802 31.5483 57.1724V53.305C31.5483 53.2965 31.5525 53.2893 31.5525 53.2814C31.5543 53.262 31.5585 53.2433 31.5646 53.2239C31.57 53.2039 31.5766 53.1834 31.5862 53.1652C31.5898 53.1586 31.5898 53.1513 31.594 53.1452C31.6 53.1356 31.6096 53.1295 31.6156 53.1216C31.6288 53.1041 31.642 53.0896 31.6577 53.0756C31.6733 53.0635 31.6877 53.0539 31.7051 53.0442C31.7213 53.0345 31.7388 53.026 31.7568 53.0206C31.7766 53.0145 31.7958 53.0109 31.8168 53.0085C31.8283 53.0079 31.8373 53.0018 31.8493 53.0018C31.8571 53.0018 31.8637 53.0061 31.8715 53.0061C31.8913 53.0079 31.9106 53.0127 31.9298 53.0182C31.9496 53.0248 31.9688 53.0315 31.9874 53.0399C31.9941 53.0436 32.0013 53.0436 32.0079 53.0484L32.1833 53.1579L38.3934 56.7548C38.4036 56.7609 38.4108 56.7712 38.4198 56.7784C38.4372 56.7917 38.4534 56.8045 38.469 56.822C38.4811 56.8359 38.4895 56.8504 38.4991 56.868C38.5093 56.8855 38.5183 56.9019 38.5249 56.9206C38.5309 56.9406 38.5345 56.96 38.5369 56.9793C38.5387 56.9933 38.5447 57.0047 38.5447 57.0187V60.8884C38.5447 60.8944 38.5411 60.9005 38.5411 60.9065C38.5393 60.9259 38.5345 60.9446 38.5291 60.9646C38.5237 60.9846 38.5189 61.0045 38.5099 61.0221C38.5075 61.0281 38.5075 61.0342 38.5039 61.0396C38.4997 61.0481 38.4907 61.0499 38.4865 61.0578C38.4684 61.082 38.4492 61.1044 38.4264 61.1231C38.442 61.1352 38.4546 61.1467 38.4678 61.1607C38.4739 61.1673 38.4811 61.1746 38.4859 61.1806L38.4883 61.1824L38.4889 61.1879C38.4943 61.1945 38.4955 61.2018 38.5003 61.2085C38.5099 61.2248 38.5183 61.2411 38.5243 61.2605C38.5321 61.2799 38.5345 61.3004 38.5375 61.321C38.5393 61.3331 38.5453 61.3446 38.5453 61.3585V62.7673C38.5453 62.7739 38.5417 62.7794 38.5417 62.7854C38.5399 62.8054 38.5351 62.8248 38.5297 62.8441C38.5237 62.8635 38.5195 62.8835 38.5099 62.9016C38.5075 62.9071 38.5081 62.9137 38.5045 62.9192C38.4991 62.9276 38.4907 62.9306 38.4865 62.9373C38.4666 62.9676 38.4408 62.993 38.4096 63.0148C38.3982 63.0214 38.3904 63.0305 38.3783 63.0353C38.3369 63.0559 38.2924 63.071 38.2438 63.071L38.2426 63.0704C38.1915 63.0704 38.1489 63.0547 38.1062 63.0341C38.102 63.0317 38.0966 63.0335 38.0924 63.0299L31.6973 59.2951C31.6949 59.2933 31.6931 59.2897 31.6907 59.2885C31.6841 59.2848 31.6793 59.2782 31.6733 59.2727C31.6733 59.2727 31.6709 59.2709 31.6697 59.2691C31.6523 59.2558 31.6373 59.2437 31.624 59.2286C31.6108 59.2128 31.6018 59.1983 31.5916 59.1808C31.5862 59.1705 31.5772 59.1626 31.5724 59.1523L31.5718 59.1505C31.5694 59.1439 31.5694 59.136 31.5676 59.1299C31.561 59.1106 31.558 59.09 31.5556 59.07C31.552 59.0549 31.5459 59.0416 31.5459 59.0295ZM31.5459 60.506C31.5459 60.5005 31.5483 60.4957 31.5483 60.4902C31.5489 60.4703 31.5549 60.4509 31.5604 60.4315C31.5658 60.4122 31.57 60.3922 31.5784 60.3741C31.5802 60.3686 31.5802 60.3638 31.5826 60.3583C31.5892 60.3462 31.6006 60.339 31.6084 60.3281C31.6204 60.3105 31.6324 60.2954 31.6481 60.2815C31.6637 60.2676 31.6799 60.2591 31.6973 60.2488C31.7135 60.2385 31.7285 60.2306 31.7466 60.2234C31.767 60.2167 31.788 60.2131 31.8096 60.2101C31.8229 60.2083 31.8337 60.2022 31.8469 60.2022C31.8523 60.2022 31.8565 60.2046 31.8613 60.2058C31.8817 60.2064 31.9015 60.2125 31.9214 60.2179C31.9406 60.2234 31.9592 60.2276 31.9772 60.2361C31.9826 60.2385 31.9874 60.2385 31.9929 60.2415L32.1929 60.3535L32.1947 60.3553L32.1965 60.3559L38.3909 63.9557C38.4029 63.9624 38.4089 63.9733 38.4185 63.9799C38.4365 63.9933 38.4522 64.0053 38.4666 64.0217C38.4786 64.0374 38.4882 64.052 38.4966 64.0695C38.5068 64.0871 38.5158 64.1022 38.5218 64.1215C38.5297 64.1409 38.5321 64.1615 38.5351 64.1814C38.5369 64.1954 38.5429 64.2057 38.5429 64.219V68.0216C38.5429 68.0282 38.5393 68.0337 38.5393 68.0397C38.5375 68.0597 38.5327 68.0791 38.5273 68.0978C38.5218 68.1178 38.517 68.1378 38.508 68.1559C38.5056 68.1614 38.5056 68.1674 38.502 68.1735C38.4978 68.1801 38.4888 68.1837 38.4846 68.191C38.463 68.2213 38.4371 68.2473 38.4053 68.2691C38.3951 68.2757 38.3873 68.2848 38.3753 68.289C38.335 68.3108 38.2894 68.3253 38.2407 68.3253L38.2395 68.3247C38.1897 68.3247 38.1458 68.3102 38.1044 68.289C38.1002 68.2866 38.0947 68.2872 38.0899 68.2848L31.6961 64.573C31.6859 64.5663 31.6781 64.556 31.6697 64.5488C31.6522 64.5355 31.636 64.5234 31.6222 64.5064C31.612 64.4943 31.6042 64.4828 31.5958 64.4689C31.5922 64.4647 31.5874 64.4622 31.5838 64.4568C31.5814 64.4526 31.5814 64.4465 31.5796 64.4411C31.5741 64.4308 31.5699 64.4193 31.5657 64.4072C31.5603 64.3926 31.5573 64.3787 31.5543 64.3636C31.5519 64.3503 31.5489 64.3376 31.5483 64.3243C31.5483 64.3182 31.5459 64.314 31.5459 64.3079L31.5441 60.5059L31.5459 60.506Z" fill="#E1D8FC"/>
<path d="M44.6038 67.0706L68.9994 52.9054L69 23.2119L44.6044 37.3755L44.6038 67.0706ZM50.2618 41.6527V41.228C50.2618 41.214 50.2678 41.2044 50.2696 41.1916C50.272 41.1711 50.275 41.1499 50.2816 41.1299C50.2882 41.1118 50.2972 41.0954 50.3069 41.0785C50.3165 41.0609 50.3249 41.0446 50.3387 41.0301C50.3525 41.0137 50.3669 41.0022 50.3843 40.9895C50.3946 40.9817 50.4018 40.9714 50.4126 40.9641L62.8892 33.696C62.8946 33.6936 62.9012 33.6936 62.9066 33.6899C62.9222 33.6833 62.9366 33.6778 62.9523 33.6724C62.9655 33.6688 62.9763 33.6639 62.9895 33.6609C63.0015 33.6591 63.0129 33.6585 63.0249 33.6573C63.031 33.6573 63.0352 33.6536 63.0424 33.6536C63.0508 33.6536 63.0598 33.6579 63.0676 33.6591C63.0808 33.6597 63.0928 33.6597 63.1048 33.6627C63.1181 33.6651 63.1283 33.6694 63.1403 33.6742C63.1559 33.6796 63.1685 33.6863 63.1823 33.6936C63.1907 33.6978 63.1997 33.6978 63.2058 33.7032C63.2094 33.7051 63.21 33.7087 63.2124 33.7099C63.222 33.716 63.2298 33.7238 63.2376 33.7305C63.2508 33.742 63.261 33.7541 63.2712 33.7668C63.2797 33.7771 63.2893 33.7849 63.2953 33.7964C63.2977 33.8001 63.3013 33.8019 63.3031 33.8049C63.3067 33.8104 63.3067 33.817 63.3091 33.8231C63.3169 33.837 63.3205 33.8515 63.3253 33.8666C63.3307 33.8799 63.3355 33.8926 63.3373 33.906C63.3391 33.9175 63.3397 33.9277 63.3409 33.9398C63.3409 33.9459 63.3445 33.9513 63.3445 33.958V34.9189C63.3445 34.9256 63.3409 34.9328 63.3403 34.9395C63.3397 34.9528 63.3379 34.9649 63.3361 34.9776C63.3325 34.9915 63.3295 35.0036 63.3241 35.0157C63.3199 35.0297 63.3145 35.0418 63.3079 35.0539C63.3055 35.0599 63.3055 35.0678 63.3013 35.0738C63.2989 35.0775 63.2947 35.0793 63.2917 35.0823C63.2839 35.0938 63.276 35.1041 63.2676 35.1144C63.2538 35.1301 63.2382 35.1422 63.222 35.1549C63.2106 35.1628 63.204 35.1731 63.1937 35.1803L50.7171 42.4485C50.7129 42.4521 50.7075 42.4503 50.7027 42.4527C50.6625 42.4733 50.6168 42.489 50.5682 42.489L50.5664 42.4896C50.5165 42.4896 50.4726 42.4751 50.4318 42.4539C50.4198 42.4479 50.4102 42.4394 50.4 42.4334C50.3699 42.4128 50.3447 42.3868 50.3225 42.3559C50.3171 42.348 50.3087 42.3456 50.3045 42.3377C50.3008 42.3323 50.3008 42.3256 50.2984 42.3196C50.29 42.3014 50.2846 42.2833 50.2804 42.2639C50.2744 42.2439 50.2684 42.224 50.2672 42.204C50.2672 42.1974 50.2636 42.1919 50.2636 42.1859L50.2618 41.6527ZM50.2618 43.1292C50.2618 43.1153 50.2678 43.1056 50.2696 43.0929C50.272 43.0723 50.275 43.0511 50.2816 43.0311C50.2882 43.013 50.2972 42.9967 50.3069 42.9797C50.3165 42.9622 50.3249 42.9458 50.3387 42.9313C50.3525 42.915 50.3669 42.9035 50.3843 42.8908C50.3946 42.8829 50.4018 42.8726 50.4126 42.8653L62.8892 35.5972C62.8946 35.5936 62.9012 35.5936 62.9066 35.5912C62.921 35.5833 62.936 35.5778 62.9523 35.573C62.9655 35.5694 62.9775 35.5645 62.9913 35.5615C63.0015 35.5591 63.0129 35.5591 63.0237 35.5579C63.0298 35.5579 63.0352 35.5542 63.0418 35.5542C63.0502 35.5542 63.058 35.5585 63.0658 35.5597C63.0796 35.5603 63.0916 35.5603 63.1054 35.5639C63.1175 35.5663 63.1271 35.5706 63.1379 35.5742C63.1541 35.5797 63.1673 35.5863 63.1811 35.5942C63.1889 35.5978 63.1986 35.5984 63.2046 35.6027C63.2082 35.6051 63.21 35.6087 63.2124 35.6111C63.222 35.6166 63.2286 35.625 63.2364 35.6311C63.2496 35.6426 63.2598 35.6535 63.27 35.6674C63.2784 35.6777 63.2881 35.6856 63.2941 35.6971C63.2965 35.7007 63.3001 35.7025 63.3019 35.7055C63.3055 35.711 63.3055 35.7176 63.3079 35.7237C63.3157 35.7382 63.3193 35.7515 63.3241 35.7673C63.3295 35.7812 63.3343 35.7933 63.3361 35.8072C63.3379 35.8187 63.3385 35.829 63.3397 35.8399C63.3397 35.8465 63.3433 35.852 63.3433 35.858V36.8183C63.3433 36.8262 63.3397 36.8323 63.3391 36.8389C63.3385 36.8528 63.3367 36.8649 63.3337 36.8783C63.3313 36.8922 63.3277 36.9037 63.3223 36.9164C63.3181 36.9303 63.3127 36.9418 63.3061 36.9557C63.3037 36.9618 63.3037 36.9696 63.2995 36.9751C63.2971 36.9793 63.2917 36.9811 63.2899 36.9848C63.2821 36.9963 63.2742 37.0053 63.2664 37.015C63.252 37.0326 63.2364 37.0447 63.2184 37.0574C63.2088 37.0652 63.2022 37.0755 63.1907 37.0816L63.1871 37.084L50.7142 44.3286C50.71 44.331 50.7046 44.3304 50.7004 44.3328C50.659 44.3534 50.6145 44.3685 50.5659 44.3685L50.5641 44.3691C50.5142 44.3691 50.4703 44.3546 50.4289 44.3328C50.4175 44.3274 50.4091 44.3189 50.3977 44.3129C50.3676 44.2923 50.3418 44.265 50.3202 44.2348C50.3148 44.2281 50.3064 44.2245 50.3022 44.2172C50.2998 44.2112 50.2998 44.2051 50.2961 44.1997C50.2877 44.1815 50.2823 44.1616 50.2769 44.1416C50.2715 44.1222 50.2655 44.1035 50.2655 44.0835C50.2649 44.0769 50.2613 44.0714 50.2613 44.0654L50.2618 43.1292ZM50.2618 45.431V45.0075C50.2618 44.9935 50.2678 44.982 50.2696 44.9699C50.272 44.9494 50.275 44.9294 50.2816 44.9094C50.2882 44.8913 50.2978 44.8737 50.3069 44.8568C50.3171 44.8404 50.3249 44.8247 50.3387 44.8108C50.3525 44.7932 50.3687 44.7811 50.3862 44.7684C50.3964 44.7606 50.4036 44.7503 50.4126 44.7442L62.8892 37.4973C62.8952 37.4949 62.9012 37.4949 62.9066 37.4913C62.9222 37.4846 62.9366 37.4792 62.9529 37.4737C62.9667 37.4695 62.9787 37.4634 62.9925 37.4616C63.0027 37.4598 63.0123 37.4598 63.0237 37.4592C63.0298 37.4586 63.0352 37.4556 63.0418 37.4556C63.0514 37.4556 63.0592 37.4598 63.0682 37.4616C63.082 37.4622 63.0934 37.4616 63.1072 37.4652C63.1187 37.4677 63.1271 37.4719 63.1385 37.4755C63.1547 37.4816 63.1697 37.4894 63.1841 37.4973C63.1919 37.5009 63.2022 37.5028 63.2082 37.5076L63.2118 37.5118C63.2214 37.5179 63.2292 37.5257 63.237 37.5324C63.2532 37.5463 63.2652 37.5627 63.279 37.5802C63.2857 37.5905 63.2965 37.5978 63.3025 37.6068C63.3061 37.6129 63.3061 37.6189 63.3085 37.6244C63.3181 37.6425 63.3229 37.6625 63.3277 37.6825C63.3277 37.6849 63.3295 37.6885 63.3295 37.6885C63.3313 37.6952 63.3349 37.7006 63.3361 37.7067C63.3379 37.7182 63.3385 37.7285 63.3397 37.7406C63.3397 37.7472 63.3433 37.7527 63.3433 37.7587V38.6973C63.3433 38.7051 63.3397 38.7112 63.3391 38.7178C63.3385 38.7312 63.3367 38.7433 63.3349 38.756C63.3313 38.7699 63.3283 38.782 63.3229 38.7953C63.3187 38.8092 63.3133 38.8213 63.3067 38.8346C63.3043 38.8407 63.3043 38.8485 63.3001 38.854C63.2977 38.8582 63.2935 38.8594 63.2905 38.8637C63.2826 38.8752 63.2748 38.8843 63.2664 38.8951C63.2526 38.9115 63.237 38.923 63.2208 38.9357C63.2094 38.9436 63.2028 38.9538 63.1925 38.9611L50.7159 46.2292C50.7117 46.2329 50.7063 46.231 50.7015 46.2335C50.6613 46.254 50.6156 46.2698 50.567 46.2698L50.5652 46.2704C50.5153 46.2704 50.4715 46.2559 50.4306 46.2347C50.4186 46.2286 50.409 46.2202 50.3988 46.2141C50.3687 46.1935 50.3435 46.1675 50.3213 46.1367C50.3159 46.1288 50.3075 46.1264 50.3033 46.1185C50.2997 46.113 50.2997 46.1064 50.2972 46.1003C50.2888 46.0822 50.2834 46.064 50.2792 46.0447C50.2732 46.0247 50.2672 46.0047 50.266 45.9848C50.266 45.9781 50.2624 45.9727 50.2624 45.9666L50.2618 45.431ZM50.2618 47.3777V46.9299C50.2618 46.916 50.2678 46.9057 50.2696 46.8924C50.272 46.8724 50.275 46.8518 50.2816 46.8318C50.2882 46.8137 50.2972 46.7973 50.3069 46.7798C50.3171 46.7635 50.3249 46.7477 50.3387 46.7332C50.3525 46.7157 50.3681 46.7048 50.3849 46.6908C50.3946 46.6842 50.4012 46.6727 50.4126 46.6672L62.8892 39.3768C62.8946 39.3732 62.9012 39.3732 62.9066 39.3701C62.9186 39.3641 62.9306 39.3599 62.9439 39.3544C62.9583 39.349 62.9721 39.3459 62.9871 39.3423C63.0003 39.3405 63.0111 39.3387 63.0249 39.3381C63.0304 39.3375 63.0352 39.3344 63.0424 39.3344C63.0484 39.3344 63.0538 39.3381 63.0598 39.3381C63.0742 39.3387 63.0862 39.3405 63.1012 39.3435C63.1151 39.3459 63.1271 39.3502 63.1409 39.355C63.1547 39.3605 63.1661 39.3653 63.1781 39.3726C63.1847 39.3762 63.1919 39.3762 63.1961 39.3792C63.2016 39.381 63.2028 39.3859 63.2082 39.3889C63.2184 39.3968 63.228 39.4052 63.2382 39.4131C63.2502 39.4234 63.2598 39.4331 63.2694 39.4452C63.2778 39.4549 63.2857 39.4633 63.2917 39.4736C63.2953 39.4791 63.3001 39.4821 63.3037 39.4875C63.3073 39.493 63.3061 39.4996 63.3091 39.5051C63.3157 39.519 63.3211 39.5305 63.3253 39.545C63.3295 39.5583 63.3337 39.5704 63.3367 39.5844C63.3391 39.5977 63.3409 39.6086 63.3421 39.6225C63.3421 39.6291 63.3457 39.6346 63.3457 39.6406V40.601C63.3457 40.6076 63.3421 40.6131 63.3421 40.6191C63.3403 40.633 63.3385 40.6445 63.3367 40.6585C63.3331 40.6724 63.3301 40.6851 63.3247 40.699C63.3211 40.7129 63.3163 40.7244 63.3091 40.7365C63.3067 40.742 63.3073 40.7486 63.3037 40.7541C63.3001 40.7595 63.2959 40.7607 63.2935 40.7643C63.2851 40.7777 63.276 40.7879 63.2676 40.7988C63.2538 40.8152 63.2382 40.8267 63.222 40.8394C63.2106 40.8472 63.204 40.8575 63.1937 40.8648L50.7171 48.1329C50.7129 48.1366 50.7075 48.1347 50.7027 48.1372C50.6625 48.1577 50.6168 48.1735 50.5682 48.1735L50.5664 48.1741C50.5165 48.1741 50.4726 48.1596 50.4318 48.1384C50.4198 48.1323 50.4102 48.1239 50.4 48.1178C50.3699 48.0972 50.3447 48.0712 50.3225 48.0404C50.3171 48.0325 50.3087 48.0301 50.3045 48.0222C50.3008 48.0168 50.3008 48.0101 50.2984 48.004C50.29 47.9859 50.2846 47.9677 50.2804 47.9484C50.2744 47.9284 50.2684 47.9084 50.2672 47.8885C50.2672 47.8818 50.2636 47.8764 50.2636 47.8703L50.263 47.3777L50.2618 47.3777ZM50.2618 49.2784V48.8089C50.2618 48.7949 50.2678 48.7834 50.2696 48.7713C50.272 48.7508 50.275 48.7308 50.2816 48.7108C50.2882 48.6927 50.2978 48.6751 50.3069 48.6582C50.3171 48.6418 50.3249 48.6261 50.3387 48.6122C50.3525 48.5946 50.3687 48.5825 50.3862 48.5698C50.3964 48.562 50.4036 48.5517 50.4126 48.5456L62.8892 41.2987C62.8952 41.2963 62.9012 41.2963 62.9066 41.2927C62.9198 41.2866 62.9318 41.2824 62.9457 41.2769C62.9595 41.2715 62.9715 41.2685 62.9853 41.2666C62.9985 41.263 63.0093 41.2612 63.0225 41.2612C63.0292 41.2606 63.0358 41.257 63.0418 41.257C63.0478 41.257 63.0538 41.2606 63.0598 41.2612C63.0736 41.2612 63.0862 41.2636 63.1 41.2666C63.1133 41.2691 63.1241 41.2727 63.1373 41.2769C63.1505 41.2824 63.1625 41.2866 63.1745 41.2927C63.1811 41.2963 63.1877 41.2963 63.1925 41.2993C63.198 41.3029 63.201 41.3078 63.2064 41.3114C63.2166 41.3181 63.2262 41.3272 63.2358 41.3338C63.2472 41.3435 63.2562 41.3532 63.267 41.3653C63.2754 41.3756 63.2845 41.3852 63.2905 41.3955C63.2941 41.401 63.2989 41.404 63.3025 41.4094C63.3061 41.4155 63.3061 41.4215 63.3085 41.427C63.3145 41.4403 63.3199 41.4524 63.3241 41.4651C63.3283 41.4784 63.3319 41.4911 63.3355 41.5051C63.3373 41.519 63.3397 41.5305 63.3409 41.5444C63.3409 41.551 63.3445 41.5565 63.3445 41.5625V42.5011C63.3445 42.5096 63.3409 42.5168 63.3403 42.5229C63.3397 42.5368 63.3379 42.5489 63.3349 42.5622C63.3325 42.5761 63.3289 42.5876 63.3235 42.5997C63.3193 42.6143 63.3133 42.6264 63.3061 42.6403C63.3025 42.6469 63.3025 42.6542 63.2983 42.6602C63.2959 42.6639 63.2923 42.6645 63.2899 42.6681C63.2821 42.6796 63.2754 42.6881 63.2676 42.6978C63.2532 42.7153 63.2376 42.7274 63.2196 42.7401C63.21 42.748 63.2034 42.7583 63.1919 42.7643L50.7153 50.0106C50.7111 50.013 50.7057 50.0124 50.7015 50.0142C50.6601 50.036 50.6156 50.0518 50.567 50.0518H50.5652C50.5153 50.0518 50.4715 50.036 50.43 50.0161C50.4186 50.01 50.4102 50.0021 50.3988 49.9955C50.3687 49.9749 50.3429 49.9489 50.3213 49.9174C50.3159 49.9096 50.3075 49.9077 50.3033 49.8993C50.3008 49.8938 50.3008 49.8878 50.2972 49.8817C50.2888 49.8636 50.2834 49.8442 50.278 49.8242C50.2726 49.8043 50.2666 49.7849 50.2666 49.7661C50.266 49.7601 50.2624 49.754 50.2624 49.748L50.2618 49.2784ZM50.2618 51.2021V50.7108C50.2618 50.6968 50.2678 50.6872 50.2696 50.6744C50.272 50.6539 50.275 50.6327 50.2816 50.6127C50.2882 50.5946 50.2972 50.5782 50.3069 50.5613C50.3165 50.5437 50.3249 50.5274 50.3387 50.5129C50.3525 50.4965 50.3669 50.485 50.3843 50.4723C50.3946 50.4645 50.4018 50.4542 50.4126 50.4469L62.8892 43.1788C62.8946 43.1751 62.9012 43.1752 62.9066 43.1727C62.9168 43.1667 62.9264 43.1612 62.9366 43.1582C62.9523 43.1528 62.9649 43.1497 62.9805 43.1467C62.9949 43.1443 63.0087 43.1407 63.0225 43.1401C63.0292 43.1401 63.0346 43.1364 63.0406 43.1364C63.0442 43.1364 63.0472 43.1388 63.0526 43.1388C63.0664 43.1388 63.0778 43.1425 63.0916 43.1449C63.1078 43.1473 63.1229 43.1509 63.1379 43.1564C63.1493 43.1606 63.1595 43.1643 63.1697 43.1697C63.1739 43.1715 63.1781 43.1703 63.1829 43.1733C63.1895 43.1776 63.1931 43.1836 63.2004 43.1879C63.2142 43.1963 63.2256 43.2054 63.2376 43.2145C63.2472 43.223 63.2556 43.2302 63.264 43.2399C63.2724 43.2496 63.2797 43.2599 63.2875 43.2714C63.2917 43.278 63.2989 43.2829 63.3031 43.2895C63.3067 43.295 63.3067 43.3016 63.3091 43.3077C63.3145 43.318 63.3187 43.3276 63.3235 43.3391C63.3277 43.3531 63.3301 43.3652 63.3337 43.3797C63.3373 43.3954 63.3397 43.4081 63.3403 43.4239C63.3403 43.4305 63.3439 43.436 63.3439 43.442V44.3806C63.3439 44.3872 63.3403 44.3927 63.3403 44.3987C63.3385 44.4126 63.3379 44.4247 63.3349 44.438C63.3313 44.4526 63.3283 44.4647 63.3229 44.478C63.3193 44.4913 63.3145 44.5034 63.3073 44.5155C63.3037 44.5215 63.3037 44.5288 63.3007 44.5349C63.2989 44.5385 63.2941 44.5403 63.2911 44.5445C63.2833 44.5566 63.2748 44.5669 63.2658 44.5772C63.252 44.5929 63.2364 44.6051 63.2202 44.6178C63.2088 44.6262 63.2022 44.6359 63.1919 44.6432L50.7153 51.9119C50.7111 51.9137 50.7057 51.9125 50.7009 51.9156C50.6607 51.9373 50.615 51.9531 50.5664 51.9531H50.5646C50.5147 51.9531 50.4709 51.9386 50.43 51.9174C50.418 51.9113 50.4084 51.9029 50.3982 51.8956C50.3681 51.8756 50.3429 51.8496 50.3207 51.8193C50.3153 51.8127 50.3069 51.8091 50.3027 51.8012C50.299 51.7951 50.2991 51.7891 50.2966 51.783C50.2882 51.7649 50.2828 51.7467 50.2786 51.7274C50.2726 51.7074 50.2666 51.6868 50.2654 51.6669C50.2654 51.6608 50.2618 51.6554 50.2618 51.6493L50.263 51.2021L50.2618 51.2021ZM50.2618 53.0592V52.6114C50.2618 52.5975 50.2678 52.5878 50.2696 52.5751C50.272 52.5545 50.275 52.5333 50.2816 52.5134C50.2882 52.4952 50.2972 52.4789 50.3069 52.4619C50.3165 52.4444 50.3249 52.428 50.3387 52.4135C50.3525 52.3972 50.3669 52.3857 50.3843 52.373C50.3946 52.3651 50.4018 52.3548 50.4126 52.3476L62.8892 45.0794C62.8946 45.0758 62.9012 45.0758 62.9066 45.0728C62.9186 45.0673 62.9306 45.0625 62.9439 45.057C62.9559 45.0534 62.9673 45.0504 62.9793 45.0474C62.9949 45.0437 63.0093 45.0413 63.0249 45.0407C63.031 45.0401 63.0352 45.0371 63.0424 45.0371C63.0484 45.0371 63.0544 45.0407 63.0604 45.0413C63.0718 45.0413 63.0826 45.0431 63.094 45.0449C63.1102 45.0486 63.1253 45.0516 63.1403 45.057C63.1523 45.0625 63.1637 45.0655 63.1739 45.0716C63.1799 45.074 63.1859 45.074 63.1913 45.077C63.1967 45.0806 63.1997 45.0867 63.2058 45.0903C63.2178 45.0982 63.228 45.1067 63.2382 45.1157C63.2484 45.1242 63.2574 45.1339 63.2664 45.1436C63.2748 45.1539 63.2839 45.1635 63.2899 45.175C63.2941 45.1811 63.3001 45.1847 63.3037 45.1908C63.3073 45.1962 63.3073 45.2029 63.3097 45.2089C63.3157 45.2204 63.3199 45.2313 63.3241 45.2434C63.3295 45.2573 63.3325 45.2694 63.3355 45.284C63.3379 45.2979 63.3409 45.3106 63.3415 45.3245C63.3415 45.3312 63.3451 45.3366 63.3451 45.3427V46.2812C63.3451 46.2867 63.3415 46.2915 63.3415 46.2969C63.3415 46.3109 63.3391 46.3224 63.3361 46.3363C63.3325 46.352 63.3295 46.3647 63.3241 46.3798C63.3205 46.392 63.3163 46.4022 63.3103 46.4143C63.3085 46.4198 63.3085 46.4246 63.3061 46.4301C63.3037 46.4355 63.2977 46.4367 63.2947 46.4416C63.2863 46.4555 63.2772 46.4676 63.267 46.4797C63.2532 46.4954 63.2376 46.5075 63.2214 46.5202C63.21 46.5287 63.2034 46.5384 63.1931 46.5456L50.7165 53.8144C50.7123 53.8162 50.7069 53.815 50.7021 53.818C50.6619 53.8398 50.6162 53.8556 50.5676 53.8556H50.5658C50.5159 53.8556 50.472 53.841 50.4312 53.8199C50.4192 53.8138 50.4096 53.8053 50.3994 53.7981C50.3693 53.7781 50.3441 53.7521 50.3219 53.7218C50.3165 53.7152 50.3081 53.7115 50.3039 53.7037C50.3002 53.6976 50.3003 53.6916 50.2978 53.6855C50.2894 53.6674 50.284 53.6492 50.2798 53.6298C50.2738 53.6099 50.2678 53.5893 50.2666 53.5693C50.2666 53.5633 50.263 53.5578 50.263 53.5518L50.2636 53.0592L50.2618 53.0592ZM50.2618 54.9816V54.4891C50.2618 54.4758 50.2678 54.4655 50.2696 54.4515C50.272 54.4316 50.275 54.411 50.2816 54.3916C50.2882 54.3735 50.2978 54.3572 50.3069 54.3396C50.3171 54.3221 50.3249 54.3075 50.3387 54.2918C50.3525 54.2755 50.3687 54.2634 50.3862 54.25C50.3964 54.2422 50.4036 54.2319 50.4126 54.2258L62.8892 46.9795C62.8952 46.9771 62.9012 46.9771 62.9066 46.9735C62.9198 46.9674 62.9318 46.9632 62.9457 46.9578C62.9595 46.9523 62.9715 46.9493 62.9853 46.9475C62.9985 46.9438 63.0093 46.942 63.0225 46.942C63.0292 46.9414 63.0358 46.9378 63.0418 46.9378C63.0478 46.9378 63.0538 46.9414 63.0598 46.942C63.0742 46.942 63.0874 46.9445 63.1012 46.9475C63.1145 46.9499 63.1253 46.9535 63.1385 46.9578C63.1517 46.9632 63.1637 46.9674 63.1757 46.9735C63.1823 46.9771 63.1889 46.9771 63.1937 46.9802C63.1992 46.9838 63.2022 46.9886 63.2076 46.9923C63.2178 46.9989 63.2274 47.008 63.237 47.0146C63.2484 47.0243 63.2574 47.034 63.2682 47.0461C63.2766 47.0564 63.2857 47.0661 63.2917 47.0764C63.2953 47.0818 63.3001 47.0848 63.3037 47.0903C63.3073 47.0963 63.3073 47.1024 63.3097 47.1078C63.3157 47.1211 63.3211 47.1332 63.3253 47.146C63.3295 47.1593 63.3331 47.172 63.3367 47.1859C63.3385 47.1998 63.3409 47.2113 63.3421 47.2252C63.3421 47.2319 63.3457 47.2373 63.3457 47.2434V48.1819C63.3457 48.1886 63.3421 48.1959 63.3415 48.2025C63.3409 48.2164 63.3391 48.2285 63.3373 48.2418C63.3337 48.2551 63.3307 48.266 63.3253 48.2794C63.3211 48.2939 63.3151 48.3054 63.3079 48.3193C63.3043 48.3259 63.3043 48.3338 63.3013 48.3393C63.2989 48.3435 63.2947 48.3447 63.2917 48.3477C63.2839 48.3592 63.276 48.3677 63.2682 48.378C63.2544 48.3937 63.2388 48.4058 63.2226 48.4185C63.2112 48.427 63.2046 48.4367 63.1943 48.444L50.7177 55.7127C50.7135 55.7145 50.7081 55.7133 50.7033 55.7163C50.6631 55.7381 50.6174 55.7538 50.5688 55.7538H50.567C50.5171 55.7538 50.4733 55.7393 50.4324 55.7182C50.4204 55.7121 50.4108 55.7036 50.4006 55.6964C50.3705 55.6764 50.3453 55.6504 50.3231 55.6201C50.3177 55.6135 50.3093 55.6098 50.3051 55.602C50.3015 55.5959 50.3015 55.5899 50.299 55.5838C50.2906 55.5657 50.2852 55.5475 50.281 55.5281C50.275 55.5082 50.269 55.4876 50.2678 55.4676C50.2678 55.4616 50.2642 55.4561 50.2642 55.4501L50.2618 54.9816Z" fill="#E1D8FC"/>
<path d="M35.3324 32.877L31.384 35.168L39.285 39.7808L43.2455 37.4838L35.3324 32.877Z" fill="#E1D8FC"/>
<path d="M39.586 70L43.5344 67.7109V38.0159L39.586 40.3044V70Z" fill="#E1D8FC"/>
<path d="M29.6949 0L5.32078 14.1871L44.3039 36.8506L68.6995 22.6859L29.6949 0Z" fill="#E1D8FC"/>
<path d="M4.27661 14.8298L4.23036 14.8038L0.30052 17.0942L30.103 34.4179L30.1745 34.3816L34.0418 32.1239L4.27661 14.8298Z" fill="#E1D8FC"/>
<path d="M37.9405 57.1904L32.3276 53.9403L32.1833 58.7604L38 62L37.9405 57.1904Z" fill="#E1D8FC"/>
<path d="M0 47.3349L29.7917 64.654L29.7923 34.9389L0.000600702 17.6213L0 47.3349ZM0.707033 33.0443L0.818163 31.1879C0.818163 31.1836 0.822368 31.1818 0.823569 31.1776C0.82417 31.1673 0.821767 31.1576 0.823569 31.1473L1.15696 29.4469C1.15877 29.439 1.16297 29.4335 1.16537 29.4269C1.16718 29.419 1.16597 29.4111 1.16898 29.4033L1.70119 27.905C1.7048 27.8953 1.71261 27.8887 1.71681 27.8796C1.72102 27.8711 1.72102 27.8614 1.72642 27.8517L2.48151 26.5767C2.48692 26.5671 2.49953 26.5671 2.50554 26.5586C2.51155 26.5501 2.50794 26.538 2.51575 26.5302L3.44864 25.4784C3.45705 25.4688 3.47027 25.4718 3.47988 25.4639C3.48829 25.4554 3.48769 25.4415 3.4979 25.4343L3.96283 25.0996C3.96464 25.0978 3.96464 25.0942 3.96644 25.093L4.25478 24.8467C4.25898 24.8431 4.26499 24.8461 4.26919 24.8425C4.28061 24.834 4.28721 24.8225 4.30043 24.8158L4.61039 24.6373C4.6182 24.6331 4.62661 24.6331 4.63441 24.6295C4.64222 24.6258 4.64823 24.6192 4.65664 24.6155L4.90112 24.5254C4.91073 24.5217 4.92034 24.5236 4.93056 24.5211C4.93897 24.5187 4.94677 24.5133 4.95578 24.5115L5.08854 24.4897C5.09094 24.4897 5.09394 24.4903 5.09635 24.4897C5.09875 24.4897 5.10175 24.4879 5.10416 24.4873L5.50363 24.4419C5.51504 24.4413 5.52525 24.4443 5.53607 24.4443C5.54808 24.4443 5.55769 24.4401 5.56971 24.4419L5.97038 24.4873C5.97459 24.4873 5.97819 24.4909 5.98239 24.4909C5.9878 24.4915 5.99201 24.4903 5.99681 24.4909L6.44133 24.5811C6.45274 24.5829 6.46055 24.5895 6.47076 24.5932C6.48097 24.5956 6.49119 24.595 6.5008 24.5992L6.96694 24.7995C6.97054 24.8013 6.97294 24.805 6.97655 24.8062C6.98015 24.808 6.98436 24.808 6.98856 24.8098L7.4547 25.0561C7.4547 25.0561 7.4571 25.0585 7.4601 25.0603C7.4601 25.0603 7.46371 25.0609 7.46551 25.0621L22.6525 33.8969L22.6543 33.8987L22.6561 33.8993L23.1006 34.1674C23.1072 34.1716 23.112 34.1789 23.1186 34.1837C23.1222 34.1861 23.1264 34.1837 23.1288 34.1861L23.595 34.5444C23.6004 34.548 23.5986 34.5547 23.6034 34.5589C23.6076 34.5625 23.6148 34.5607 23.6196 34.5649L24.0413 34.9674C24.0413 34.9674 24.0419 34.9698 24.0431 34.9716C24.0431 34.9716 24.0455 34.9716 24.0473 34.9734L24.4918 35.4212C24.4972 35.4266 24.4942 35.4345 24.4996 35.4393C24.5038 35.4448 24.5116 35.443 24.5158 35.449L24.9153 35.9634C24.9171 35.9652 24.9153 35.9694 24.9177 35.9719C24.9195 35.9743 24.9231 35.9737 24.9243 35.9773L25.2799 36.491C25.2805 36.4935 25.2805 36.4977 25.2805 36.4977C25.2829 36.5019 25.2884 36.5044 25.2908 36.5092L25.6242 37.0689C25.626 37.0732 25.626 37.0768 25.6284 37.081C25.6302 37.0847 25.6338 37.0871 25.635 37.0907L25.7857 37.3963L26.4495 38.6011C26.4519 38.6047 26.4513 38.6096 26.4537 38.6144C26.4555 38.6187 26.4591 38.6205 26.4603 38.6247L27.4154 40.7716C27.4172 40.7759 27.416 40.7795 27.4178 40.7831C27.4184 40.7874 27.422 40.7898 27.4238 40.7934L28.2006 42.9628C28.2024 42.967 28.2006 42.9713 28.2024 42.9761C28.203 42.9816 28.2078 42.9846 28.2084 42.99L28.764 45.1369C28.7646 45.1424 28.764 45.1454 28.7646 45.1509C28.7652 45.1551 28.7682 45.1587 28.7688 45.163L29.1238 47.2657C29.1244 47.2724 29.1232 47.279 29.1238 47.2839C29.1238 47.2893 29.1274 47.2942 29.128 47.2996L29.2392 49.2905C29.2392 49.296 29.2368 49.302 29.2368 49.3081C29.2368 49.3141 29.2392 49.3202 29.2392 49.3262L29.128 51.2052C29.128 51.2106 29.1226 51.213 29.122 51.2185C29.1214 51.23 29.1238 51.2391 29.122 51.2505L28.767 52.9498C28.7664 52.954 28.761 52.9564 28.7604 52.9619C28.758 52.9722 28.7598 52.9818 28.755 52.9933L28.1994 54.4922C28.197 54.4989 28.1909 54.5007 28.1873 54.508C28.1831 54.5195 28.1819 54.5304 28.1753 54.5419L27.4202 55.8169C27.4124 55.8308 27.398 55.8362 27.3878 55.8483C27.3824 55.855 27.3854 55.8659 27.3794 55.8719L26.402 56.9006C26.3936 56.9091 26.3804 56.9061 26.3708 56.9145C26.3612 56.9224 26.3624 56.9351 26.3516 56.943L25.8855 57.2564C25.8831 57.2582 25.8794 57.2564 25.877 57.2588C25.8728 57.2613 25.8692 57.2667 25.865 57.2691L25.6908 57.3666L25.5599 57.4803C25.5539 57.4858 25.5443 57.484 25.5382 57.4882C25.5322 57.4924 25.5328 57.5015 25.5262 57.5057L25.2151 57.7072C25.2091 57.7115 25.2019 57.7097 25.1959 57.7133C25.1718 57.7272 25.1496 57.7411 25.122 57.7472L24.7447 57.8373C24.7363 57.8398 24.7267 57.8392 24.7189 57.841C24.7153 57.841 24.7123 57.8446 24.7087 57.8446L24.3092 57.8888C24.299 57.8894 24.2876 57.8906 24.2768 57.8906C24.2666 57.8906 24.2564 57.8906 24.2455 57.8888L23.8238 57.8446C23.8196 57.8446 23.816 57.841 23.8118 57.841C23.8016 57.8392 23.792 57.8392 23.7818 57.8367L23.3373 57.7248C23.3295 57.7224 23.3235 57.7169 23.3169 57.7145C23.3084 57.7121 23.2994 57.7127 23.2916 57.7091L22.8255 57.5076C22.8201 57.5051 22.8159 57.4997 22.8111 57.4973C22.8075 57.4955 22.8033 57.4967 22.7991 57.4949L22.3545 57.2492L22.3521 57.2455H22.3497L7.16215 48.3769C7.16215 48.3769 7.15975 48.375 7.15795 48.3732L7.15434 48.3726L6.68821 48.0822C6.6828 48.0785 6.6798 48.0725 6.67439 48.0682C6.67199 48.0664 6.66778 48.0676 6.66418 48.0646L6.19804 47.707C6.19384 47.7034 6.19444 47.6967 6.18963 47.6925C6.18423 47.6882 6.17762 47.69 6.17341 47.6864L5.75172 47.2828C5.74992 47.2804 5.75112 47.2767 5.74811 47.2743C5.74631 47.2725 5.74271 47.2737 5.7403 47.2707L5.31861 46.8229C5.31621 46.8205 5.31801 46.8162 5.3144 46.8126C5.3102 46.8072 5.30299 46.806 5.29819 46.7987L4.92095 46.3079L4.92035 46.3037C4.91855 46.3013 4.91614 46.3013 4.91434 46.2977L4.5371 45.7609C4.5353 45.7591 4.53711 45.7555 4.5353 45.7524C4.5329 45.7482 4.52749 45.747 4.52509 45.7422L4.1917 45.1824C4.1899 45.1788 4.18989 45.1758 4.18809 45.1721C4.18749 45.1685 4.18449 45.1685 4.18268 45.1661L3.89435 44.6063C3.89255 44.6021 3.89255 44.5985 3.89075 44.5948C3.88234 44.5767 3.87873 44.5555 3.87452 44.5367C3.87032 44.5186 3.86251 44.5004 3.86131 44.4823L3.41018 43.6757C3.40778 43.6702 3.40778 43.6642 3.40478 43.6581C3.40297 43.6545 3.39877 43.6527 3.39697 43.6496L2.46408 41.525C2.46167 41.519 2.46227 41.5129 2.46047 41.5075C2.45987 41.5038 2.45627 41.502 2.45447 41.499L1.72161 39.3296C1.71981 39.3242 1.72161 39.3199 1.71981 39.3151C1.71921 39.3127 1.71621 39.3115 1.71561 39.3084L1.15996 37.1838C1.15815 37.1772 1.15996 37.1705 1.15935 37.1657C1.15935 37.1614 1.15515 37.1596 1.15395 37.1554L0.820554 35.0762C0.819953 35.0683 0.821155 35.0617 0.821155 35.0544C0.821155 35.0508 0.81755 35.0483 0.81695 35.0447L0.705818 33.0763C0.705818 33.0702 0.70822 33.0648 0.70822 33.0581C0.70822 33.0581 0.707033 33.0516 0.707033 33.0443Z" fill="#E1D8FC"/>
<path d="M1.74847 37.0503L2.29511 39.1435L3.02137 41.2941L3.94345 43.3969L4.42341 44.2525C4.42882 44.2622 4.42882 44.2707 4.43182 44.2804C4.43843 44.2937 4.44143 44.307 4.44564 44.3221C4.45164 44.3427 4.45765 44.3645 4.45945 44.3857L4.46005 44.3899L4.71175 44.8782L5.03613 45.4228L5.40315 45.9451L5.76478 46.4177L6.17145 46.8479L6.57692 47.234L7.01844 47.5734L7.46535 47.853L22.6463 56.7059L23.0734 56.9425L23.5077 57.1307L23.9048 57.2305L24.2742 57.2686L24.6238 57.2305L24.9332 57.1561L25.1837 56.9939L25.3224 56.8741C25.3266 56.8699 25.3326 56.8723 25.3368 56.8686C25.3489 56.8584 25.3585 56.8469 25.3723 56.8384L25.5633 56.7319L25.9886 56.4457L26.9203 55.4648L27.6435 54.2448L28.1818 52.7889L28.526 51.1388L28.6347 49.2967L28.5254 47.3416L28.1758 45.269L27.6261 43.1457L26.859 41.0036L25.9141 38.8802L25.2533 37.6838L24.771 36.8216L24.4292 36.3272L24.0459 35.8346L23.6212 35.408L23.2098 35.0159L22.7694 34.6776L22.3447 34.4216L7.17038 25.5923L6.71745 25.3527L6.29276 25.1699L5.88909 25.0882L5.53767 25.0489L5.17966 25.0888L5.16224 25.0913C5.15202 25.0997 5.14422 25.1106 5.1328 25.1173L4.30324 25.6014L3.87433 25.9094L2.98408 26.9133L2.25904 28.1381L1.74304 29.5879L1.41925 31.2424L1.31053 33.0595L1.41985 34.9978L1.74847 37.0503Z" fill="#E1D8FC"/>
<path d="M34.9464 32.166V32.1914C34.9464 32.2047 34.9404 32.2156 34.9386 32.2277C34.9362 32.2483 34.9332 32.2682 34.9266 32.2882C34.92 32.3076 34.911 32.3239 34.9014 32.3402C34.8918 32.3566 34.8822 32.3723 34.8695 32.3868C34.8557 32.4032 34.8395 32.4165 34.8221 32.4292C34.8119 32.4359 34.8059 32.4468 34.7957 32.4528L30.9193 34.7159L30.9367 34.7256L35.1489 32.2826L34.9464 32.166Z" fill="#E1D8FC"/>
<path d="M36.7607 42.3251C37.6556 43.9586 37.6104 45.705 36.6596 46.2259C35.7089 46.7468 34.2127 45.8448 33.3178 44.2112C32.4229 42.5777 32.4681 40.8313 33.4189 40.3104C34.3696 39.7895 35.8658 40.6915 36.7607 42.3251Z" fill="#E1D8FC"/>
<path d="M36.7621 50C37.657 51.6335 37.6118 53.3799 36.661 53.9008C35.7103 54.4217 34.2141 53.5197 33.3192 51.8861C32.4243 50.2526 32.4695 48.5062 33.4203 47.9853C34.371 47.4644 35.8672 48.3664 36.7621 50Z" fill="#E1D8FC"/>
</svg>
