<svg width="30" height="30" viewBox="0 0 30 30" fill="none" xmlns="http://www.w3.org/2000/svg">
<path fill-rule="evenodd" clip-rule="evenodd" d="M13 0C12.4477 0 12 0.447716 12 1V12H1C0.447715 12 0 12.4477 0 13V17C0 17.5523 0.447716 18 1 18H12V29C12 29.5523 12.4477 30 13 30H17C17.5523 30 18 29.5523 18 29V18H29C29.5523 18 30 17.5523 30 17V13C30 12.4477 29.5523 12 29 12H18V1C18 0.447715 17.5523 0 17 0H13Z" fill="url(#paint0_linear_453_3665)"/>
<defs>
<linearGradient id="paint0_linear_453_3665" x1="24.6536" y1="4.91923" x2="2.99145" y2="27.783" gradientUnits="userSpaceOnUse">
<stop stop-color="#EB5884"/>
<stop offset="0.491918" stop-color="#A05ED5"/>
<stop offset="1" stop-color="#6124C5"/>
</linearGradient>
</defs>
</svg>
