<svg width="7" height="10" viewBox="0 0 7 10" fill="none" xmlns="http://www.w3.org/2000/svg">
<path d="M6.99475 4.91013C6.96991 4.71347 6.86674 4.52764 6.69894 4.37783L2.21665 0.358409V0.358543C2.00577 0.156273 1.69727 0.0283693 1.36154 0.00421171C1.02578 -0.0200873 0.6916 0.0614885 0.43538 0.22998C0.179173 0.398471 0.0230171 0.639714 0.0023443 0.898482C-0.0183285 1.15725 0.0984027 1.4113 0.325772 1.60263L4.11558 4.99993L0.325772 8.39723V8.39737C0.0983983 8.58869 -0.0183285 8.84275 0.0023443 9.10152C0.0230144 9.36026 0.179173 9.60138 0.43538 9.77002C0.691587 9.93851 1.02577 10.0201 1.36154 9.99579C1.69731 9.97162 2.00578 9.84372 2.21665 9.64146L6.69894 5.62203V5.62217C6.91902 5.42551 7.02567 5.16862 6.99475 4.91029V4.91013Z" fill="#734CA5"/>
</svg>
