<svg width="70" height="70" viewBox="0 0 70 70" fill="none" xmlns="http://www.w3.org/2000/svg">
<g id="Frame 48">
<g id="Vector">
<path d="M29.9788 66.0971L4 51.4805V30.7377L29.9788 45.6768V66.0971Z" fill="url(#paint0_linear_453_3698)"/>
<path d="M35.9824 63.4099L31.0707 66.0968V45.6764L35.9824 42.56V63.4099Z" fill="url(#paint1_linear_453_3698)"/>
<path d="M57.1585 48.0411L56.0667 48.6858L37.0742 59.8636V45.6765L43.6238 41.7001L44.7157 41.0554L57.2681 33.6394L57.2673 48.0409L57.1585 48.0411Z" fill="url(#paint2_linear_453_3698)"/>
<path d="M30.5247 44.7095L4.54593 29.7705L9.45768 26.9763L16.6621 31.0606L35.4366 41.593L30.5247 44.7095Z" fill="url(#paint3_linear_453_3698)"/>
<path d="M21.6834 32.6719L32.9263 26.4384L34.0181 25.7936L39.5848 22.6772L56.6127 32.5649L43.5144 40.4105L42.4225 41.0552L36.9648 44.3867V41.2703L21.6834 32.6719Z" fill="url(#paint4_linear_453_3698)"/>
<path d="M39.0392 4.29863V21.8173L34.0177 24.6115L32.9258 25.2562L20.5912 32.1346L16.6616 29.9853L16.6631 16.766L39.0392 4.29863Z" fill="url(#paint5_linear_453_3698)"/>
<path d="M10.0041 13.9718L15.5708 16.8738V29.3411L10.0041 26.2247V13.9718Z" fill="url(#paint6_linear_453_3698)"/>
<path d="M33.4725 0L38.6027 3.33154L16.1169 15.9062L10.5502 13.0041L33.4725 0Z" fill="url(#paint7_linear_453_3698)"/>
<path d="M60.5423 28.3728L40.1304 16.6582V11.0693L65.5634 25.2564L60.5423 28.3728Z" fill="url(#paint8_linear_453_3698)"/>
<path d="M59.9963 49.6529L58.2497 48.6858L58.2505 32.3494L40.1306 21.817V17.8406L59.9967 29.2328L59.9963 49.6529Z" fill="url(#paint9_linear_453_3698)"/>
<path d="M66 47.0737L61.0882 49.7606V29.3403L66 26.2239V47.0737Z" fill="url(#paint10_linear_453_3698)"/>
<path d="M55.6304 53.1997C54.8659 53.6293 54.3208 53.4149 53.9934 53.1997L53.7749 51.3727L55.849 50.1905L55.6304 53.1997Z" fill="url(#paint11_linear_453_3698)"/>
<path d="M25.504 69.7519C24.8492 70.1814 24.1944 69.967 23.867 69.7519L23.2122 63.5183L25.9411 65.0229L25.504 69.7519Z" fill="url(#paint12_linear_453_3698)"/>
<path d="M10.0041 60.9385C9.34927 61.3681 8.69446 61.1537 8.36707 60.9385L7.71151 54.8128L10.3314 56.3174L10.0041 60.9385Z" fill="url(#paint13_linear_453_3698)"/>
</g>
</g>
<defs>
<linearGradient id="paint0_linear_453_3698" x1="54.9508" y1="11.4782" x2="4.44677" y2="58.6916" gradientUnits="userSpaceOnUse">
<stop stop-color="#EB5884"/>
<stop offset="0.491918" stop-color="#A05ED5"/>
<stop offset="1" stop-color="#6124C5"/>
</linearGradient>
<linearGradient id="paint1_linear_453_3698" x1="54.9508" y1="11.4782" x2="4.44677" y2="58.6916" gradientUnits="userSpaceOnUse">
<stop stop-color="#EB5884"/>
<stop offset="0.491918" stop-color="#A05ED5"/>
<stop offset="1" stop-color="#6124C5"/>
</linearGradient>
<linearGradient id="paint2_linear_453_3698" x1="54.9508" y1="11.4782" x2="4.44677" y2="58.6916" gradientUnits="userSpaceOnUse">
<stop stop-color="#EB5884"/>
<stop offset="0.491918" stop-color="#A05ED5"/>
<stop offset="1" stop-color="#6124C5"/>
</linearGradient>
<linearGradient id="paint3_linear_453_3698" x1="54.9508" y1="11.4782" x2="4.44677" y2="58.6916" gradientUnits="userSpaceOnUse">
<stop stop-color="#EB5884"/>
<stop offset="0.491918" stop-color="#A05ED5"/>
<stop offset="1" stop-color="#6124C5"/>
</linearGradient>
<linearGradient id="paint4_linear_453_3698" x1="54.9508" y1="11.4782" x2="4.44677" y2="58.6916" gradientUnits="userSpaceOnUse">
<stop stop-color="#EB5884"/>
<stop offset="0.491918" stop-color="#A05ED5"/>
<stop offset="1" stop-color="#6124C5"/>
</linearGradient>
<linearGradient id="paint5_linear_453_3698" x1="54.9508" y1="11.4782" x2="4.44677" y2="58.6916" gradientUnits="userSpaceOnUse">
<stop stop-color="#EB5884"/>
<stop offset="0.491918" stop-color="#A05ED5"/>
<stop offset="1" stop-color="#6124C5"/>
</linearGradient>
<linearGradient id="paint6_linear_453_3698" x1="54.9508" y1="11.4782" x2="4.44677" y2="58.6916" gradientUnits="userSpaceOnUse">
<stop stop-color="#EB5884"/>
<stop offset="0.491918" stop-color="#A05ED5"/>
<stop offset="1" stop-color="#6124C5"/>
</linearGradient>
<linearGradient id="paint7_linear_453_3698" x1="54.9508" y1="11.4782" x2="4.44677" y2="58.6916" gradientUnits="userSpaceOnUse">
<stop stop-color="#EB5884"/>
<stop offset="0.491918" stop-color="#A05ED5"/>
<stop offset="1" stop-color="#6124C5"/>
</linearGradient>
<linearGradient id="paint8_linear_453_3698" x1="54.9508" y1="11.4782" x2="4.44677" y2="58.6916" gradientUnits="userSpaceOnUse">
<stop stop-color="#EB5884"/>
<stop offset="0.491918" stop-color="#A05ED5"/>
<stop offset="1" stop-color="#6124C5"/>
</linearGradient>
<linearGradient id="paint9_linear_453_3698" x1="54.9508" y1="11.4782" x2="4.44677" y2="58.6916" gradientUnits="userSpaceOnUse">
<stop stop-color="#EB5884"/>
<stop offset="0.491918" stop-color="#A05ED5"/>
<stop offset="1" stop-color="#6124C5"/>
</linearGradient>
<linearGradient id="paint10_linear_453_3698" x1="54.9508" y1="11.4782" x2="4.44677" y2="58.6916" gradientUnits="userSpaceOnUse">
<stop stop-color="#EB5884"/>
<stop offset="0.491918" stop-color="#A05ED5"/>
<stop offset="1" stop-color="#6124C5"/>
</linearGradient>
<linearGradient id="paint11_linear_453_3698" x1="54.9508" y1="11.4782" x2="4.44677" y2="58.6916" gradientUnits="userSpaceOnUse">
<stop stop-color="#EB5884"/>
<stop offset="0.491918" stop-color="#A05ED5"/>
<stop offset="1" stop-color="#6124C5"/>
</linearGradient>
<linearGradient id="paint12_linear_453_3698" x1="54.9508" y1="11.4782" x2="4.44677" y2="58.6916" gradientUnits="userSpaceOnUse">
<stop stop-color="#EB5884"/>
<stop offset="0.491918" stop-color="#A05ED5"/>
<stop offset="1" stop-color="#6124C5"/>
</linearGradient>
<linearGradient id="paint13_linear_453_3698" x1="54.9508" y1="11.4782" x2="4.44677" y2="58.6916" gradientUnits="userSpaceOnUse">
<stop stop-color="#EB5884"/>
<stop offset="0.491918" stop-color="#A05ED5"/>
<stop offset="1" stop-color="#6124C5"/>
</linearGradient>
</defs>
</svg>
