<svg width="70" height="70" viewBox="0 0 70 70" fill="none" xmlns="http://www.w3.org/2000/svg">
<path d="M52.9258 49.1269C55.5665 50.4243 58.5309 51.5707 61.8175 52.4469C65.0907 47.426 67 41.4338 67 34.9923C67 25.6178 62.9696 17.185 56.5486 11.3311C61.7485 29.9023 54.3385 46.2661 52.9258 49.1269Z" fill="#E1D8FC"/>
<path d="M23.217 37.0792C23.3159 37.0275 23.4203 37.0111 23.5242 37.0111C28.7023 35.0218 33.2453 34.4823 34.6321 34.3594C35.0895 33.1504 36.5205 28.9496 36.9407 22.9241C33.055 23.2255 15.2217 25.4555 3.55068 40.8906C4.21745 44.4697 5.47883 47.8381 7.23056 50.8917C9.0136 47.3488 11.4321 44.5494 14.1166 42.3557C14.1762 42.2607 14.2508 42.1752 14.3557 42.118C14.3905 42.0991 14.4278 42.0971 14.4641 42.0847C17.2331 39.891 20.2487 38.3055 23.1022 37.1727C23.14 37.1403 23.1718 37.1035 23.2171 37.0796L23.217 37.0792Z" fill="#E1D8FC"/>
<path d="M37.0162 21.5699C37.1256 18.936 37.0266 15.9994 36.5801 12.844C33.3875 12.7505 16.7297 13.1831 3.28938 30.743C3.10491 32.1345 3 33.5508 3 34.9925C3 36.3682 3.09646 37.7209 3.26501 39.0512C15.4348 23.8856 33.3838 21.832 37.0165 21.5698L37.0162 21.5699Z" fill="#E1D8FC"/>
<path d="M34.767 35.6966C33.5324 35.8045 29.3469 36.2859 24.5079 38.0707C26.5524 41.6832 35.4387 55.4617 54.2881 60.5301C56.8636 58.5807 59.1305 56.2481 61.0139 53.6213C44.5748 49.0698 36.2158 37.8153 34.7673 35.6968L34.767 35.6966Z" fill="#E1D8FC"/>
<path d="M23.2411 38.5637C20.6964 39.6046 18.0378 41.0189 15.5721 42.9276C17.5038 46.2566 26.5078 60.176 44.6712 65.5079C47.6143 64.5754 50.3744 63.2322 52.8808 61.5403C33.9913 56.039 25.1538 41.9888 23.2419 38.5628L23.2411 38.5637Z" fill="#E1D8FC"/>
<path d="M37.8092 11.9515C37.849 12.049 37.8738 12.1534 37.8634 12.2658C37.8624 12.2743 37.8574 12.2807 37.8564 12.2887C38.385 15.837 38.4809 19.1253 38.3347 22.0425C38.3462 22.0918 38.3641 22.1385 38.3651 22.1903C38.3671 22.2847 38.3487 22.3748 38.3148 22.4573C37.9305 29.0424 36.3404 33.6525 35.8596 34.9147C36.5085 35.869 38.922 39.1966 43.2477 42.8245C43.2542 42.8111 43.2532 42.7967 43.2607 42.7833C43.3591 42.6042 52.5497 25.4406 45.0482 4.6058C42.0485 3.61365 38.8539 3.05462 35.535 3C36.6358 6.10619 37.3662 9.11089 37.8092 11.9515Z" fill="#E1D8FC"/>
<path d="M36.3734 11.496C35.9125 8.79503 35.1835 5.94843 34.1101 3.00927C19.2442 3.41657 6.9164 13.9577 3.78132 27.9792C16.9594 12.2509 32.556 11.4374 36.3734 11.496Z" fill="#E1D8FC"/>
<path d="M14.5181 43.7861C11.9619 45.9733 9.67727 48.7364 8.05537 52.2495C13.745 61.1181 23.6824 67 34.9996 67C37.5031 67 39.9354 66.7031 42.2734 66.1595C25.292 60.3907 16.6403 47.3846 14.5184 43.7868L14.5181 43.7861Z" fill="#E1D8FC"/>
<path d="M44.4396 43.4321C44.3913 43.5192 44.3168 43.5788 44.2417 43.6345C46.3354 45.2971 48.8245 46.988 51.7282 48.5173C53.1224 45.697 60.8582 28.664 54.6673 9.75418C52.2598 7.87478 49.5778 6.33365 46.6899 5.19929C53.7315 26.1512 44.5394 43.2507 44.4395 43.4315L44.4396 43.4321Z" fill="#E1D8FC"/>
</svg>
