<svg width="70" height="70" viewBox="0 0 70 70" fill="none" xmlns="http://www.w3.org/2000/svg">
<path d="M11.6368 21.5769L6.13684 22.9905L11.6368 26.0769V21.5769Z" fill="#E1D8FC"/>
<path fill-rule="evenodd" clip-rule="evenodd" d="M32.6006 7L54.2352 19.5886C55.9959 23.5513 56.404 24.5432 58.703 30.132C59.0842 31.0589 59.5175 32.1121 60.0176 33.3264L69.303 43.2368L51.3181 52.7025L43.3417 41.181L58.123 32.9257L53.3372 21.6862L37.7344 30.7277L41.9315 40.4226L37.9188 40.6355L34.495 31.3277L25.9214 26.6323V35.2249L26 35.273V48.5481L24.5 47.6349V34.6244L24.6754 34.7253V26.1327L13.9079 19.8385V28.5306L14 28.5836V41.2428L13.0601 40.6706C13.2896 38.8116 12.7621 36.4722 11.415 34.2766C9.10527 30.5123 5.36198 28.6501 3.04024 30.0806C1.88752 30.7904 1.30775 32.1421 1.29575 33.8277L0 32.9781V23.7864L0.847839 22.7874C0.880373 22.7645 0.911191 22.7445 0.942465 22.7241C0.960549 22.7123 0.9789 22.7004 0.997711 22.6878L1.3968 22.4381C5.94776 19.387 10.4652 16.9607 14.7062 14.9449C14.7598 14.9192 14.8104 14.8932 14.861 14.8672C14.9082 14.843 14.9555 14.8187 15.005 14.7947L16.4507 13.9957L32.6016 7.00193L32.6006 7ZM12.6618 19.8882L4.08845 22.9857L12.6618 27.9814V19.8882Z" fill="#E1D8FC"/>
<path d="M15 41.8515L23.5 47.0261V34.0491L15 29.1589V41.8515Z" fill="#E1D8FC"/>
<path d="M15 28L23.5 33V27L15 22V28Z" fill="#E1D8FC"/>
<path fill-rule="evenodd" clip-rule="evenodd" d="M27 49.1568L29.0611 50.4116C28.9788 48.5491 29.5141 46.9803 30.7559 46.2156C33.0776 44.7848 36.8716 46.697 39.1804 50.4612C40.6157 52.7998 41.1295 55.2956 40.7758 57.2052L50.8455 63L69.9871 51.2601C69.9871 50.4742 69.9902 49.6188 69.9935 48.757V48.7534C69.9999 47.0264 70.0064 45.2743 69.9877 44.0065L50.9997 53.9997L37.0001 42L37.0014 41.9984L27 35.8843V49.1568ZM67.194 46.9134C66.3761 46.9134 65.6987 48.0359 65.6987 49.3611C65.6987 50.6871 66.3761 51.759 67.194 51.759C68.0119 51.759 68.6396 50.6871 68.6396 49.3611C68.6396 48.0352 68.0119 46.9134 67.194 46.9134ZM53.9839 54.7062C53.166 54.7062 52.5383 55.7781 52.5383 57.1041C52.5383 58.43 53.166 59.502 53.9839 59.502C54.8018 59.502 55.4792 58.43 55.4792 57.1041C55.4792 55.7781 54.8018 54.7062 53.9839 54.7062Z" fill="#E1D8FC"/>
<path d="M38.3673 41.8548L48.7574 50.7606L42.2808 41.4055L38.2801 41.6178L38.3673 41.8548Z" fill="#E1D8FC"/>
<path d="M69.9872 43.9759C69.9872 43.9729 69.9871 43.9699 69.9871 43.9669L69.9766 43.9557L69.9872 43.9759Z" fill="#E1D8FC"/>
<path d="M5.00756 33.6505C4.70638 33.6771 4.45212 33.8027 4.23377 34.0063C3.36079 34.8237 3.61439 36.7965 4.83743 38.4413C6.06037 40.0854 7.77174 40.7878 8.6446 39.9698C9.51759 39.1524 9.22322 37.1448 8.00018 35.5C7.08295 34.2667 5.91122 33.5713 5.00756 33.6505Z" fill="#E1D8FC"/>
<path fill-rule="evenodd" clip-rule="evenodd" d="M4.7854 31.1278C6.45368 31.2093 8.42258 32.5774 9.77047 34.7745C11.5672 37.7037 11.5766 41.0043 9.77047 42.1176C7.96431 43.2307 5.03709 41.7494 3.24043 38.8211C1.44284 35.8919 1.43341 32.5913 3.24043 31.478C3.69175 31.1999 4.22959 31.1012 4.7854 31.1278ZM5.13395 32.5765C4.71003 32.5559 4.33149 32.6649 3.98722 32.876C2.61014 33.724 2.5673 36.1879 3.93755 38.421C5.3078 40.6533 7.54557 41.8171 8.92261 40.9683C10.2997 40.1204 10.2929 37.6066 8.92261 35.3735C7.89493 33.699 6.40576 32.6391 5.13395 32.5765Z" fill="#E1D8FC"/>
<path d="M32.7051 50.0522C33.0249 49.9759 33.3569 49.9763 33.7066 50.0721C34.7555 50.3603 35.8292 51.3625 36.4226 52.6897C37.2129 54.4594 36.8257 56.155 35.5466 56.4601C34.2674 56.7657 32.586 55.5491 31.7956 53.7794C31.0046 52.0095 31.426 50.3573 32.7051 50.0522Z" fill="#E1D8FC"/>
<path fill-rule="evenodd" clip-rule="evenodd" d="M32.5498 47.4626C34.2181 47.5442 36.187 48.9122 37.5349 51.1094C39.3316 54.0385 39.341 57.3401 37.5349 58.4525C35.7279 59.5656 32.8015 58.0843 31.0048 55.1551C29.2082 52.2259 29.1987 48.9252 31.0048 47.812C31.4562 47.5331 31.994 47.4361 32.5498 47.4626ZM32.8984 48.9114C32.4744 48.8908 32.0959 48.9989 31.7516 49.2109C30.3745 50.0588 30.3317 52.5228 31.702 54.7559C33.0714 56.989 35.31 58.1519 36.687 57.3032C38.0641 56.4552 38.0564 53.9414 36.687 51.7083C35.6593 50.0339 34.1702 48.974 32.8984 48.9114Z" fill="#E1D8FC"/>
<path d="M27 28.5V34.5L36.5 40.5L34 32.5L27 28.5Z" fill="#E1D8FC"/>
<path d="M39.5 31L53 23.5L57 32.5187L43 40L39.5 31Z" fill="#E1D8FC"/>
</svg>
