<svg width="28" height="28" viewBox="0 0 28 28" fill="none" xmlns="http://www.w3.org/2000/svg">
<g id="Yandex_Zen_logo_icon 1">
<path id="Ellipse 19" d="M27 14C27 21.1797 21.1797 27 14 27C6.8203 27 1 21.1797 1 14C1 6.8203 6.8203 1 14 1C21.1797 1 27 6.8203 27 14Z" fill="white"/>
<path id="Vector" d="M27 14.1393V13.8607C21.2429 13.675 18.615 13.5357 16.5071 11.4929C14.4643 9.385 14.3157 6.75714 14.1393 1H13.8607C13.675 6.75714 13.5357 9.385 11.4929 11.4929C9.385 13.5357 6.75714 13.6843 1 13.8607V14.1393C6.75714 14.325 9.385 14.4643 11.4929 16.5071C13.5357 18.615 13.6843 21.2429 13.8607 27H14.1393C14.325 21.2429 14.4643 18.615 16.5071 16.5071C18.615 14.4643 21.2429 14.3157 27 14.1393Z" fill="#734CA5"/>
</g>
</svg>
