<svg width="84" height="192" viewBox="0 0 84 192" fill="none" xmlns="http://www.w3.org/2000/svg">
<g clip-path="url(#clip0_453_3584)">
<path d="M-120.471 129.665C-154.939 120.403 -154.939 71.5973 -120.471 62.3353L-96.1044 55.7879C-84.0821 52.5575 -74.6912 43.1855 -71.4542 31.1873L-64.8936 6.87001C-55.613 -27.5293 -6.70896 -27.5293 2.57166 6.87L9.13226 31.1873C12.3692 43.1855 21.7601 52.5575 33.7824 55.7879L58.1488 62.3353C92.6175 71.5973 92.6175 120.403 58.1488 129.665L33.7825 136.212C21.7601 139.443 12.3692 148.815 9.13226 160.813L2.57167 185.13C-6.70895 219.53 -55.613 219.53 -64.8936 185.13L-71.4542 160.813C-74.6912 148.815 -84.0821 139.443 -96.1044 136.212L-120.471 129.665Z" fill="url(#paint0_linear_453_3584)"/>
<mask id="mask0_453_3584" style="mask-type:alpha" maskUnits="userSpaceOnUse" x="-147" y="-19" width="231" height="230">
<path d="M-120.471 129.665C-154.939 120.403 -154.939 71.5973 -120.471 62.3353L-96.1044 55.7879C-84.0821 52.5575 -74.6912 43.1855 -71.4542 31.1873L-64.8936 6.87001C-55.613 -27.5293 -6.70896 -27.5293 2.57166 6.87L9.13226 31.1873C12.3692 43.1855 21.7601 52.5575 33.7824 55.7879L58.1488 62.3353C92.6175 71.5973 92.6175 120.403 58.1488 129.665L33.7825 136.212C21.7601 139.443 12.3692 148.815 9.13226 160.813L2.57167 185.13C-6.70895 219.53 -55.613 219.53 -64.8936 185.13L-71.4542 160.813C-74.6912 148.815 -84.0821 139.443 -96.1044 136.212L-120.471 129.665Z" fill="url(#paint1_linear_453_3584)"/>
</mask>
<g mask="url(#mask0_453_3584)">
<path d="M22.372 77C18.3357 77 15.0006 80.2938 15.0006 84.3027V91.6299H69V84.3027C69 80.294 65.6605 77 61.624 77H22.372ZM24.492 84.3027C24.5254 84.3022 24.5588 84.3022 24.5928 84.3027H29.5C30.378 84.3027 31.1887 84.7679 31.6274 85.5231C32.0662 86.2778 32.0662 87.2082 31.6274 87.9628C31.1887 88.718 30.378 89.1827 29.5 89.1827H24.5928C23.7148 89.2006 22.8943 88.7523 22.4401 88.0064C21.9855 87.2604 21.9663 86.3301 22.3897 85.5661C22.8131 84.8021 23.6146 84.3207 24.492 84.3027ZM46.7953 84.3027C46.8287 84.3022 46.8621 84.3022 46.8961 84.3027H46.9344C47.8119 84.3027 48.6226 84.7679 49.0613 85.5231C49.5001 86.2778 49.5001 87.2082 49.0613 87.9628C48.6226 88.718 47.8119 89.1827 46.9344 89.1827H46.8961C46.0181 89.2006 45.1976 88.7523 44.7434 88.0064C44.2888 87.2604 44.2696 86.3301 44.693 85.5661C45.1164 84.8022 45.9179 84.3207 46.7953 84.3027ZM15 96.5048V130.62H68.9994V96.5048H15ZM37.7846 101.38C39.9553 101.382 41.5399 102.951 43.1142 104.37C44.116 103.973 45.1255 103.543 46.21 103.541C49.6837 103.543 52.2714 106.139 53.6725 109.245C56.6582 110.682 59.1794 113.288 59.1794 116.819C59.1794 121.681 55.2745 125.745 50.4133 125.745H33.5867C28.7249 125.745 24.8157 121.681 24.8157 116.819C24.8157 114.043 27.0494 112.395 29.0382 110.753C29.03 110.626 29.0223 110.505 29.019 110.377C29.0185 110.353 29.0185 110.33 29.019 110.306C29.019 105.446 32.9244 101.38 37.7846 101.38ZM15 135.495V147.697C15 151.706 18.3352 155 22.3715 155H61.6238C65.6601 155 68.9997 151.706 68.9997 147.697V135.495H15ZM36.9994 140.37C37.0328 140.369 37.0662 140.369 37.0996 140.37H46.8965C47.774 140.37 48.5847 140.835 49.0234 141.59C49.4622 142.345 49.4622 143.275 49.0234 144.03C48.5847 144.785 47.774 145.25 46.8965 145.25H37.0996C36.4484 145.263 35.8185 145.019 35.3486 144.571C34.878 144.123 34.6069 143.507 34.5932 142.86C34.5801 142.213 34.826 141.587 35.2773 141.12C35.7281 140.653 36.3476 140.384 36.9994 140.37Z" fill="white"/>
</g>
</g>
<defs>
<linearGradient id="paint0_linear_453_3584" x1="-16.7995" y1="151.609" x2="111.268" y2="153.669" gradientUnits="userSpaceOnUse">
<stop stop-color="#F86161"/>
<stop offset="0.463168" stop-color="#A151E0"/>
<stop offset="1" stop-color="#4C13A9"/>
</linearGradient>
<linearGradient id="paint1_linear_453_3584" x1="-39.29" y1="78.4226" x2="185.991" y2="66.2694" gradientUnits="userSpaceOnUse">
<stop stop-color="#FF9892"/>
<stop offset="0.545239" stop-color="#6627B9"/>
<stop offset="1" stop-color="#6627B9" stop-opacity="0"/>
</linearGradient>
<clipPath id="clip0_453_3584">
<rect width="192" height="84" fill="white" transform="translate(0 192) rotate(-90)"/>
</clipPath>
</defs>
</svg>
