<svg width="84" height="192" viewBox="0 0 84 192" fill="none" xmlns="http://www.w3.org/2000/svg">
<g clip-path="url(#clip0_453_3574)">
<path d="M-120.471 129.665C-154.939 120.403 -154.939 71.5973 -120.471 62.3353L-96.1044 55.7879C-84.0821 52.5575 -74.6912 43.1855 -71.4542 31.1873L-64.8936 6.87001C-55.613 -27.5293 -6.70896 -27.5293 2.57166 6.87L9.13226 31.1873C12.3692 43.1855 21.7601 52.5575 33.7824 55.7879L58.1488 62.3353C92.6175 71.5973 92.6175 120.403 58.1488 129.665L33.7825 136.212C21.7601 139.443 12.3692 148.815 9.13226 160.813L2.57167 185.13C-6.70895 219.53 -55.613 219.53 -64.8936 185.13L-71.4542 160.813C-74.6912 148.815 -84.0821 139.443 -96.1044 136.212L-120.471 129.665Z" fill="url(#paint0_linear_453_3574)"/>
<mask id="mask0_453_3574" style="mask-type:alpha" maskUnits="userSpaceOnUse" x="-147" y="-19" width="231" height="230">
<path d="M-120.471 129.665C-154.939 120.403 -154.939 71.5973 -120.471 62.3353L-96.1044 55.7879C-84.0821 52.5575 -74.6912 43.1855 -71.4542 31.1873L-64.8936 6.87001C-55.613 -27.5293 -6.70896 -27.5293 2.57166 6.87L9.13226 31.1873C12.3692 43.1855 21.7601 52.5575 33.7824 55.7879L58.1488 62.3353C92.6175 71.5973 92.6175 120.403 58.1488 129.665L33.7825 136.212C21.7601 139.443 12.3692 148.815 9.13226 160.813L2.57167 185.13C-6.70895 219.53 -55.613 219.53 -64.8936 185.13L-71.4542 160.813C-74.6912 148.815 -84.0821 139.443 -96.1044 136.212L-120.471 129.665Z" fill="url(#paint1_linear_453_3574)"/>
</mask>
<g mask="url(#mask0_453_3574)">
<path d="M25.3448 77C21.8573 77 19 79.8757 19 83.3856V147.825H52.3065C53.1775 147.828 53.8832 148.539 53.8868 149.415C53.8883 149.839 53.7225 150.245 53.4265 150.546C53.1299 150.846 52.7274 151.016 52.3066 151.018H19V152.614C19 156.124 21.8574 159 25.3448 159H58.6552C62.1427 159 65 156.124 65 152.614V83.3862C65 79.8763 62.1427 77.0006 58.6552 77.0006L25.3448 77ZM38.8242 83.3825H45.1694C45.5928 83.3799 45.9994 83.5478 46.299 83.8488C46.5986 84.1499 46.7664 84.5586 46.7649 84.9851C46.7628 85.4086 46.594 85.8148 46.2944 86.1133C45.9953 86.4112 45.5902 86.5776 45.1694 86.575H38.8247C37.9532 86.5715 37.2481 85.8617 37.2444 84.9851C37.2429 84.5616 37.4082 84.155 37.7047 83.8544C38.0008 83.5539 38.4034 83.384 38.8242 83.3825ZM41.9967 94.2703C50.8976 94.2703 58.1432 101.563 58.1432 110.521C58.1432 119.479 50.8971 126.771 41.9967 126.771C33.0959 126.771 25.8503 119.478 25.8503 110.521C25.8503 101.563 33.0964 94.2703 41.9967 94.2703ZM41.9967 97.4665C41.5542 97.4665 41.0781 97.6394 40.4971 98.1839C39.9161 98.7278 39.3017 99.6375 38.7652 100.825C38.3277 101.793 37.9688 102.979 37.6717 104.264H46.3308C46.0357 102.979 45.6778 101.793 45.2403 100.825C44.7044 99.6381 44.0773 98.7283 43.4963 98.1839C42.9153 97.64 42.4394 97.4665 41.9967 97.4665ZM36.1879 98.8666C33.8244 100.059 31.864 101.933 30.6021 104.264H34.3972C34.7313 102.638 35.3402 100.597 36.1879 98.8666ZM47.8086 98.8666C48.5711 100.516 49.1825 102.271 49.5992 104.264H53.4035C52.1391 101.933 50.1746 100.059 47.8086 98.8666ZM29.3974 107.46C29.1642 108.443 29.0258 109.465 29.0258 110.522C29.0258 111.58 29.1607 112.603 29.3944 113.587H33.9267C33.803 111.614 33.7153 109.566 33.9267 107.46H29.3974ZM37.1302 107.46C36.9786 109.437 36.8752 111.479 37.1302 113.587H46.867C47.0156 111.609 47.118 109.568 46.867 107.46H37.1302ZM50.0706 107.46C50.1948 109.432 50.282 111.481 50.0706 113.587H54.6126C54.8468 112.603 54.9842 111.58 54.9842 110.522C54.9842 109.465 54.8463 108.443 54.6126 107.46H50.0706ZM30.5991 116.779C31.8619 119.116 33.8245 120.995 36.191 122.189C35.4244 120.538 34.812 118.777 34.3973 116.779H30.5991ZM37.6688 116.779C37.9664 118.07 38.3274 119.264 38.7654 120.234C39.3013 121.421 39.9162 122.316 40.4972 122.859C41.0782 123.403 41.5543 123.592 41.9969 123.592C42.4395 123.592 42.9155 123.403 43.4966 122.859C44.0775 122.316 44.7047 121.421 45.2406 120.234C45.6791 119.264 46.0391 118.07 46.3341 116.779H37.6688ZM49.5994 116.779C49.2658 118.409 48.6605 120.458 47.8058 122.189C50.1754 120.994 52.1424 119.116 53.4067 116.779H49.5994ZM57.0686 147.825C57.4894 147.825 57.8929 147.993 58.1905 148.292C58.4876 148.592 58.6549 148.998 58.6549 149.421C58.6549 149.844 58.4876 150.25 58.1905 150.55C57.8929 150.849 57.4894 151.017 57.0686 151.017C56.6483 151.017 56.2448 150.849 55.9472 150.55C55.6496 150.25 55.4828 149.844 55.4828 149.421C55.4828 148.998 55.6496 148.592 55.9472 148.292C56.2448 147.993 56.6483 147.825 57.0686 147.825Z" fill="white"/>
</g>
</g>
<defs>
<linearGradient id="paint0_linear_453_3574" x1="-16.7995" y1="151.609" x2="111.268" y2="153.669" gradientUnits="userSpaceOnUse">
<stop stop-color="#F86161"/>
<stop offset="0.463168" stop-color="#A151E0"/>
<stop offset="1" stop-color="#4C13A9"/>
</linearGradient>
<linearGradient id="paint1_linear_453_3574" x1="-39.29" y1="78.4226" x2="185.991" y2="66.2694" gradientUnits="userSpaceOnUse">
<stop stop-color="#FF9892"/>
<stop offset="0.545239" stop-color="#6627B9"/>
<stop offset="1" stop-color="#6627B9" stop-opacity="0"/>
</linearGradient>
<clipPath id="clip0_453_3574">
<rect width="192" height="84" fill="white" transform="translate(0 192) rotate(-90)"/>
</clipPath>
</defs>
</svg>
