<svg width="84" height="192" viewBox="0 0 84 192" fill="none" xmlns="http://www.w3.org/2000/svg">
<g clip-path="url(#clip0_453_3593)">
<path d="M-120.471 129.665C-154.939 120.403 -154.939 71.5973 -120.471 62.3353L-96.1044 55.7879C-84.0821 52.5575 -74.6912 43.1855 -71.4542 31.1873L-64.8936 6.87001C-55.613 -27.5293 -6.70896 -27.5293 2.57166 6.87L9.13226 31.1873C12.3692 43.1855 21.7601 52.5575 33.7824 55.7879L58.1488 62.3353C92.6175 71.5973 92.6175 120.403 58.1488 129.665L33.7825 136.212C21.7601 139.443 12.3692 148.815 9.13226 160.813L2.57167 185.13C-6.70895 219.53 -55.613 219.53 -64.8936 185.13L-71.4542 160.813C-74.6912 148.815 -84.0821 139.443 -96.1044 136.212L-120.471 129.665Z" fill="url(#paint0_linear_453_3593)"/>
<mask id="mask0_453_3593" style="mask-type:alpha" maskUnits="userSpaceOnUse" x="-147" y="-19" width="231" height="230">
<path d="M-120.471 129.665C-154.939 120.403 -154.939 71.5973 -120.471 62.3353L-96.1044 55.7879C-84.0821 52.5575 -74.6912 43.1855 -71.4542 31.1873L-64.8936 6.87001C-55.613 -27.5293 -6.70896 -27.5293 2.57166 6.87L9.13226 31.1873C12.3692 43.1855 21.7601 52.5575 33.7824 55.7879L58.1488 62.3353C92.6175 71.5973 92.6175 120.403 58.1488 129.665L33.7825 136.212C21.7601 139.443 12.3692 148.815 9.13226 160.813L2.57167 185.13C-6.70895 219.53 -55.613 219.53 -64.8936 185.13L-71.4542 160.813C-74.6912 148.815 -84.0821 139.443 -96.1044 136.212L-120.471 129.665Z" fill="url(#paint1_linear_453_3593)"/>
</mask>
<g mask="url(#mask0_453_3593)">
<path d="M20.055 118.121C20.6132 115.902 23.4501 114.708 25.529 116.263L37.3837 125.127C38.3755 125.868 39.6047 126.277 40.8448 126.277H47.3476C48.3364 126.277 49.1871 125.52 49.2334 124.535C49.2832 123.484 48.4431 122.617 47.3997 122.617H43.4669C41.2949 122.617 39.5342 120.861 39.5342 118.696C39.5342 116.531 41.2948 114.775 43.4669 114.775H49.5961C53.7717 114.775 57.4793 117.439 58.7994 121.388L60.8022 127.379L62.4624 129.034C63.1792 129.749 63.1792 130.908 62.4624 131.622L54.5965 139.464C54.2521 139.807 53.7853 140 53.2983 140C52.4975 140 52.0293 139.494 51.9908 139.454L48.4957 135.92L35.3486 134.101C34.9525 134.046 34.5854 133.864 34.3025 133.583L20.5377 119.86C20.0818 119.405 19.8986 118.746 20.0547 118.122L20.055 118.121Z" fill="white"/>
<path d="M58.8748 101.533L44.6204 109.739V92.0571L59.9787 83.2157V99.6292C59.9787 100.415 59.558 101.141 58.8758 101.534L58.8748 101.533Z" fill="white"/>
<path d="M27.08 79.4484L41.3353 71.2928C42.0181 70.9024 42.8585 70.9024 43.5413 71.2928L57.7966 79.4484L42.4374 88.2358L27.08 79.4484Z" fill="white"/>
<path d="M40.2563 109.739L26.0009 101.533C25.3186 101.141 24.8979 100.414 24.8979 99.6287V83.2157L40.2558 92.0569L40.2563 109.739Z" fill="white"/>
</g>
</g>
<defs>
<linearGradient id="paint0_linear_453_3593" x1="-16.7995" y1="151.609" x2="111.268" y2="153.669" gradientUnits="userSpaceOnUse">
<stop stop-color="#F86161"/>
<stop offset="0.463168" stop-color="#A151E0"/>
<stop offset="1" stop-color="#4C13A9"/>
</linearGradient>
<linearGradient id="paint1_linear_453_3593" x1="-39.29" y1="78.4226" x2="185.991" y2="66.2694" gradientUnits="userSpaceOnUse">
<stop stop-color="#FF9892"/>
<stop offset="0.545239" stop-color="#6627B9"/>
<stop offset="1" stop-color="#6627B9" stop-opacity="0"/>
</linearGradient>
<clipPath id="clip0_453_3593">
<rect width="192" height="84" fill="white" transform="translate(0 192) rotate(-90)"/>
</clipPath>
</defs>
</svg>
