<svg width="24" height="24" viewBox="0 0 24 24" fill="none" xmlns="http://www.w3.org/2000/svg">
<path d="M13.2676 11.532C12.8785 11.7446 12.4424 11.856 11.9993 11.856C11.5562 11.856 11.1201 11.7446 10.731 11.532L3.20517 7.46402C2.933 7.31105 2.70639 7.08811 2.54867 6.81814C2.39095 6.54817 2.30781 6.24092 2.30781 5.92802C2.30781 5.61512 2.39095 5.30787 2.54867 5.0379C2.70639 4.76793 2.933 4.54499 3.20517 4.39203L5.56223 3.12003L7.44071 2.10003L10.731 0.32398C11.1202 0.111387 11.5562 0 11.9993 0C12.4424 0 12.8785 0.111387 13.2676 0.32398L20.7934 4.39197C21.0656 4.54493 21.2922 4.76787 21.4499 5.03784C21.6077 5.30781 21.6908 5.61506 21.6908 5.92796C21.6908 6.24086 21.6077 6.54811 21.4499 6.81808C21.2922 7.08805 21.0656 7.31099 20.7934 7.46395L18.7116 8.59195L16.9408 9.53995L13.2676 11.532ZM9.48742 12.9487L2.48821 9.43824C2.22627 9.30635 1.93503 9.24389 1.64222 9.25679C1.3494 9.26969 1.06475 9.35753 0.81535 9.51194C0.56595 9.66636 0.360097 9.88222 0.217383 10.139C0.0746681 10.3957 -0.000160546 10.6848 1.72672e-05 10.9788V17.6112C-0.00188029 18.1711 0.152655 18.7203 0.446105 19.1966C0.739554 19.6729 1.16018 20.0573 1.6603 20.306L8.66066 23.8153C8.92255 23.9471 9.21369 24.0095 9.5064 23.9965C9.79911 23.9835 10.0836 23.8956 10.3329 23.7412C10.5822 23.5868 10.7879 23.371 10.9306 23.1143C11.0732 22.8576 11.148 22.5686 11.1478 22.2748V15.6424C11.1499 15.0826 10.9955 14.5334 10.702 14.0572C10.4085 13.581 9.9877 13.197 9.48742 12.9487ZM23.1864 9.51601C22.938 9.35767 22.6525 9.26766 22.3585 9.25502C22.0644 9.24239 21.7723 9.30756 21.5113 9.44401L18.8791 10.764L17.0843 11.664L14.5119 12.948C14.0105 13.1968 13.5887 13.5817 13.2947 14.0591C13.0007 14.5364 12.8462 15.0869 12.8488 15.648V22.272C12.8488 22.5661 12.9236 22.8553 13.0662 23.1123C13.2088 23.3693 13.4144 23.5855 13.6636 23.7405C13.9128 23.8955 14.1974 23.9842 14.4903 23.9981C14.7832 24.012 15.0748 23.9507 15.3375 23.82L22.3369 20.304C22.8368 20.0565 23.2576 19.6735 23.5516 19.1984C23.8455 18.7233 24.0009 18.1751 24 17.616V10.98C23.9999 10.6867 23.9252 10.3982 23.7828 10.142C23.6404 9.88581 23.4351 9.67033 23.1864 9.51601Z" fill="white"/>
</svg>
