<svg width="24" height="20" viewBox="0 0 24 20" fill="none" xmlns="http://www.w3.org/2000/svg">
<path d="M21.6 0H2.4C1.76348 0 1.15303 0.263392 0.702944 0.732233C0.252856 1.20107 0 1.83696 0 2.5V17.5C0 18.163 0.252856 18.7989 0.702944 19.2678C1.15303 19.7366 1.76348 20 2.4 20H21.6C22.2365 20 22.847 19.7366 23.2971 19.2678C23.7471 18.7989 24 18.163 24 17.5V2.5C24 1.83696 23.7471 1.20107 23.2971 0.732233C22.847 0.263392 22.2365 0 21.6 0ZM5.6484 15.8838C5.42208 16.1114 5.11895 16.2374 4.80432 16.2346C4.48968 16.2317 4.18871 16.1003 3.96622 15.8685C3.74373 15.6368 3.61753 15.3232 3.61479 14.9955C3.61206 14.6678 3.73301 14.352 3.9516 14.1163L7.90308 10L3.9516 5.88375C3.83699 5.76844 3.74557 5.63051 3.68268 5.47801C3.61979 5.3255 3.58668 5.16148 3.5853 4.9955C3.58391 4.82953 3.61428 4.66493 3.67461 4.51131C3.73495 4.35769 3.82405 4.21812 3.93673 4.10076C4.0494 3.98339 4.18338 3.89057 4.33086 3.82772C4.47833 3.76487 4.63635 3.73324 4.79568 3.73469C4.95502 3.73613 5.11248 3.77061 5.25889 3.83612C5.40529 3.90163 5.5377 3.99686 5.6484 4.11625L10.4484 9.11625C10.5599 9.23227 10.6483 9.37004 10.7086 9.52167C10.769 9.67331 10.8 9.83585 10.8 10C10.8 10.1641 10.769 10.3267 10.7086 10.4783C10.6483 10.63 10.5599 10.7677 10.4484 10.8837L5.6484 15.8838ZM19.2 16.25H12C11.6817 16.25 11.3765 16.1183 11.1515 15.8839C10.9264 15.6495 10.8 15.3315 10.8 15C10.8 14.6685 10.9264 14.3505 11.1515 14.1161C11.3765 13.8817 11.6817 13.75 12 13.75H19.2C19.5183 13.75 19.8235 13.8817 20.0485 14.1161C20.2736 14.3505 20.4 14.6685 20.4 15C20.4 15.3315 20.2736 15.6495 20.0485 15.8839C19.8235 16.1183 19.5183 16.25 19.2 16.25Z" fill="white"/>
</svg>
