<svg width="48" height="49" viewBox="0 0 48 49" fill="none" xmlns="http://www.w3.org/2000/svg">
<rect y="0.5" width="48" height="48" rx="8" fill="#734CA5"/>
<path d="M21.5 13.25V35.75C21.5 36.7446 21.1049 37.6984 20.4017 38.4017C19.6984 39.1049 18.7446 39.5 17.75 39.5H12.75C11.7554 39.5 10.8016 39.1049 10.0983 38.4017C9.39509 37.6984 9 36.7446 9 35.75V13.25C9 12.2554 9.39509 11.3016 10.0983 10.5983C10.8016 9.89509 11.7554 9.5 12.75 9.5H17.75C18.7446 9.5 19.6984 9.89509 20.4017 10.5983C21.1049 11.3016 21.5 12.2554 21.5 13.25ZM35.25 29.125H27.75C26.7554 29.125 25.8016 29.5201 25.0983 30.2234C24.3951 30.9266 24 31.8804 24 32.875V35.75C24 36.7446 24.3951 37.6984 25.0983 38.4017C25.8016 39.1049 26.7554 39.5 27.75 39.5H35.25C36.2446 39.5 37.1984 39.1049 37.9017 38.4017C38.6049 37.6984 39 36.7446 39 35.75V32.875C39 31.8804 38.6049 30.9266 37.9017 30.2234C37.1984 29.5201 36.2446 29.125 35.25 29.125ZM35.25 9.5H27.75C26.7554 9.5 25.8016 9.89509 25.0983 10.5983C24.3951 11.3016 24 12.2554 24 13.25V22.875C24 23.8696 24.3951 24.8234 25.0983 25.5266C25.8016 26.2299 26.7554 26.625 27.75 26.625H35.25C36.2446 26.625 37.1984 26.2299 37.9017 25.5266C38.6049 24.8234 39 23.8696 39 22.875V13.25C39 12.2554 38.6049 11.3016 37.9017 10.5983C37.1984 9.89509 36.2446 9.5 35.25 9.5Z" fill="white"/>
</svg>
