<svg width="48" height="49" viewBox="0 0 48 49" fill="none" xmlns="http://www.w3.org/2000/svg">
<rect y="0.5" width="48" height="48" rx="8" fill="#734CA5"/>
<rect x="3" y="8.5" width="42" height="32" rx="6" fill="white"/>
<path fill-rule="evenodd" clip-rule="evenodd" d="M35.6 14.3544C40.2796 16.1775 43.4416 19.1834 43.3992 22.7851C43.3978 26.0469 40.7547 28.9786 36.3841 30.8887C35.5701 31.257 34.6581 30.8801 34.2874 30.1069L34.2824 30.0967L34.2781 30.0861C33.9566 29.3042 34.2803 28.4046 35.0875 28.0374L35.0934 28.0348C36.7763 27.3021 38.0784 26.4444 38.954 25.5357C39.8291 24.6274 40.2592 23.6903 40.2592 22.7826C40.2592 21.8348 39.8183 20.8976 38.9639 20.0097C38.1082 19.1204 36.856 18.3016 35.2926 17.6077C35.2926 17.6077 35.2263 16.3926 34.9995 15.4996C34.8731 15.0019 34.2433 13.7976 34.2433 13.7976L35.6 14.3544Z" fill="#734CA5"/>
<path fill-rule="evenodd" clip-rule="evenodd" d="M22.0641 27.9478V30.0756C18.1191 29.84 14.5639 28.9262 11.9808 27.6155C9.27551 26.2429 7.76848 24.5105 7.76848 22.7693C7.76848 21.8228 8.20734 20.8871 9.05731 20.0009C9.90874 19.1132 11.1546 18.2959 12.7101 17.6033L12.9474 17.4976V14.1413L12.4018 14.3546C7.74194 16.1758 4.59961 19.1769 4.59961 22.7692C4.59961 25.6632 6.63028 28.1737 9.82044 29.9871C12.9388 31.7596 17.2366 32.9143 22.1041 33.1554V35.4012C22.1041 35.9489 22.433 36.4714 22.9153 36.7334L22.9228 36.7375L22.9304 36.7412C23.1523 36.8498 23.4144 36.8996 23.6282 36.8996C23.9652 36.8996 24.2368 36.7869 24.4729 36.6485L24.4831 36.6426L30.0672 32.9134C30.5216 32.632 30.7329 32.14 30.7329 31.6744C30.7329 31.1804 30.4596 30.7091 30.0804 30.4442L24.4585 26.7169C23.9935 26.382 23.358 26.4043 22.907 26.6001L22.8908 26.6071L22.8753 26.6155C22.4003 26.8735 22.0641 27.3532 22.0641 27.9478Z" fill="#734CA5"/>
<path fill-rule="evenodd" clip-rule="evenodd" d="M16.1838 23.3278L16.1862 23.3288C16.9025 23.6408 17.7106 23.7918 18.6024 23.7918C19.5214 23.7918 20.349 23.6491 21.0773 23.3536C21.8042 23.06 22.3919 22.6462 22.8204 22.1026C23.2583 21.5514 23.4769 20.9133 23.4736 20.2038C23.4809 19.455 23.2277 18.8108 22.7085 18.3024C22.4581 18.0555 22.1557 17.8617 21.8078 17.7159C21.9927 17.611 22.1652 17.4862 22.3245 17.341C22.8327 16.8811 23.0821 16.284 23.0747 15.5839C23.078 14.9046 22.8808 14.2908 22.4816 13.7573C22.0909 13.2269 21.5536 12.8207 20.8874 12.5314C20.2194 12.2399 19.4619 12.0996 18.6234 12.0996C17.7651 12.0996 16.9884 12.2494 16.3019 12.5596C15.62 12.8678 15.0688 13.2995 14.6629 13.8593L14.6618 13.8608C14.2535 14.4294 14.0501 15.0842 14.0462 15.8107L14.044 16.2128H17.6315L17.638 15.8194C17.6402 15.6826 17.6776 15.5728 17.7466 15.4767C17.82 15.3745 17.9242 15.2877 18.0732 15.2202C18.2243 15.1533 18.4052 15.1153 18.6234 15.1153C18.8193 15.1153 18.9729 15.151 19.0947 15.21L19.0973 15.2112C19.2271 15.2729 19.3152 15.3512 19.3761 15.4432C19.4325 15.5287 19.464 15.6308 19.4618 15.7646L19.462 15.7779C19.464 15.905 19.4298 16.0066 19.3598 16.0987L19.3566 16.1031C19.2843 16.2009 19.174 16.2895 19.005 16.3598L19.0029 16.3607C18.8412 16.4291 18.6405 16.4689 18.3925 16.4689H16.901V19.2568H18.3925C18.6685 19.2568 18.8962 19.2977 19.0829 19.3698C19.2728 19.4431 19.3964 19.5354 19.4765 19.6352L19.4797 19.6392C19.5559 19.7317 19.5896 19.8291 19.5877 19.9478L19.5879 19.9607C19.5902 20.1009 19.5554 20.2121 19.4896 20.3086C19.4193 20.4115 19.3178 20.4997 19.1701 20.5693C19.0247 20.6344 18.8454 20.6725 18.6234 20.6725C18.3861 20.6725 18.1912 20.6345 18.0312 20.5683C17.8692 20.5013 17.7576 20.4163 17.6804 20.3204C17.6109 20.2269 17.577 20.1272 17.575 20.0096L17.5682 19.6164H13.8342L13.8363 20.0186C13.8402 20.7584 14.0541 21.4249 14.4812 22.0037C14.9021 22.5741 15.4748 23.0136 16.1838 23.3278Z" fill="#734CA5"/>
<path fill-rule="evenodd" clip-rule="evenodd" d="M23.9553 12.2446V23.6468H28.4906C29.6337 23.6468 30.6465 23.4261 31.5157 22.9693L31.5169 22.9687C32.3864 22.508 33.0627 21.8445 33.5377 20.986C34.014 20.1215 34.2433 19.1029 34.2433 17.9457C34.2433 16.7884 34.0122 15.7712 33.532 14.9096C33.0566 14.0472 32.3765 13.3841 31.4996 12.9271C30.6265 12.4667 29.6049 12.2446 28.4486 12.2446H23.9553ZM29.5814 20.1846L29.5801 20.1851C29.2704 20.325 28.8767 20.4033 28.3856 20.4033H27.6731V15.488H28.3017C28.8235 15.488 29.2374 15.5672 29.5577 15.7079L29.5589 15.7084C29.8516 15.8359 30.0782 16.0544 30.2398 16.3901L30.241 16.3926C30.4057 16.7287 30.5046 17.2354 30.5046 17.9457C30.5046 18.6566 30.4073 19.1643 30.245 19.5012L30.2439 19.5037C30.0841 19.8415 29.8627 20.0587 29.5814 20.1846Z" fill="#734CA5"/>
</svg>
