<svg width="48" height="49" viewBox="0 0 48 49" fill="none" xmlns="http://www.w3.org/2000/svg">
<rect y="0.5" width="48" height="48" rx="8" fill="#734CA5"/>
<path d="M38 17.6339C37.3738 17.6339 36.8661 17.1262 36.8661 16.5C36.8661 15.8738 37.3738 15.3661 38 15.3661C38.6262 15.3661 39.1339 15.8738 39.1339 16.5C39.1339 17.1262 38.6262 17.6339 38 17.6339Z" fill="white"/>
<path d="M24.008 28.9303C23.8489 29.0105 23.665 29.0505 23.4562 29.0505C23.2474 29.0505 23.0634 29.0105 22.9043 28.9303C22.7453 28.8402 22.616 28.7149 22.5166 28.5546C22.4271 28.3944 22.3823 28.204 22.3823 27.9836C22.3823 27.7632 22.4271 27.5729 22.5166 27.4126C22.616 27.2523 22.7453 27.127 22.9043 27.0369C23.0634 26.9467 23.2474 26.9016 23.4562 26.9016C23.7744 26.9016 24.0329 27.0018 24.2318 27.2022C24.4306 27.3925 24.53 27.653 24.53 27.9836C24.53 28.204 24.4853 28.3944 24.3958 28.5546C24.3063 28.7149 24.1771 28.8402 24.008 28.9303Z" fill="white"/>
<path d="M33.272 28.6598C33.5007 28.6598 33.7046 28.5797 33.8835 28.4194C34.0625 28.2591 34.2017 27.9836 34.3012 27.5929C34.4105 27.2022 34.4652 26.6712 34.4652 26C34.4652 25.3188 34.4105 24.7878 34.3012 24.4071C34.2017 24.0164 34.0625 23.7409 33.8835 23.5806C33.7046 23.4203 33.5007 23.3402 33.272 23.3402C33.0433 23.3402 32.8395 23.4203 32.6605 23.5806C32.4816 23.7409 32.3374 24.0164 32.228 24.4071C32.1286 24.7878 32.0789 25.3188 32.0789 26C32.0789 26.6712 32.1286 27.2022 32.228 27.5929C32.3374 27.9836 32.4816 28.2591 32.6605 28.4194C32.8395 28.5797 33.0433 28.6598 33.272 28.6598Z" fill="white"/>
<path fill-rule="evenodd" clip-rule="evenodd" d="M39.5417 11.4731C41.4974 11.9168 43.2687 14.0427 43.4887 16.1791C43.4887 16.1791 44 20.0808 44 25.0009C44 29.9071 43.4887 33.8088 43.4887 33.8088C43.2687 35.9443 41.4974 38.0711 39.5417 38.5148C39.5417 38.5148 38.8296 38.7133 37.5878 38.9871C37.5732 39.005 37.5618 39.0242 37.5505 39.0434C37.5348 39.0697 37.5193 39.0959 37.4957 39.118C33.8826 42.55 29.093 44.5 24 44.5C18.8357 44.5 13.9957 42.4833 10.3713 38.9715C9.15304 38.702 8.45739 38.5079 8.45739 38.5079C6.50261 38.0641 4.7313 35.9373 4.5113 33.801C4.5113 33.801 4 29.8993 4 24.9939C4 20.0877 4.5113 16.186 4.5113 16.186C4.7313 14.0497 6.50261 11.9237 8.45739 11.48C8.45739 11.48 9.15391 11.285 10.373 11.0155C13.9983 7.50547 18.8409 5.5 24 5.5C28.9791 5.5 33.6704 7.36333 37.2574 10.6593C37.3591 10.752 37.4252 10.8655 37.4904 10.9791C38.7896 11.2633 39.5417 11.4731 39.5417 11.4731ZM16.3223 39.5521C18.4848 40.7035 20.8986 41.9886 24 41.9C27.4942 41.8002 29.5558 40.6933 31.608 39.5915C31.9041 39.4326 32.2 39.2737 32.5 39.118C30.3077 39.4096 27.1673 39.4546 24.402 39.4942C24.2662 39.4961 24.1313 39.4981 23.9974 39.5C23.8086 39.4971 23.6176 39.4942 23.4249 39.4913C20.7064 39.4505 17.6437 39.4045 15.5 39.118C15.7706 39.2584 16.0443 39.4041 16.3223 39.5521ZM32.7031 10.5963C30.527 9.44061 28.0028 8.1 24 8.1C19.9487 8.1 17.4134 9.44099 15.2184 10.602C14.9753 10.7306 14.7364 10.857 14.5 10.9791C16.3353 10.7347 19.5012 10.705 22.1499 10.6801C22.808 10.6739 23.4341 10.6681 24 10.6593C24.3808 10.6648 24.7892 10.6699 25.2164 10.6751C27.9743 10.7091 31.5175 10.7528 33.5 11.0155C33.2383 10.8805 32.9734 10.7399 32.7031 10.5963ZM38 19.5C39.6569 19.5 41 18.1569 41 16.5C41 14.8431 39.6569 13.5 38 13.5C36.3431 13.5 35 14.8431 35 16.5C35 18.1569 36.3431 19.5 38 19.5ZM21.0698 30.929C21.8255 31.3097 22.7005 31.5 23.6948 31.5C24.4803 31.5 25.1913 31.3497 25.8276 31.0492C26.4739 30.7486 26.986 30.3229 27.3638 29.7719C27.7417 29.2209 27.9306 28.5697 27.9306 27.8183C27.9306 27.127 27.7616 26.531 27.4235 26.0301C27.0954 25.5291 26.6579 25.1434 26.111 24.873C25.5741 24.5924 24.9874 24.4522 24.3511 24.4522C23.8639 24.4522 23.4363 24.5173 23.0684 24.6475C22.7724 24.7443 22.5086 24.8799 22.2769 25.0545C22.3656 24.5743 22.5549 24.1882 22.8447 23.8962C23.2722 23.4654 23.839 23.25 24.545 23.25C24.8731 23.25 25.1913 23.2901 25.4995 23.3702C25.8177 23.4403 26.1309 23.5856 26.4391 23.806L27.7069 21.3265C27.3092 21.066 26.8219 20.8657 26.2452 20.7254C25.6785 20.5751 25.0869 20.5 24.4704 20.5C23.3269 20.5 22.3177 20.7304 21.4427 21.1913C20.5777 21.6521 19.9015 22.3183 19.4143 23.1899C18.9271 24.0515 18.6835 25.0984 18.6835 26.3306C18.6835 27.4727 18.8923 28.4294 19.3099 29.2008C19.7375 29.9622 20.3241 30.5383 21.0698 30.929ZM10.9389 31.2596C11.6747 31.4199 12.4006 31.5 13.1165 31.5C14.2301 31.5 15.1349 31.3247 15.8309 30.974C16.5369 30.6234 17.0539 30.1726 17.3821 29.6216C17.7201 29.0706 17.8892 28.4945 17.8892 27.8934C17.8892 26.9617 17.5461 26.2004 16.86 25.6093C16.4726 25.2755 15.9852 25.0359 15.3979 24.8906L17.3224 22.9194V20.7404H9.53693V23.4153H13.2699L11.7294 24.9932V27.1721H13.1165C13.5639 27.1721 13.8821 27.2372 14.071 27.3675C14.2599 27.4877 14.3544 27.663 14.3544 27.8934C14.3544 28.1639 14.2251 28.3693 13.9666 28.5096C13.718 28.6398 13.3949 28.7049 12.9971 28.7049C12.5596 28.7049 12.0923 28.6448 11.5952 28.5246C11.1079 28.3944 10.6406 28.199 10.1932 27.9385L9 30.5533C9.55682 30.8638 10.2031 31.0993 10.9389 31.2596ZM33.272 31.5C32.3473 31.5 31.527 31.2846 30.8111 30.8538C30.1052 30.423 29.5483 29.7969 29.1407 28.9754C28.7429 28.1539 28.5441 27.1621 28.5441 26C28.5441 24.8379 28.7429 23.8461 29.1407 23.0246C29.5483 22.2031 30.1052 21.577 30.8111 21.1462C31.527 20.7154 32.3473 20.5 33.272 20.5C34.1967 20.5 35.0121 20.7154 35.718 21.1462C36.434 21.577 36.9908 22.2031 37.3885 23.0246C37.7962 23.8461 38 24.8379 38 26C38 27.1621 37.7962 28.1539 37.3885 28.9754C36.9908 29.7969 36.434 30.423 35.718 30.8538C35.0121 31.2846 34.1967 31.5 33.272 31.5Z" fill="white"/>
</svg>
