<svg width="48" height="49" viewBox="0 0 48 49" fill="none" xmlns="http://www.w3.org/2000/svg">
<g clip-path="url(#clip0_453_3648)">
<rect y="0.5" width="48" height="48" rx="8" fill="#734CA5"/>
<path d="M11.5204 13.6196L-9.59961 41.2996L-3.99961 47.6996L11.6804 26.8996L10.0804 38.2596L18.8804 41.2996L29.6004 24.1796C29.1204 27.3796 28.3204 34.7396 35.3604 36.9796C46.4004 40.3396 56.0004 20.4996 60.4804 10.4196L54.0804 7.05957C49.1204 17.4596 41.4404 28.9796 38.4004 28.1796C35.3604 27.3796 38.0804 17.6196 39.8404 11.3796V11.2196L30.0804 7.85957L18.4004 26.8996L20.0004 16.4996L11.5204 13.6196Z" fill="white"/>
</g>
<rect x="1" y="1.5" width="46" height="46" rx="7" stroke="#734CA5" stroke-width="2"/>
<defs>
<clipPath id="clip0_453_3648">
<rect y="0.5" width="48" height="48" rx="8" fill="white"/>
</clipPath>
</defs>
</svg>
