<svg width="104" height="137" viewBox="0 0 104 137" fill="none" xmlns="http://www.w3.org/2000/svg">
<path d="M101.422 10.5109C103.117 10.3389 103.968 11.027 103.968 12.5685C104.139 13.7711 103.627 14.6262 102.443 15.1406L102.187 15.3969C95.2122 21.7402 89.5155 28.2521 85.0949 34.9377C84.2436 36.3106 83.1414 36.5704 81.7849 35.7085C80.4201 34.8534 80.1642 33.7403 81.0189 32.3674C84.0813 27.7394 87.8145 23.1097 92.2384 18.4817C80.845 22.0843 72.0038 27.3953 65.7201 34.4233C57.558 43.853 54.7515 55.4247 57.3021 69.1401C57.9795 72.7376 58.6636 75.738 59.3426 78.1397C60.7007 77.7956 62.0588 77.541 63.4253 77.3655C75.4894 75.3113 84.844 76.1698 91.474 79.9376C94.1919 81.4791 96.0652 82.8537 97.0821 84.0529C99.2915 86.2808 100.148 88.9372 99.6327 92.0237C98.952 96.1373 96.7409 98.9657 93.0078 100.509C90.2832 101.882 86.7959 102.307 82.551 101.792C78.8078 101.453 75.1583 100.509 71.5857 98.9657C68.0181 97.4224 65.2936 95.7122 63.427 93.8233C60.5318 90.7368 58.2371 87.394 56.5411 83.7931C48.2084 85.8525 40.222 88.9372 32.5701 93.0508C21.6901 98.8797 13.8643 105.307 9.11253 112.335C4.01125 119.709 3.41247 126.651 7.32458 133.165C8.17758 134.534 7.92 135.647 6.56356 136.507C5.2021 137.361 4.09654 137.106 3.25023 135.737C-1.67879 127.506 -1.00307 118.852 5.2874 109.767C10.3887 102.05 18.7163 95.1068 30.277 88.9372C38.0995 84.6567 46.2582 81.3948 54.7548 79.1651C54.0774 76.7668 53.3934 73.768 52.716 70.1672C49.9981 54.74 53.1408 41.7971 62.1508 31.3386C68.6102 23.7961 77.7056 18.1376 89.4369 14.3681C82.9741 12.8283 77.1101 9.48375 71.8416 4.33966C70.8197 3.14556 70.8581 1.98519 71.9687 0.868668C73.0726 -0.242793 74.2183 -0.290026 75.4092 0.740479C82.551 7.93884 91.2198 11.1973 101.422 10.5109ZM64.1897 81.9935C63.1677 82.1673 62.2311 82.341 61.3881 82.5063C62.7429 85.4257 64.6112 87.9961 66.9962 90.2224C68.3543 91.7639 70.5688 93.2228 73.6212 94.594C76.687 95.9669 79.828 96.8237 83.0611 97.1644C86.458 97.5085 89.1793 97.2538 91.2198 96.3919C93.2637 95.3648 94.5365 93.5635 95.0433 90.9932C95.2139 89.6237 94.7924 88.4211 93.7704 87.394C92.9191 86.5372 91.3001 85.4257 88.9251 84.0529C83.4826 80.7978 75.2402 80.1079 64.1897 81.9935Z" fill="#8A7E95"/>
</svg>
