<svg width="183" height="183" viewBox="0 0 183 183" fill="none" xmlns="http://www.w3.org/2000/svg">
<g id="Frame 25" clip-path="url(#clip0_2626_730)">
<path id="Star 7" d="M104.743 9.67826C126.641 -12.1666 163.339 9.02108 155.369 38.9076L149.736 60.0348C146.956 70.4589 149.935 81.5745 157.554 89.2123L172.996 104.692C194.841 126.59 173.654 163.288 143.767 155.319L122.64 149.685C112.216 146.906 101.1 149.884 93.4623 157.503L77.9825 172.946C56.0846 194.791 19.3865 173.603 27.3557 143.716L32.9893 122.589C35.7689 112.165 32.7905 101.05 25.1712 93.4118L9.72882 77.9319C-12.116 56.034 9.07164 19.3359 38.9582 27.3052L60.0853 32.9388C70.5095 35.7184 81.6251 32.7399 89.2628 25.1207L104.743 9.67826Z" fill="url(#paint0_linear_2626_730)"/>
</g>
<defs>
<linearGradient id="paint0_linear_2626_730" x1="180.51" y1="65.3448" x2="-20.3406" y2="125.014" gradientUnits="userSpaceOnUse">
<stop stop-color="#EB5884"/>
<stop offset="0.491918" stop-color="#A05ED5"/>
<stop offset="1" stop-color="#6124C5"/>
</linearGradient>
<clipPath id="clip0_2626_730">
<rect width="183" height="183" fill="white"/>
</clipPath>
</defs>
</svg>
