<svg width="126" height="78" viewBox="0 0 126 78" fill="none" xmlns="http://www.w3.org/2000/svg">
<g clip-path="url(#clip0_2626_732)">
<path d="M74.1494 6.73049C89.565 -8.64777 115.4 6.26785 109.789 27.3073L105.824 42.1803C103.867 49.5186 105.963 57.3438 111.327 62.7206L122.198 73.618C137.577 89.0336 122.661 114.868 101.622 109.258L86.7485 105.292C79.4102 103.335 71.5851 105.432 66.2083 110.796L55.3108 121.667C39.8952 137.045 14.0606 122.13 19.6708 101.09L23.6367 86.2172C25.5935 78.8789 23.4967 71.0537 18.133 65.6769L7.26186 54.7794C-8.11641 39.3639 6.79921 13.5292 27.8386 19.1394L42.7117 23.1053C50.05 25.0621 57.8751 22.9654 63.2519 17.6016L74.1494 6.73049Z" fill="url(#paint0_linear_2626_732)"/>
</g>
<defs>
<linearGradient id="paint0_linear_2626_732" x1="127.488" y1="45.9184" x2="-13.9063" y2="87.9242" gradientUnits="userSpaceOnUse">
<stop stop-color="#EB5884"/>
<stop offset="0.491918" stop-color="#A05ED5"/>
<stop offset="1" stop-color="#6124C5"/>
</linearGradient>
<clipPath id="clip0_2626_732">
<rect width="126" height="78" fill="white"/>
</clipPath>
</defs>
</svg>
