<svg width="100" height="44" viewBox="0 0 100 44" fill="none" xmlns="http://www.w3.org/2000/svg">
<g clip-path="url(#clip0_197_1513)">
<path d="M32.4663 -63.1039C37.2902 -81.1589 62.7098 -81.1589 67.5338 -63.1039L70.9439 -50.3405C72.6264 -44.0431 77.5076 -39.1241 83.7567 -37.4285L96.4219 -33.992C114.338 -29.1308 114.338 -3.51437 96.4219 1.34692L83.7567 4.78342C77.5076 6.47898 72.6264 11.398 70.9439 17.6954L67.5338 30.4587C62.7098 48.5138 37.2902 48.5138 32.4663 30.4587L29.0562 17.6954C27.3737 11.398 22.4924 6.47898 16.2434 4.78342L3.57811 1.34692C-14.3382 -3.51437 -14.3382 -29.1308 3.5781 -33.992L16.2434 -37.4285C22.4924 -39.1241 27.3737 -44.0431 29.0562 -50.3405L32.4663 -63.1039Z" fill="url(#paint0_linear_197_1513)"/>
</g>
<defs>
<linearGradient id="paint0_linear_197_1513" x1="21.0369" y1="-8.7999" x2="19.952" y2="58.2828" gradientUnits="userSpaceOnUse">
<stop stop-color="#F86161"/>
<stop offset="0.463168" stop-color="#A151E0"/>
<stop offset="1" stop-color="#4C13A9"/>
</linearGradient>
<clipPath id="clip0_197_1513">
<rect width="100" height="44" fill="white"/>
</clipPath>
</defs>
</svg>
