<svg width="30" height="42" viewBox="0 0 30 42" fill="none" xmlns="http://www.w3.org/2000/svg">
<path d="M29.8962 8.7333L29.8681 8.67852C29.8277 8.60803 29.7772 8.54349 29.7181 8.48681L21.2821 0.270556C21.2251 0.214999 21.1604 0.167382 21.09 0.129054L21.0384 0.101667C20.9654 0.0589093 20.8865 0.0266249 20.8041 0.00581027C20.7434 -0.00193676 20.682 -0.00193676 20.6213 0.00581027H2.812C2.06621 0.00581027 1.35097 0.294356 0.823614 0.807972C0.296263 1.32159 0 2.0182 0 2.74456V39.2612C0 39.9876 0.296263 40.6842 0.823614 41.1978C1.35097 41.7115 2.06621 42 2.812 42H27.1826C27.9284 42 28.6437 41.7115 29.171 41.1978C29.6984 40.6842 29.9946 39.9876 29.9946 39.2612V9.13498C30.0018 9.0789 30.0018 9.02217 29.9946 8.96609C29.9737 8.88422 29.9405 8.80579 29.8962 8.7333ZM21.5586 3.12342L26.7936 8.22206H22.1538C21.996 8.22206 21.8446 8.16099 21.733 8.05227C21.6214 7.94356 21.5586 7.79611 21.5586 7.64236V3.12342ZM27.1826 40.1742H2.812C2.5634 40.1742 2.32499 40.078 2.1492 39.9068C1.97342 39.7356 1.87466 39.5034 1.87466 39.2612V2.74456C1.87466 2.50244 1.97342 2.27024 2.1492 2.09903C2.32499 1.92783 2.5634 1.83164 2.812 1.83164H19.684V7.64236C19.6852 8.27998 19.9458 8.89114 20.4088 9.342C20.8717 9.79287 21.4992 10.0467 22.1538 10.0479H28.12V39.2612C28.12 39.5034 28.0212 39.7356 27.8454 39.9068C27.6696 40.078 27.4312 40.1742 27.1826 40.1742Z" fill="#734CA5"/>
<path d="M21.09 20.5464C20.8414 20.5464 20.603 20.6426 20.4272 20.8138C20.2514 20.985 20.1526 21.2172 20.1526 21.4593V24.1981C20.1526 25.1666 19.7576 26.0954 19.0545 26.7802C18.3514 27.465 17.3977 27.8498 16.4033 27.8498C15.4089 27.8498 14.4553 27.465 13.7521 26.7802C13.049 26.0954 12.654 25.1666 12.654 24.1981V16.4383C12.654 15.833 12.9009 15.2525 13.3403 14.8245C13.7798 14.3965 14.3758 14.156 14.9973 14.156C15.6188 14.156 16.2148 14.3965 16.6543 14.8245C17.0938 15.2525 17.3406 15.833 17.3406 16.4383V22.7511C17.3406 22.9327 17.2666 23.1069 17.1347 23.2353C17.0029 23.3637 16.8241 23.4358 16.6376 23.4358C16.4512 23.4358 16.2724 23.3637 16.1406 23.2353C16.0087 23.1069 15.9346 22.9327 15.9346 22.7511V16.4383C15.9346 16.1962 15.8359 15.964 15.6601 15.7928C15.4843 15.6216 15.2459 15.5254 14.9973 15.5254C14.7487 15.5254 14.5103 15.6216 14.3345 15.7928C14.1587 15.964 14.06 16.1962 14.06 16.4383V22.7511C14.06 23.417 14.3316 24.0555 14.815 24.5263C15.2984 24.9971 15.954 25.2617 16.6376 25.2617C17.3213 25.2617 17.9769 24.9971 18.4603 24.5263C18.9437 24.0555 19.2153 23.417 19.2153 22.7511V16.4383C19.2153 15.3488 18.7709 14.3038 17.9799 13.5334C17.1889 12.763 16.116 12.3302 14.9973 12.3302C13.8786 12.3302 12.8058 12.763 12.0147 13.5334C11.2237 14.3038 10.7793 15.3488 10.7793 16.4383V24.1981C10.7793 25.6508 11.3718 27.0441 12.4265 28.0713C13.4813 29.0985 14.9117 29.6756 16.4033 29.6756C17.8949 29.6756 19.3254 29.0985 20.3801 28.0713C21.4348 27.0441 22.0273 25.6508 22.0273 24.1981V21.4593C22.0273 21.2172 21.9286 20.985 21.7528 20.8138C21.577 20.6426 21.3386 20.5464 21.09 20.5464Z" fill="#734CA5"/>
</svg>
