<svg width="30" height="42" viewBox="0 0 30 42" fill="none" xmlns="http://www.w3.org/2000/svg">
<path d="M29.8962 8.7333L29.8681 8.67852C29.8277 8.60803 29.7772 8.54349 29.7181 8.48681L21.2821 0.270556C21.2251 0.214999 21.1604 0.167382 21.09 0.129054L21.0384 0.101667C20.9654 0.0589093 20.8865 0.0266249 20.8041 0.00581027C20.7434 -0.00193676 20.682 -0.00193676 20.6213 0.00581027H2.812C2.06621 0.00581027 1.35097 0.294356 0.823614 0.807972C0.296263 1.32159 0 2.0182 0 2.74456V39.2612C0 39.9876 0.296263 40.6842 0.823614 41.1978C1.35097 41.7115 2.06621 42 2.812 42H27.1826C27.9284 42 28.6437 41.7115 29.171 41.1978C29.6984 40.6842 29.9946 39.9876 29.9946 39.2612V9.13498C30.0018 9.0789 30.0018 9.02217 29.9946 8.96609C29.9737 8.88422 29.9405 8.80579 29.8962 8.7333ZM21.5586 3.12342L26.7936 8.22206H22.1538C21.996 8.22206 21.8446 8.16099 21.733 8.05227C21.6214 7.94356 21.5586 7.79611 21.5586 7.64236V3.12342ZM27.1826 40.1742H2.812C2.5634 40.1742 2.32499 40.078 2.1492 39.9068C1.97342 39.7356 1.87466 39.5034 1.87466 39.2612V2.74456C1.87466 2.50244 1.97342 2.27024 2.1492 2.09903C2.32499 1.92783 2.5634 1.83164 2.812 1.83164H19.684V7.64236C19.6852 8.27998 19.9458 8.89114 20.4088 9.342C20.8717 9.79287 21.4992 10.0467 22.1538 10.0479H28.12V39.2612C28.12 39.5034 28.0212 39.7356 27.8454 39.9068C27.6696 40.078 27.4312 40.1742 27.1826 40.1742Z" fill="#8A7E95"/>
<path fill-rule="evenodd" clip-rule="evenodd" d="M20.6751 16.2384C21.0633 16.5963 21.1103 17.2274 20.78 17.648L14.4972 25.648C14.3286 25.8626 14.0843 25.9903 13.8243 25.9995C13.5643 26.0087 13.3128 25.8986 13.1316 25.6963L9.26056 21.3737C8.90557 20.9773 8.91442 20.3442 9.28032 19.9596C9.64622 19.5751 10.2306 19.5847 10.5856 19.981L13.7494 23.5138L19.3739 16.352C19.7042 15.9314 20.2868 15.8805 20.6751 16.2384Z" fill="#009E19"/>
</svg>
