<svg width="101" height="50" viewBox="0 0 101 50" fill="none" xmlns="http://www.w3.org/2000/svg">
<g clip-path="url(#clip0_2626_763)">
<g opacity="0.75">
<path d="M6.05685 8.13482C6.05685 8.53355 5.97819 8.85253 5.82087 9.17151C5.66355 9.49049 5.50623 9.64998 5.27025 9.88921C5.03427 10.0487 4.79829 10.2082 4.56231 10.3677C4.32632 10.4474 4.01168 10.5272 3.69704 10.5272V11.2449H2.35981V10.5272C1.96651 10.4474 1.57321 10.3677 1.25857 10.2082C0.943925 10.0487 0.707944 9.88921 0.550623 9.64998C0.393302 9.41074 0.235981 9.17151 0.157321 8.85253C0.0786604 8.53355 0 8.21457 0 7.81585V4.86529C0 4.46656 0.0786604 4.14758 0.235981 3.8286C0.314642 3.58937 0.550623 3.35014 0.707944 3.19065C0.943925 2.95141 1.17991 2.87167 1.49455 2.71218C1.80919 2.55269 2.04517 2.55269 2.35981 2.55269V2.07422H3.7757V2.55269C4.09034 2.55269 4.32632 2.63243 4.64097 2.71218C4.87695 2.79192 5.11293 2.95141 5.34891 3.19065C5.58489 3.35014 5.74221 3.66912 5.89953 3.90835C6.05685 4.22733 6.13551 4.54631 6.13551 4.94503V8.13482H6.05685ZM2.35981 3.66911C2.04517 3.74886 1.80919 3.8286 1.57321 3.98809C1.41589 4.22733 1.33723 4.46656 1.33723 4.78554V8.29431C1.33723 8.4538 1.33723 8.61329 1.41589 8.77278C1.49455 8.93227 1.57321 9.01202 1.65187 9.09176C1.73053 9.17151 1.88785 9.25125 1.96651 9.331C2.12383 9.41074 2.20249 9.41074 2.35981 9.41074V3.66911ZM4.79829 4.78554C4.79829 4.46656 4.71963 4.22733 4.48364 3.98809C4.32632 3.8286 4.09034 3.74886 3.7757 3.66911V9.331C3.85436 9.331 4.01168 9.25125 4.09034 9.25125C4.24766 9.17151 4.32632 9.09176 4.40498 9.01202C4.48364 8.93227 4.56231 8.85253 4.64097 8.69304C4.71963 8.53355 4.71963 8.4538 4.71963 8.29431V4.78554H4.79829Z" fill="#464547"/>
<path d="M13.0573 8.85253C13.0573 9.64998 12.9 10.2879 12.5067 10.6867C12.1134 11.0854 11.5628 11.3246 10.8548 11.3246C10.0682 11.3246 9.51761 11.1651 9.20297 10.7664C8.88832 10.3677 8.65234 9.80947 8.65234 9.09176V4.46656C8.65234 4.14758 8.731 3.74886 8.80966 3.50963C8.88832 3.19065 9.04565 2.95141 9.20297 2.71218C9.36029 2.47294 9.59627 2.31345 9.91091 2.23371C10.2256 2.15396 10.5402 2.07422 10.9335 2.07422C11.3268 2.07422 11.7201 2.15396 11.9561 2.23371C12.1921 2.23371 12.428 2.3932 12.5854 2.63243C12.7427 2.87167 12.9 3.1109 12.9787 3.42988C13.0573 3.74886 13.0573 4.06784 13.0573 4.46656V8.85253ZM11.6414 4.30707C11.6414 4.06784 11.5628 3.8286 11.4841 3.58937C11.4055 3.35014 11.1695 3.27039 10.8548 3.27039C10.6975 3.27039 10.5402 3.27039 10.4615 3.35014C10.3042 3.50963 10.2256 3.58937 10.2256 3.74886C10.1469 3.8286 10.1469 3.98809 10.1469 4.14758C10.1469 4.30707 10.1469 4.38682 10.1469 4.54631V9.17151C10.1469 9.41074 10.2256 9.64998 10.3042 9.80947C10.3829 9.96896 10.6189 10.1284 10.9335 10.1284C11.2481 10.1284 11.4055 10.0487 11.5628 9.80947C11.7201 9.64998 11.7201 9.41074 11.7201 9.09176V4.30707H11.6414Z" fill="#464547"/>
<path d="M18.7215 11.2449V7.25763H17.0696V11.2449H15.7324V2.07422H17.1483V5.90197H18.8002V2.07422H20.2161V11.2449H18.7215Z" fill="#464547"/>
<path d="M23.5198 11.2433V12.9976H22.3398V10.0471L22.8905 9.96734C23.1264 9.7281 23.2838 9.40912 23.3624 9.09014C23.4411 8.77116 23.5198 8.29269 23.5198 7.73448L23.6771 2.15234H27.7674V10.0471H28.318V13.0774H27.1381V11.323H23.5198V11.2433ZM24.7783 7.65474C24.7783 8.21295 24.6997 8.61167 24.6997 9.0104C24.621 9.40912 24.5423 9.7281 24.385 9.96734H26.3515V3.42826H24.9356L24.7783 7.65474Z" fill="#464547"/>
<path d="M36.8127 1.99414C37.2061 1.99414 37.5207 2.07389 37.7567 2.15363C37.9927 2.23338 38.2286 2.39286 38.4646 2.55235C38.6219 2.71184 38.7793 2.95108 38.8579 3.19031C38.9366 3.42955 39.0152 3.74853 39.0152 4.06751L37.678 4.38649C37.678 4.06751 37.5994 3.74853 37.5207 3.58904C37.3634 3.3498 37.2061 3.27006 36.8914 3.27006C36.7341 3.27006 36.5768 3.27006 36.4981 3.3498C36.4194 3.42955 36.3408 3.50929 36.2621 3.58904C36.1835 3.66878 36.1835 3.82827 36.1835 3.90802C36.1835 4.06751 36.1835 4.14725 36.1835 4.30674V8.93194C36.1835 9.01168 36.1835 9.09143 36.1835 9.25092C36.1835 9.33066 36.2621 9.49015 36.2621 9.5699C36.3408 9.64964 36.4194 9.72939 36.4981 9.80913C36.5768 9.88888 36.7341 9.88888 36.8914 9.88888C37.442 9.88888 37.678 9.49015 37.678 8.77245C37.914 8.85219 38.15 8.8522 38.386 8.8522C38.6219 8.8522 38.8579 8.93194 39.0939 8.93194C39.0939 9.64964 38.8579 10.2079 38.5433 10.6066C38.15 11.0053 37.678 11.2445 36.9701 11.2445C36.1835 11.2445 35.6328 11.085 35.3182 10.6863C34.9249 10.2876 34.7676 9.72939 34.7676 9.01168V4.46623C34.7676 4.14725 34.7676 3.82827 34.8462 3.50929C34.9249 3.19031 35.0822 2.95108 35.2395 2.71184C35.3969 2.47261 35.6328 2.31312 35.9475 2.15363C36.0261 2.07389 36.3408 1.99414 36.8127 1.99414Z" fill="#464547"/>
<path d="M45.6228 8.85253C45.6228 9.64998 45.4654 10.2879 45.0721 10.6867C44.6788 11.0854 44.1282 11.3246 43.4203 11.3246C42.6337 11.3246 42.083 11.1651 41.7684 10.7664C41.4538 10.3677 41.2178 9.80947 41.2178 9.09176V4.46656C41.2178 4.14758 41.2964 3.74886 41.3751 3.50963C41.4538 3.19065 41.6111 2.95141 41.7684 2.71218C41.9257 2.47294 42.1617 2.31345 42.4763 2.23371C42.791 2.15396 43.1056 2.07422 43.4989 2.07422C43.8922 2.07422 44.2855 2.15396 44.5215 2.23371C44.8362 2.31345 44.9935 2.47294 45.2295 2.71218C45.3868 2.95141 45.5441 3.19065 45.6228 3.50963C45.6228 3.66912 45.6228 4.06784 45.6228 4.38682V8.85253ZM44.2069 4.30707C44.2069 4.06784 44.1282 3.8286 44.0495 3.58937C43.9709 3.35014 43.7349 3.27039 43.4203 3.27039C43.2629 3.27039 43.1056 3.27039 43.027 3.35014C42.9483 3.42988 42.8696 3.50963 42.791 3.58937C42.7123 3.66912 42.7123 3.8286 42.6337 3.98809C42.6337 4.14758 42.6337 4.22733 42.6337 4.38682V9.01202C42.6337 9.25125 42.7123 9.49049 42.791 9.64998C42.9483 9.80947 43.1056 9.96896 43.4203 9.96896C43.7349 9.96896 43.8922 9.88921 44.0495 9.64998C44.2069 9.49049 44.2069 9.25125 44.2069 8.93227V4.30707Z" fill="#464547"/>
<path d="M48.927 11.2433V12.9976H47.7471V10.0471L48.2977 9.96734C48.5337 9.7281 48.691 9.40912 48.7697 9.09014C48.8483 8.77116 48.927 8.29269 48.927 7.73448L49.0843 2.15234H53.1746V10.0471H53.7253V13.0774H52.5454V11.323H48.927V11.2433ZM50.1855 7.65474C50.1855 8.21295 50.1069 8.61167 50.1069 9.0104C50.0282 9.40912 49.9496 9.7281 49.7922 9.96734H51.7588V3.42826H50.3429L50.1855 7.65474Z" fill="#464547"/>
<path d="M56.0059 11.2449V2.07422H60.0175V3.42988H57.4217V5.90197H59.7029V7.25763H57.4217V9.88921H60.0175V11.2449H56.0059Z" fill="#464547"/>
<path d="M65.603 5.50239L63.7152 11.244H62.3779V2.07337H63.7152V7.89474L65.603 2.07337H66.9402V11.244H65.5243L65.603 5.50239ZM63.8725 0C63.8725 0.0797448 63.8725 0.15949 63.9511 0.318979C64.0298 0.398724 64.0298 0.478469 64.1085 0.637959C64.1871 0.717703 64.2658 0.797448 64.3444 0.877193C64.4231 0.956938 64.5804 0.956938 64.6591 0.956938C64.8164 0.956938 64.8951 0.956938 64.9737 0.877193C65.0524 0.797448 65.131 0.717703 65.2097 0.637959C65.2884 0.558214 65.367 0.478469 65.367 0.318979C65.367 0.239234 65.4457 0.15949 65.4457 0H66.4683C66.4683 0.15949 66.3896 0.398724 66.311 0.637959C66.3896 0.797448 66.2323 1.03668 66.075 1.19617C65.9176 1.35566 65.7603 1.51515 65.5243 1.67464C65.2884 1.75439 65.0524 1.83413 64.7377 1.83413C64.4231 1.83413 64.1085 1.75439 63.8725 1.67464C63.6365 1.5949 63.4792 1.43541 63.3219 1.19617C63.1645 1.03668 63.0859 0.797448 63.0072 0.637959C62.9285 0.398724 62.8499 0.15949 62.8499 0H63.8725Z" fill="#464547"/>
<path d="M71.8167 1.99414C72.21 1.99414 72.5246 2.07389 72.7606 2.15363C72.9966 2.23338 73.2325 2.39286 73.4685 2.55235C73.6258 2.71184 73.7832 2.95108 73.8618 3.19031C73.9405 3.42955 74.0191 3.74853 74.0191 4.06751L72.6819 4.38649C72.6819 4.06751 72.6033 3.74853 72.5246 3.58904C72.3673 3.3498 72.21 3.27006 71.8953 3.27006C71.738 3.27006 71.5807 3.27006 71.502 3.3498C71.4234 3.42955 71.3447 3.50929 71.266 3.58904C71.1874 3.66878 71.1874 3.82827 71.1874 3.90802C71.1874 4.06751 71.1874 4.14725 71.1874 4.30674V8.93194C71.1874 9.01168 71.1874 9.09143 71.1874 9.25092C71.1874 9.33066 71.266 9.49015 71.266 9.5699C71.3447 9.64964 71.4234 9.72939 71.502 9.80913C71.5807 9.88888 71.738 9.88888 71.8953 9.88888C72.4459 9.88888 72.6819 9.49015 72.6819 8.77245C72.9179 8.85219 73.1539 8.8522 73.3899 8.8522C73.6259 8.8522 73.8618 8.93194 74.0978 8.93194C74.0978 9.64964 73.8618 10.2079 73.5472 10.6066C73.1539 11.0053 72.6819 11.2445 71.974 11.2445C71.1874 11.2445 70.6368 11.085 70.3221 10.6863C69.9288 10.2876 69.7715 9.72939 69.7715 9.01168V4.46623C69.7715 4.14725 69.7715 3.82827 69.8501 3.50929C69.9288 3.19031 70.0861 2.95108 70.2435 2.71184C70.4008 2.47261 70.6367 2.31312 70.9514 2.15363C71.0301 2.07389 71.4234 1.99414 71.8167 1.99414Z" fill="#464547"/>
<path d="M78.5813 3.42988V11.2449H77.1654V3.42988H75.6709V2.07422H79.9972V3.42988H78.5813Z" fill="#464547"/>
<path d="M85.5035 6.46018C85.8968 6.61967 86.2114 6.85891 86.2901 7.17789C86.4474 7.57661 86.5261 7.97534 86.5261 8.4538C86.5261 9.41074 86.2901 10.1284 85.8968 10.5272C85.5035 11.0056 84.8742 11.1651 84.0089 11.1651H82.1211V2.07422H84.0876C84.8742 2.07422 85.5035 2.31345 85.8181 2.71218C86.2114 3.1109 86.3688 3.74886 86.3688 4.54631C86.3688 4.94503 86.2901 5.34376 86.1328 5.66274C86.1328 5.98171 85.8181 6.22095 85.5035 6.46018ZM85.1102 4.62605C85.1102 4.22733 85.0315 3.90835 84.8742 3.74886C84.7169 3.58937 84.4022 3.50963 84.0876 3.50963H83.6156V5.90197H84.0876C84.4809 5.90197 84.7169 5.82223 84.8742 5.58299C85.0315 5.26401 85.1102 4.94503 85.1102 4.62605ZM85.1889 8.29431C85.1889 7.89559 85.1102 7.57661 84.9529 7.33738C84.7955 7.09814 84.5596 7.0184 84.1663 7.0184H83.6156V9.88921H84.1663C84.4022 9.88921 84.5596 9.80947 84.7169 9.72972C84.8742 9.64998 84.9529 9.57023 85.0315 9.41074C85.1102 9.25125 85.1889 9.09176 85.1889 8.93227C85.1889 8.77278 85.1889 8.53355 85.1889 8.29431Z" fill="#464547"/>
<path d="M92.4262 5.50325L90.5384 11.2449H89.2012V2.07422H90.5384V7.89559H90.6171L92.5049 2.07422H93.8421V11.2449H92.4262V5.50325Z" fill="#464547"/>
<path d="M96.2021 11.2433L96.6741 8.37244C96.7528 8.05346 96.8314 7.81423 96.9888 7.57499C97.1461 7.33576 97.3034 7.09652 97.5394 7.01678C97.1461 6.85729 96.8314 6.53831 96.6741 6.21933C96.5168 5.90035 96.4381 5.42188 96.4381 4.94341C96.4381 4.06622 96.6741 3.34852 97.0674 2.87005C97.4607 2.39158 98.09 2.15234 98.8766 2.15234H100.922V11.323H99.5059V7.33576H99.1126C98.8766 7.33576 98.6406 7.4155 98.4046 7.65474C98.1687 7.81423 98.09 8.21295 97.9327 8.69142L97.5394 11.2433H96.2021ZM98.9553 3.42826C98.562 3.42826 98.2473 3.58775 98.09 3.82698C97.9327 4.06622 97.854 4.3852 97.854 4.86367C97.854 5.34214 97.9327 5.58137 98.1687 5.82061C98.4046 5.98009 98.6406 6.05984 98.9553 6.05984H99.5059V3.42826H98.9553Z" fill="#464547"/>
<path d="M4.24801 18.8202L1.8882 25.9175H0.236328V14.5938H1.96686V21.7708H2.04552L4.40533 14.5938H6.13586V25.9175H4.32667L4.24801 18.8202Z" fill="#464547"/>
<path d="M14.5525 25.9175V20.9733H12.586V25.9175H10.8555V14.5938H12.586V19.2987H14.6312V14.5938H16.3617V25.9175H14.5525Z" fill="#464547"/>
<path d="M24.9349 25.9175V20.9733H22.8897V25.9175H21.1592V14.5938H22.8897V19.2987H24.9349V14.5938H26.6654V25.9175H24.9349Z" fill="#464547"/>
<path d="M36.8914 23.0464C36.8914 24.0033 36.6555 24.8008 36.2622 25.2792C35.7902 25.7577 35.1609 25.9969 34.1383 25.9969C33.1944 25.9969 32.4865 25.7577 32.0932 25.2792C31.6998 24.8008 31.4639 24.083 31.4639 23.2059V17.544C31.4639 17.0655 31.5425 16.6668 31.6212 16.3478C31.6998 15.9491 31.8572 15.6301 32.0932 15.3909C32.3291 15.1516 32.5651 14.9124 32.9584 14.7529C33.2731 14.5934 33.745 14.5137 34.217 14.5137C34.7676 14.5137 35.1609 14.5934 35.5542 14.7529C35.8689 14.9124 36.1835 15.0719 36.4195 15.3111C36.6555 15.5504 36.8128 15.8693 36.8914 16.2681C36.9701 16.6668 37.0488 17.0655 37.0488 17.544V23.0464H36.8914ZM35.1609 17.3845C35.1609 17.0655 35.0822 16.8263 34.9249 16.5073C34.7676 16.2681 34.5316 16.1086 34.1383 16.1086C33.9023 16.1086 33.745 16.1883 33.6664 16.2681C33.509 16.3478 33.4304 16.5073 33.3517 16.587C33.2731 16.7465 33.1944 16.906 33.1944 17.0655C33.1944 17.225 33.1157 17.3845 33.1157 17.544V23.2856C33.1157 23.6046 33.1944 23.8438 33.3517 24.083C33.509 24.3223 33.745 24.402 34.1383 24.402C34.5316 24.402 34.7676 24.2425 34.9249 24.0033C35.0822 23.7641 35.1609 23.4451 35.1609 23.1261V17.3845Z" fill="#464547"/>
<path d="M45.7808 20.0164C46.2527 20.1759 46.646 20.4949 46.8034 20.9733C46.9607 21.4518 47.118 21.9303 47.118 22.5682C47.118 23.7644 46.882 24.6416 46.3314 25.1998C45.8594 25.758 45.0728 25.9973 44.0502 25.9973H41.6904V14.5938H44.1289C45.1515 14.5938 45.8594 14.833 46.2527 15.3912C46.7247 15.9494 46.9607 16.6671 46.9607 17.7038C46.9607 18.262 46.882 18.6607 46.7247 19.0595C46.5674 19.4582 46.2527 19.7772 45.7808 19.9367V20.0164ZM45.3088 17.7038C45.3088 17.1456 45.2302 16.8266 44.9942 16.5874C44.7582 16.3481 44.4435 16.2684 43.9716 16.2684H43.421V19.1392H43.9716C44.4435 19.1392 44.7582 18.9797 44.9942 18.7405C45.2302 18.581 45.3088 18.1823 45.3088 17.7038ZM45.3875 22.329C45.3875 21.7708 45.3088 21.3721 45.0728 21.1328C44.9155 20.8936 44.5222 20.7341 44.0502 20.7341H43.421V24.2429H44.1289C44.4435 24.2429 44.6009 24.1631 44.8368 24.0834C44.9942 24.0036 45.1515 23.8441 45.2301 23.6847C45.3088 23.5252 45.3875 23.2859 45.3875 23.0467C45.3875 22.8872 45.3875 22.648 45.3875 22.329Z" fill="#464547"/>
<path d="M55.9272 25.9175L55.4552 23.5252H53.4101C53.3314 23.9239 53.2527 24.3226 53.1741 24.7213C53.0954 25.1201 53.0168 25.5188 52.9381 25.9175H51.1289C51.5222 24.0036 51.9155 22.0898 52.2302 20.2556C52.6235 18.3418 53.0168 16.5076 53.3314 14.5938H55.2979L57.5791 25.9175H55.9272ZM54.354 17.2253C54.2753 18.0228 54.118 18.8202 54.0393 19.5379C53.882 20.3354 53.8034 21.1328 53.646 21.9303H55.2192L54.5113 17.2253H54.354Z" fill="#464547"/>
<path d="M67.3334 14.5938V24.3226H68.0413V28.1504H66.5468V25.9973H61.8271V14.5938H63.5577V24.3226H65.5242V14.5938H67.3334Z" fill="#464547"/>
<path d="M76.2216 18.8202L73.8618 25.9175H72.21V14.5938H73.9405V21.7708L76.3003 14.5938H78.0308V25.9175H76.3003L76.2216 18.8202Z" fill="#464547"/>
<path d="M82.3574 25.9175L82.9867 22.329C83.0654 21.9303 83.144 21.6113 83.38 21.2923C83.5373 20.9733 83.7733 20.7341 84.088 20.5746C83.5373 20.3354 83.2227 20.0164 82.9867 19.6177C82.8294 19.1392 82.6721 18.6607 82.6721 18.0228C82.6721 16.9064 82.908 16.0292 83.4587 15.4709C84.0093 14.9127 84.7172 14.5938 85.6612 14.5938H88.257V25.9175H86.5264V21.0531H86.0545C85.7398 21.0531 85.5038 21.1328 85.1892 21.3721C84.9532 21.6113 84.7172 22.01 84.6386 22.648L84.088 25.8378H82.3574V25.9175ZM85.8185 16.2684C85.2679 16.2684 84.9532 16.4279 84.7172 16.7469C84.4813 17.0658 84.4026 17.4646 84.4026 18.0228C84.4026 18.581 84.5599 18.9797 84.7959 19.1392C85.0319 19.3784 85.4252 19.4582 85.8185 19.4582H86.5264V16.2684H85.8185Z" fill="#464547"/>
<path d="M96.3594 23.4451L95.5728 21.3717L94.8649 19.3781H94.7862V25.9172H93.0557V14.5934H94.7862L96.0448 17.7832L96.91 20.2553H96.9887L97.9326 17.7035L99.1125 14.5137H100.764V25.8374H99.0339V19.2984H98.9552L98.2473 21.292L97.4606 23.3653H96.3594V23.4451Z" fill="#464547"/>
</g>
<path d="M100.843 29.3457C76.5369 53.4286 27.9248 49.2819 10.3049 29.3457H0.236328C13.5299 43.62 32.6444 49.0427 48.6912 49.7604C50.343 49.8401 51.9949 49.8401 53.5681 49.8401C63.9513 49.6806 75.5144 47.368 85.5829 41.9454C91.3251 38.9151 96.5954 34.7684 100.843 29.3457Z" fill="#EA2227"/>
<path d="M100.843 29.3457C100.843 29.4254 100.843 29.4254 100.843 29.3457C100.45 29.6647 100.056 29.9039 99.7416 30.1432C73.233 48.0857 36.42 44.577 20.6092 29.3457H10.3047C27.9246 49.2819 76.5368 53.5084 100.843 29.3457Z" fill="#25A8E0"/>
<path d="M95.0397 32.4274C82.7908 39.3848 68.8115 42.1631 55.909 41.6352C42.1738 41.0733 29.7215 36.7686 21.8911 29.8457H22.4186H30.9462C36.9329 35.6342 47.952 39.3351 61.7517 39.2556L61.7528 39.2556C71.6845 39.1757 83.0138 37.1074 95.0397 32.4274Z" fill="white" stroke="#D7D7D7"/>
</g>
<defs>
<clipPath id="clip0_2626_763">
<rect width="101" height="50" fill="white"/>
</clipPath>
</defs>
</svg>
