<svg width="211" height="291" viewBox="0 0 211 291" fill="none" xmlns="http://www.w3.org/2000/svg">
<path opacity="0.9" d="M106 0L106 255.514C106 266.555 114.931 275.506 125.947 275.506H191.541C200.079 275.506 207 282.443 207 291" stroke="url(#paint0_linear_2712_876)" stroke-width="8"/>
<path opacity="0.9" d="M207 52V45.0236C207 34.7615 199.221 26.1722 189.013 25.1638L122.872 18.6295C113.297 17.6835 106 9.62634 106 0" stroke="url(#paint1_linear_2712_876)" stroke-width="8"/>
<path opacity="0.9" d="M4 52L4 45.0236C4 34.7615 11.7792 26.1722 21.9868 25.1638L88.1275 18.6295C97.7028 17.6835 105 9.62634 105 0" stroke="url(#paint2_linear_2712_876)" stroke-width="8"/>
<path opacity="0.9" d="M106 0L106 255.514C106 266.555 97.0694 275.506 86.0529 275.506H20.4589C11.9212 275.506 4.99999 282.443 5 291" stroke="url(#paint3_linear_2712_876)" stroke-width="8"/>
<defs>
<linearGradient id="paint0_linear_2712_876" x1="106.769" y1="-17.4937" x2="227.473" y2="283.387" gradientUnits="userSpaceOnUse">
<stop stop-color="#F86161"/>
<stop offset="0.330862" stop-color="#AA51E0"/>
<stop offset="0.953355" stop-color="#7936DA"/>
<stop offset="1" stop-color="#5C1FB3" stop-opacity="0.24"/>
</linearGradient>
<linearGradient id="paint1_linear_2712_876" x1="106.768" y1="-17.4625" x2="209.419" y2="45.6301" gradientUnits="userSpaceOnUse">
<stop stop-color="#F86161"/>
<stop offset="0.330862" stop-color="#AA51E0"/>
<stop offset="0.930013" stop-color="#7936DA"/>
<stop offset="1" stop-color="#5C1FB3" stop-opacity="0.24"/>
</linearGradient>
<linearGradient id="paint2_linear_2712_876" x1="104.232" y1="-17.4625" x2="1.58099" y2="45.6301" gradientUnits="userSpaceOnUse">
<stop stop-color="#F86161"/>
<stop offset="0.330862" stop-color="#AA51E0"/>
<stop offset="0.930013" stop-color="#7936DA"/>
<stop offset="1" stop-color="#5C1FB3" stop-opacity="0.24"/>
</linearGradient>
<linearGradient id="paint3_linear_2712_876" x1="105.23" y1="-17.4939" x2="-15.4741" y2="283.386" gradientUnits="userSpaceOnUse">
<stop stop-color="#F86161"/>
<stop offset="0.330862" stop-color="#AA51E0"/>
<stop offset="0.953355" stop-color="#7936DA"/>
<stop offset="1" stop-color="#5C1FB3" stop-opacity="0.24"/>
</linearGradient>
</defs>
</svg>
