<svg width="966" height="106" viewBox="0 0 966 106" fill="none" xmlns="http://www.w3.org/2000/svg">
<path opacity="0.9" d="M483 2.38419e-07L483 7.69822C483 23.4777 497.949 36.769 517.814 38.6516L927.971 77.5227C946.247 79.2547 960 91.4828 960 106" stroke="url(#paint0_linear_2615_868)" stroke-width="12" stroke-linejoin="round"/>
<path opacity="0.9" d="M483 0L483 27.8769C483 39.9953 491.371 50.5068 503.183 53.2181L621.817 80.4509C633.628 83.1622 642 93.8817 642 106" stroke="url(#paint1_linear_2615_868)" stroke-width="12" stroke-linejoin="round"/>
<path opacity="0.9" d="M483 0L483 27.8769C483 39.9953 474.629 50.5068 462.817 53.2181L344.183 80.4509C332.372 83.1622 324 93.8817 324 106" stroke="url(#paint2_linear_2615_868)" stroke-width="12" stroke-linejoin="round"/>
<path opacity="0.9" d="M483 0L483 7.69822C483 23.4777 468.051 36.769 448.186 38.6516L38.0288 77.5227C19.7532 79.2547 5.99998 91.4828 6 106" stroke="url(#paint3_linear_2615_868)" stroke-width="12" stroke-linejoin="round"/>
<defs>
<linearGradient id="paint0_linear_2615_868" x1="446.943" y1="-17.1283" x2="944.873" y2="164.855" gradientUnits="userSpaceOnUse">
<stop stop-color="#F86161"/>
<stop offset="0.330862" stop-color="#AA51E0"/>
<stop offset="0.933665" stop-color="#7936DA"/>
<stop offset="1" stop-color="#5C1FB3" stop-opacity="0.24"/>
</linearGradient>
<linearGradient id="paint1_linear_2615_868" x1="488" y1="-2.99997" x2="650.764" y2="94.9348" gradientUnits="userSpaceOnUse">
<stop stop-color="#F86161"/>
<stop offset="0.445277" stop-color="#AA51E0"/>
<stop offset="0.906103" stop-color="#7936DA"/>
<stop offset="1" stop-color="#5C1FB3" stop-opacity="0.24"/>
</linearGradient>
<linearGradient id="paint2_linear_2615_868" x1="478" y1="-2.99997" x2="315.236" y2="94.9348" gradientUnits="userSpaceOnUse">
<stop stop-color="#F86161"/>
<stop offset="0.445277" stop-color="#AA51E0"/>
<stop offset="0.906103" stop-color="#7936DA"/>
<stop offset="1" stop-color="#5C1FB3" stop-opacity="0.24"/>
</linearGradient>
<linearGradient id="paint3_linear_2615_868" x1="519.057" y1="-17.1283" x2="21.1275" y2="164.855" gradientUnits="userSpaceOnUse">
<stop stop-color="#F86161"/>
<stop offset="0.330862" stop-color="#AA51E0"/>
<stop offset="0.933665" stop-color="#7936DA"/>
<stop offset="1" stop-color="#5C1FB3" stop-opacity="0.24"/>
</linearGradient>
</defs>
</svg>
