<svg width="966" height="309" viewBox="0 0 966 309" fill="none" xmlns="http://www.w3.org/2000/svg">
<path opacity="0.9" d="M483 203L483 210.698C483 226.478 497.949 239.769 517.814 241.652L927.971 280.523C946.247 282.255 960 294.483 960 309" stroke="url(#paint0_linear_2678_872)" stroke-width="12" stroke-linejoin="round"/>
<path opacity="0.9" d="M483 203L483 230.877C483 242.995 491.371 253.507 503.183 256.218L621.817 283.451C633.628 286.162 642 296.882 642 309" stroke="url(#paint1_linear_2678_872)" stroke-width="12" stroke-linejoin="round"/>
<path opacity="0.9" d="M483 203L483 230.877C483 242.995 474.629 253.507 462.817 256.218L344.183 283.451C332.372 286.162 324 296.882 324 309" stroke="url(#paint2_linear_2678_872)" stroke-width="12" stroke-linejoin="round"/>
<path opacity="0.9" d="M483 103L483 95.5196C483 80.1868 495.818 67.2716 512.851 65.4423L864.537 27.6714C880.207 25.9884 892 14.1063 892 0" stroke="url(#paint3_linear_2678_872)" stroke-width="12" stroke-linejoin="round"/>
<path opacity="0.9" d="M483 103L483 95.5196C483 80.1868 470.182 67.2716 453.149 65.4423L101.463 27.6714C85.7926 25.9884 74 14.1063 74 0" stroke="url(#paint4_linear_2678_872)" stroke-width="12" stroke-linejoin="round"/>
<path opacity="0.9" d="M483 203L483 210.698C483 226.478 468.051 239.769 448.186 241.652L38.0288 280.523C19.7532 282.255 5.99999 294.483 6.00001 309" stroke="url(#paint5_linear_2678_872)" stroke-width="12" stroke-linejoin="round"/>
<defs>
<linearGradient id="paint0_linear_2678_872" x1="446.943" y1="185.872" x2="944.873" y2="367.855" gradientUnits="userSpaceOnUse">
<stop stop-color="#F86161"/>
<stop offset="0.330862" stop-color="#AA51E0"/>
<stop offset="0.933665" stop-color="#7936DA"/>
<stop offset="1" stop-color="#5C1FB3" stop-opacity="0.24"/>
</linearGradient>
<linearGradient id="paint1_linear_2678_872" x1="488" y1="200" x2="650.764" y2="297.935" gradientUnits="userSpaceOnUse">
<stop stop-color="#F86161"/>
<stop offset="0.445277" stop-color="#AA51E0"/>
<stop offset="0.906103" stop-color="#7936DA"/>
<stop offset="1" stop-color="#5C1FB3" stop-opacity="0.24"/>
</linearGradient>
<linearGradient id="paint2_linear_2678_872" x1="478" y1="200" x2="315.236" y2="297.935" gradientUnits="userSpaceOnUse">
<stop stop-color="#F86161"/>
<stop offset="0.445277" stop-color="#AA51E0"/>
<stop offset="0.906103" stop-color="#7936DA"/>
<stop offset="1" stop-color="#5C1FB3" stop-opacity="0.24"/>
</linearGradient>
<linearGradient id="paint3_linear_2678_872" x1="452.083" y1="119.644" x2="890.463" y2="-21.7361" gradientUnits="userSpaceOnUse">
<stop stop-color="#F86161"/>
<stop offset="0.330862" stop-color="#AA51E0"/>
<stop offset="0.933665" stop-color="#7936DA"/>
<stop offset="1" stop-color="#5C1FB3" stop-opacity="0.24"/>
</linearGradient>
<linearGradient id="paint4_linear_2678_872" x1="513.917" y1="119.644" x2="75.5372" y2="-21.7361" gradientUnits="userSpaceOnUse">
<stop stop-color="#F86161"/>
<stop offset="0.330862" stop-color="#AA51E0"/>
<stop offset="0.933665" stop-color="#7936DA"/>
<stop offset="1" stop-color="#5C1FB3" stop-opacity="0.24"/>
</linearGradient>
<linearGradient id="paint5_linear_2678_872" x1="519.057" y1="185.872" x2="21.1275" y2="367.855" gradientUnits="userSpaceOnUse">
<stop stop-color="#F86161"/>
<stop offset="0.330862" stop-color="#AA51E0"/>
<stop offset="0.933665" stop-color="#7936DA"/>
<stop offset="1" stop-color="#5C1FB3" stop-opacity="0.24"/>
</linearGradient>
</defs>
</svg>
