<svg width="20" height="45" viewBox="0 0 20 45" fill="none" xmlns="http://www.w3.org/2000/svg">
<g clip-path="url(#clip0_197_1555)">
<path d="M-28.6837 30.3615C-36.8906 28.1928 -36.8906 16.7647 -28.6837 14.596L-22.8822 13.0629C-20.0198 12.3065 -17.7839 10.112 -17.0131 7.30259L-15.4511 1.60858C-13.2414 -6.44616 -1.59761 -6.44616 0.612066 1.60858L2.17411 7.30259C2.94483 10.112 5.18075 12.3065 8.04321 13.0629L13.8447 14.596C22.0516 16.7647 22.0516 28.1928 13.8447 30.3615L8.04321 31.8946C5.18075 32.651 2.94483 34.8455 2.17411 37.6549L0.612068 43.349C-1.59761 51.4037 -13.2414 51.4037 -15.4511 43.349L-17.0131 37.6549C-17.7839 34.8455 -20.0198 32.651 -22.8822 31.8946L-28.6837 30.3615Z" fill="url(#paint0_linear_197_1555)"/>
</g>
<defs>
<linearGradient id="paint0_linear_197_1555" x1="-4.00012" y1="35.4999" x2="26.4918" y2="35.9985" gradientUnits="userSpaceOnUse">
<stop stop-color="#F86161"/>
<stop offset="0.463168" stop-color="#A151E0"/>
<stop offset="1" stop-color="#4C13A9"/>
</linearGradient>
<clipPath id="clip0_197_1555">
<rect width="45" height="20" fill="white" transform="translate(0 45) rotate(-90)"/>
</clipPath>
</defs>
</svg>
