<svg width="71" height="31" viewBox="0 0 71 31" fill="none" xmlns="http://www.w3.org/2000/svg">
<g clip-path="url(#clip0_134_10474)">
<path d="M23.0511 -44.4596C26.476 -57.1801 44.524 -57.1801 47.949 -44.4596L50.3701 -35.4672C51.5647 -31.0304 55.0304 -27.5647 59.4672 -26.3701L68.4596 -23.9489C81.1801 -20.524 81.1801 -2.47604 68.4596 0.948952L59.4672 3.37012C55.0304 4.56472 51.5647 8.03041 50.3701 12.4672L47.949 21.4596C44.524 34.1801 26.476 34.1801 23.0511 21.4596L20.6299 12.4672C19.4353 8.03041 15.9696 4.56472 11.5328 3.37012L2.54044 0.948952C-10.1801 -2.47604 -10.1801 -20.524 2.54044 -23.9489L11.5328 -26.3701C15.9696 -27.5647 19.4353 -31.0304 20.6299 -35.4672L23.0511 -44.4596Z" fill="url(#paint0_linear_134_10474)"/>
<path d="M30.2531 10.6409L37.5939 10.6398L29 18.6608L31.5062 21L40.1001 12.9789L40.0989 19.8304L44 19.8304L43.9999 7.0001L30.2533 7L30.2531 10.6409Z" fill="white"/>
</g>
<defs>
<linearGradient id="paint0_linear_134_10474" x1="14.9362" y1="-6.19995" x2="14.1777" y2="41.0631" gradientUnits="userSpaceOnUse">
<stop stop-color="#F86161"/>
<stop offset="0.463168" stop-color="#A151E0"/>
<stop offset="1" stop-color="#4C13A9"/>
</linearGradient>
<clipPath id="clip0_134_10474">
<rect width="71" height="31" fill="white"/>
</clipPath>
</defs>
</svg>
