<svg width="154" height="33" viewBox="0 0 154 33" fill="none" xmlns="http://www.w3.org/2000/svg">
<g id="Logo" clip-path="url(#clip0_453_3817)">
<g id="Group 19">
<g id="Vector">
<path d="M153.391 16.6717C153.391 18.1573 153.192 19.592 152.793 20.9757C152.409 22.3448 151.862 23.6338 151.153 24.8427C150.444 26.037 149.587 27.1294 148.582 28.1199C147.577 29.1103 146.469 29.9623 145.257 30.676C144.046 31.3751 142.738 31.9141 141.334 32.2927C139.93 32.686 138.475 32.8826 136.968 32.8826C135.461 32.8826 134.005 32.686 132.601 32.2927C131.212 31.9141 129.905 31.3751 128.678 30.676C127.467 29.9623 126.358 29.1103 125.354 28.1199C124.349 27.1294 123.484 26.037 122.76 24.8427C122.051 23.6338 121.497 22.3448 121.098 20.9757C120.714 19.592 120.522 18.1573 120.522 16.6717C120.522 15.1861 120.714 13.7514 121.098 12.3677C121.497 10.984 122.051 9.69503 122.76 8.5007C123.484 7.30636 124.349 6.21398 125.354 5.22356C126.358 4.23313 127.467 3.38836 128.678 2.68923C129.905 1.99011 131.212 1.4512 132.601 1.07251C134.005 0.679253 135.461 0.482625 136.968 0.482625C138.475 0.482625 139.93 0.679253 141.334 1.07251C142.738 1.4512 144.046 1.99011 145.257 2.68923C146.469 3.38836 147.577 4.23313 148.582 5.22356C149.587 6.21398 150.444 7.30636 151.153 8.5007C151.862 9.69503 152.409 10.984 152.793 12.3677C153.192 13.7514 153.391 15.1861 153.391 16.6717ZM147.075 16.6717C147.075 15.3026 146.809 14.0136 146.277 12.8047C145.745 11.5812 145.021 10.5252 144.105 9.63677C143.203 8.73374 142.132 8.02005 140.891 7.49571C139.664 6.97137 138.357 6.70919 136.968 6.70919C135.564 6.70919 134.249 6.97137 133.022 7.49571C131.796 8.02005 130.725 8.73374 129.809 9.63677C128.893 10.5252 128.169 11.5812 127.637 12.8047C127.105 14.0136 126.839 15.3026 126.839 16.6717C126.839 18.0408 127.105 19.3298 127.637 20.5387C128.169 21.7331 128.893 22.7818 129.809 23.6848C130.725 24.5878 131.796 25.3015 133.022 25.8259C134.249 26.3502 135.564 26.6124 136.968 26.6124C138.357 26.6124 139.664 26.3502 140.891 25.8259C142.132 25.3015 143.203 24.5878 144.105 23.6848C145.021 22.7818 145.745 21.7331 146.277 20.5387C146.809 19.3298 147.075 18.0408 147.075 16.6717Z" fill="#1D1C1E"/>
<path d="M25.8473 32.8063L0.431641 32.8063L14.4446 6.89077L0.431641 6.89077L0.431641 0.40625L25.8473 0.40625L11.8801 26.3217H25.8473V32.8063Z" fill="#1D1C1E"/>
<path d="M117.692 23.0908C117.692 24.4314 117.432 25.6891 116.913 26.864C116.394 28.0389 115.684 29.0707 114.784 29.9594C113.898 30.833 112.86 31.5259 111.67 32.0381C110.479 32.5502 109.204 32.8063 107.846 32.8063H91.4287V0.40625L107.846 0.40625C109.204 0.40625 110.479 0.662317 111.67 1.17445C112.86 1.68658 113.898 2.387 114.784 3.27571C115.684 4.14935 116.394 5.17362 116.913 6.34851C117.432 7.52341 117.692 8.78115 117.692 10.1217C117.692 10.7242 117.608 11.3418 117.44 11.9745C117.272 12.6071 117.035 13.2171 116.73 13.8046C116.425 14.392 116.058 14.9268 115.631 15.4088C115.203 15.8908 114.73 16.2899 114.211 16.6063C114.745 16.8924 115.226 17.2841 115.654 17.7811C116.081 18.2632 116.447 18.7979 116.753 19.3853C117.058 19.9728 117.287 20.5904 117.44 21.2381C117.608 21.8707 117.692 22.4883 117.692 23.0908ZM98.0001 26.3217L107.846 26.3217C108.304 26.3217 108.731 26.2389 109.128 26.0732C109.525 25.9075 109.868 25.6816 110.158 25.3954C110.464 25.0941 110.7 24.7477 110.868 24.356C111.036 23.9644 111.12 23.5427 111.12 23.0908C111.12 22.6389 111.036 22.2171 110.868 21.8255C110.7 21.4339 110.464 21.095 110.158 20.8088C109.868 20.5075 109.525 20.274 109.128 20.1083C108.731 19.9427 108.304 19.8598 107.846 19.8598L98.0001 19.8598V26.3217ZM98.0001 13.3753L107.846 13.3753C108.304 13.3753 108.731 13.2924 109.128 13.1268C109.525 12.9611 109.868 12.7351 110.158 12.4489C110.464 12.1477 110.7 11.8012 110.868 11.4096C111.036 11.0029 111.12 10.5736 111.12 10.1217C111.12 9.66985 111.036 9.24809 110.868 8.85646C110.7 8.46483 110.464 8.12592 110.158 7.83972C109.868 7.53847 109.525 7.305 109.128 7.13931C108.731 6.97362 108.304 6.89077 107.846 6.89077L98.0001 6.89077V13.3753Z" fill="#1D1C1E"/>
<path d="M42.8534 6.89077C41.9528 6.89077 41.098 7.06399 40.289 7.41044C39.4952 7.74182 38.8006 8.20123 38.2053 8.78868C37.61 9.37613 37.1368 10.069 36.7857 10.8673C36.4499 11.6506 36.282 12.4866 36.282 13.3753V19.8598H49.9879L56.5594 19.8485L56.5594 32.8063H49.9879V26.3217H36.282V32.8063H29.7334V13.3753C29.7334 11.5828 30.0769 9.90332 30.7638 8.3368C31.4507 6.7552 32.3819 5.37696 33.5572 4.20207C34.7479 3.02717 36.137 2.10081 37.7245 1.42299C39.3273 0.745162 41.0369 0.40625 42.8534 0.40625L74.8405 0.40625C76.0464 0.40625 77.2065 0.564409 78.3208 0.880727C79.4351 1.18198 80.4731 1.6188 81.4348 2.19119C82.4117 2.74851 83.2971 3.42633 84.0909 4.22466C84.8999 5.00792 85.5868 5.88157 86.1516 6.84558C86.7316 7.8096 87.1743 8.8414 87.4796 9.94098C87.8002 11.0406 87.9604 12.1853 87.9604 13.3753C87.9604 14.4899 87.8154 15.5745 87.5254 16.6288C87.2506 17.6832 86.8461 18.6849 86.3119 19.6339C85.7929 20.5828 85.1517 21.4565 84.3885 22.2548C83.6253 23.0531 82.7705 23.746 81.8241 24.3334L85.4647 32.8063H78.4811L75.619 26.2765L67.3879 26.3217V32.8063L60.8165 32.8063L60.8165 19.8485L67.3879 19.8598H74.8405C75.7411 19.8598 76.5883 19.6941 77.382 19.3627C78.1758 19.0163 78.8703 18.5493 79.4657 17.9619C80.061 17.3745 80.5266 16.6891 80.8624 15.9058C81.2135 15.1075 81.389 14.264 81.389 13.3753C81.389 12.4866 81.2135 11.6506 80.8624 10.8673C80.5266 10.069 80.061 9.37613 79.4657 8.78868C78.8703 8.20123 78.1758 7.74182 77.382 7.41044C76.5883 7.06399 75.7411 6.89077 74.8405 6.89077L42.8534 6.89077Z" fill="#1D1C1E"/>
</g>
<g id="Rectangle 15">
<path d="M40.0518 13.3799C40.0518 11.723 41.4144 10.3799 43.0952 10.3799L74.7474 10.3799C76.4283 10.3799 77.7909 11.723 77.7909 13.3799C77.7909 15.0367 76.4283 16.3799 74.7474 16.3799L40.0518 16.3799V13.3799Z" fill="url(#paint0_linear_453_3817)"/>
</g>
</g>
</g>
<defs>
<linearGradient id="paint0_linear_453_3817" x1="77.7909" y1="10.4749" x2="45.6224" y2="27.1573" gradientUnits="userSpaceOnUse">
<stop stop-color="#E94309"/>
<stop offset="0.480328" stop-color="#E92A6E"/>
<stop offset="1" stop-color="#A204E8"/>
</linearGradient>
<clipPath id="clip0_453_3817">
<rect width="154" height="33" fill="white"/>
</clipPath>
</defs>
</svg>
