<svg width="79" height="23" viewBox="0 0 79 23" fill="none" xmlns="http://www.w3.org/2000/svg">
<g clip-path="url(#clip0_2626_796)">
<path opacity="0.75" fill-rule="evenodd" clip-rule="evenodd" d="M10.985 0.0397544C10.154 -0.0792456 9.381 0.514754 9.262 1.40575V3.66075C8.02409 2.95401 6.64584 2.52828 5.225 2.41375C1.782 2.47475 0 4.19575 0 7.70075V12.2728C0 15.8948 1.722 17.7358 5.166 17.6768C6.58682 17.5621 7.96504 17.1364 9.203 16.4298V20.6448C9.145 21.5948 9.916 22.4268 10.866 22.4268C11.816 22.4868 12.648 21.7138 12.648 20.7638V16.4298C13.9081 17.0839 15.2755 17.5063 16.685 17.6768C20.13 17.6768 21.851 15.8948 21.851 12.2728V7.70075C21.851 4.19675 20.13 2.47475 16.625 2.41575C15.201 2.41575 13.775 2.83175 12.588 3.66275V1.82275C12.6424 1.421 12.5356 1.01403 12.2909 0.69079C12.0462 0.367554 11.6835 0.154341 11.282 0.0977544C11.282 -0.0202456 11.162 -0.0202456 10.985 0.0387544V0.0397544ZM5.225 14.1128C4.335 14.2318 3.562 13.5778 3.445 12.7468V7.64075C3.39082 7.23931 3.49763 6.83273 3.74212 6.50974C3.9866 6.18676 4.34892 5.97359 4.75 5.91675H9.203V14.1118H5.225V14.1128ZM18.525 12.2728C18.645 13.1028 18.051 13.9348 17.22 14.0528H12.707V5.85875H16.744C17.576 5.73975 18.348 6.27475 18.467 7.10575V7.52175L18.526 12.2718L18.525 12.2728ZM35.093 2.35575C32.824 2.41377 30.5789 2.83477 28.443 3.60275C28.086 2.94975 27.493 2.47475 26.78 2.35575C26.3786 2.30215 25.9723 2.40933 25.6496 2.65395C25.3268 2.89857 25.1138 3.26081 25.057 3.66175V20.5848C25.0034 20.9862 25.1108 21.3925 25.3556 21.7151C25.6005 22.0377 25.963 22.2504 26.364 22.3068H26.78C27.611 22.4258 28.443 21.8318 28.502 20.9408V16.3688C30.6175 17.1366 32.8432 17.5577 35.093 17.6158C38.181 17.6758 40.793 15.2408 40.912 12.1528V8.29375C41.09 5.26475 38.833 2.59375 35.746 2.41475C35.568 2.35475 35.33 2.35575 35.093 2.35575ZM37.468 11.6778C37.408 12.9848 36.399 13.9938 35.093 14.1128H28.502V5.91775H35.093C36.34 5.97775 37.349 6.98775 37.468 8.23375V11.6778ZM57.776 2.35575C56.944 2.23675 56.172 2.83075 55.994 3.66175V14.0528H48.988C48.7808 14.0839 48.5695 14.0731 48.3667 14.0208C48.1638 13.9685 47.9735 13.8759 47.8072 13.7486C47.6409 13.6212 47.502 13.4616 47.3987 13.2793C47.2954 13.0971 47.2299 12.8959 47.206 12.6878V4.07775C47.146 3.12775 46.375 2.35575 45.425 2.41475C44.535 2.47475 43.762 3.18675 43.762 4.07775V12.2128C43.762 15.8348 45.484 17.6158 48.928 17.6158C51.363 17.5558 53.738 17.1408 55.994 16.3688C56.114 17.1408 56.885 17.7348 57.657 17.6158C58.0582 17.6693 58.4642 17.5621 58.7867 17.3174C59.1091 17.0728 59.3216 16.7105 59.378 16.3098V4.13675C59.4316 3.73547 59.3244 3.32928 59.0797 3.00671C58.8351 2.68414 58.4729 2.47136 58.072 2.41475C58.072 2.35475 57.954 2.35575 57.776 2.35575ZM74.699 4.07775V14.0528H67.692C67.4849 14.0839 67.2736 14.073 67.0708 14.0208C66.868 13.9685 66.6778 13.8759 66.5116 13.7485C66.3454 13.6211 66.2065 13.4615 66.1033 13.2793C66.0001 13.097 65.9347 12.8958 65.911 12.6878V4.07775C65.8958 3.63121 65.7077 3.20804 65.3864 2.89753C65.0651 2.58701 64.6358 2.41345 64.189 2.41345C63.7422 2.41345 63.3129 2.58701 62.9916 2.89753C62.6703 3.20804 62.4822 3.63121 62.467 4.07775V12.2128C62.467 15.8348 64.248 17.6158 67.633 17.6158C70.068 17.5558 72.443 17.1408 74.758 16.3688C74.877 17.1408 75.589 17.7348 76.421 17.6158H76.481C76.8821 17.6691 77.2881 17.5617 77.6104 17.3171C77.9327 17.0725 78.1454 16.7104 78.202 16.3098V4.07775C78.143 3.12775 77.371 2.35575 76.421 2.41475C75.471 2.47475 74.699 3.18675 74.699 4.07775Z" fill="#073A69"/>
</g>
<defs>
<clipPath id="clip0_2626_796">
<rect width="79" height="23" fill="white"/>
</clipPath>
</defs>
</svg>
