<svg width="137" height="44" viewBox="0 0 137 44" fill="none" xmlns="http://www.w3.org/2000/svg">
<g opacity="0.75" clip-path="url(#clip0_2626_798)">
<path d="M130.219 19.476C129.981 19.298 129.744 19.18 129.566 19.001C128.794 18.407 128.022 17.754 127.309 17.161C127.023 16.934 126.765 16.675 126.538 16.389C126.004 15.854 125.528 15.26 125.053 14.726C124.875 14.548 124.757 14.31 124.4 14.31C124.341 14.31 124.281 14.251 124.222 14.192C123.806 14.548 123.45 14.904 123.034 15.26C122.986 15.1171 122.926 14.9783 122.856 14.845C122.381 15.082 122.025 15.379 121.609 15.676C121.193 15.914 120.778 16.21 120.362 16.507C120.303 16.448 120.243 16.389 120.243 16.27C120.124 16.33 120.006 16.33 119.946 16.389C119.888 16.448 119.769 16.448 119.828 16.567L119.472 16.923C118.818 17.458 118.165 17.933 117.571 18.467C117.215 18.764 117.215 18.764 117.512 19.18C118.284 20.13 119.115 21.08 119.888 22.03L120.065 22.208H120.6C120.778 22.445 120.956 22.683 121.075 22.861C121.787 23.871 122.559 24.939 123.272 25.949C123.332 26.067 123.51 26.186 123.45 26.364C123.332 26.305 123.272 26.305 123.153 26.246C122.797 26.068 122.44 25.83 122.085 25.652C121.906 25.533 121.669 25.474 121.431 25.414C121.135 25.354 120.838 25.354 120.481 25.295C120.838 25.711 121.312 25.889 121.669 26.245C121.609 26.245 121.55 26.305 121.55 26.305C120.481 26.127 119.472 25.889 118.403 25.711C118.165 25.651 117.928 25.533 117.63 25.592C117.928 25.712 118.165 25.83 118.462 25.83C118.996 26.008 119.531 26.186 120.124 26.364C120.778 26.542 121.312 26.899 121.906 27.255C121.55 27.255 121.193 27.315 120.897 27.315C120.54 27.315 120.184 27.255 119.828 27.374C119.888 27.434 119.888 27.434 119.946 27.434H121.966C122.203 27.434 122.44 27.493 122.678 27.374C122.797 27.196 122.678 27.077 122.618 26.958C122.44 26.661 122.203 26.305 122.025 26.008L122.144 25.889C122.381 26.009 122.678 26.127 122.916 26.305C123.153 26.424 123.332 26.543 123.569 26.602L124.103 26.958C123.984 27.255 123.213 28.858 122.916 29.274C122.856 29.214 122.856 29.155 122.856 29.096C122.856 29.036 122.797 28.977 122.797 28.858C122.737 29.155 122.678 29.333 122.559 29.571C118.046 29.808 113.534 30.046 108.903 30.283C109.318 29.986 109.734 29.986 110.031 29.749C109.615 29.571 109.199 29.571 108.784 29.452C108.903 29.63 108.961 29.69 109.02 29.808C108.843 29.986 108.605 30.105 108.368 30.224C108.189 30.343 107.952 30.462 107.715 30.64C107.833 30.758 107.892 30.877 107.952 30.996C108.011 31.115 108.011 31.233 108.011 31.352C108.071 31.946 108.13 32.599 108.249 33.192C108.249 33.372 108.368 33.549 108.427 33.668C108.605 34.024 108.843 34.381 109.02 34.737C108.903 34.797 108.843 34.856 108.724 34.856C108.605 34.856 108.546 34.856 108.427 34.915C107.656 35.093 107.892 35.034 107.299 34.618C106.883 34.321 106.527 33.965 106.111 33.668C105.874 33.49 105.755 33.312 105.695 33.074C105.398 32.184 105.162 31.234 104.864 30.343C104.82 30.075 104.696 29.8265 104.508 29.63C104.271 29.3827 104.106 29.0747 104.033 28.74C103.974 28.443 103.855 28.205 103.796 27.908C103.915 27.73 104.092 27.611 104.33 27.493C104.448 27.433 104.567 27.373 104.686 27.255C105.043 27.315 105.339 27.315 105.695 27.374C105.933 27.374 106.171 27.434 106.349 27.611C106.468 27.731 106.586 27.731 106.764 27.731C106.883 27.731 107.002 27.731 107.121 27.671C107.656 27.671 107.833 27.671 108.249 27.433H107.656C107.596 27.433 107.537 27.373 107.418 27.314C109.318 26.958 111.218 26.661 113.118 26.305C113.296 26.483 113.415 26.721 113.534 26.899C113.593 27.196 113.831 27.136 114.068 27.077L113.653 26.661C113.89 26.424 114.187 26.186 114.424 26.008C114.721 25.771 114.959 25.533 115.255 25.355C115.85 25.474 116.324 25.771 116.918 25.83C116.918 25.77 116.978 25.711 116.978 25.652C116.978 25.295 116.978 25.236 116.621 25.177C116.206 25.117 115.79 24.999 115.374 24.939C115.093 24.8823 114.829 24.7603 114.603 24.583C113.712 23.811 112.821 23.039 111.871 22.327C111.514 22.03 111.278 21.733 111.159 21.257V21.198C111.099 21.0453 111.099 20.8757 111.159 20.723C111.337 20.367 111.574 19.951 111.752 19.536C111.812 19.417 111.871 19.358 111.752 19.239C111.693 19.239 111.633 19.239 111.633 19.299C111.337 19.654 111.04 20.011 110.743 20.427C110.683 20.486 110.683 20.605 110.683 20.664C110.683 20.783 110.743 20.961 110.743 21.08C110.802 21.258 110.862 21.495 110.862 21.673C110.802 21.673 110.743 21.733 110.683 21.733C110.683 21.555 110.505 21.495 110.446 21.436C109.555 20.783 108.665 20.07 107.773 19.417C107.656 19.357 107.596 19.239 107.477 19.179C107.522 19.0897 107.582 19.0094 107.656 18.942C108.189 18.17 108.665 17.457 109.199 16.686C109.436 16.329 109.615 15.973 109.852 15.616C109.971 15.498 110.031 15.32 110.149 15.142H111.455C111.693 15.142 111.93 15.082 112.168 14.964C112.406 14.844 112.584 14.726 112.821 14.607C112.88 14.547 112.94 14.547 112.999 14.489C112.999 14.429 112.999 14.429 112.94 14.429H111.337V14.31C111.693 14.014 112.049 13.657 112.465 13.3C112.584 13.3 112.821 13.3 113.059 13.242C113.415 12.766 113.831 12.292 114.187 11.816C114.603 11.816 115.255 11.995 115.731 12.232C115.019 12.588 114.187 12.826 113.475 13.242C113.712 13.301 114.008 13.301 114.246 13.242C114.84 13.004 115.374 12.707 115.968 12.47C116.028 12.47 116.087 12.41 116.147 12.35C116.028 12.054 116.028 11.757 116.087 11.46C116.147 11.163 116.324 10.926 116.443 10.629C116.206 10.629 116.028 10.629 115.79 10.569C115.85 10.451 115.85 10.332 115.909 10.213C116.443 9.382 116.918 8.61 117.334 7.719C117.394 7.601 117.453 7.482 117.453 7.422C117.275 7.244 117.097 7.422 116.918 7.422L116.859 7.363C116.859 7.363 116.799 7.303 116.799 7.244C116.74 6.591 116.74 5.879 116.681 5.225C116.799 5.166 116.859 5.285 116.859 5.345C117.097 5.76 117.275 6.175 117.512 6.591C117.571 6.651 117.571 6.769 117.749 6.71C117.809 6.354 117.749 5.997 117.749 5.582C117.571 5.462 117.334 5.403 117.334 5.166C117.334 5.106 117.215 4.988 117.156 4.928C116.681 4.394 116.265 3.86 115.79 3.385C115.374 3.325 107.952 3.325 107.18 3.385C106.883 3.681 106.586 4.038 106.29 4.395C106.23 4.513 106.111 4.572 106.052 4.691C105.933 4.751 105.874 4.751 105.755 4.691C105.636 4.572 105.458 4.572 105.339 4.572C105.28 4.512 105.162 4.453 105.043 4.394C105.102 4.275 105.102 4.097 105.162 3.978C105.102 3.978 105.043 3.919 104.983 3.978C104.668 4.04483 104.366 4.1656 104.092 4.335C103.855 4.513 103.558 4.632 103.261 4.75H103.142C102.964 4.335 103.202 4.097 103.499 3.8C103.38 3.8 103.32 3.74 103.261 3.8C103.083 3.919 102.904 3.978 102.727 4.097C102.608 4.216 102.43 4.275 102.252 4.453C102.371 3.919 102.608 3.503 102.727 3.088C102.787 2.85 102.964 2.613 103.142 2.435C103.142 2.553 103.202 2.672 103.202 2.85C103.261 2.613 103.32 2.435 103.38 2.256C103.439 2.197 103.499 2.078 103.618 2.019C103.855 1.9 104.151 1.841 104.389 1.781C104.448 1.781 104.567 1.841 104.686 1.841C104.746 1.663 104.864 1.603 105.043 1.603C105.339 1.603 105.695 1.543 105.993 1.543C106.23 1.543 106.527 1.484 106.764 1.366C107.002 1.247 107.299 1.188 107.596 1.188C107.596 0.95 107.358 1.009 107.299 0.891L107.358 0.831C108.011 0.831 108.605 0.772 109.258 0.772C109.734 0.772 110.208 0.712 110.743 0.712C110.624 0.891 110.446 0.891 110.327 0.95C110.09 1.01 109.852 1.01 109.615 1.247C109.852 1.307 110.09 1.247 110.327 1.187C111.693 0.891 112.999 0.653 114.365 0.357C114.543 0.297 114.662 0.297 114.84 0.297C115.018 0.416 114.84 0.534 114.9 0.713C115.019 0.831 115.196 0.713 115.315 0.713C115.255 0.475 115.255 0.238 115.196 0C115.597 0.196256 115.975 0.435316 116.324 0.713C116.383 0.713 116.443 0.653 116.502 0.653C116.681 0.891 116.562 1.306 116.859 1.484H116.918C117.037 1.128 116.859 0.831 116.918 0.416C117.097 0.594 117.215 0.772 117.334 0.95H118.937C119.056 1.069 119.175 1.188 119.234 1.306C120.006 2.138 120.719 3.028 121.431 3.86L121.787 4.394C122.559 4.632 123.45 4.81 124.281 5.047C124.579 5.937 124.697 6.888 124.994 7.779H125.35C125.291 7.363 125.291 6.947 125.231 6.532C125.2 6.39826 125.2 6.2592 125.231 6.12541C125.262 5.99163 125.323 5.86665 125.409 5.76C125.766 5.344 126.181 4.87 126.538 4.453C126.716 4.275 126.835 4.157 127.072 4.097C127.666 4.037 128.26 3.919 128.853 3.8C128.972 3.919 129.091 3.978 129.21 4.038C129.744 4.513 130.279 4.988 130.873 5.463C131.228 5.76 131.347 6.175 131.526 6.532V6.65C131.407 7.185 131.466 7.779 131.05 8.194C130.991 8.254 130.991 8.314 130.932 8.372C131.05 8.669 130.991 9.026 130.932 9.382C130.932 9.501 130.873 9.56 130.813 9.679C130.279 10.332 129.744 10.926 129.21 11.579C129.21 11.579 129.15 11.579 129.15 11.639C129.091 11.579 128.972 11.579 128.913 11.519C128.556 11.282 128.201 10.985 127.844 10.689C127.666 10.569 127.547 10.569 127.369 10.569C127.072 10.629 126.716 10.689 126.359 10.807C126.359 10.569 126.656 10.569 126.656 10.451C126.359 10.391 126.3 10.391 125.647 10.629C125.41 10.689 125.172 10.689 124.875 10.748C124.994 10.451 125.172 10.273 125.291 10.094C125.35 10.035 125.41 9.916 125.35 9.798C125.35 9.798 125.409 9.798 125.409 9.738L125.35 9.798C125.172 9.916 125.053 9.976 124.875 10.094L124.697 10.273C124.341 10.985 123.925 11.579 123.45 12.173H121.49C121.371 12.47 121.253 12.648 121.193 12.945C121.134 13.063 121.135 13.182 121.135 13.36L121.075 13.42V13.36C121.253 13.3 121.312 13.123 121.371 12.945C121.49 12.767 121.55 12.588 121.669 12.41H122.975C123.094 12.41 123.272 12.47 123.391 12.35C123.51 12.35 123.628 12.35 123.747 12.291L124.163 11.876C124.519 11.52 124.816 11.163 125.112 10.866H125.707C126.062 10.926 126.359 11.045 126.716 11.104C126.835 11.104 126.954 11.164 127.013 11.282C127.309 11.816 127.666 12.292 127.903 12.885C127.785 12.945 127.725 13.063 127.666 13.123C127.666 13.183 127.666 13.183 127.725 13.242C127.844 13.36 127.963 13.538 128.201 13.538C128.26 13.538 128.319 13.658 128.379 13.717C129.032 14.37 129.626 15.023 130.279 15.735C130.041 15.973 130.16 16.211 130.219 16.448C130.279 16.686 130.279 16.923 130.457 17.161C130.635 17.101 130.695 16.864 130.813 16.745C130.932 16.805 130.991 16.864 131.05 17.042C131.11 17.279 131.169 17.517 131.347 17.814C131.308 17.3795 131.188 16.9563 130.991 16.567C130.991 16.507 130.991 16.389 131.05 16.329C131.169 16.151 131.288 16.032 131.466 15.914C131.763 15.676 131.942 15.32 132.12 14.964C132.535 14.192 132.832 13.36 133.129 12.47C133.248 12.173 133.307 11.876 133.485 11.638H133.604C134.079 11.698 134.613 11.698 135.088 11.758V11.935C135.088 11.995 135.029 12.054 135.029 12.173H135.267C135.207 12.351 135.207 12.529 135.088 12.707C134.317 14.547 133.544 16.389 132.773 18.289C132.654 18.526 132.535 18.823 132.416 19.061C132.238 19.12 132.001 19.18 131.823 19.298C131.823 19.476 131.882 19.655 131.882 19.892C131.585 20.011 131.347 20.13 131.05 20.248C130.932 20.188 130.932 20.07 130.932 19.951C130.873 19.773 130.873 19.595 130.813 19.358C130.516 19.358 130.279 19.238 129.981 19.358C130.219 19.298 130.219 19.417 130.219 19.476ZM121.847 14.489C121.847 14.429 121.906 14.429 121.906 14.369C122.203 14.251 122.203 14.251 122.263 13.954C122.085 14.073 121.906 14.131 121.906 14.369C121.847 14.369 121.847 14.37 121.847 14.489C121.787 14.489 121.728 14.489 121.669 14.548C121.609 14.608 121.55 14.608 121.49 14.667V14.726L121.55 14.786L121.669 14.666C121.728 14.548 121.787 14.488 121.847 14.488V14.489ZM120.6 15.439C120.6 15.498 120.54 15.498 120.54 15.557C120.6 15.557 120.6 15.498 120.659 15.498L120.778 15.379C120.956 15.319 121.075 15.142 121.193 14.964C121.193 14.964 121.253 14.964 121.253 14.904L121.312 14.844V14.726L121.253 14.786L121.135 14.904C121.04 14.9398 120.954 14.9954 120.882 15.0672C120.81 15.1389 120.755 15.2251 120.719 15.32C120.719 15.38 120.659 15.439 120.6 15.439ZM111.99 19.417C111.99 19.357 112.049 19.357 112.049 19.298C112.049 19.298 112.049 19.238 111.99 19.238H111.93L111.812 19.358C111.812 19.417 111.752 19.476 111.752 19.536C111.93 19.536 111.99 19.476 111.99 19.417ZM117.334 17.695C117.394 17.635 117.453 17.635 117.571 17.576H117.69C117.69 17.576 117.69 17.516 117.749 17.516H117.69C117.63 17.516 117.63 17.576 117.571 17.576C117.453 17.635 117.394 17.635 117.334 17.695H117.215C117.215 17.695 117.215 17.755 117.156 17.755H117.215C117.275 17.755 117.275 17.755 117.334 17.695ZM104.092 3.622C104.033 3.622 103.974 3.682 103.915 3.682L103.796 3.8C103.855 3.8 103.855 3.8 103.915 3.86C103.974 3.8 104.092 3.74 104.151 3.681C104.151 3.622 104.211 3.622 104.211 3.563C104.151 3.623 104.092 3.622 104.092 3.622ZM107.656 2.494C107.833 2.316 107.892 2.019 107.952 1.781L107.892 1.722H107.773C107.656 2.019 107.656 2.256 107.656 2.494L107.596 2.554C107.596 2.554 107.596 2.613 107.656 2.613V2.553V2.494ZM117.868 12.173C117.512 12.053 117.156 11.876 116.799 11.816C116.443 12.173 116.443 12.173 116.324 12.41H116.383C116.443 12.41 116.502 12.41 116.562 12.35C116.918 12.113 117.275 12.113 117.63 12.232H117.69C118.165 12.351 118.641 12.47 119.234 12.529C118.759 12.41 118.344 12.291 117.868 12.173ZM119.591 11.52C119.293 11.282 118.937 11.104 118.641 10.926C118.522 10.866 118.403 10.807 118.284 10.807C118.106 10.807 118.046 10.807 117.749 10.926C118.344 11.163 118.877 11.46 119.472 11.698C119.65 11.816 119.828 11.935 120.124 11.935C120.006 11.698 119.769 11.579 119.591 11.52ZM119.412 6.116C119.175 5.997 118.996 5.938 118.7 5.997C118.937 6.235 119.175 6.235 119.412 6.294C119.472 6.294 119.591 6.354 119.65 6.354C120.065 6.472 120.481 6.532 120.778 6.888C120.778 6.948 120.897 6.888 121.016 6.888C120.838 6.354 120.719 5.819 120.481 5.344C119.947 4.394 119.472 3.504 118.937 2.554C118.641 2.019 118.284 1.604 117.928 1.188H117.809C117.868 1.306 117.928 1.425 118.046 1.544C118.401 2.06484 118.7 2.62198 118.937 3.206C119.412 4.156 119.828 5.166 120.362 6.056C120.422 6.116 120.422 6.176 120.422 6.294C120.006 6.234 119.709 6.116 119.412 6.116ZM116.918 17.933C116.681 17.992 116.443 18.111 116.206 18.289C116.443 18.407 116.621 18.526 116.859 18.586C116.918 18.645 117.037 18.645 117.097 18.526C117.097 18.348 117.037 18.111 116.918 17.933ZM121.669 5.7C121.49 6.116 121.431 6.532 121.312 6.947C121.312 7.007 121.371 7.067 121.49 7.185C121.609 6.65 121.609 6.175 121.669 5.7ZM117.394 2.91C117.453 2.494 117.334 2.138 117.275 1.84L117.215 1.781C117.156 1.781 117.097 1.841 117.097 1.841C117.097 2.197 117.215 2.494 117.394 2.91ZM118.284 22.267C118.759 22.386 119.175 22.267 119.709 22.267C118.877 22.148 118.641 22.148 118.284 22.267ZM120.362 13.42C120.243 13.538 120.184 13.717 120.124 13.954C120.362 13.894 120.422 13.717 120.481 13.598C120.54 13.479 120.481 13.42 120.362 13.42ZM112.821 22.267C112.465 22.148 112.465 22.148 112.049 22.267C112.346 22.327 112.584 22.327 112.821 22.267ZM107.299 1.781C107.24 1.841 107.24 1.901 107.24 2.019H107.299V1.78V1.781ZM131.585 17.873V17.933C131.585 17.933 131.644 17.933 131.585 17.873C131.644 17.873 131.644 17.873 131.585 17.873ZM40.142 10.273C40.321 10.213 40.499 10.153 40.677 10.153C41.9736 9.73755 43.305 9.43968 44.655 9.263C45.725 9.144 46.852 9.085 47.921 9.323C49.584 9.679 50.831 10.629 51.721 12.053C52.018 12.588 52.196 13.123 52.196 13.776V18.526C52.196 19.596 51.84 20.486 51.306 21.317C50.653 22.267 49.703 22.92 48.634 23.336C48.277 23.455 47.802 23.514 47.387 23.574C45.6542 23.7611 43.9016 23.62 42.221 23.158C41.686 23.039 41.151 22.801 40.558 22.623C40.439 22.564 40.38 22.564 40.202 22.505C40.202 22.683 40.142 22.802 40.142 22.92V26.127C40.142 26.305 40.142 26.483 40.083 26.721C40.0088 27.1228 39.7957 27.4858 39.4809 27.7463C39.166 28.0068 38.7696 28.1483 38.361 28.146C37.471 28.086 36.817 27.433 36.758 26.602V26.186V11.163C36.758 10.926 36.758 10.688 36.818 10.51C36.995 9.797 37.47 9.382 38.183 9.263C38.895 9.144 39.43 9.441 39.846 9.976C39.964 9.976 40.024 10.154 40.142 10.273ZM40.202 12.529C40.202 12.648 40.142 12.767 40.142 12.885V20.07C40.142 20.189 40.142 20.248 40.202 20.367H46.378C47.208 20.367 47.921 20.011 48.456 19.357C48.752 19.001 48.99 18.586 48.99 18.051V14.726C48.99 14.548 48.93 14.37 48.871 14.192C48.574 13.242 47.861 12.707 46.911 12.529C46.555 12.469 46.199 12.529 45.843 12.529H40.202ZM85.624 17.16C85.208 17.22 84.793 17.28 84.318 17.339C83.427 17.458 82.477 17.576 81.527 17.576C80.814 17.576 80.161 17.516 79.448 17.457C78.855 17.398 78.261 17.279 77.608 17.22H77.192C77.073 17.398 77.132 17.576 77.132 17.754V22.03C77.073 22.92 76.361 23.633 75.47 23.633C74.58 23.633 73.808 22.92 73.748 22.03V21.614V11.223V10.807C73.808 9.917 74.52 9.204 75.411 9.204C76.301 9.204 77.073 9.916 77.073 10.807V14.31C77.192 14.488 77.37 14.43 77.489 14.43H85.505C85.505 14.251 85.565 14.132 85.565 14.013V11.163C85.565 10.926 85.565 10.688 85.624 10.51C85.7393 10.1612 85.9626 9.85818 86.2616 9.64478C86.5605 9.43137 86.9197 9.31867 87.287 9.323C88.058 9.323 88.712 9.857 88.89 10.569C88.95 10.748 88.95 10.985 88.95 11.163V21.793C88.95 21.97 88.95 22.089 88.89 22.267C88.83 22.98 88.177 23.752 87.108 23.692C86.218 23.632 85.565 22.92 85.505 22.03V21.614V17.754C85.683 17.517 85.683 17.339 85.624 17.16ZM7.897 23.633H4.216C3.503 23.633 2.791 23.514 2.138 23.217C1.188 22.802 0.594 22.089 0.297 21.08C0.059 20.308 0 19.595 0 18.823V15.44V13.42C0 12.708 0.178 12.055 0.416 11.402C0.653 10.749 1.128 10.274 1.663 9.917C2.375 9.502 3.147 9.264 3.978 9.264H11.638C11.995 9.264 12.291 9.324 12.648 9.383C13.538 9.62 14.192 10.096 14.608 10.927C15.082 11.758 15.26 12.708 15.201 13.658C15.141 14.49 14.548 15.083 13.717 15.083C13.479 15.083 13.242 15.083 13.004 15.024C12.351 14.846 11.935 14.311 11.876 13.658C11.876 13.421 11.876 13.183 11.816 13.005C11.757 12.589 11.46 12.292 11.104 12.115C10.807 11.936 10.451 11.936 10.094 11.936H4.632C3.8 12.055 3.266 12.589 3.206 13.421V19.357C3.206 19.595 3.206 19.892 3.326 20.13C3.563 20.723 3.978 21.02 4.572 21.08H10.035C10.273 21.08 10.569 21.08 10.807 21.02C11.401 20.842 11.757 20.426 11.817 19.833V19.358C11.817 18.645 12.47 17.933 13.301 17.933H13.717C14.488 17.992 15.082 18.526 15.142 19.298C15.202 20.248 15.022 21.198 14.548 22.089C14.014 23.039 13.182 23.574 12.054 23.692C11.757 23.752 11.401 23.752 11.104 23.752C10.094 23.632 8.966 23.633 7.897 23.633ZM21.788 12.47V21.555C21.788 21.792 21.788 22.03 21.728 22.208C21.669 22.92 20.956 23.692 20.006 23.633C19.176 23.633 18.462 22.92 18.344 22.089V21.792V11.045C18.344 10.807 18.344 10.569 18.404 10.391C18.581 9.738 19.056 9.323 19.709 9.204C20.363 9.085 20.897 9.323 21.313 9.857C21.432 9.976 21.491 10.095 21.61 10.273C21.728 10.273 21.788 10.213 21.847 10.213C22.797 9.857 23.747 9.679 24.757 9.501C26.122 9.263 27.547 9.204 28.913 9.144C29.448 9.144 29.983 9.144 30.457 9.264C31.347 9.501 32.06 9.976 32.595 10.748C33.129 11.46 33.367 12.291 33.426 13.182C33.545 16.032 33.486 18.942 33.486 21.792V22.03C33.4458 22.462 33.2481 22.8641 32.9306 23.1597C32.613 23.4554 32.1978 23.6238 31.764 23.633C31.051 23.633 30.16 23.158 30.041 22.03V21.555V14.905C30.041 14.489 30.041 14.073 29.923 13.717C29.804 13.479 29.745 13.182 29.567 12.945C29.27 12.529 28.913 12.291 28.379 12.291H22.203C22.263 12.411 22.025 12.411 21.788 12.47ZM66.921 20.367C66.981 20.189 66.981 19.952 66.981 19.773V11.163C66.981 10.926 66.981 10.688 67.04 10.51C67.159 9.62 67.99 9.085 68.821 9.085C69.653 9.145 70.365 9.798 70.424 10.688V21.615C70.424 21.852 70.424 22.089 70.365 22.267C70.187 22.921 69.771 23.337 69.118 23.514C68.406 23.692 67.871 23.454 67.396 22.921C67.277 22.801 67.218 22.683 67.099 22.564H66.921C65.911 22.921 64.902 23.158 63.833 23.277C62.408 23.455 60.923 23.633 59.439 23.633C58.964 23.633 58.489 23.573 58.014 23.455C57.124 23.217 56.47 22.683 55.936 21.971C55.461 21.317 55.223 20.545 55.164 19.714C55.045 18.111 55.104 16.567 55.104 14.964V11.044C55.104 10.867 55.104 10.688 55.164 10.51C55.342 9.679 55.995 9.085 56.827 9.145C57.717 9.145 58.43 9.857 58.489 10.57C58.489 10.748 58.549 10.985 58.549 11.223V17.873C58.549 18.289 58.549 18.705 58.667 19.061C58.727 19.298 58.846 19.477 58.964 19.655C59.261 20.13 59.736 20.427 60.33 20.427H66.684C66.743 20.427 66.802 20.427 66.921 20.367Z" fill="#073A69"/>
<path d="M101.123 12.5281V22.2071C101.064 23.0971 100.351 23.8101 99.4599 23.8101C98.3899 23.8101 97.7379 22.9201 97.7379 22.2071V21.6721V13.1221V12.5871C97.6199 12.4091 97.4419 12.4691 97.3229 12.4691C95.9569 12.3491 94.5909 12.2311 93.2249 11.9341C92.5577 11.8117 91.902 11.6331 91.2649 11.4001C91.0959 11.345 90.9361 11.2647 90.7909 11.1621C90.619 11.0235 90.497 10.8326 90.4434 10.6184C90.3898 10.4042 90.4076 10.1784 90.4939 9.97512C90.6719 9.50012 90.9689 9.26213 91.4439 9.20312H107.12C107.714 9.20312 108.07 9.55912 108.189 10.0931C108.244 10.3375 108.216 10.5934 108.108 10.8197C108 11.0459 107.82 11.2293 107.595 11.3401C107.417 11.4001 107.299 11.4601 107.12 11.5191C106.229 11.8151 105.279 11.9941 104.389 12.1721C103.379 12.3501 102.37 12.4091 101.301 12.4691C101.242 12.4691 101.183 12.4691 101.123 12.5281ZM104.627 27.4321C104.508 27.4921 104.389 27.5511 104.271 27.6701C104.271 27.5501 104.211 27.4911 104.092 27.5501C103.855 27.6101 103.557 27.6701 103.321 27.7881H102.964C102.905 27.7881 102.845 27.8481 102.726 27.8481H101.539V27.6701C101.777 27.4921 102.014 27.2541 102.251 27.0761C102.193 27.0161 102.193 27.0161 102.133 26.9571C102.193 26.8971 102.193 26.8381 102.251 26.7791C104.092 24.6411 105.992 22.5631 107.893 20.4851C108.071 20.6031 108.249 20.6631 108.367 20.7221C109.021 21.0781 109.614 21.4351 110.268 21.7921C110.387 21.8501 110.565 21.9101 110.684 22.0291C110.684 22.0291 110.743 21.9691 110.802 21.9691C110.743 22.0291 110.743 22.0881 110.802 22.1471C110.98 22.2671 111.158 22.3851 111.396 22.5041C111.218 22.8011 110.921 22.9191 110.743 23.1571C110.327 23.5131 109.911 23.8691 109.496 24.2851C109.318 24.3451 109.199 24.4631 109.14 24.7011C109.377 24.6411 109.496 24.5221 109.614 24.3441C110.03 23.9881 110.506 23.6321 110.921 23.2751C111.158 23.1571 111.277 22.9191 111.515 22.8601C111.693 23.1571 111.812 23.4541 111.931 23.8101C111.812 23.8701 111.753 23.9881 111.634 24.0471C110.506 24.8191 109.318 25.5321 108.19 26.3041C107.655 26.6601 107.18 26.9571 106.646 27.3141H106.527C106.527 27.1941 106.467 27.0761 106.467 26.9571C105.874 26.9571 105.339 27.0761 104.804 27.3131C104.739 27.3439 104.68 27.384 104.627 27.4321ZM108.309 25.3541L108.19 25.4731C108.071 25.4731 107.952 25.5321 107.952 25.6511L107.833 25.7691C107.714 25.7691 107.655 25.7691 107.655 25.8891H107.596C107.596 25.8891 107.596 25.8291 107.655 25.8291C107.774 25.8291 107.833 25.8291 107.893 25.7101L108.012 25.5911C108.13 25.5911 108.19 25.4731 108.19 25.3541C108.249 25.4731 108.309 25.4141 108.309 25.3541C108.367 25.3541 108.427 25.3541 108.367 25.2941L108.309 25.3541ZM108.605 25.1761C108.783 25.1161 108.961 24.9981 109.08 24.7011C108.783 24.7601 108.664 24.9381 108.605 25.1761C108.545 25.1761 108.545 25.1761 108.486 25.2351C108.545 25.1751 108.605 25.1761 108.605 25.1761Z" fill="#073A69"/>
<path d="M102.728 27.8488C102.787 27.7888 102.847 27.7888 102.965 27.7888H103.322C103.5 28.2648 103.679 28.7388 103.856 29.2148C103.915 29.3928 103.975 29.5118 104.034 29.6898C103.856 29.8088 103.738 29.8678 103.56 29.9868C102.432 30.6398 101.244 31.3518 100.116 32.0058C99.996 32.0648 99.819 32.1238 99.759 32.3018C99.639 32.2428 99.581 32.3018 99.522 32.4218H99.403C99.165 32.4808 98.987 32.5398 98.868 32.7178C98.808 32.7178 98.808 32.7778 98.75 32.7778C97.384 33.5488 96.078 34.3808 94.712 35.1528C94.593 35.2118 94.474 35.3898 94.237 35.3308C94.297 35.2118 94.297 35.0928 94.355 34.9738C94.177 34.8558 93.999 34.9148 93.881 35.0938C93.643 35.4488 93.346 35.8058 93.109 36.1028C92.931 36.3398 92.752 36.5778 92.515 36.8148L92.277 37.0528C92.337 36.8148 92.337 36.6368 92.337 36.4588C92.455 35.8058 92.515 35.1528 92.634 34.4988C92.693 34.2618 92.752 34.0838 92.99 33.9648C93.762 33.4898 94.534 33.0148 95.306 32.4808C95.484 32.3608 95.662 32.2428 95.9 32.1238V32.3018L94.653 33.9058C94.593 34.0238 94.534 34.0838 94.474 34.2028C94.712 34.3208 94.831 34.2618 94.95 34.0828L96.018 32.6588C96.197 32.4208 96.316 32.2428 96.493 32.0058L96.315 31.8268C96.375 31.7678 96.375 31.7088 96.434 31.7088C97.146 31.1148 97.74 30.4018 98.393 29.7488C98.691 29.4518 98.927 29.1548 99.224 28.8588C99.404 28.6798 99.581 28.5618 99.819 28.5018C100.557 28.3718 101.29 28.2133 102.016 28.0268C102.372 28.0268 102.609 28.0268 102.728 27.8488ZM90.73 37.2898C91.086 37.1118 91.324 36.8738 91.74 36.7558V36.9338C91.324 38.1808 90.849 39.4868 90.433 40.7338C89.899 40.7938 89.127 40.7938 88.711 40.7338C88.771 40.4368 88.771 40.1398 88.83 39.8438L89.008 38.7738C89.008 38.5368 89.127 38.3588 89.305 38.2998C89.424 38.2398 89.542 38.1218 89.72 38.0028C89.72 37.4088 89.542 36.8148 89.602 36.1618C90.314 35.8648 91.086 35.5678 91.799 35.3898C91.799 35.3898 91.859 35.3898 91.917 35.4498C91.502 36.1018 90.967 36.6368 90.552 37.2898C90.432 37.3498 90.314 37.4678 90.374 37.5868H90.314L90.374 37.5268C90.552 37.5268 90.611 37.4088 90.73 37.2898ZM133.78 11.5198H133.662C133.72 11.4598 133.72 11.3408 133.662 11.2818C133.543 11.1038 133.424 10.9848 133.305 10.8068C133.246 10.7468 133.246 10.6288 133.246 10.5688C133.543 10.5688 133.839 10.4508 134.077 10.2728H133.662C133.484 10.2728 133.305 10.2728 133.127 10.3318V9.73778C133.127 9.20378 133.127 9.20378 133.484 8.66878C133.542 8.72103 133.588 8.78532 133.619 8.85716C133.65 8.929 133.664 9.00667 133.662 9.08478C133.662 9.20378 133.603 9.32178 133.603 9.44078C133.603 9.50078 133.72 9.55978 133.78 9.61878C133.899 9.20378 133.958 8.90678 134.017 8.55078C134.255 8.55078 134.433 8.66878 134.612 8.72878C134.79 8.78878 134.967 8.96578 135.205 8.90678C135.264 9.02578 135.324 9.02578 135.443 9.02578C135.443 9.02578 135.502 8.96578 135.502 8.90578H135.621C135.621 8.96578 135.562 9.08478 135.621 9.08478C135.74 9.14478 135.918 9.20378 136.037 9.26278L136.096 9.20278C136.037 9.32278 135.978 9.50078 135.859 9.55978C135.799 9.61978 135.68 9.67878 135.621 9.79778C135.799 9.73778 136.037 9.73778 136.214 9.67778C136.214 9.67778 136.274 9.67778 136.274 9.73778V9.79778C136.274 9.85678 136.214 9.91578 136.214 9.97578C135.978 10.4508 135.68 10.9258 135.443 11.4008C135.027 11.4008 134.612 11.3408 134.136 11.3408C133.958 11.4008 133.839 11.4008 133.78 11.5198ZM93.103 37.7058V37.5868C93.46 37.1118 93.816 36.6368 94.232 36.1618C94.35 36.0428 94.409 35.9248 94.528 35.8058L97.557 34.0238L97.676 34.1438C96.37 35.3898 95.004 36.5778 93.519 37.5868C93.4 37.7058 93.222 37.7648 93.103 37.8838V37.7058ZM88.71 42.1598C89.483 41.8028 90.077 41.6248 90.433 41.5648C90.373 41.9218 89.78 43.5248 89.483 43.9998C89.423 43.9998 89.364 43.9398 89.364 43.9398C89.127 43.7618 88.889 43.6438 88.711 43.4658V42.1588L88.71 42.1598ZM91.086 40.6148C90.968 40.2588 91.026 39.9028 91.146 39.5458C91.383 38.8928 91.561 38.2398 91.739 37.5868C92.096 37.5268 92.393 37.4088 92.749 37.3488C92.749 37.4088 92.809 37.4688 92.809 37.4688C92.2701 38.5365 91.6954 39.5858 91.086 40.6148Z" fill="#073A69"/>
<path d="M101.067 32.1835C100.354 32.7175 99.6416 33.2515 98.9286 33.7265C98.9286 33.7265 98.8685 33.7265 98.8105 33.7865C98.8105 33.4305 98.9875 33.1325 98.9875 32.7765V32.6575C99.1655 32.6575 99.3446 32.5985 99.5226 32.4795C99.5816 32.4205 99.7005 32.4795 99.6415 32.3615C99.7605 32.4205 99.8795 32.4205 99.8795 32.2415C99.9385 32.3015 99.9975 32.3615 100.058 32.3015C100.354 32.1835 100.711 32.0645 101.008 32.0045C101.008 32.0645 101.008 32.1255 101.067 32.1835ZM105.632 4.68945C105.811 4.68945 105.93 4.68945 106.048 4.80945C106.048 4.92845 105.989 4.98745 105.93 5.10645C105.692 5.46245 105.454 5.87845 105.216 6.23445C105.216 6.23445 105.157 6.23445 105.098 6.29445C104.979 5.93745 104.86 5.64045 105.098 5.28445L105.276 4.92845C105.335 4.74945 105.454 4.68945 105.632 4.68945ZM135.328 8.19345C135.15 8.31245 134.971 8.37145 134.734 8.19345C134.675 7.89645 134.853 7.06545 135.031 6.59045C135.15 6.59045 135.328 6.65045 135.506 6.65045C135.447 6.88745 135.387 7.12545 135.387 7.36245C135.328 7.54045 135.328 7.77845 135.269 7.95645C135.269 8.07545 135.328 8.13445 135.328 8.19345Z" fill="#073A69"/>
<path d="M135.566 9.02653H135.15C135.15 8.90753 135.21 8.72953 135.21 8.61053V8.19453C135.269 8.13553 135.329 8.07653 135.329 7.95753L135.507 7.24453C135.745 7.24453 135.745 7.24453 135.923 7.36453C135.812 7.8859 135.673 8.40097 135.507 8.90753C135.685 8.96753 135.626 8.96753 135.566 9.02653ZM134.136 7.18553C134.315 7.18553 134.374 7.18553 134.552 7.24553C134.552 7.60053 134.493 7.95753 134.434 8.31353C134.315 8.31353 134.196 8.31353 134.077 8.37353C134.018 7.95753 134.136 7.60053 134.136 7.18553ZM102.668 5.70053C102.49 5.58253 102.49 5.46353 102.55 5.34453C102.727 5.04753 102.905 4.69153 103.143 4.39453C103.321 4.63253 103.321 4.86953 103.203 5.04753C103.077 5.30319 102.894 5.52657 102.668 5.70053ZM136.039 9.32353C135.98 8.96653 136.158 8.61053 136.277 8.31353C136.455 8.19453 136.574 8.31353 136.692 8.43253C136.633 8.72953 136.515 9.02653 136.455 9.32253H136.039V9.32353ZM133.783 11.5205C133.843 11.4005 133.962 11.4005 134.021 11.4005C134.437 11.4005 134.852 11.4605 135.327 11.4605C135.327 11.5205 135.268 11.5795 135.268 11.6385C134.793 11.6385 134.318 11.5795 133.783 11.5205ZM131.228 16.4485C131.406 16.8045 131.464 17.2205 131.583 17.6955C131.347 17.3985 131.347 17.1615 131.287 16.9235C131.228 16.8045 131.228 16.6865 131.049 16.6265C131.049 16.5075 131.109 16.4485 131.228 16.4485ZM133.127 10.3325C133.305 10.3325 133.484 10.3325 133.662 10.2725C133.78 10.2725 133.899 10.2135 134.077 10.2725C133.839 10.4515 133.543 10.5105 133.246 10.5695C133.187 10.5105 133.187 10.4515 133.127 10.3325ZM97.7379 34.1435L97.6189 34.0245C97.7979 33.8465 97.9759 33.7275 98.2139 33.6685C98.0939 33.9065 97.9169 34.0245 97.7379 34.1435ZM101.068 32.1845C101.009 32.1245 100.949 32.0645 100.949 32.0055C101.068 31.9465 101.187 31.8875 101.246 31.8275H101.425C101.306 32.0655 101.306 32.0655 101.068 32.1845ZM90.7349 37.2905C90.6749 37.4095 90.5569 37.4685 90.3789 37.4685C90.3789 37.2905 90.4389 37.2315 90.5569 37.1715C90.6169 37.2315 90.6759 37.2905 90.7349 37.2905ZM135.441 12.0545H135.203C135.203 11.9945 135.262 11.9355 135.262 11.8165H135.381C135.441 11.9365 135.441 11.9955 135.441 12.0545ZM101.598 27.7305V27.9085C101.539 27.9685 101.479 27.9685 101.42 27.8495C101.42 27.7895 101.539 27.7305 101.598 27.7305ZM96.0759 32.4215V32.2435C96.1359 32.2435 96.1959 32.1835 96.2539 32.1835V32.3035C96.1349 32.3625 96.0759 32.3625 96.0759 32.4215ZM93.1039 37.7065V37.8845C93.0439 37.8845 93.0439 37.9445 92.9849 37.9445L92.9249 37.8845L93.1039 37.7065ZM135.443 12.0545V11.8765C135.562 11.9365 135.562 11.9365 135.443 12.0545ZM123.51 26.5435L123.391 26.4235C123.45 26.3645 123.51 26.4235 123.51 26.5435ZM98.9819 32.6595C99.0419 32.6595 99.0419 32.7185 98.9819 32.7775H98.8629C98.8629 32.7175 98.9219 32.7175 98.9819 32.6595ZM130.162 19.4765C130.222 19.5365 130.222 19.5365 130.162 19.4765V19.4765ZM94.3519 35.2715V35.3315H94.2929C94.2929 35.3315 94.3519 35.3315 94.3519 35.2715Z" fill="#073A69"/>
<path d="M92.9848 37.943C92.9848 37.943 92.9248 37.943 92.9248 38.003C92.9248 37.943 92.9248 37.943 92.9848 37.943ZM123.632 12.291V12.411C123.514 12.529 123.395 12.47 123.217 12.47H121.91C121.791 12.648 121.732 12.826 121.613 13.004C121.554 13.123 121.494 13.301 121.316 13.42C121.316 13.301 121.316 13.123 121.375 13.004C121.435 12.767 121.554 12.529 121.673 12.232H122.682C122.979 12.232 123.276 12.291 123.632 12.291ZM121.848 27.374C121.848 27.434 121.907 27.493 121.907 27.552H119.887C119.887 27.552 119.829 27.492 119.77 27.492C120.125 27.374 120.482 27.433 120.838 27.433C121.194 27.373 121.55 27.373 121.848 27.373V27.374ZM117.748 12.35L117.927 12.173C118.343 12.233 118.817 12.41 119.292 12.648C118.698 12.588 118.164 12.528 117.748 12.35ZM117.396 2.90998C117.251 2.56785 117.151 2.20809 117.1 1.83998C117.1 1.83998 117.16 1.78098 117.219 1.78098C117.219 1.78098 117.277 1.78098 117.277 1.84098C117.337 2.13798 117.456 2.49398 117.396 2.90998ZM107.062 27.849C107.062 27.789 107.3 27.789 107.122 27.611L107.181 27.551H107.359C107.419 27.611 107.478 27.611 107.597 27.671H108.191C107.775 27.849 107.538 27.849 107.062 27.849ZM119.41 6.11598V6.29398C119.172 6.23398 118.875 6.23398 118.697 5.99698C118.935 5.93698 119.172 5.99698 119.41 6.11598ZM107.652 2.49398C107.593 2.25598 107.652 1.95898 107.77 1.72198C107.77 1.72198 107.83 1.66198 107.889 1.72198L107.949 1.78198C107.889 2.07798 107.889 2.31598 107.652 2.49398ZM118.279 22.267C118.635 22.148 118.873 22.148 119.704 22.267C119.17 22.267 118.754 22.386 118.279 22.267ZM120.36 13.42C120.478 13.42 120.537 13.48 120.537 13.598C120.478 13.776 120.419 13.895 120.182 13.954C120.182 13.717 120.241 13.539 120.36 13.42ZM113.531 27.136C113.591 27.076 113.591 27.017 113.65 26.958L114.066 27.374C113.769 27.374 113.591 27.434 113.531 27.136ZM118.462 25.83V26.008C118.165 26.008 117.929 25.889 117.631 25.771C117.988 25.593 118.225 25.771 118.462 25.83ZM119.469 11.638L119.588 11.519C119.766 11.579 119.944 11.698 120.122 11.876C119.884 11.876 119.647 11.756 119.469 11.638ZM121.196 15.023C121.088 15.1894 120.947 15.3312 120.781 15.439L120.721 15.379C120.828 15.2127 120.97 15.0712 121.136 14.964C121.196 14.964 121.196 15.024 121.196 15.024V15.023ZM121.906 14.37C121.906 14.132 122.084 14.073 122.262 13.954C122.262 14.192 122.262 14.192 121.906 14.37ZM112.82 22.267C112.582 22.327 112.346 22.267 112.049 22.267C112.523 22.148 112.523 22.148 112.82 22.267ZM121.723 14.548C121.664 14.608 121.664 14.667 121.604 14.667C121.604 14.667 121.545 14.667 121.545 14.607V14.547C121.545 14.607 121.604 14.547 121.723 14.547V14.548ZM107.299 2.07798C107.332 2.07798 107.359 1.99798 107.359 1.89998C107.359 1.80198 107.332 1.72198 107.299 1.72198C107.266 1.72198 107.24 1.80198 107.24 1.89998C107.24 1.99798 107.266 2.07798 107.299 2.07798ZM104.15 3.68198C104.09 3.74098 103.971 3.79998 103.912 3.85998V3.68198C103.971 3.68198 104.031 3.62198 104.09 3.62198C104.09 3.62198 104.09 3.68198 104.15 3.68198ZM117.508 17.576C117.568 17.576 117.568 17.516 117.627 17.516H117.687C117.687 17.516 117.687 17.576 117.627 17.576C117.568 17.636 117.568 17.636 117.508 17.576ZM117.277 17.695C117.336 17.635 117.395 17.635 117.455 17.576V17.636C117.455 17.636 117.395 17.695 117.277 17.695Z" fill="#073A69"/>
<path d="M117.334 17.6942L117.274 17.7542H117.215C117.215 17.7542 117.215 17.6942 117.274 17.6942H117.334ZM131.584 17.8722C131.643 17.8722 131.643 17.8722 131.584 17.8722V17.8722ZM121.252 14.8442L121.311 14.7842V14.9042L121.252 14.9632C121.311 14.9032 121.311 14.9032 121.252 14.8432V14.8442ZM111.926 19.2972L112.044 19.1792H112.104L112.163 19.2382C112.163 19.2982 112.104 19.2982 112.104 19.3572C111.985 19.3572 111.926 19.3572 111.926 19.2972ZM107.655 2.49319V2.67219L107.596 2.61219C107.596 2.55219 107.655 2.55319 107.655 2.49319ZM120.662 15.4972C120.602 15.4972 120.602 15.5572 120.543 15.5572C120.543 15.4972 120.602 15.4972 120.602 15.4372L120.662 15.4972ZM104.09 3.62119H104.209C104.209 3.68119 104.15 3.68119 104.15 3.74019C104.09 3.68019 104.09 3.62119 104.09 3.62119Z" fill="#073A69"/>
<path d="M120.776 15.4377L120.658 15.5557L120.598 15.4967C120.658 15.4367 120.717 15.3777 120.776 15.4367C120.717 15.3777 120.776 15.3777 120.776 15.4367V15.4377ZM121.904 14.3687C121.904 14.4287 121.844 14.4287 121.844 14.4877L121.785 14.4277C121.844 14.3677 121.844 14.3687 121.904 14.3687ZM103.916 3.67969V3.85869C103.856 3.85869 103.856 3.85869 103.797 3.79869L103.916 3.67969Z" fill="#073A69"/>
<path d="M121.848 14.4879L121.729 14.6079L121.67 14.5479C121.729 14.4879 121.729 14.4289 121.848 14.4879C121.789 14.4289 121.789 14.4289 121.848 14.4879ZM111.992 19.4169C111.932 19.4769 111.932 19.5359 111.873 19.4769C111.873 19.4769 111.873 19.3569 111.932 19.2979C111.932 19.3579 111.992 19.3579 111.992 19.4169ZM121.255 14.8449V14.9639L121.196 15.0229L121.137 14.9629C121.196 14.9039 121.255 14.9039 121.255 14.8449ZM125.469 9.85688L125.529 9.79688C125.529 9.79688 125.469 9.79688 125.469 9.85688ZM108.607 25.1169C108.726 24.9389 108.844 24.8199 109.082 24.7019C108.963 24.9989 108.785 25.0579 108.607 25.1169ZM109.432 24.2859L109.551 24.4049C109.432 24.5829 109.313 24.6419 109.076 24.7609C109.135 24.4639 109.313 24.4049 109.432 24.2859ZM108.191 25.4739C108.191 25.5919 108.131 25.7109 108.012 25.7109C107.953 25.5329 108.072 25.4739 108.191 25.4739ZM107.656 25.8899C107.716 25.7699 107.775 25.7699 107.834 25.7699C107.834 25.8299 107.775 25.8899 107.656 25.8899Z" fill="#073A69"/>
<path d="M107.889 25.7711L108.008 25.6531C107.948 25.7131 107.889 25.7121 107.889 25.7711ZM108.308 25.3561C108.308 25.4161 108.249 25.4751 108.189 25.4751L108.308 25.3561ZM108.308 25.3561L108.367 25.2961C108.426 25.3561 108.308 25.3561 108.308 25.3561ZM108.601 25.1781C108.541 25.1781 108.541 25.2371 108.482 25.2371C108.541 25.1771 108.541 25.1191 108.601 25.1781C108.601 25.1191 108.601 25.1191 108.601 25.1781ZM99.5203 32.4811C99.3433 32.6011 99.2243 32.6591 98.9863 32.6591C99.0427 32.568 99.1215 32.493 99.2152 32.4412C99.3088 32.3893 99.4143 32.3624 99.5213 32.3631V32.4811H99.5203ZM99.8183 32.2441C99.8183 32.4221 99.7583 32.4221 99.5803 32.3631C99.6403 32.2441 99.6993 32.2441 99.8183 32.2441Z" fill="#073A69"/>
<path d="M99.5196 32.4804V32.3624H99.6376C99.6376 32.4804 99.5786 32.4804 99.5196 32.4804ZM135.203 9.02639H135.5C135.5 9.08639 135.5 9.14539 135.441 9.14539C135.322 9.14539 135.262 9.14539 135.203 9.02539V9.02639ZM121.908 26.0084L121.848 25.9484H121.908V26.0084Z" fill="#073A69"/>
<path d="M121.906 25.9492C121.965 25.9492 122.025 25.9492 122.025 26.0092C121.965 26.0672 121.965 26.0672 121.906 26.1272C121.965 26.0672 121.965 26.0082 121.906 25.9492Z" fill="#073A69"/>
</g>
<defs>
<clipPath id="clip0_2626_798">
<rect width="137" height="44" fill="white"/>
</clipPath>
</defs>
</svg>
