<svg width="24" height="23" viewBox="0 0 24 23" fill="none" xmlns="http://www.w3.org/2000/svg">
<path d="M11.0689 0.589233C11.4426 -0.196412 12.5574 -0.196411 12.9311 0.589234L15.7701 6.55788C15.9205 6.87407 16.2201 7.09246 16.5663 7.13824L23.102 8.00253C23.9623 8.11629 24.3068 9.17987 23.6774 9.77919L18.8963 14.3323C18.6431 14.5735 18.5286 14.9269 18.5922 15.2713L19.7925 21.7742C19.9505 22.6301 19.0486 23.2874 18.286 22.8722L12.4921 19.7175C12.1852 19.5504 11.8148 19.5504 11.5079 19.7175L5.71402 22.8722C4.95138 23.2874 4.04953 22.6301 4.20752 21.7742L5.4078 15.2713C5.47139 14.9269 5.35694 14.5735 5.10367 14.3323L0.322572 9.77919C-0.306757 9.17987 0.0377185 8.11629 0.898002 8.00253L7.43369 7.13824C7.77991 7.09246 8.07954 6.87407 8.22994 6.55788L11.0689 0.589233Z" fill="white"/>
</svg>
