<svg width="60" height="57" viewBox="0 0 60 57" fill="none" xmlns="http://www.w3.org/2000/svg">
<path fill-rule="evenodd" clip-rule="evenodd" d="M4.69896 48.3579C6.88379 50.6315 9.16376 52.813 11.533 54.8963L11.4907 54.8963C12.7172 55.9599 10.9193 57.7364 9.70979 56.6722C6.41403 53.7627 3.29244 50.6631 0.359436 47.39C0.0886993 47.1107 -0.0396385 46.7238 0.0107613 46.3387C0.0617371 45.9536 0.286175 45.6129 0.619625 45.4131C5.23914 43.0376 7.36214 42.6486 11.4907 39.5C12.7676 38.5113 14.0363 40.698 12.7676 41.6698C9.61473 44.0706 8.58181 43.8676 5.13758 45.8249C14.7173 50.2617 26.1071 50.4738 35.626 45.5832C40.3681 43.1539 45.1403 38.0851 46.8078 32.6901C42.4624 34.1397 37.7057 33.7284 33.6664 31.5406C29.9778 29.5003 25.9645 25.0276 27.5351 20.4805C28.8807 16.4994 33.7163 15.0168 37.5046 15.3334C39.8418 15.5263 42.0852 16.342 44.0017 17.6968C45.9182 19.0515 47.4389 20.8955 48.4049 23.0374C49.2224 24.8521 49.6556 26.6696 49.7651 28.4562C58.4837 22.6711 59.0711 10.6517 55.4744 1.50085C54.8846 0.00140762 57.2943 -0.639748 57.8761 0.834126C62.0778 11.5034 60.3989 25.7751 49.6488 31.4677C48.6988 38.3798 43.1847 44.5044 36.8898 47.7402C26.8342 52.9235 14.9213 52.8495 4.69896 48.3579ZM47.3866 29.778C47.6766 26.3275 46.4909 22.9123 43.0284 20.1233C40.4102 17.9849 36.9214 17.2494 33.6656 18.1493C29.0967 19.5988 29.2537 24.6873 32.4191 27.6356C36.3764 31.3196 42.5463 31.9629 47.3866 29.778Z" fill="#D4CBE8"/>
</svg>
