<svg width="24" height="24" viewBox="0 0 24 24" fill="none" xmlns="http://www.w3.org/2000/svg">
<path d="M12.7901 2.06287C15.4793 2.48858 17.3056 4.95973 16.8691 7.58233C16.4327 10.2052 13.899 11.9863 11.2098 11.5606C8.52056 11.135 6.69435 8.66387 7.13084 6.04111C7.56716 3.41843 10.1009 1.63716 12.7901 2.06287Z" fill="#734CA5"/>
<path d="M21 21.1491C20.9993 21.3744 20.9071 21.5906 20.7437 21.75C20.5802 21.9094 20.3586 21.9993 20.1275 22H3.87248C3.64142 21.9993 3.41981 21.9094 3.25634 21.75C3.09286 21.5906 3.00067 21.3744 3 21.1491C3 18.8211 3.94831 16.5886 5.63603 14.9425C7.32388 13.2963 9.61307 12.3715 11.9998 12.3715C14.3866 12.3715 16.6758 13.2963 18.3636 14.9425C20.0513 16.5886 20.9996 18.8213 20.9996 21.1491H21Z" fill="#734CA5"/>
</svg>
