<svg width="70" height="70" viewBox="0 0 70 70" fill="none" xmlns="http://www.w3.org/2000/svg">
<path d="M44.6013 5.17215C42.2183 4.33442 39.7406 3.769 37.2154 3.49129C32.6623 2.99049 28.0544 3.43598 23.6831 4.7998C19.3118 6.16351 15.2722 8.41578 11.8199 11.4141C8.36754 14.4125 5.57751 18.0917 3.62632 22.2189C1.67513 26.3462 0.605227 30.8319 0.484212 35.3921C0.363198 39.9523 1.19373 44.4879 2.92333 48.712C4.65292 52.9362 7.11656 55.225 10.4051 58.4007C7.83894 54.9214 7.08816 54.8346 5.38114 50.5716C3.67412 46.3085 2.76992 41.3501 2.92333 36.734C3.07667 32.1179 4.16048 27.9142 6.14833 23.7237C8.13624 19.5331 11.5227 15.7489 15.0099 12.6904C18.4971 9.63207 22.5687 7.32461 26.9671 5.91409C31.3654 4.50358 35.995 4.02072 40.5629 4.49599C41.9258 4.63778 43.2745 4.86397 44.6013 5.17215Z" fill="#E1D8FC"/>
<path d="M23.368 53.8197L25.2356 54.9574L27.2077 55.9056L29.3174 56.6067L31.4794 57.0912L33.7228 57.3264L35.98 57.3637L36.3107 57.2833L36.545 57.0931L36.7076 56.7963L36.7279 56.2591L36.3911 54.9003L36.0387 53.5392L36.0386 53.5378L36.0377 53.5362L34.5199 47.3796L34.1295 46.5932L33.6615 46.0315L33.0599 45.5685L32.4274 45.2385L31.733 45.0406L30.9586 44.9498L30.1867 45.0145L29.2763 45.2615L20.5287 49.7634L20.1003 50.1188L19.9695 50.4338L19.9753 50.7259L20.1245 51.0003L21.6664 52.5027L23.368 53.8197Z" fill="#E1D8FC"/>
<path d="M18.7552 26.415L18.4783 26.5186L18.246 26.7739L17.1444 28.7311L16.2386 30.7981L15.5661 32.8961L15.1271 35.0675L14.9656 37.2438L15.0215 39.4184L15.3233 41.5634L15.8471 43.6228L16.0157 43.8966L16.2668 44.0477L16.6062 44.0924L17.1291 43.9001L25.4154 38.597L26.0866 37.948L26.5255 37.3024L26.8329 36.5889L27.0086 35.8921L27.0423 35.1932L26.9352 34.4297L26.6815 33.7469L26.193 33.017L21.5979 28.6296L21.5972 28.6286L20.5939 27.6523L19.5756 26.674L19.1024 26.4298L18.7552 26.415Z" fill="#E1D8FC"/>
<path d="M26.8038 23.1236L29.9584 25.5564L29.9596 25.5557L31.8693 27.009L32.6723 27.3929L33.4228 27.5565L34.2043 27.5714L34.9586 27.462L35.6671 27.2446L36.3769 26.8604L36.9993 26.3829L37.6087 25.6745L38.8214 23.4797L40.8242 19.8332L40.8249 19.8306L41.5318 18.5688L42.2469 17.2502L42.3972 16.7432L42.3154 16.4223L42.1401 16.2065L41.838 16.0778L39.6328 15.8009L37.3661 15.7473L35.0778 15.9108L32.8268 16.2976L30.6118 16.9619L28.4825 17.8105L26.4304 18.8659L24.5159 20.1271L24.2907 20.3895L24.187 20.6658L24.2391 20.984L24.5582 21.3914L25.677 22.2598L26.8038 23.1236Z" fill="#E1D8FC"/>
<path d="M58.2962 33.6942L58.0445 31.578L57.5367 29.4924L56.7915 27.4631L55.8444 25.55L54.6496 23.7686L53.2624 22.1197L51.706 20.6474L49.9832 19.3553L49.6653 19.2426L49.3702 19.261L49.0535 19.4234L48.7426 19.8659L47.5764 22.5582L46.8442 24.3024L46.8433 24.3036L46.8434 24.3049L45.9482 26.3573L44.9755 28.6393L44.7983 29.5185L44.8216 30.2606L45.0093 30.9911L45.286 31.6206L45.6959 32.1755L46.242 32.7106L46.8693 33.0934L47.7216 33.3786L50.1902 33.6728L50.1919 33.6732L52.4274 33.9368L52.4295 33.9364L54.3127 34.1774L57.2394 34.5191L57.7762 34.4715L58.0749 34.2808L58.2351 34.0283L58.2962 33.6942Z" fill="#E1D8FC"/>
<path d="M42.8901 47.8643L43.433 51.8094L43.6203 53.2148L43.8104 54.6017L44.0113 55.0912L44.2574 55.2873L44.5527 55.344L44.8886 55.274L46.944 54.2519L48.8879 53.0097L50.6905 51.5977L52.3754 50.019L53.8425 48.28L55.1234 46.3787L56.2096 44.3987L57.0772 42.3657L57.1166 42.0412L57.0166 41.7822L56.7736 41.5428L56.256 41.4176L54.7617 41.3841L46.6178 41.2164L45.6964 41.3866L44.9701 41.6847L44.281 42.1048L43.7309 42.6004L43.2606 43.1944L42.8822 43.8749L42.6492 44.6039L42.5824 45.4899L42.8907 47.8626L42.8901 47.8643Z" fill="#E1D8FC"/>
<path d="M57.8395 40.5548L57.8415 40.5543L58.3942 40.5735L58.875 38.1199L59.0928 35.634L58.5364 35.5678L57.223 35.4162L55.8272 35.2614L55.8258 35.2615L52.2638 34.8278L47.4149 34.2498C47.4096 34.2496 47.4061 34.2468 47.4026 34.244C47.3993 34.2414 47.3961 34.2387 47.3913 34.2381C47.3876 34.2372 47.384 34.2382 47.3806 34.2391C47.3791 34.2394 47.3776 34.2398 47.3762 34.2401C47.3739 34.2404 47.3716 34.2404 47.3693 34.2395L46.3731 33.9055C46.3696 33.9042 46.3677 33.9018 46.3659 33.8995C46.3642 33.8974 46.3626 33.8953 46.3598 33.8942C46.3557 33.8927 46.3516 33.892 46.3475 33.8913C46.3418 33.8904 46.3362 33.8895 46.3311 33.8867L45.5632 33.4335C45.5592 33.4308 45.5573 33.4269 45.5556 33.4231C45.5541 33.42 45.5528 33.417 45.5502 33.4149C45.5466 33.4127 45.5424 33.4116 45.5384 33.4105C45.5331 33.4091 45.5279 33.4077 45.524 33.404L44.877 32.7813C44.8746 32.7792 44.8742 32.7764 44.8738 32.7737C44.8733 32.771 44.8729 32.7682 44.8705 32.7661C44.8685 32.7633 44.8652 32.7619 44.8619 32.7605C44.8586 32.759 44.8553 32.7576 44.8533 32.7548L44.4086 32.1531C44.406 32.1494 44.4059 32.145 44.4057 32.1408C44.4056 32.137 44.4054 32.1332 44.4036 32.1299C44.4017 32.1267 44.3984 32.1248 44.3951 32.1229C44.3914 32.1207 44.3878 32.1186 44.3863 32.1146L44.0801 31.4211C44.0787 31.418 44.0793 31.4147 44.0799 31.4111C44.0805 31.4076 44.0812 31.4039 44.0801 31.4001C44.0789 31.3975 44.0769 31.3959 44.0749 31.3943C44.0726 31.3924 44.0703 31.3905 44.0695 31.3871L43.8516 30.5178C43.8505 30.5132 43.852 30.5087 43.8535 30.5044C43.8541 30.5025 43.8547 30.5007 43.8551 30.499C43.8556 30.497 43.8558 30.495 43.8555 30.4931C43.855 30.4885 43.8525 30.4849 43.8499 30.4813C43.8472 30.4775 43.8446 30.4738 43.8446 30.4691L43.8344 29.5802C43.8342 29.5751 43.8367 29.5712 43.8391 29.5674C43.8402 29.5656 43.8414 29.5638 43.8422 29.562C43.8429 29.5603 43.8434 29.5585 43.8435 29.5566C43.8435 29.5549 43.8432 29.5533 43.8428 29.5518C43.8422 29.5496 43.8412 29.5476 43.8403 29.5456C43.8383 29.5413 43.8364 29.5372 43.8379 29.5324L44.0507 28.5153C44.0512 28.5129 44.0522 28.5108 44.0536 28.509C44.0549 28.5071 44.0565 28.5054 44.0581 28.5038C44.0607 28.5012 44.0631 28.4987 44.0643 28.4955C44.0653 28.4917 44.0645 28.4879 44.0637 28.4843C44.0629 28.4802 44.062 28.4762 44.0639 28.4725L45.0806 26.0879L45.0802 26.086L47.3896 20.7128L47.3904 20.7116L47.9534 19.4312L48.4739 18.2126L48.4756 18.2116L48.4753 18.2097L48.6988 17.7069L46.4276 16.6471L44.0554 15.8409L43.7955 16.3294L43.7938 16.3303L43.7941 16.3322L41.7106 20.1005L38.3623 26.173C38.3596 26.1779 38.3552 26.1814 38.3507 26.1849C38.3467 26.1882 38.3427 26.1914 38.3398 26.1958C38.3376 26.1984 38.337 26.2016 38.3364 26.2048C38.3358 26.2081 38.3352 26.2114 38.3328 26.2139L37.6147 27.0445C37.6088 27.0507 37.6026 27.0553 37.5965 27.0597C37.5934 27.062 37.5903 27.0642 37.5873 27.0667C37.5862 27.0682 37.5856 27.0698 37.5851 27.0713C37.5843 27.0733 37.5837 27.0751 37.582 27.076L36.8537 27.658C36.8435 27.6666 36.8333 27.6739 36.8219 27.6805L36.8122 27.6861L35.9529 28.1288L35.9512 28.1297C35.9417 28.1345 35.932 28.1387 35.9214 28.1427L35.1653 28.4142C35.1622 28.4149 35.1598 28.4143 35.1574 28.4138C35.1563 28.4136 35.1552 28.4133 35.1541 28.4132C35.1527 28.413 35.1512 28.413 35.1496 28.4134C35.1468 28.4141 35.1441 28.415 35.1415 28.4161C35.139 28.417 35.1366 28.4181 35.1342 28.4191C35.1271 28.4223 35.1199 28.4254 35.1114 28.4262L34.2975 28.5234C34.2942 28.5242 34.2917 28.5228 34.2894 28.5215C34.2873 28.5204 34.2854 28.5194 34.2832 28.5197C34.2794 28.5199 34.2761 28.5212 34.2729 28.5225C34.2692 28.5239 34.2657 28.5253 34.2618 28.5249L33.3357 28.5032C33.3313 28.5026 33.328 28.5006 33.3249 28.4987C33.3215 28.4966 33.3183 28.4946 33.3139 28.4946C33.3097 28.494 33.3056 28.4953 33.3016 28.4965C33.2995 28.4971 33.2975 28.4977 33.2955 28.4981C33.2932 28.4985 33.2908 28.4986 33.2885 28.4979L32.3946 28.293C32.3932 28.2927 32.392 28.2921 32.391 28.2913C32.3896 28.2902 32.3884 28.2889 32.3872 28.2876C32.3854 28.2855 32.3835 28.2834 32.3809 28.2826C32.3759 28.2812 32.3708 28.2807 32.3659 28.2802C32.3593 28.2795 32.353 28.2789 32.3476 28.2764L31.4037 27.8238C31.4006 27.8224 31.399 27.8197 31.3975 27.817C31.3959 27.8143 31.3943 27.8115 31.3911 27.8099C31.3875 27.8078 31.3833 27.807 31.3792 27.8061C31.3742 27.805 31.3692 27.804 31.3653 27.8008L22.8038 21.2405L22.8019 21.2373L22.7978 21.2354L22.3877 20.9007L20.5125 22.7203L18.8207 24.6884L19.2079 25.0349L19.2097 25.038L19.2139 25.0399L21.1037 26.8669L22.1887 27.892L22.1896 27.8936L26.9679 32.4696C26.9709 32.4729 26.9718 32.4768 26.9725 32.4804C26.9733 32.484 26.974 32.4873 26.9766 32.49C26.9787 32.4928 26.9823 32.4941 26.9859 32.4955C26.9893 32.4968 26.9928 32.498 26.9949 32.5005L27.5764 33.3381C27.579 33.342 27.5789 33.3469 27.5789 33.3518C27.5788 33.356 27.5788 33.36 27.5803 33.3633C27.5827 33.3674 27.5866 33.3702 27.5903 33.3728C27.5947 33.3759 27.5989 33.3789 27.6007 33.384L27.8962 34.1981C27.8976 34.2029 27.8967 34.2076 27.8958 34.2122C27.8951 34.2157 27.8944 34.219 27.8949 34.2221C27.8953 34.2237 27.896 34.2251 27.8969 34.2262C27.8978 34.2274 27.8988 34.2284 27.8999 34.2294C27.9022 34.2317 27.9045 34.2339 27.9046 34.2376L28.0383 35.1308C28.0392 35.1352 28.0376 35.1397 28.0361 35.144C28.0348 35.1476 28.0335 35.1511 28.0338 35.1545C28.0341 35.1576 28.0358 35.1603 28.0374 35.1629C28.0383 35.1644 28.0392 35.1658 28.0398 35.1672C28.0404 35.1686 28.0408 35.1701 28.0407 35.1716L28.0021 35.95C28.0016 35.956 27.9993 35.9616 27.9972 35.9669C27.9956 35.9708 27.9941 35.9745 27.9933 35.9782C27.993 35.9799 27.9931 35.9814 27.9934 35.9829C27.9937 35.9839 27.994 35.9849 27.9944 35.9859C27.9952 35.9883 27.996 35.9907 27.9952 35.9933L27.8059 36.7465C27.8052 36.7503 27.8023 36.7526 27.7992 36.7549C27.7979 36.7559 27.7966 36.7569 27.7954 36.7581C27.7943 36.7592 27.7933 36.7604 27.7927 36.7618C27.7916 36.7654 27.7923 36.7688 27.793 36.7719C27.7938 36.7755 27.7945 36.779 27.7924 36.7824L27.4177 37.6422C27.4157 37.6468 27.4121 37.6498 27.4085 37.6528C27.4054 37.6554 27.4024 37.6579 27.4005 37.6612C27.399 37.6641 27.3989 37.6672 27.3988 37.6703C27.3987 37.6738 27.3987 37.6773 27.3964 37.6804L26.8732 38.4469C26.8682 38.4544 26.8614 38.4596 26.8546 38.4648C26.851 38.4676 26.8473 38.4704 26.8439 38.4737C26.8428 38.475 26.8422 38.4763 26.8418 38.4777C26.8414 38.4786 26.8412 38.4796 26.841 38.4806C26.8402 38.4836 26.8394 38.4867 26.8362 38.4893L26.0365 39.2263C26.0258 39.2367 26.0146 39.2438 26.0033 39.2517L26.0019 39.2546L18.6847 43.9408L17.4603 44.7193L16.3275 45.4473L16.3201 45.4516L15.8223 45.7476L16.9425 47.9173L18.2655 49.9618L18.7783 49.6853L18.7815 49.6855L18.7829 49.6826L19.9824 49.0697L21.2716 48.403L22.6944 47.6609L22.697 47.6601L29.0058 44.4345C29.01 44.4324 29.0143 44.4329 29.0186 44.4333C29.0221 44.4337 29.0257 44.434 29.0292 44.4329C29.0319 44.4314 29.0341 44.429 29.0363 44.4266C29.0392 44.4233 29.0421 44.4201 29.0462 44.419L30.087 44.0977C30.0928 44.0955 30.0983 44.097 30.1036 44.0984C30.1079 44.0996 30.1121 44.1007 30.1163 44.0998C30.1209 44.0992 30.1247 44.0965 30.1286 44.0938C30.133 44.0906 30.1376 44.0874 30.1438 44.0869L31.0778 44.0289C31.0816 44.0288 31.0845 44.0307 31.0875 44.0325C31.0885 44.0331 31.0894 44.0337 31.0905 44.0342C31.0925 44.0353 31.0946 44.0361 31.0972 44.036C31.1005 44.036 31.1035 44.0345 31.1064 44.033C31.1101 44.0312 31.1138 44.0293 31.1182 44.0303L32.0472 44.1264C32.0517 44.1272 32.0548 44.1296 32.0577 44.132C32.0603 44.134 32.0628 44.1359 32.066 44.1367C32.0693 44.137 32.0724 44.136 32.0755 44.135C32.0792 44.1339 32.0828 44.1327 32.0866 44.134L32.8362 44.3473C32.8378 44.3477 32.8391 44.3483 32.8402 44.3491C32.8422 44.3505 32.8437 44.3525 32.8453 44.3545C32.8473 44.3571 32.8494 44.3598 32.8526 44.3611C32.8561 44.3621 32.8597 44.3618 32.8632 44.3615C32.8679 44.361 32.8725 44.3606 32.8768 44.3634L33.573 44.7193C33.5768 44.7211 33.5785 44.7243 33.5802 44.7275C33.5818 44.7304 33.5834 44.7332 33.5865 44.7348C33.5921 44.7393 33.6016 44.7359 33.6076 44.7409L34.3123 45.2938C34.3185 45.2994 34.317 45.3073 34.3221 45.3121C34.3283 45.3176 34.3376 45.3165 34.3433 45.3224L34.9142 46.0029C34.9178 46.0069 34.9183 46.0121 34.9187 46.0172C34.9191 46.0215 34.9195 46.0256 34.9217 46.0288C34.9241 46.0329 34.9279 46.0352 34.9317 46.0375C34.9333 46.0384 34.9348 46.0393 34.9362 46.0403C34.9385 46.042 34.9406 46.044 34.942 46.0467L35.3686 46.948C35.3723 46.9557 35.3673 46.9628 35.3696 46.9707C35.3704 46.9741 35.3731 46.9764 35.3758 46.9787C35.3785 46.981 35.3811 46.9834 35.382 46.9868L36.9771 53.4042L36.9778 53.4052L37.3267 54.8534L37.9706 57.3969L37.9702 57.4013L37.9723 57.405L38.0757 57.9035L40.6383 57.4374L43.1537 56.722L43.0707 56.2062L43.0715 56.2037L43.0697 56.2005L41.6454 45.5366C41.6442 45.5317 41.6463 45.5274 41.6484 45.5231C41.6501 45.5197 41.6517 45.5162 41.6519 45.5124C41.6519 45.5087 41.6499 45.5054 41.648 45.5022C41.6459 45.4988 41.6438 45.4954 41.6443 45.4915L41.7227 44.451C41.723 44.447 41.7254 44.4436 41.7279 44.4403C41.7291 44.4387 41.7303 44.4371 41.7312 44.4353C41.7322 44.4336 41.7329 44.4317 41.7331 44.4296C41.7339 44.4254 41.7327 44.4213 41.7315 44.4172C41.7302 44.4127 41.7289 44.4082 41.7303 44.4038L41.9938 43.5214C41.9953 43.5165 41.9991 43.5132 42.0027 43.5099C42.0062 43.5068 42.0096 43.5038 42.0109 43.4996C42.0125 43.4958 42.0123 43.4919 42.0121 43.488C42.0118 43.4833 42.0116 43.4787 42.0145 43.4743L42.4642 42.6741C42.465 42.6725 42.4662 42.6713 42.4675 42.6703C42.4686 42.6694 42.4699 42.6687 42.4712 42.668C42.4738 42.6665 42.4764 42.665 42.4777 42.6621C42.4792 42.6603 42.4797 42.6582 42.4799 42.656C42.48 42.6553 42.48 42.6545 42.4801 42.6537C42.4803 42.6508 42.4805 42.6479 42.4824 42.6453L42.9789 41.9941C42.9822 41.9895 42.9871 41.9876 42.992 41.9857C42.9959 41.9842 42.9998 41.9827 43.0026 41.9798C43.0055 41.9762 43.0068 41.9722 43.0081 41.9684C43.0087 41.9664 43.0094 41.9646 43.0102 41.9628C43.0112 41.9606 43.0125 41.9586 43.0144 41.9568L43.6225 41.4299C43.6252 41.4273 43.6288 41.4269 43.6323 41.4265C43.6357 41.4261 43.6391 41.4257 43.6414 41.4233C43.6442 41.4217 43.6457 41.419 43.6471 41.4163C43.6487 41.4134 43.6503 41.4104 43.6535 41.4086L44.4681 40.8889C44.4727 40.8859 44.4773 40.8859 44.482 40.8859C44.4863 40.8858 44.4905 40.8858 44.4946 40.8835C44.498 40.8815 44.5004 40.8785 44.5027 40.8755C44.5054 40.8721 44.5081 40.8686 44.5124 40.8669L45.3826 40.5298C45.3888 40.5267 45.3948 40.5292 45.4008 40.53C45.4029 40.5302 45.4049 40.5303 45.407 40.5298C45.4093 40.5291 45.4113 40.5279 45.4132 40.5265C45.4182 40.5228 45.4222 40.5178 45.4278 40.5171L46.5138 40.3211C46.5191 40.3204 46.5235 40.3222 46.5278 40.324C46.5295 40.3247 46.5311 40.3254 46.5328 40.3259C46.5349 40.3266 46.537 40.327 46.5392 40.3269C46.5437 40.3264 46.5476 40.3241 46.5514 40.3218C46.5554 40.3194 46.5592 40.3171 46.5633 40.3173L57.8395 40.5548ZM42.2158 35.3742C42.2063 35.3754 42.1991 35.3806 42.1916 35.386C42.1856 35.3904 42.1795 35.3948 42.1721 35.3972C42.1654 35.3992 42.1586 35.399 42.1518 35.3988C42.1427 35.3986 42.1335 35.3983 42.1247 35.4034L41.5888 35.6981C41.5841 35.7004 41.5816 35.705 41.5791 35.7095C41.5772 35.7128 41.5754 35.7162 41.5726 35.7187C41.5646 35.7233 41.5544 35.7214 41.5476 35.7267C41.5452 35.7291 41.5443 35.7321 41.5434 35.7351C41.5424 35.7381 41.5415 35.7411 41.5391 35.7436C41.537 35.7451 41.5345 35.7459 41.5321 35.7466C41.5283 35.7477 41.5246 35.7486 41.5217 35.7515L41.134 36.1889C41.1295 36.1943 41.1326 36.201 41.1276 36.2067C41.1258 36.209 41.1231 36.2102 41.1203 36.2115C41.117 36.213 41.1137 36.2145 41.1119 36.2178C41.1067 36.2271 41.1108 36.2367 41.1066 36.244C41.1044 36.2484 41.1006 36.2513 41.0969 36.2542C41.0929 36.2573 41.0889 36.2604 41.087 36.2652L40.8847 36.8099C40.8804 36.8194 40.8879 36.8285 40.8855 36.8375C40.8845 36.8416 40.8819 36.8449 40.8793 36.8481C40.8762 36.852 40.8732 36.8558 40.8732 36.8608C40.8727 36.8648 40.8744 36.868 40.8762 36.8711C40.8777 36.874 40.8793 36.8768 40.879 36.88C40.8787 36.8831 40.8771 36.8861 40.8755 36.8893C40.8735 36.8931 40.8715 36.897 40.8715 36.9012L40.9075 37.4594C40.9075 37.4636 40.9101 37.4665 40.9125 37.4693C40.9146 37.4717 40.9167 37.4741 40.9171 37.4771C40.9179 37.4804 40.9167 37.4835 40.9156 37.4866C40.9144 37.4899 40.9132 37.4933 40.9142 37.4971C40.9153 37.5019 40.9189 37.5049 40.9225 37.5079C40.9253 37.5102 40.928 37.5125 40.9295 37.5157C40.9311 37.5202 40.9302 37.5247 40.9294 37.5289C40.9286 37.5334 40.9278 37.5376 40.93 37.5414L41.1939 38.0439C41.1991 38.0528 41.2108 38.0546 41.2171 38.0615C41.2198 38.0655 41.2204 38.0702 41.2211 38.0747C41.2217 38.0793 41.2223 38.0838 41.2251 38.0872C41.2287 38.0921 41.2353 38.0904 41.2401 38.0947C41.2423 38.0966 41.2431 38.0991 41.2438 38.1017C41.2445 38.1043 41.2453 38.1069 41.2475 38.1087L41.6793 38.4534C41.6907 38.4622 41.7041 38.4658 41.7177 38.4694C41.7254 38.4715 41.7331 38.4735 41.7407 38.4766C41.7454 38.4782 41.7488 38.4817 41.7524 38.4852C41.7568 38.4897 41.7612 38.4941 41.7682 38.4952L41.8786 38.5203L42.3214 38.6372C42.327 38.6389 42.3317 38.634 42.337 38.6352C42.3431 38.6366 42.3456 38.6422 42.3517 38.6436C42.3582 38.6443 42.3643 38.6423 42.3705 38.6402C42.3752 38.6386 42.3799 38.637 42.3849 38.6365C42.3894 38.6367 42.3932 38.6384 42.3968 38.64C42.4016 38.642 42.406 38.6439 42.4112 38.6425L42.5329 38.6281L42.4291 38.865L41.9274 39.7275L41.2866 40.5103L40.5459 41.2049L39.6984 41.778L39.4604 41.8937L39.4627 41.7848C39.4625 41.7817 39.461 41.7796 39.4596 41.7774C39.4581 41.7752 39.4567 41.7731 39.4564 41.7701C39.4565 41.7623 39.4609 41.7555 39.4601 41.7475C39.4597 41.7427 39.4566 41.7396 39.4535 41.7365C39.4507 41.7337 39.4479 41.7309 39.4473 41.7268C39.4457 41.722 39.4466 41.7172 39.4475 41.7128C39.4483 41.7084 39.4491 41.7042 39.4474 41.7007L39.2277 41.1827C39.2241 41.1742 39.2172 41.1698 39.2102 41.1654C39.2049 41.1622 39.1997 41.1589 39.1958 41.1539C39.1921 41.148 39.1906 41.1416 39.1892 41.1353C39.1873 41.1271 39.1855 41.1191 39.1789 41.1129L38.7686 40.7319C38.7661 40.7295 38.7625 40.7288 38.7586 40.7281C38.7547 40.7273 38.7506 40.7265 38.7472 40.7239C38.7446 40.7218 38.7433 40.7188 38.742 40.716C38.7404 40.7125 38.7389 40.7092 38.7354 40.7074C38.7315 40.7049 38.7271 40.7049 38.7227 40.705C38.7186 40.7051 38.7146 40.7051 38.7109 40.7032C38.7075 40.7016 38.7054 40.6986 38.7034 40.6958C38.7011 40.6924 38.6989 40.6892 38.6948 40.6886L38.1572 40.4933C38.1534 40.4917 38.1499 40.4926 38.1462 40.4936C38.1429 40.4944 38.1394 40.4952 38.1357 40.4944C38.1317 40.4935 38.1291 40.4909 38.1266 40.4884C38.1241 40.486 38.1218 40.4837 38.1186 40.4832C38.1136 40.4823 38.1086 40.4841 38.1038 40.486C38.0996 40.4876 38.0955 40.4892 38.0915 40.4889C38.0875 40.4884 38.0841 40.4866 38.0807 40.4847C38.0762 40.4823 38.0717 40.4798 38.066 40.4803L37.4694 40.5089C37.4643 40.5095 37.4604 40.512 37.4566 40.5144C37.4535 40.5164 37.4505 40.5182 37.4471 40.5189C37.4429 40.5194 37.4391 40.5182 37.4355 40.5171C37.4311 40.5157 37.427 40.5144 37.4226 40.5161C37.4172 40.5169 37.4138 40.5203 37.4105 40.5237C37.4078 40.5265 37.4051 40.5293 37.4013 40.5305C37.397 40.5319 37.3929 40.5311 37.3889 40.5306C37.3851 40.5301 37.3814 40.5299 37.3778 40.532L36.8394 40.779C36.8355 40.7801 36.8334 40.7833 36.8313 40.7865C36.8296 40.7892 36.8279 40.7919 36.8251 40.7935C36.8213 40.7957 36.8175 40.7959 36.8138 40.796C36.8103 40.7962 36.8068 40.7963 36.8035 40.7982C36.8019 40.7993 36.8006 40.8006 36.7995 40.802C36.7955 40.8075 36.7946 40.8148 36.7898 40.818C36.7867 40.8209 36.7828 40.8219 36.7791 40.823C36.7751 40.8241 36.7713 40.8252 36.7684 40.8283L36.3334 41.2535C36.3282 41.2588 36.3267 41.2654 36.3252 41.2718C36.324 41.2773 36.3228 41.2827 36.3193 41.287C36.3159 41.291 36.3113 41.294 36.3065 41.297C36.3004 41.3008 36.2942 41.3047 36.2907 41.3111C36.29 41.3127 36.2901 41.3143 36.2903 41.3157C36.2904 41.3171 36.2906 41.3183 36.29 41.3192C36.2888 41.321 36.2872 41.3219 36.2857 41.3228C36.2842 41.3236 36.2828 41.3244 36.2818 41.3261L36.0435 41.8556C36.039 41.8647 36.0403 41.873 36.0416 41.8815C36.0425 41.8877 36.0435 41.894 36.0422 41.9007C36.0405 41.9075 36.0369 41.9134 36.0333 41.9192C36.0286 41.9268 36.0239 41.9344 36.0237 41.9437L36.0216 42.0567L36.0152 42.5155C36.0148 42.5211 36.0175 42.5253 36.0204 42.5297C36.0228 42.5334 36.0254 42.5373 36.0262 42.5423C36.0266 42.5468 36.0249 42.5513 36.0233 42.5555C36.0216 42.56 36.02 42.5643 36.0209 42.5685C36.0218 42.5721 36.0244 42.5743 36.0269 42.5764C36.0292 42.5784 36.0314 42.5802 36.0323 42.583C36.0331 42.5861 36.0326 42.5892 36.0321 42.5923C36.0315 42.5961 36.0308 42.6 36.0324 42.6041L36.0678 42.6836L35.8175 42.677L34.8407 42.5416L33.9036 42.2426L33.0282 41.8033L32.2541 41.2579L32.0792 41.0862L32.1961 41.0464C32.2134 41.0408 32.2286 41.0341 32.2423 41.0263C32.2577 41.0174 32.2721 41.007 32.2865 40.9938L32.6123 40.6975L32.7163 40.6264C32.7213 40.6231 32.7236 40.6181 32.7258 40.613C32.7278 40.6086 32.7297 40.6042 32.7336 40.601C32.7389 40.5961 32.7444 40.5915 32.7499 40.5868C32.7679 40.5715 32.7859 40.5563 32.7974 40.534L33.0574 40.0195C33.0587 40.0164 33.0582 40.0138 33.0578 40.0112C33.0575 40.0093 33.0572 40.0074 33.0576 40.0053C33.0588 40.0034 33.0605 40.0019 33.0622 40.0003C33.0646 39.9982 33.067 39.996 33.068 39.993C33.0701 39.9877 33.069 39.9828 33.068 39.9777C33.067 39.973 33.066 39.9683 33.0674 39.9631C33.0683 39.9594 33.071 39.9566 33.0738 39.9539C33.0771 39.9506 33.0804 39.9473 33.0804 39.9422L33.1467 39.3744C33.1474 39.3708 33.1459 39.368 33.1443 39.3651C33.1428 39.3625 33.1414 39.3598 33.1416 39.3563C33.1422 39.3482 33.1489 39.3401 33.1478 39.3316C33.1467 39.3245 33.1387 39.3199 33.1374 39.3137C33.137 39.3095 33.1379 39.3054 33.1388 39.3014C33.1399 39.2965 33.1409 39.2918 33.1395 39.2871L32.9676 38.7557C32.9664 38.7516 32.963 38.7491 32.9597 38.7467C32.9567 38.7445 32.9538 38.7424 32.9526 38.739C32.9498 38.7329 32.9538 38.7228 32.9505 38.717C32.9487 38.714 32.9449 38.7121 32.9412 38.7103C32.9377 38.7085 32.9343 38.7068 32.9324 38.7042C32.9284 38.6987 32.9307 38.6883 32.9254 38.6829L32.5492 38.2689C32.5459 38.2655 32.541 38.2642 32.5363 38.2629C32.5323 38.2619 32.5284 38.2608 32.5257 38.2585C32.5234 38.2564 32.5224 38.2533 32.5213 38.2502C32.52 38.2461 32.5186 38.242 32.5146 38.2395C32.509 38.235 32.4998 38.2389 32.4925 38.2354C32.4892 38.2336 32.4874 38.2306 32.4856 38.2276C32.4837 38.2244 32.4818 38.2213 32.4781 38.2198L31.9459 37.9841C31.9408 37.9817 31.9355 37.9823 31.9302 37.9829C31.9258 37.9833 31.9215 37.9837 31.9174 37.9822C31.9127 37.9811 31.9092 37.978 31.9057 37.975C31.9022 37.9718 31.8987 37.9688 31.8941 37.9682C31.8899 37.9672 31.8866 37.9685 31.8835 37.9698C31.8808 37.9709 31.8782 37.9719 31.8753 37.9712C31.8717 37.9711 31.869 37.9695 31.8664 37.9679C31.864 37.9664 31.8616 37.9649 31.8586 37.9647L31.2915 37.9496C31.283 37.9489 31.2762 37.9526 31.2693 37.9564C31.2639 37.9593 31.2584 37.9622 31.2521 37.9631C31.2457 37.9636 31.2398 37.9622 31.2341 37.9609C31.2268 37.9592 31.2198 37.9576 31.2123 37.9599L31.0734 38.0025C31.0719 38.0034 31.071 38.0048 31.0699 38.0061C31.0694 38.0067 31.0688 38.0073 31.0681 38.0077C31.066 38.0081 31.064 38.0058 31.0611 38.0075L30.634 38.1644C30.6298 38.1658 30.6273 38.1689 30.6249 38.1719C30.6227 38.1747 30.6205 38.1774 30.617 38.1784C30.6133 38.1805 30.6093 38.1804 30.6055 38.1803C30.6018 38.1802 30.5982 38.1801 30.5948 38.182C30.5897 38.185 30.5902 38.191 30.5853 38.1945C30.5796 38.1978 30.5734 38.195 30.5695 38.1987L30.4534 38.2844L30.3955 38.0547L30.3012 37.0931L30.3614 36.1328L30.5695 35.1718L30.9354 34.2545L31.0548 34.0367L31.1168 34.1228C31.1201 34.1277 31.1254 34.1296 31.1303 34.1315C31.1341 34.1329 31.1377 34.1342 31.1402 34.1368C31.1429 34.1396 31.1441 34.1438 31.1454 34.148C31.1467 34.1525 31.148 34.157 31.1513 34.1599C31.1549 34.1631 31.1603 34.1643 31.1655 34.1654C31.1695 34.1663 31.1733 34.1671 31.1762 34.1688C31.1789 34.1709 31.1804 34.1737 31.1819 34.1764C31.1834 34.1793 31.1849 34.1819 31.1877 34.1833L31.581 34.3947L31.5819 34.3963L31.6814 34.451C31.6968 34.4592 31.7132 34.4614 31.7297 34.4637C31.7356 34.4645 31.7415 34.4654 31.7474 34.4664C31.7515 34.4676 31.7546 34.4699 31.7575 34.4721C31.761 34.4748 31.7643 34.4772 31.7689 34.4773L32.3486 34.5365C32.3512 34.5364 32.3537 34.5355 32.3563 34.5346C32.3588 34.5337 32.3613 34.5327 32.3639 34.5326C32.3674 34.5334 32.3692 34.5366 32.3739 34.5368C32.3827 34.5365 32.3904 34.5336 32.3978 34.5309C32.4023 34.5292 32.4067 34.5275 32.4113 34.5265C32.415 34.5263 32.4185 34.5274 32.4218 34.5284C32.4259 34.5297 32.4298 34.5309 32.4337 34.5298L33.0275 34.3783C33.0433 34.3741 33.057 34.3676 33.0719 34.3605C33.073 34.3599 33.0745 34.3595 33.0757 34.3593C33.077 34.3591 33.078 34.3591 33.078 34.3591C33.0823 34.3574 33.0874 34.3544 33.092 34.3518C33.1 34.3472 33.1082 34.3417 33.1156 34.3361L33.5937 33.9852C33.596 33.9839 33.5959 33.9811 33.597 33.9791C33.6003 33.9765 33.6036 33.9742 33.6068 33.9719C33.6136 33.967 33.6201 33.9624 33.6262 33.956C33.6286 33.9535 33.6294 33.9506 33.6302 33.9477C33.631 33.9448 33.6318 33.9419 33.6341 33.9395C33.6374 33.9352 33.6414 33.9319 33.6454 33.9285C33.6498 33.9248 33.6543 33.921 33.6578 33.916L33.9757 33.4068C33.9785 33.4026 33.9785 33.3983 33.9784 33.394C33.9784 33.3902 33.9783 33.3866 33.9802 33.3831C33.9822 33.3797 33.9853 33.3769 33.9884 33.374C33.9919 33.3708 33.9953 33.3676 33.9971 33.3636C33.9986 33.3595 33.9976 33.3556 33.9967 33.3518C33.9958 33.3482 33.995 33.3447 33.9961 33.3409C33.997 33.3382 33.9992 33.3361 34.0015 33.334C34.0041 33.3316 34.0069 33.329 34.0075 33.3252L34.1066 32.7639C34.1072 32.7611 34.1059 32.7585 34.1045 32.7558C34.1032 32.7532 34.1018 32.7505 34.1023 32.7474C34.1028 32.743 34.1044 32.7388 34.1059 32.7348C34.1078 32.7298 34.1096 32.725 34.1093 32.7201C34.1091 32.7167 34.107 32.7139 34.1049 32.7111C34.1032 32.7088 34.1016 32.7066 34.1007 32.704C34.1005 32.6996 34.1017 32.6955 34.1029 32.6916C34.1041 32.6878 34.1052 32.6842 34.1047 32.6806L33.9831 32.1442C33.9808 32.1351 33.9747 32.1294 33.9684 32.1236C33.9636 32.1192 33.9588 32.1147 33.9556 32.1086C33.9532 32.1027 33.9529 32.0964 33.9526 32.0902C33.9522 32.0819 33.9519 32.0736 33.9465 32.0667L33.6016 31.6108C33.5973 31.6056 33.5911 31.6033 33.5851 31.6011C33.5806 31.5994 33.5762 31.5978 33.5727 31.5951C33.569 31.5911 33.5674 31.5865 33.5657 31.582C33.5638 31.5766 33.5618 31.5713 33.5565 31.5671C33.5548 31.5661 33.5529 31.566 33.5508 31.5659C33.5486 31.5658 33.5463 31.5658 33.5442 31.5643C33.5422 31.5634 33.5412 31.5615 33.5403 31.5595C33.5394 31.5576 33.5385 31.5557 33.5364 31.5548L33.4523 31.5081L33.6671 31.3748L34.5903 30.9164L35.5597 30.6151L36.5576 30.4536L37.5554 30.4518L37.8166 30.4852L37.7462 30.5749C37.7429 30.5783 37.7426 30.5824 37.7422 30.5865C37.742 30.5901 37.7417 30.5938 37.7393 30.5972C37.7373 30.6002 37.7341 30.6023 37.7308 30.6044C37.7267 30.607 37.7226 30.6096 37.7209 30.6141C37.7186 30.6186 37.719 30.6229 37.7195 30.6271C37.7199 30.6313 37.7203 30.6352 37.7179 30.639C37.7166 30.6427 37.7139 30.6453 37.7113 30.648C37.7083 30.651 37.7052 30.6541 37.7043 30.6588L37.5845 31.0991L37.5512 31.2069C37.5481 31.2167 37.5505 31.2255 37.5529 31.2344C37.5547 31.241 37.5565 31.2476 37.5561 31.2547C37.5556 31.2631 37.5526 31.2702 37.5497 31.2772C37.546 31.2861 37.5425 31.2947 37.5442 31.3051L37.6333 31.8589C37.6342 31.8633 37.637 31.8665 37.6397 31.8695C37.642 31.8722 37.6442 31.8746 37.6449 31.8776C37.6461 31.8817 37.6453 31.8857 37.6444 31.8897C37.6435 31.8936 37.6427 31.8974 37.6441 31.9012C37.6456 31.9045 37.6487 31.9064 37.6517 31.9083C37.6544 31.91 37.657 31.9116 37.6584 31.9141C37.6601 31.9177 37.66 31.9217 37.6598 31.9255C37.6596 31.9293 37.6594 31.9329 37.6611 31.9358L37.9615 32.4067C37.9634 32.4099 37.9669 32.4115 37.9704 32.4131C37.9732 32.4144 37.9759 32.4157 37.9778 32.4177C37.9814 32.4227 37.9796 32.43 37.9835 32.4355C37.9872 32.4396 37.9922 32.441 37.997 32.4423C38.001 32.4434 38.0048 32.4445 38.0077 32.447C38.0107 32.4496 38.0122 32.4533 38.0137 32.457C38.0152 32.4609 38.0168 32.4648 38.0202 32.4672L38.4934 32.7874C38.4976 32.7904 38.5028 32.7911 38.5079 32.7918C38.5121 32.7924 38.5162 32.793 38.5197 32.7948C38.5247 32.7982 38.5249 32.8038 38.5311 32.8065C38.5346 32.808 38.5383 32.8069 38.5421 32.8058C38.5458 32.8048 38.5496 32.8037 38.5531 32.8051C38.556 32.8063 38.5592 32.8065 38.5622 32.8077C38.5662 32.8088 38.5693 32.8116 38.5723 32.8145C38.5761 32.8179 38.5799 32.8214 38.5855 32.8217L39.1551 32.9106C39.1635 32.9121 39.1706 32.9059 39.1788 32.9069C39.1825 32.9068 39.1855 32.9086 39.1884 32.9104C39.1914 32.9123 39.1944 32.9141 39.1981 32.914C39.2032 32.9141 39.2083 32.9121 39.2131 32.9102C39.2163 32.909 39.2193 32.9077 39.2223 32.9072C39.2275 32.907 39.2314 32.9111 39.2363 32.9103L39.816 32.8042C39.8194 32.8037 39.8223 32.8028 39.8252 32.8017C39.8307 32.7996 39.8357 32.7969 39.8416 32.7959C39.8436 32.7947 39.8452 32.7952 39.8471 32.7957C39.8484 32.7961 39.8499 32.7965 39.8518 32.7963C39.8678 32.7899 39.8825 32.7836 39.8967 32.7754L39.9007 32.7731L40.4249 32.4584L40.428 32.4545C40.4539 32.4375 40.4788 32.4175 40.4981 32.3917L40.8491 31.9134C40.853 31.907 40.8496 31.8998 40.8543 31.8935C40.8567 31.8899 40.86 31.8872 40.8633 31.8846C40.8673 31.8813 40.8712 31.8781 40.8732 31.8735C40.875 31.8692 40.8745 31.8651 40.874 31.861C40.8735 31.8572 40.8731 31.8534 40.8745 31.8496C40.8757 31.8456 40.8788 31.8431 40.8817 31.8407C40.8844 31.8384 40.8869 31.836 40.8873 31.8324L40.9125 31.7341L41.1094 31.8861L41.7623 32.5596L42.3187 33.337L42.7166 34.2056L42.9745 35.1019L43.0058 35.3421L42.9063 35.3149C42.9016 35.3136 42.8969 35.3147 42.8923 35.3158C42.8879 35.3169 42.8836 35.318 42.8794 35.317C42.8755 35.3161 42.8723 35.3139 42.8691 35.3116C42.8651 35.3087 42.8609 35.3058 42.8553 35.3055C42.8474 35.3051 42.8413 35.3129 42.8337 35.313C42.8302 35.3131 42.8273 35.3116 42.8243 35.31C42.8208 35.3082 42.8173 35.3064 42.8126 35.3068L42.2158 35.3742Z" fill="#E1D8FC"/>
<path d="M39.1368 34.4474C39.1341 34.4436 39.1302 34.4421 39.1263 34.4407C39.1229 34.4395 39.1196 34.4382 39.117 34.4356C39.1146 34.4333 39.1138 34.4299 39.1129 34.4265C39.112 34.4226 39.111 34.4185 39.1077 34.4156L38.671 34.0364C38.6683 34.0342 38.6645 34.0336 38.6606 34.033C38.6564 34.0323 38.652 34.0316 38.6485 34.0289C38.6417 34.0251 38.6422 34.0142 38.6352 34.0113L38.1351 33.7339L38.133 33.7302C38.1254 33.7244 38.1168 33.7233 38.1081 33.7222C38.1011 33.7213 38.094 33.7204 38.0873 33.7171C38.0809 33.7138 38.0762 33.7091 38.0716 33.7044C38.0655 33.6981 38.0594 33.6919 38.0494 33.6897L37.4637 33.5467C37.4594 33.5457 37.4556 33.5469 37.4519 33.5481C37.4487 33.5492 37.4457 33.5501 37.4426 33.5496C37.4353 33.5489 37.4325 33.5414 37.4255 33.5412L36.8092 33.4924C36.8042 33.4918 36.7998 33.4941 36.7955 33.4963C36.7921 33.4981 36.7887 33.4998 36.7854 33.4998C36.7809 33.4996 36.7773 33.498 36.7739 33.4964C36.7696 33.4944 36.7654 33.4925 36.7597 33.4935L36.1394 33.573C36.1339 33.5738 36.13 33.5769 36.1262 33.5801C36.1232 33.5825 36.1202 33.5849 36.1166 33.5861C36.1119 33.5868 36.1078 33.5859 36.1038 33.5851C36.0994 33.5842 36.0951 33.5834 36.0907 33.5848L35.4884 33.7911C35.4838 33.7926 35.481 33.7963 35.4781 33.8C35.4757 33.803 35.4734 33.8061 35.4701 33.808C35.4617 33.8107 35.4526 33.8068 35.4458 33.8107L34.8929 34.1286C34.8884 34.1311 34.8861 34.1354 34.8838 34.1396C34.882 34.1429 34.8801 34.1462 34.8773 34.1488C34.8735 34.151 34.8695 34.1515 34.8656 34.1521C34.8613 34.1528 34.857 34.1534 34.8534 34.1562L34.3826 34.5669C34.3785 34.5704 34.3771 34.5751 34.3756 34.5797C34.3746 34.5831 34.3735 34.5865 34.3714 34.5895C34.3682 34.5923 34.3641 34.5939 34.3602 34.5954C34.3555 34.5972 34.351 34.5989 34.3485 34.6026L33.9693 35.0979C33.9663 35.1021 33.9658 35.1066 33.9654 35.111C33.9649 35.1152 33.9645 35.1193 33.9619 35.1232C33.9599 35.1262 33.9567 35.1283 33.9534 35.1304C33.9493 35.133 33.9452 35.1356 33.9436 35.1401L33.6778 35.6959C33.6762 35.699 33.6766 35.7022 33.6771 35.7054C33.6776 35.7085 33.6781 35.7116 33.6767 35.7149C33.6737 35.7215 33.6653 35.7242 33.6635 35.7316L33.495 36.3082C33.4931 36.3143 33.4947 36.3197 33.4963 36.3251C33.4976 36.3295 33.4989 36.3339 33.4982 36.3387C33.4973 36.3438 33.4947 36.348 33.4921 36.3522C33.489 36.3572 33.4859 36.3622 33.4858 36.3684L33.4824 36.9753C33.4824 36.9794 33.4845 36.9825 33.4866 36.9856C33.4885 36.9885 33.4904 36.9912 33.4905 36.9946C33.4914 36.9989 33.4897 37.0027 33.488 37.0064C33.4866 37.0098 33.4851 37.013 33.4856 37.0163L33.5971 37.5825C33.5977 37.5863 33.6005 37.5889 33.6033 37.5914C33.6058 37.5937 33.6083 37.596 33.6089 37.599C33.6095 37.6016 33.6089 37.6046 33.6082 37.6076C33.6073 37.6118 33.6064 37.6162 33.6084 37.6204L33.8326 38.1724C33.8345 38.1778 33.8392 38.1808 33.844 38.1837C33.8479 38.1861 33.8518 38.1886 33.8541 38.1924C33.8563 38.1963 33.8565 38.201 33.8567 38.2058C33.8569 38.2113 33.8571 38.2169 33.8607 38.2209L34.2287 38.6903C34.2312 38.6939 34.2352 38.6952 34.2391 38.6964C34.2422 38.6974 34.2453 38.6984 34.2475 38.7005C34.2501 38.703 34.2509 38.7064 34.2517 38.7098C34.2525 38.7131 34.2533 38.7163 34.2556 38.7184L34.6923 39.0976C34.6959 39.101 34.7008 39.102 34.7057 39.1029C34.7097 39.1037 34.7137 39.1045 34.7172 39.1065C34.7196 39.1083 34.7209 39.1111 34.7221 39.1139C34.7235 39.1171 34.7249 39.1201 34.7281 39.1213L35.2523 39.4129C35.2591 39.4169 35.2667 39.4177 35.2741 39.4185C35.2793 39.4191 35.2844 39.4196 35.2892 39.4213C35.2962 39.4243 35.2979 39.4324 35.3046 39.4335L35.8952 39.5849C35.8996 39.5862 35.9037 39.5848 35.9076 39.5834C35.9111 39.5822 35.9144 39.5811 35.9177 39.5818C35.9216 39.5825 35.9246 39.5846 35.9274 39.5867C35.9308 39.589 35.934 39.5913 35.9383 39.5911L36.5494 39.6309C36.5584 39.632 36.566 39.6255 36.5733 39.6249C36.5808 39.6247 36.5842 39.6306 36.5917 39.6304L37.2172 39.5599C37.2251 39.5591 37.2321 39.5561 37.2391 39.5531C37.2442 39.551 37.2493 39.5489 37.2548 39.5474C37.2578 39.5461 37.2605 39.5469 37.2632 39.5476C37.2654 39.5481 37.2677 39.5486 37.2702 39.5477L37.8628 39.347C37.8789 39.3406 37.8935 39.3343 37.9077 39.3261L38.4606 39.0082C38.4743 39.0004 38.4882 38.9916 38.5001 38.9806L38.9806 38.5643C38.9858 38.5614 38.9838 38.5554 38.9881 38.5509C38.9982 38.5422 39.0097 38.5357 39.0183 38.5244L39.3924 38.0202C39.3943 38.017 39.3944 38.0139 39.3946 38.0108C39.3947 38.0078 39.3948 38.0047 39.3967 38.0015C39.3987 37.9984 39.4018 37.9961 39.4048 37.9937C39.4084 37.9909 39.4121 37.988 39.4139 37.9839L39.6849 37.437C39.687 37.4332 39.6866 37.4292 39.6861 37.4253C39.6858 37.4216 39.6854 37.418 39.6871 37.4146C39.6882 37.4109 39.6912 37.4084 39.6941 37.406C39.6972 37.4034 39.7003 37.4008 39.7011 37.3967L39.8647 36.8116C39.8674 36.802 39.865 36.7944 39.8625 36.7866C39.8607 36.7807 39.8588 36.7748 39.859 36.7678C39.8599 36.7608 39.8612 36.7538 39.8626 36.7468C39.8661 36.729 39.8695 36.711 39.8646 36.6921L39.8594 36.674L39.8831 36.1651C39.8835 36.1609 39.8815 36.1577 39.8795 36.1545C39.8777 36.1516 39.876 36.1487 39.8762 36.1452C39.8755 36.1369 39.8793 36.1293 39.8806 36.1217C39.8809 36.1195 39.881 36.1173 39.8808 36.1151L39.7693 35.549C39.7684 35.5447 39.7655 35.542 39.7627 35.5393C39.7601 35.5368 39.7575 35.5344 39.7566 35.5309C39.7549 35.5242 39.7596 35.5151 39.7562 35.508L39.5229 34.9626C39.5197 34.9561 39.5136 34.9537 39.5088 34.9499C39.5071 34.9486 39.5055 34.947 39.5044 34.9451C39.5024 34.9416 39.5022 34.9375 39.5019 34.9334C39.5016 34.9286 39.5013 34.924 39.4984 34.9204L39.1368 34.4474Z" fill="#E1D8FC"/>
<path fill-rule="evenodd" clip-rule="evenodd" d="M53.792 9.06239C53.7886 9.06033 53.7882 9.05592 53.7849 9.05386L50.9303 7.69978C50.9303 7.69978 50.9262 7.70015 50.9238 7.69958L50.9203 7.69492L50.8361 7.65975C50.8326 7.65849 50.829 7.6591 50.8252 7.65973C50.8221 7.66026 50.8188 7.66081 50.8156 7.66026C50.8125 7.65915 50.8107 7.65704 50.8089 7.65491C50.8079 7.65384 50.807 7.65277 50.8059 7.65182C50.8047 7.65072 50.8032 7.64979 50.8013 7.64923L50.6922 7.62439L47.7012 6.59556C47.6993 6.59468 47.6973 6.59531 47.6954 6.59595C47.6945 6.59623 47.6936 6.59651 47.6927 6.59665C47.6917 6.59684 47.6906 6.59682 47.6895 6.59634L47.6875 6.59561C47.687 6.59531 47.6865 6.59496 47.686 6.59457C47.6854 6.59401 47.6848 6.59338 47.6842 6.59275C47.6836 6.5921 47.6829 6.59144 47.6823 6.59086C47.6813 6.59011 47.6803 6.58949 47.6789 6.58917L44.5928 5.88646L44.4394 5.84331C44.4352 5.84236 44.4311 5.84355 44.4272 5.84469C44.4235 5.8458 44.4199 5.84685 44.4165 5.84587C44.4126 5.845 44.4097 5.84276 44.4069 5.8406C44.4036 5.83809 44.4004 5.83568 44.3962 5.83564L44.2503 5.82531L41.0802 5.44306C41.0781 5.443 41.0764 5.44377 41.0747 5.44454C41.0727 5.44541 41.0707 5.4463 41.0682 5.44596C41.0659 5.44589 41.0642 5.44466 41.0625 5.44349C41.0609 5.4424 41.0594 5.44137 41.0577 5.4414L37.8571 5.37922C37.8559 5.37894 37.8551 5.3794 37.8543 5.37987C37.8539 5.38007 37.8535 5.38028 37.8531 5.38042C37.8526 5.3806 37.8521 5.38067 37.8514 5.38051L37.8464 5.37938L37.696 5.38227C37.6945 5.38215 37.6931 5.38292 37.6918 5.38369C37.6905 5.38447 37.6891 5.38524 37.6876 5.38511C37.6853 5.38531 37.6838 5.3845 37.6824 5.38376C37.6813 5.38317 37.6803 5.38262 37.679 5.38273L37.5104 5.39875L34.2866 5.64785C34.2839 5.64794 34.2819 5.64918 34.2801 5.65036C34.2784 5.65139 34.2768 5.65238 34.2749 5.65254C34.2726 5.65288 34.2706 5.65221 34.2686 5.65154C34.2666 5.65086 34.2646 5.65019 34.2623 5.65053L30.9106 6.25711C30.9082 6.25746 30.9065 6.25903 30.9047 6.26066C30.9031 6.26216 30.9014 6.2637 30.8991 6.26441C30.8969 6.26473 30.895 6.26413 30.8931 6.26355C30.891 6.26291 30.889 6.26228 30.8867 6.26289L27.5992 7.20154C27.5972 7.20235 27.5957 7.20388 27.594 7.20546C27.5924 7.20712 27.5906 7.20883 27.5882 7.20984C27.5871 7.2103 27.586 7.21036 27.5848 7.21026L27.5824 7.2099C27.5801 7.20947 27.5776 7.20902 27.5748 7.21024L24.433 8.47326L24.4136 8.47707C24.4063 8.47913 24.4023 8.48335 24.3983 8.48753C24.395 8.49108 24.3916 8.4946 24.3863 8.49676C24.3803 8.49926 24.3745 8.4992 24.3687 8.49915C24.3622 8.49909 24.3558 8.49903 24.3495 8.50264L24.3156 8.52214L21.2938 10.0592C21.291 10.0604 21.2897 10.0624 21.2884 10.0644C21.2874 10.0659 21.2865 10.0674 21.2848 10.0683C21.283 10.0693 21.2809 10.0695 21.2789 10.0697C21.2765 10.0699 21.2741 10.0701 21.2723 10.0715L18.434 11.9038L18.4001 11.9233C18.3937 11.927 18.3912 11.9323 18.3887 11.9376C18.3865 11.9422 18.3844 11.9467 18.3798 11.9502C18.3746 11.9542 18.3688 11.9559 18.3632 11.9575C18.357 11.9594 18.351 11.9611 18.3458 11.9658L18.3328 11.9806L15.6635 14.0588C15.6619 14.06 15.6612 14.0619 15.6604 14.0638C15.6595 14.066 15.6585 14.0683 15.6562 14.0696C15.6546 14.0716 15.6522 14.0721 15.6496 14.0727C15.6475 14.0731 15.6453 14.0736 15.6435 14.0749L13.1748 16.4459C13.1741 16.4467 13.1736 16.4477 13.1733 16.4486L13.1722 16.452C13.1717 16.4541 13.1711 16.4563 13.1697 16.4581C13.1684 16.4591 13.1668 16.4596 13.1651 16.4602C13.1628 16.4609 13.1603 16.4617 13.1586 16.4638L10.9644 19.0459C10.9642 19.0461 10.964 19.0464 10.9638 19.0467C10.9635 19.0472 10.9633 19.0477 10.9631 19.0482C10.9626 19.0494 10.9624 19.0506 10.9621 19.0518C10.9617 19.0539 10.9613 19.056 10.9598 19.0578C10.9591 19.0588 10.9581 19.0595 10.9571 19.0602L10.9554 19.0611C10.9534 19.0622 10.9513 19.0632 10.9499 19.0655L9.1123 21.7265L9.01404 21.864C9.01273 21.866 9.01273 21.8682 9.01272 21.8703C9.01272 21.8725 9.01271 21.8747 9.01141 21.8767C9.00996 21.8786 9.00807 21.8797 9.00612 21.8808C9.00417 21.8819 9.00215 21.8831 9.00043 21.885L8.93131 22.0084L8.93027 22.0103L7.38406 24.8017C7.38273 24.8036 7.38288 24.8057 7.38305 24.8079C7.38317 24.8096 7.3833 24.8113 7.38276 24.8131C7.38179 24.8149 7.38026 24.816 7.37873 24.8171C7.37698 24.8183 7.37522 24.8196 7.37426 24.8219L6.12162 27.7471L6.05765 27.8781C6.05593 27.8822 6.0564 27.886 6.05688 27.8899C6.05732 27.8935 6.05775 27.897 6.05641 27.9007C6.05509 27.9043 6.05227 27.9069 6.04952 27.9095C6.04645 27.9124 6.04347 27.9152 6.04273 27.9192L6.00352 28.0731L5.07159 31.086C5.07084 31.0884 5.07145 31.0904 5.07206 31.0923C5.07266 31.0943 5.07327 31.0963 5.07252 31.0987C5.07231 31.1008 5.07078 31.1022 5.06924 31.1036C5.06771 31.105 5.06618 31.1063 5.06597 31.1084L4.4652 34.2024L4.43225 34.3089C4.43104 34.3128 4.43218 34.3157 4.4333 34.3187C4.43427 34.3212 4.43524 34.3237 4.43469 34.3267C4.43356 34.3304 4.43122 34.3332 4.42899 34.3359C4.4268 34.3386 4.42472 34.3411 4.42399 34.3442L4.41245 34.4344L4.4148 34.4397L4.41218 34.4438L4.14317 37.5938C4.14296 37.596 4.1439 37.5976 4.14483 37.5992C4.14577 37.6008 4.14671 37.6024 4.1465 37.6045C4.1467 37.6067 4.14573 37.6085 4.14475 37.6102C4.14378 37.6119 4.1428 37.6136 4.143 37.6158L4.20999 40.8368C4.21006 40.8389 4.21138 40.8407 4.2127 40.8424C4.21382 40.8439 4.21492 40.8454 4.21523 40.847C4.21546 40.8495 4.21436 40.8517 4.21334 40.8538C4.21255 40.8554 4.2118 40.8569 4.21173 40.8583L4.63637 44.0513C4.63639 44.052 4.63653 44.0525 4.63676 44.053C4.6369 44.0533 4.63706 44.0536 4.63725 44.0539C4.63775 44.0547 4.63842 44.0554 4.6391 44.0561C4.64049 44.0575 4.64194 44.0591 4.64214 44.0613C4.64229 44.0617 4.64238 44.062 4.64242 44.0624C4.64249 44.063 4.64246 44.0635 4.64237 44.0641C4.6423 44.0645 4.6422 44.0649 4.64208 44.0653C4.64191 44.0658 4.6417 44.0664 4.64149 44.067C4.6408 44.0689 4.6401 44.0708 4.64084 44.0727L5.41473 47.1824C5.41549 47.1844 5.4171 47.1858 5.41865 47.1872C5.4192 47.1877 5.41974 47.1882 5.42024 47.1887C5.42058 47.1891 5.42089 47.1894 5.42116 47.1898C5.42157 47.1903 5.4219 47.1908 5.42212 47.1914C5.42318 47.1939 5.42255 47.1961 5.42195 47.1983C5.42178 47.1988 5.42162 47.1994 5.4215 47.2C5.42138 47.2005 5.42129 47.201 5.42126 47.2015C5.42119 47.2024 5.42128 47.2033 5.42168 47.2043L6.5448 50.1849C6.54559 50.187 6.54697 50.1879 6.5484 50.1889C6.54964 50.1897 6.55091 50.1905 6.55185 50.1922C6.55253 50.1939 6.55224 50.1958 6.55195 50.1977C6.5516 50.1999 6.55124 50.2022 6.55249 50.2044L7.91226 52.9063L7.97258 53.0475C7.97472 53.0518 7.97839 53.0543 7.98202 53.0569C7.9853 53.0592 7.98856 53.0614 7.99061 53.065C7.99247 53.0681 7.99279 53.0721 7.99311 53.0761C7.9935 53.0808 7.99389 53.0856 7.99681 53.0893L8.08942 53.2119L9.75422 55.727C9.75531 55.7289 9.75724 55.7297 9.75931 55.7306C9.7611 55.7313 9.76298 55.7321 9.76455 55.7337C9.76503 55.7345 9.76522 55.7354 9.7653 55.7364L9.76538 55.7378C9.76545 55.7397 9.76552 55.7417 9.7673 55.7434L11.8027 58.2107C11.8034 58.2117 11.8045 58.2123 11.8058 58.2129L11.8085 58.214L11.8114 58.2151C11.8126 58.2157 11.8136 58.2164 11.8143 58.2173C11.8147 58.2177 11.815 58.2181 11.8152 58.2186C11.8154 58.2189 11.8155 58.2192 11.8156 58.2195C11.816 58.2206 11.8162 58.2217 11.8164 58.2228C11.8168 58.2246 11.8171 58.2263 11.8182 58.2276L14.1315 60.4429C14.1321 60.4436 14.1328 60.444 14.1337 60.4444C14.1334 60.4443 14.134 60.4445 14.1337 60.4444L14.1365 60.4452L14.1394 60.446C14.1405 60.4465 14.1416 60.4471 14.1423 60.448C14.144 60.449 14.1444 60.4506 14.1448 60.4522C14.1452 60.4538 14.1456 60.4554 14.1473 60.4565L16.7116 62.4192C16.7135 62.4205 16.7157 62.4209 16.7179 62.4213C16.7201 62.4216 16.7223 62.422 16.7241 62.4233C16.7259 62.4244 16.7265 62.426 16.7271 62.4276C16.7277 62.429 16.7282 62.4304 16.7295 62.4315L19.5019 64.1081C19.5031 64.1088 19.5043 64.1092 19.5055 64.1095L19.509 64.1101C19.5111 64.1104 19.5133 64.1107 19.5154 64.1116C19.5171 64.1127 19.5179 64.114 19.5187 64.1154C19.5195 64.1168 19.5203 64.1181 19.522 64.1192L22.3908 65.4536L22.4778 65.4959C22.4847 65.4992 22.4931 65.4976 22.5012 65.5003C22.5017 65.5006 22.5022 65.5009 22.5027 65.5013C22.5032 65.5017 22.5037 65.5022 22.5042 65.5028L22.5052 65.504C22.5066 65.5059 22.5082 65.5079 22.5113 65.5091L22.6347 65.545L25.624 66.5647C25.6279 66.5665 25.6319 66.5622 25.6358 66.5639C25.6374 66.5643 25.6385 66.5651 25.6396 66.566L25.6418 66.5683C25.643 66.5696 25.6443 66.5707 25.6464 66.5711L28.7324 67.2738L28.8859 67.317C28.891 67.3186 28.8961 67.3171 28.9011 67.3156C28.9056 67.3143 28.9101 67.313 28.9148 67.3136C28.9161 67.3138 28.9173 67.314 28.9185 67.3144C28.9197 67.3148 28.9208 67.3153 28.9219 67.3158C28.9238 67.3167 28.9257 67.3179 28.9275 67.3191C28.9321 67.3219 28.9366 67.3248 28.9425 67.3242L29.0714 67.3264L32.2402 67.7089C32.2424 67.709 32.2445 67.7083 32.2466 67.7075C32.2487 67.7068 32.2508 67.7061 32.253 67.7062C32.2543 67.7063 32.2555 67.7071 32.2567 67.7079C32.2583 67.7091 32.2601 67.7103 32.2624 67.7101L35.4537 67.7723L35.5922 67.7909C35.5965 67.7914 35.6005 67.7911 35.6044 67.7903C35.6086 67.7895 35.6127 67.7881 35.6168 67.7868C35.6225 67.7849 35.6283 67.783 35.6346 67.7824C35.6402 67.7821 35.6452 67.7838 35.65 67.7855C35.6555 67.7873 35.6608 67.7892 35.6665 67.788L35.8145 67.7573L39.0327 67.5048C39.0356 67.5049 39.0379 67.5042 39.04 67.5033L39.0415 67.5026C39.0435 67.5018 39.0454 67.5009 39.0476 67.5009C39.0511 67.4995 39.0529 67.5025 39.0564 67.5024L42.3989 66.9011C42.4049 66.9003 42.4095 66.8957 42.4157 66.8941L42.418 66.8949C42.4195 66.8955 42.421 66.8962 42.4231 66.8958L45.7193 65.9522C45.7203 65.9519 45.7212 65.9516 45.7221 65.9512C45.7227 65.951 45.7233 65.9507 45.7239 65.9505C45.7259 65.9496 45.7278 65.9485 45.7296 65.9475L45.733 65.9457C45.7339 65.9452 45.7348 65.9448 45.7357 65.9444C45.7363 65.9442 45.7368 65.944 45.7374 65.9438L45.7418 65.9439L48.8895 64.6895L48.9085 64.6852C48.93 64.6802 48.9511 64.672 48.9683 64.6621L48.9696 64.6594L48.9726 64.6596L49.0076 64.6395L52.0152 63.0993C52.0168 63.0987 52.0185 63.0979 52.0201 63.0971L52.0258 63.094C52.0273 63.0931 52.029 63.0921 52.0307 63.0911C52.0324 63.09 52.0342 63.0888 52.0357 63.0876L54.8881 61.2584L54.9231 61.2383C54.9425 61.2272 54.9617 61.2121 54.9774 61.1958L54.9907 61.1816L57.6553 59.0941L57.6579 59.0899C57.6624 59.0854 57.6695 59.0826 57.6729 59.0787L60.1329 56.7127C60.1329 56.7127 60.1339 56.7095 60.1361 56.7069C60.1369 56.706 60.1379 56.7052 60.1389 56.7044L60.1426 56.7018C60.1452 56.6999 60.1479 56.6979 60.1499 56.695L62.3532 54.1077C62.3538 54.107 62.3541 54.1063 62.3543 54.1056C62.3546 54.1047 62.3547 54.1039 62.3547 54.1031L62.3549 54.1018C62.3551 54.1009 62.3554 54.1 62.3563 54.0993C62.3589 54.0952 62.3651 54.0936 62.3672 54.0884L64.1884 51.4434L64.288 51.3318C64.2916 51.3276 64.2925 51.3228 64.2933 51.3182C64.2938 51.3157 64.2942 51.3132 64.2951 51.3108C64.2957 51.3093 64.2965 51.3077 64.2976 51.3063C64.3009 51.3012 64.3053 51.2974 64.3096 51.2937L64.3131 51.2906C64.3157 51.2882 64.3181 51.2858 64.3201 51.283C64.3206 51.2823 64.3211 51.2815 64.3216 51.2807C64.3223 51.2795 64.323 51.2782 64.3236 51.2768L64.3858 51.1428L65.9309 48.3521C65.9313 48.3516 65.9315 48.3511 65.9317 48.3506C65.9318 48.3503 65.9319 48.3499 65.9319 48.3496C65.9321 48.3488 65.9321 48.3479 65.932 48.3471L65.9319 48.3461C65.9318 48.3446 65.9317 48.3432 65.9323 48.342C65.9326 48.3414 65.933 48.3408 65.9335 48.3402C65.9338 48.3398 65.9341 48.3395 65.9344 48.3392L65.9366 48.3372C65.9373 48.3366 65.938 48.336 65.9386 48.3354C65.9395 48.3345 65.9404 48.3335 65.941 48.3323L67.1928 45.4082L67.2554 45.2959C67.2614 45.2865 67.2553 45.276 67.26 45.2667C67.2638 45.2572 67.2752 45.2533 67.2774 45.2435L67.3166 45.0895L68.2485 42.0767C68.2492 42.0742 68.2486 42.0723 68.248 42.0703C68.2474 42.0683 68.2468 42.0664 68.2476 42.0639C68.2478 42.0619 68.2492 42.0605 68.2507 42.0592C68.2512 42.0588 68.2516 42.0584 68.2521 42.0579C68.2524 42.0576 68.2527 42.0572 68.253 42.0569C68.2532 42.0565 68.2535 42.0562 68.2536 42.0558C68.2539 42.0553 68.2541 42.0548 68.2541 42.0542C68.2541 42.0545 68.2542 42.0539 68.2541 42.0542L68.862 38.9662L68.8925 38.8418C68.893 38.8398 68.8926 38.8381 68.8921 38.8364L68.8912 38.8342C68.8904 38.8323 68.8897 38.8306 68.8899 38.8287L68.8909 38.8251L68.8926 38.8208C68.8948 38.8159 68.8973 38.8113 68.8977 38.8063L68.9044 38.7102L69.1588 35.578C69.1592 35.5751 69.1559 35.5731 69.1564 35.5701C69.1563 35.5683 69.157 35.5665 69.1578 35.5646L69.1589 35.5612C69.1592 35.5601 69.1594 35.559 69.1593 35.5578L69.0982 32.3223C69.0981 32.3202 69.097 32.3188 69.096 32.3175C69.095 32.3163 69.0941 32.3152 69.0938 32.3135C69.0938 32.313 69.0938 32.3125 69.0938 32.3119C69.0938 32.3116 69.0939 32.3112 69.094 32.3108L69.0948 32.3077C69.0956 32.3052 69.0964 32.3027 69.0959 32.2997L68.6806 29.1032C68.6802 29.0988 68.675 29.0971 68.6749 29.0932C68.6741 29.0912 68.6747 29.089 68.6753 29.0868C68.6759 29.0848 68.6764 29.0829 68.6759 29.0814L67.906 25.9786C67.9057 25.9778 67.9052 25.9771 67.9046 25.9764L67.9029 25.9749C67.9022 25.9743 67.9013 25.9736 67.9006 25.9727C67.9 25.972 67.8994 25.9712 67.8989 25.9701C67.8975 25.9663 67.9006 25.9605 67.8991 25.9567L66.7711 22.9677C66.7703 22.9656 66.7687 22.9645 66.7672 22.9635C66.766 22.9626 66.7648 22.9618 66.7641 22.9605C66.7637 22.9595 66.7636 22.9584 66.7637 22.9574L66.764 22.9549C66.7642 22.9537 66.7644 22.9525 66.7643 22.9513C66.7642 22.9502 66.764 22.9492 66.7634 22.9482L65.4091 20.2558L65.3355 20.1077C65.3329 20.1032 65.3277 20.1029 65.3253 20.0989C65.3248 20.0979 65.3245 20.0968 65.3244 20.0956C65.3242 20.0934 65.3244 20.091 65.3239 20.0886C65.3236 20.0877 65.3233 20.0867 65.3228 20.0858L65.2308 19.9482L63.5616 17.4256C63.5606 17.4238 63.5585 17.4231 63.5564 17.4225C63.5549 17.422 63.5529 17.4208 63.5519 17.4199C63.5507 17.4184 63.5506 17.4167 63.5506 17.415C63.5505 17.413 63.5504 17.411 63.5486 17.4092L61.5181 14.9503C61.5177 14.9497 61.5171 14.9493 61.5166 14.949C61.5155 14.9484 61.5143 14.9481 61.5131 14.9477C61.5116 14.9473 61.51 14.9469 61.5087 14.946C61.5079 14.9456 61.5073 14.945 61.5067 14.9442C61.5054 14.9426 61.505 14.9407 61.5046 14.9388C61.5042 14.9368 61.5038 14.9349 61.5025 14.9333L59.1852 12.711C59.1847 12.7105 59.1842 12.7101 59.1836 12.7098C59.183 12.7094 59.1823 12.7092 59.1816 12.7091L59.1799 12.7087C59.1791 12.7086 59.1782 12.7085 59.1775 12.7082C59.177 12.7081 59.1765 12.7079 59.176 12.7076C59.1755 12.7073 59.175 12.707 59.1746 12.7065C59.1728 12.7052 59.1722 12.7033 59.1716 12.7012C59.1709 12.6991 59.1701 12.6968 59.168 12.695L56.5958 10.7386C56.5947 10.7379 56.5935 10.7375 56.5923 10.7372C56.5915 10.737 56.5906 10.7369 56.5897 10.7368C56.5876 10.7366 56.5855 10.7363 56.5836 10.735C56.5825 10.7342 56.5817 10.7332 56.5811 10.7321C56.5807 10.7314 56.5804 10.7307 56.5801 10.7299C56.5794 10.7283 56.5788 10.7267 56.5773 10.7254L53.799 9.0633C53.7993 9.0624 53.7989 9.06222 53.7981 9.06227L53.7969 9.06244C53.7955 9.06267 53.7937 9.06298 53.792 9.06239ZM57.2937 24.7306L58.3117 26.7737C58.3123 26.7747 58.3124 26.7757 58.3123 26.7767C58.3123 26.7776 58.3121 26.7785 58.312 26.7794C58.3116 26.7816 58.3112 26.7839 58.3124 26.786C58.3129 26.7875 58.3144 26.7884 58.3158 26.7893C58.3175 26.7903 58.3191 26.7913 58.3194 26.7932L59.1139 28.9408C59.1144 28.9424 59.114 28.944 59.1136 28.9458C59.113 28.9478 59.1125 28.9501 59.1134 28.9524C59.1141 28.9542 59.1156 28.9552 59.117 28.9563C59.1181 28.9572 59.1193 28.9582 59.1199 28.9599L59.6866 31.1776C59.6873 31.1807 59.6867 31.1834 59.6862 31.186C59.6857 31.1884 59.6852 31.1908 59.6857 31.1934C59.6859 31.1956 59.6874 31.1971 59.6888 31.1986C59.6901 31.2 59.6914 31.2014 59.6915 31.2033L59.9713 33.5042C59.9719 33.5071 59.9711 33.5093 59.9703 33.5113C59.9697 33.513 59.969 33.5147 59.9692 33.5167C59.969 33.5182 59.97 33.5195 59.971 33.5207C59.9719 33.5217 59.9727 33.5227 59.9727 33.5239L60.0271 35.8357C60.0271 35.837 60.0268 35.8383 60.0264 35.8395C60.0261 35.8406 60.0257 35.8417 60.0253 35.8427C60.0248 35.8439 60.0244 35.8451 60.024 35.8464C60.0237 35.8472 60.0235 35.8482 60.0234 35.8491C60.0229 35.852 60.0263 35.8541 60.0258 35.857L59.8359 38.1905C59.8358 38.1952 59.8313 38.1998 59.8301 38.2051C59.8302 38.209 59.8332 38.2106 59.8325 38.2143L59.3666 40.5161C59.3662 40.5203 59.3615 40.521 59.3611 40.5239C59.3608 40.5249 59.3607 40.5258 59.3607 40.5267C59.3608 40.5279 59.3612 40.529 59.3615 40.5301C59.3618 40.5312 59.3621 40.5322 59.3622 40.5333C59.3622 40.5342 59.3621 40.5351 59.3617 40.5361L58.6642 42.8158C58.6627 42.8206 58.6575 42.8216 58.656 42.8264C58.6558 42.8288 58.6565 42.8308 58.6568 42.8328C58.657 42.8344 58.657 42.836 58.6561 42.8377L57.731 45.0344C57.7295 45.0393 57.7243 45.0403 57.7217 45.0457C57.7194 45.0491 57.7217 45.0531 57.7204 45.0571L56.546 47.159C56.5447 47.1611 56.5427 47.1627 56.5407 47.1644C56.5387 47.166 56.5367 47.1677 56.5351 47.1699C56.5338 47.1726 56.5356 47.1756 56.5329 47.1785L55.1406 49.1681C55.1398 49.1693 55.1389 49.1703 55.1379 49.1712C55.1371 49.1721 55.1361 49.1728 55.1351 49.1736C55.1336 49.1749 55.132 49.1762 55.1305 49.1779C55.1301 49.1786 55.1299 49.1794 55.1298 49.1801C55.1297 49.1805 55.1296 49.1809 55.1296 49.1813C55.1293 49.1831 55.129 49.1847 55.1277 49.1854L53.5556 51.0409C53.5514 51.046 53.5457 51.0486 53.5412 51.0532C53.5405 51.0547 53.5402 51.0562 53.5398 51.0576C53.5395 51.0587 53.5391 51.0597 53.5384 51.0607L51.7631 52.7463C51.7597 52.7498 51.7561 52.7522 51.7523 52.7548L51.7487 52.7573L51.7461 52.7614L49.8058 54.2937L49.8004 54.2976C49.7965 54.3005 49.7924 54.3034 49.7884 54.3057L47.7285 55.6327C47.725 55.6354 47.7213 55.6376 47.718 55.6394C47.7148 55.6413 47.711 55.6434 47.707 55.6451L45.5138 56.7635L45.5084 56.7664C45.5033 56.7691 45.4985 56.7712 45.4941 56.7728L43.1915 57.68L43.1865 57.6802L43.1826 57.682C43.1785 57.684 43.1745 57.6859 43.1698 57.6871L40.8163 58.3754C40.8139 58.3761 40.8114 58.3743 40.8083 58.374C40.8021 58.3756 40.7973 58.3797 40.7905 58.3803L38.3909 58.8084C38.3896 58.8092 38.388 58.8086 38.3863 58.808C38.3853 58.8076 38.3841 58.8071 38.3829 58.807C38.381 58.8073 38.3793 58.808 38.3775 58.8088C38.3751 58.8098 38.3727 58.8109 38.3693 58.8109L35.9429 59.0169C35.9417 59.017 35.9406 59.0168 35.9397 59.0164C35.939 59.0162 35.9384 59.0158 35.9378 59.0155C35.9366 59.0149 35.9356 59.0144 35.9344 59.0145C35.9315 59.0149 35.9291 59.0157 35.9268 59.0166C35.9243 59.0175 35.922 59.0183 35.9194 59.0184L33.5044 58.9803C33.5021 58.9803 33.5003 58.979 33.4986 58.9779C33.497 58.9768 33.4955 58.9758 33.4938 58.9758C33.4883 58.975 33.4844 58.9792 33.4794 58.9781L31.1065 58.6776C31.1041 58.6775 31.1027 58.6762 31.1013 58.6749C31.1 58.6737 31.0988 58.6725 31.0968 58.6719C31.0941 58.6718 31.0916 58.6729 31.0891 58.6736C31.0875 58.6741 31.086 58.6745 31.0845 58.6743L28.7441 58.1414C28.7416 58.1408 28.7402 58.1394 28.7389 58.138C28.7376 58.1366 28.7362 58.1353 28.7337 58.1347C28.7299 58.1329 28.727 58.1366 28.7225 58.1352L26.4879 57.3861C26.4863 57.3858 26.4855 57.3847 26.4847 57.3834C26.4838 57.3821 26.4829 57.3805 26.4811 57.3794C26.4788 57.3787 26.4762 57.3786 26.4737 57.3785C26.4706 57.3784 26.4678 57.3783 26.4655 57.3771L24.3413 56.3742C24.3399 56.3736 24.3392 56.3724 24.3384 56.3712C24.338 56.3704 24.3376 56.3697 24.3371 56.3691C24.3367 56.3687 24.3362 56.3684 24.3356 56.3681C24.3334 56.3669 24.331 56.3666 24.3286 56.3662C24.3265 56.3659 24.3243 56.3655 24.3221 56.3646L22.3389 55.1619C22.3371 55.1607 22.3365 55.1591 22.3359 55.1576C22.3357 55.1569 22.3354 55.1563 22.3351 55.1558C22.3348 55.1552 22.3344 55.1546 22.3338 55.1542C22.3318 55.1528 22.3296 55.1524 22.3274 55.152C22.3256 55.1516 22.3237 55.1512 22.3222 55.1503L20.4693 53.7538C20.4681 53.753 20.4674 53.7518 20.4669 53.7506C20.4666 53.75 20.4664 53.7493 20.4662 53.7486C20.4657 53.7467 20.4651 53.7449 20.4635 53.7439C20.4615 53.7422 20.4592 53.7414 20.4568 53.7406C20.4543 53.7398 20.4517 53.7389 20.4493 53.7368L18.8041 52.1392C18.8028 52.1376 18.8026 52.1359 18.8024 52.1342C18.8022 52.1326 18.8019 52.1311 18.8008 52.1298C18.7997 52.1283 18.7983 52.1275 18.7969 52.127C18.7962 52.1268 18.7954 52.1266 18.7947 52.1264C18.7931 52.126 18.7916 52.1257 18.7906 52.1245L17.3201 50.3655C17.3197 50.3649 17.3194 50.3642 17.3192 50.3635C17.319 50.3627 17.319 50.3617 17.319 50.3608C17.3189 50.3589 17.3189 50.357 17.3174 50.3558C17.3154 50.3523 17.3094 50.3531 17.3071 50.3491L16.0393 48.4496C16.038 48.4473 16.038 48.4449 16.0379 48.4426C16.0379 48.4405 16.0379 48.4384 16.0368 48.4365C16.0358 48.4348 16.0341 48.4338 16.0323 48.4327C16.0302 48.4314 16.028 48.4301 16.0266 48.4277L15.0041 46.3767C15.002 46.3732 15.006 46.3689 15.0034 46.3644C15.0025 46.362 14.9994 46.3612 14.9976 46.3594C14.997 46.3588 14.9965 46.3581 14.9964 46.3572L14.2065 44.2175C14.2053 44.2142 14.2087 44.2102 14.2072 44.2064C14.2063 44.204 14.2044 44.2029 14.2027 44.2014C14.2017 44.2005 14.2008 44.1995 14.2001 44.1979L13.6335 41.9802C13.6324 41.9777 13.6332 41.9753 13.6341 41.973C13.6348 41.9709 13.6355 41.9689 13.635 41.9668C13.6348 41.9646 13.6332 41.9628 13.6316 41.961C13.6301 41.9593 13.6285 41.9575 13.6283 41.9553L13.3355 39.6506C13.3353 39.6485 13.3361 39.6469 13.3369 39.6453C13.3379 39.6433 13.3389 39.6412 13.3384 39.6383C13.3383 39.6362 13.3373 39.6348 13.3362 39.6335C13.3353 39.6323 13.3343 39.6312 13.334 39.6295L13.2797 37.3177C13.2796 37.3159 13.2805 37.3144 13.2815 37.3128C13.2826 37.311 13.2836 37.3093 13.2834 37.3069C13.2835 37.3046 13.2826 37.303 13.2816 37.3013C13.2813 37.3008 13.281 37.3002 13.2807 37.2996C13.2802 37.2985 13.2798 37.2973 13.2798 37.2957L13.4752 34.9717C13.4754 34.9696 13.4767 34.9678 13.4781 34.966C13.4791 34.9647 13.4801 34.9634 13.4808 34.9618C13.4812 34.961 13.4815 34.9602 13.4817 34.9593C13.4819 34.9574 13.4811 34.9557 13.4804 34.9539C13.4795 34.9519 13.4786 34.95 13.4791 34.9475L13.9451 32.6458C13.9453 32.6435 13.9467 32.6421 13.9482 32.6406C13.9495 32.6393 13.9508 32.638 13.9516 32.6361C13.9517 32.635 13.9516 32.6339 13.9514 32.6329C13.9512 32.632 13.9509 32.6311 13.9507 32.6302C13.9501 32.6282 13.9495 32.6263 13.9499 32.6244L14.6567 30.3395C14.6572 30.3378 14.6588 30.3364 14.6605 30.3349C14.6622 30.3335 14.6639 30.332 14.6649 30.3301C14.665 30.3293 14.6649 30.3285 14.6648 30.3277C14.6647 30.3269 14.6646 30.3262 14.6644 30.3254C14.664 30.3232 14.6636 30.3212 14.6648 30.3189L15.5899 28.1221C15.5908 28.1192 15.593 28.1177 15.5954 28.1161C15.597 28.115 15.5986 28.1139 15.6 28.1123C15.6007 28.1101 15.6006 28.108 15.6004 28.1059C15.6003 28.1035 15.6001 28.1011 15.6012 28.0984L16.7814 26.0064C16.7825 26.0045 16.7842 26.0035 16.786 26.0025C16.7877 26.0015 16.7895 26.0005 16.7905 25.9985C16.7918 25.9964 16.792 25.9945 16.7921 25.9926C16.7922 25.9909 16.7923 25.9892 16.7934 25.9876L18.1803 23.9885C18.1816 23.9867 18.1836 23.9858 18.1856 23.9849C18.1868 23.9844 18.1881 23.9838 18.1891 23.9831C18.1895 23.9828 18.1899 23.9825 18.1902 23.9821C18.1909 23.9813 18.1913 23.9804 18.1916 23.9796C18.1925 23.9768 18.1918 23.9741 18.194 23.9713L19.7661 22.1159C19.7675 22.1141 19.7696 22.1134 19.7718 22.1126C19.773 22.1121 19.7743 22.1117 19.7756 22.111C19.7766 22.1104 19.7776 22.1097 19.7785 22.1087C19.7799 22.1069 19.7805 22.1048 19.781 22.1026C19.7814 22.1013 19.7817 22.0999 19.7823 22.0987C19.7826 22.0979 19.7831 22.0972 19.7836 22.0965L21.5589 20.4109C21.5604 20.409 21.5626 20.4084 21.5646 20.4078C21.5657 20.4075 21.5668 20.4072 21.5677 20.4068C21.5683 20.4064 21.5689 20.4061 21.5694 20.4055C21.5711 20.4042 21.5718 20.4023 21.5725 20.4004C21.5732 20.3985 21.5739 20.3966 21.5756 20.3953L23.5159 18.8631C23.5175 18.8621 23.5191 18.8619 23.5207 18.8617C23.5229 18.8614 23.5251 18.8611 23.5272 18.8592C23.5291 18.8581 23.53 18.8564 23.5308 18.8548C23.5316 18.8531 23.5325 18.8515 23.5344 18.8504L25.5986 17.5096C25.601 17.5079 25.6033 17.5077 25.6056 17.5075C25.6077 17.5073 25.6099 17.5071 25.6122 17.5058C25.6145 17.5044 25.6159 17.5026 25.6172 17.5008C25.6186 17.4988 25.6199 17.497 25.6223 17.496L27.8106 16.3917C27.8144 16.3896 27.8177 16.3916 27.8218 16.39C27.8239 16.3891 27.8251 16.3877 27.8264 16.3861C27.8276 16.3847 27.8288 16.3833 27.8309 16.3821L30.1335 15.4749C30.1355 15.4741 30.1375 15.4744 30.1395 15.4748C30.1408 15.475 30.1422 15.4752 30.1435 15.4751C30.1442 15.475 30.1448 15.4749 30.1455 15.4746C30.147 15.4741 30.148 15.473 30.1492 15.4719C30.1507 15.4704 30.1524 15.4688 30.1554 15.4682L32.5089 14.78C32.5112 14.7796 32.5134 14.7802 32.5155 14.7808C32.5176 14.7814 32.5198 14.782 32.5221 14.7817C32.525 14.781 32.527 14.7794 32.5288 14.7778C32.5296 14.7771 32.5305 14.7764 32.5313 14.7758C32.5323 14.7752 32.5333 14.7747 32.5345 14.7746L34.934 14.3465C34.9362 14.3456 34.9379 14.3464 34.9398 14.3473C34.9414 14.3481 34.9431 14.3489 34.9453 14.3486C34.9475 14.3484 34.9493 14.3471 34.9511 14.3458C34.9526 14.3447 34.9541 14.3436 34.9558 14.3432L37.3877 14.1467C37.3897 14.1465 37.3912 14.1473 37.3928 14.1481C37.3945 14.149 37.3963 14.15 37.3988 14.1496C37.401 14.1497 37.4027 14.1487 37.4045 14.1477C37.4062 14.1467 37.408 14.1457 37.4101 14.1457L39.8194 14.1739C39.821 14.1741 39.8223 14.1746 39.8235 14.1752C39.8245 14.1757 39.8255 14.1763 39.8264 14.177C39.8282 14.1781 39.8299 14.1793 39.8322 14.1798C39.833 14.1797 39.8338 14.1794 39.8346 14.1791C39.8356 14.1788 39.8366 14.1783 39.8376 14.1778C39.839 14.1771 39.8404 14.1764 39.8419 14.1761C39.8432 14.1757 39.8444 14.1757 39.8458 14.176L42.2187 14.4765C42.2211 14.4766 42.2224 14.4779 42.2239 14.4792C42.2251 14.4803 42.2264 14.4815 42.2284 14.4822C42.2309 14.4827 42.233 14.482 42.2351 14.4813C42.2372 14.4806 42.2393 14.4799 42.2418 14.4805L44.573 15.0187C44.5755 15.0188 44.5767 15.0203 44.578 15.0218C44.579 15.023 44.58 15.0243 44.5817 15.025C44.5836 15.0259 44.5854 15.0254 44.5871 15.0249C44.5889 15.0244 44.5907 15.0238 44.5929 15.0245L46.8275 15.7736C46.8293 15.7744 46.8304 15.7759 46.8316 15.7774C46.8328 15.7792 46.8341 15.7809 46.8365 15.7817C46.8417 15.7833 46.8461 15.7808 46.8505 15.7823L48.9692 16.7758C48.9734 16.778 48.973 16.7823 48.9771 16.7845C48.979 16.7858 48.9811 16.7858 48.9832 16.7857C48.9842 16.7857 48.9852 16.7857 48.9861 16.7858C48.9869 16.786 48.9877 16.7862 48.9884 16.7866L50.9716 17.9894C50.9734 17.9905 50.974 17.9921 50.9747 17.9937C50.975 17.9945 50.9753 17.9954 50.9758 17.9962C50.9761 17.9967 50.9765 17.9971 50.977 17.9976C50.9791 17.999 50.9814 17.9993 50.9836 17.9995C50.9846 17.9996 50.9856 17.9997 50.9866 18C50.9871 18.0001 50.9876 18.0003 50.9881 18.0005L52.854 19.4008C52.8558 19.4021 52.8564 19.404 52.8571 19.406C52.8577 19.4082 52.8585 19.4104 52.8606 19.4123C52.8616 19.4131 52.8626 19.4136 52.8636 19.414C52.8648 19.4145 52.866 19.4148 52.8673 19.4151C52.8696 19.4156 52.8718 19.4161 52.8739 19.4179L54.5191 21.0154C54.5204 21.017 54.5206 21.0186 54.5209 21.0203C54.5212 21.0221 54.5215 21.0239 54.523 21.0258C54.5243 21.0275 54.5264 21.028 54.5284 21.0285C54.5302 21.029 54.5319 21.0294 54.533 21.0307L55.9988 22.7818C56.0011 22.7845 55.9988 22.7891 56.0016 22.7915C56.0031 22.7936 56.0051 22.7942 56.007 22.7949C56.0089 22.7955 56.0107 22.7962 56.0119 22.7982L57.2842 24.7056C57.2852 24.7072 57.2854 24.7089 57.2855 24.7105C57.2856 24.7112 57.2856 24.7119 57.2856 24.7125C57.2856 24.7147 57.2857 24.7168 57.2868 24.7187C57.2873 24.7228 57.289 24.7247 57.2908 24.7268C57.2918 24.7279 57.2928 24.7291 57.2937 24.7306ZM25.2356 54.9574L23.368 53.8197L21.6664 52.5027L20.1245 51.0003L19.9753 50.7259L19.9695 50.4338L20.1003 50.1188L20.5287 49.7634L29.2763 45.2615L30.1867 45.0145L30.9586 44.9498L31.733 45.0406L32.4274 45.2385L33.0599 45.5685L33.6615 46.0315L34.1295 46.5932L34.5199 47.3796L36.0377 53.5362L36.0386 53.5378L36.0387 53.5392L36.3911 54.9003L36.7279 56.2591L36.7076 56.7963L36.545 57.0931L36.3107 57.2833L35.98 57.3637L33.7228 57.3264L31.4794 57.0912L29.3174 56.6067L27.2077 55.9056L25.2356 54.9574ZM18.4783 26.5186L18.7552 26.415L19.1024 26.4298L19.5756 26.674L20.5939 27.6523L21.5972 28.6286L21.5979 28.6296L26.193 33.017L26.6815 33.7469L26.9352 34.4297L27.0423 35.1932L27.0086 35.8921L26.8329 36.5889L26.5255 37.3024L26.0866 37.948L25.4154 38.597L17.1291 43.9001L16.6062 44.0924L16.2668 44.0477L16.0157 43.8966L15.8471 43.6228L15.3233 41.5634L15.0215 39.4184L14.9656 37.2438L15.1271 35.0675L15.5661 32.8961L16.2386 30.7981L17.1444 28.7311L18.246 26.7739L18.4783 26.5186ZM29.9584 25.5564L26.8038 23.1236L25.677 22.2598L24.5582 21.3914L24.2391 20.984L24.187 20.6658L24.2907 20.3895L24.5159 20.1271L26.4304 18.8659L28.4825 17.8105L30.6118 16.9619L32.8268 16.2976L35.0778 15.9108L37.3661 15.7473L39.6328 15.8009L41.838 16.0778L42.1401 16.2065L42.3154 16.4223L42.3972 16.7432L42.2469 17.2502L41.5318 18.5688L40.8249 19.8306L40.8242 19.8332L38.8214 23.4797L37.6087 25.6745L36.9993 26.3829L36.3769 26.8604L35.6671 27.2446L34.9586 27.462L34.2043 27.5714L33.4228 27.5565L32.6723 27.3929L31.8693 27.009L29.9596 25.5557L29.9584 25.5564ZM58.0445 31.578L58.2962 33.6942L58.2351 34.0283L58.0749 34.2808L57.7762 34.4715L57.2394 34.5191L54.3127 34.1774L52.4295 33.9364L52.4274 33.9368L50.1919 33.6732L50.1902 33.6728L47.7216 33.3786L46.8693 33.0934L46.242 32.7106L45.6959 32.1755L45.286 31.6206L45.0093 30.9911L44.8216 30.2606L44.7983 29.5185L44.9755 28.6393L45.9482 26.3573L46.8434 24.3049L46.8433 24.3036L46.8442 24.3024L47.5764 22.5582L48.7426 19.8659L49.0535 19.4234L49.3702 19.261L49.6653 19.2426L49.9832 19.3553L51.706 20.6474L53.2624 22.1197L54.6496 23.7686L55.8444 25.55L56.7915 27.4631L57.5367 29.4924L58.0445 31.578ZM43.433 51.8094L42.8901 47.8643L42.8907 47.8626L42.5824 45.4899L42.6492 44.6039L42.8822 43.8749L43.2606 43.1944L43.7309 42.6004L44.281 42.1048L44.9701 41.6847L45.6964 41.3866L46.6178 41.2164L54.7617 41.3841L56.256 41.4176L56.7736 41.5428L57.0166 41.7822L57.1166 42.0412L57.0772 42.3657L56.2096 44.3987L55.1234 46.3787L53.8425 48.28L52.3754 50.019L50.6905 51.5977L48.8879 53.0097L46.944 54.2519L44.8886 55.274L44.5527 55.344L44.2574 55.2873L44.0113 55.0912L43.8104 54.6017L43.6203 53.2148L43.433 51.8094ZM57.8415 40.5543L57.8395 40.5548L46.5633 40.3173C46.5592 40.3171 46.5554 40.3194 46.5514 40.3218C46.5476 40.3241 46.5437 40.3264 46.5392 40.3269C46.537 40.327 46.5349 40.3266 46.5328 40.3259C46.5311 40.3254 46.5295 40.3247 46.5278 40.324C46.5235 40.3222 46.5191 40.3204 46.5138 40.3211L45.4278 40.5171C45.4222 40.5178 45.4182 40.5228 45.4132 40.5265C45.4113 40.5279 45.4093 40.5291 45.407 40.5298C45.4049 40.5303 45.4029 40.5302 45.4008 40.53C45.3948 40.5292 45.3888 40.5267 45.3826 40.5298L44.5124 40.8669C44.5081 40.8686 44.5054 40.8721 44.5027 40.8755C44.5004 40.8785 44.498 40.8815 44.4946 40.8835C44.4905 40.8858 44.4863 40.8858 44.482 40.8859C44.4773 40.8859 44.4727 40.8859 44.4681 40.8889L43.6535 41.4086C43.6503 41.4104 43.6487 41.4134 43.6471 41.4163C43.6457 41.419 43.6442 41.4217 43.6414 41.4233C43.6391 41.4257 43.6357 41.4261 43.6323 41.4265C43.6288 41.4269 43.6252 41.4273 43.6225 41.4299L43.0144 41.9568C43.0125 41.9586 43.0112 41.9606 43.0102 41.9628C43.0094 41.9646 43.0087 41.9664 43.0081 41.9684C43.0068 41.9722 43.0055 41.9762 43.0026 41.9798C42.9998 41.9827 42.9959 41.9842 42.992 41.9857C42.9871 41.9876 42.9822 41.9895 42.9789 41.9941L42.4824 42.6453C42.4805 42.6479 42.4803 42.6508 42.4801 42.6537C42.48 42.6545 42.48 42.6553 42.4799 42.656C42.4797 42.6582 42.4792 42.6603 42.4777 42.6621C42.4764 42.665 42.4738 42.6665 42.4712 42.668C42.4699 42.6687 42.4686 42.6694 42.4675 42.6703C42.4662 42.6713 42.465 42.6725 42.4642 42.6741L42.0145 43.4743C42.0116 43.4787 42.0118 43.4833 42.0121 43.488C42.0123 43.4919 42.0125 43.4958 42.0109 43.4996C42.0096 43.5038 42.0062 43.5068 42.0027 43.5099C41.9991 43.5132 41.9953 43.5165 41.9938 43.5214L41.7303 44.4038C41.7289 44.4082 41.7302 44.4127 41.7315 44.4172C41.7327 44.4213 41.7339 44.4254 41.7331 44.4296C41.7329 44.4317 41.7322 44.4336 41.7312 44.4353C41.7303 44.4371 41.7291 44.4387 41.7279 44.4403C41.7254 44.4436 41.723 44.447 41.7227 44.451L41.6443 45.4915C41.6438 45.4954 41.6459 45.4988 41.648 45.5022C41.6499 45.5054 41.6519 45.5087 41.6519 45.5124C41.6517 45.5162 41.6501 45.5197 41.6484 45.5231C41.6463 45.5274 41.6442 45.5317 41.6454 45.5366L43.0697 56.2005L43.0715 56.2037L43.0707 56.2062L43.1537 56.722L40.6383 57.4374L38.0757 57.9035L37.9723 57.405L37.9702 57.4013L37.9706 57.3969L37.3267 54.8534L36.9778 53.4052L36.9771 53.4042L35.382 46.9868C35.3811 46.9834 35.3785 46.981 35.3758 46.9787C35.3731 46.9764 35.3704 46.9741 35.3696 46.9707C35.3673 46.9628 35.3723 46.9557 35.3686 46.948L34.942 46.0467C34.9406 46.044 34.9385 46.042 34.9362 46.0403C34.9348 46.0393 34.9333 46.0384 34.9317 46.0375C34.9279 46.0352 34.9241 46.0329 34.9217 46.0288C34.9195 46.0256 34.9191 46.0215 34.9187 46.0172C34.9183 46.0121 34.9178 46.0069 34.9142 46.0029L34.3433 45.3224C34.3376 45.3165 34.3283 45.3176 34.3221 45.3121C34.317 45.3073 34.3185 45.2994 34.3123 45.2938L33.6076 44.7409C33.6016 44.7359 33.5921 44.7393 33.5865 44.7348C33.5834 44.7332 33.5818 44.7304 33.5802 44.7275C33.5785 44.7243 33.5768 44.7211 33.573 44.7193L32.8768 44.3634C32.8725 44.3606 32.8679 44.361 32.8632 44.3615C32.8597 44.3618 32.8561 44.3621 32.8526 44.3611C32.8494 44.3598 32.8473 44.3571 32.8453 44.3545C32.8437 44.3525 32.8422 44.3505 32.8402 44.3491C32.8391 44.3483 32.8378 44.3477 32.8362 44.3473L32.0866 44.134C32.0828 44.1327 32.0792 44.1339 32.0755 44.135C32.0724 44.136 32.0693 44.137 32.066 44.1367C32.0628 44.1359 32.0603 44.134 32.0577 44.132C32.0548 44.1296 32.0517 44.1272 32.0472 44.1264L31.1182 44.0303C31.1138 44.0293 31.1101 44.0312 31.1064 44.033C31.1035 44.0345 31.1005 44.036 31.0972 44.036C31.0946 44.0361 31.0925 44.0353 31.0905 44.0342C31.0894 44.0337 31.0885 44.0331 31.0875 44.0325C31.0845 44.0307 31.0816 44.0288 31.0778 44.0289L30.1438 44.0869C30.1376 44.0874 30.133 44.0906 30.1286 44.0938C30.1247 44.0965 30.1209 44.0992 30.1163 44.0998C30.1121 44.1007 30.1079 44.0996 30.1036 44.0984C30.0983 44.097 30.0928 44.0955 30.087 44.0977L29.0462 44.419C29.0421 44.4201 29.0392 44.4233 29.0363 44.4266C29.0341 44.429 29.0319 44.4314 29.0292 44.4329C29.0257 44.434 29.0221 44.4337 29.0186 44.4333C29.0143 44.4329 29.01 44.4324 29.0058 44.4345L22.697 47.6601L22.6944 47.6609L21.2716 48.403L19.9824 49.0697L18.7829 49.6826L18.7815 49.6855L18.7783 49.6853L18.2655 49.9618L16.9425 47.9173L15.8223 45.7476L16.3201 45.4516L16.3275 45.4473L17.4603 44.7193L18.6847 43.9408L26.0019 39.2546L26.0033 39.2517C26.0146 39.2438 26.0258 39.2367 26.0365 39.2263L26.8362 38.4893C26.8394 38.4867 26.8402 38.4836 26.841 38.4806C26.8412 38.4796 26.8414 38.4786 26.8418 38.4777C26.8422 38.4763 26.8428 38.475 26.8439 38.4737C26.8473 38.4704 26.851 38.4676 26.8546 38.4648C26.8614 38.4596 26.8682 38.4544 26.8732 38.4469L27.3964 37.6804C27.3987 37.6773 27.3987 37.6738 27.3988 37.6703C27.3989 37.6672 27.399 37.6641 27.4005 37.6612C27.4024 37.6579 27.4054 37.6554 27.4085 37.6528C27.4121 37.6498 27.4157 37.6468 27.4177 37.6422L27.7924 36.7824C27.7945 36.779 27.7938 36.7755 27.793 36.7719C27.7923 36.7688 27.7916 36.7654 27.7927 36.7618C27.7933 36.7604 27.7943 36.7592 27.7954 36.7581C27.7966 36.7569 27.7979 36.7559 27.7992 36.7549C27.8023 36.7526 27.8052 36.7503 27.8059 36.7465L27.9952 35.9933C27.996 35.9907 27.9952 35.9883 27.9944 35.9859C27.994 35.9849 27.9937 35.9839 27.9934 35.9829C27.9931 35.9814 27.993 35.9799 27.9933 35.9782C27.9941 35.9745 27.9956 35.9708 27.9972 35.9669C27.9993 35.9616 28.0016 35.956 28.0021 35.95L28.0407 35.1716C28.0408 35.1701 28.0404 35.1686 28.0398 35.1672C28.0392 35.1658 28.0383 35.1644 28.0374 35.1629C28.0358 35.1603 28.0341 35.1576 28.0338 35.1545C28.0335 35.1511 28.0348 35.1476 28.0361 35.144C28.0376 35.1397 28.0392 35.1352 28.0383 35.1308L27.9046 34.2376C27.9045 34.2339 27.9022 34.2317 27.8999 34.2294C27.8988 34.2284 27.8978 34.2274 27.8969 34.2262C27.896 34.2251 27.8953 34.2237 27.8949 34.2221C27.8944 34.219 27.8951 34.2157 27.8958 34.2122C27.8967 34.2076 27.8976 34.2029 27.8962 34.1981L27.6007 33.384C27.5989 33.3789 27.5947 33.3759 27.5903 33.3728C27.5866 33.3702 27.5827 33.3674 27.5803 33.3633C27.5788 33.36 27.5788 33.356 27.5789 33.3518C27.5789 33.3469 27.579 33.342 27.5764 33.3381L26.9949 32.5005C26.9928 32.498 26.9893 32.4968 26.9859 32.4955C26.9823 32.4941 26.9787 32.4928 26.9766 32.49C26.974 32.4873 26.9733 32.484 26.9725 32.4804C26.9718 32.4768 26.9709 32.4729 26.9679 32.4696L22.1896 27.8936L22.1887 27.892L21.1037 26.8669L19.2139 25.0399L19.2097 25.038L19.2079 25.0349L18.8207 24.6884L20.5125 22.7203L22.3877 20.9007L22.7978 21.2354L22.8019 21.2373L22.8038 21.2405L31.3653 27.8008C31.3692 27.804 31.3742 27.805 31.3792 27.8061C31.3833 27.807 31.3875 27.8078 31.3911 27.8099C31.3943 27.8115 31.3959 27.8143 31.3975 27.817C31.399 27.8197 31.4006 27.8224 31.4037 27.8238L32.3476 28.2764C32.353 28.2789 32.3593 28.2795 32.3659 28.2802C32.3708 28.2807 32.3759 28.2812 32.3809 28.2826C32.3835 28.2834 32.3854 28.2855 32.3872 28.2876C32.3884 28.2889 32.3896 28.2902 32.391 28.2913C32.392 28.2921 32.3932 28.2927 32.3946 28.293L33.2885 28.4979C33.2908 28.4986 33.2932 28.4985 33.2955 28.4981C33.2975 28.4977 33.2995 28.4971 33.3016 28.4965C33.3056 28.4953 33.3097 28.494 33.3139 28.4946C33.3183 28.4946 33.3215 28.4966 33.3249 28.4987C33.328 28.5006 33.3313 28.5026 33.3357 28.5032L34.2618 28.5249C34.2657 28.5253 34.2692 28.5239 34.2729 28.5225C34.2761 28.5212 34.2794 28.5199 34.2832 28.5197C34.2854 28.5194 34.2873 28.5204 34.2894 28.5215C34.2917 28.5228 34.2942 28.5242 34.2975 28.5234L35.1114 28.4262C35.1199 28.4254 35.1271 28.4223 35.1342 28.4191C35.1366 28.4181 35.139 28.417 35.1415 28.4161C35.1441 28.415 35.1468 28.4141 35.1496 28.4134C35.1512 28.413 35.1527 28.413 35.1541 28.4132C35.1552 28.4133 35.1563 28.4136 35.1574 28.4138C35.1598 28.4143 35.1622 28.4149 35.1653 28.4142L35.9214 28.1427C35.932 28.1387 35.9417 28.1345 35.9512 28.1297L35.9529 28.1288L36.8122 27.6861L36.8219 27.6805C36.8333 27.6739 36.8435 27.6666 36.8537 27.658L37.582 27.076C37.5837 27.0751 37.5843 27.0733 37.5851 27.0713C37.5856 27.0698 37.5862 27.0682 37.5873 27.0667C37.5903 27.0642 37.5934 27.062 37.5965 27.0597C37.6026 27.0553 37.6088 27.0507 37.6147 27.0445L38.3328 26.2139C38.3352 26.2114 38.3358 26.2081 38.3364 26.2048C38.337 26.2016 38.3376 26.1984 38.3398 26.1958C38.3427 26.1914 38.3467 26.1882 38.3507 26.1849C38.3552 26.1814 38.3596 26.1779 38.3623 26.173L41.7106 20.1005L43.7941 16.3322L43.7938 16.3303L43.7955 16.3294L44.0554 15.8409L46.4276 16.6471L48.6988 17.7069L48.4753 18.2097L48.4756 18.2116L48.4739 18.2126L47.9534 19.4312L47.3904 20.7116L47.3896 20.7128L45.0802 26.086L45.0806 26.0879L44.0639 28.4725C44.062 28.4762 44.0629 28.4802 44.0637 28.4843C44.0645 28.4879 44.0653 28.4917 44.0643 28.4955C44.0631 28.4987 44.0607 28.5012 44.0581 28.5038C44.0565 28.5054 44.0549 28.5071 44.0536 28.509C44.0522 28.5108 44.0512 28.5129 44.0507 28.5153L43.8379 29.5324C43.8364 29.5372 43.8383 29.5413 43.8403 29.5456C43.8412 29.5476 43.8422 29.5496 43.8428 29.5518C43.8432 29.5533 43.8435 29.5549 43.8435 29.5566C43.8434 29.5585 43.8429 29.5603 43.8422 29.562C43.8414 29.5638 43.8402 29.5656 43.8391 29.5674C43.8367 29.5712 43.8342 29.5751 43.8344 29.5802L43.8446 30.4691C43.8446 30.4738 43.8472 30.4775 43.8499 30.4813C43.8525 30.4849 43.855 30.4885 43.8555 30.4931C43.8558 30.495 43.8556 30.497 43.8551 30.499C43.8547 30.5007 43.8541 30.5025 43.8535 30.5044C43.852 30.5087 43.8505 30.5132 43.8516 30.5178L44.0695 31.3871C44.0703 31.3905 44.0726 31.3924 44.0749 31.3943C44.0769 31.3959 44.0789 31.3975 44.0801 31.4001C44.0812 31.4039 44.0805 31.4076 44.0799 31.4111C44.0793 31.4147 44.0787 31.418 44.0801 31.4211L44.3863 32.1146C44.3878 32.1186 44.3914 32.1207 44.3951 32.1229C44.3984 32.1248 44.4017 32.1267 44.4036 32.1299C44.4054 32.1332 44.4056 32.137 44.4057 32.1408C44.4059 32.145 44.406 32.1494 44.4086 32.1531L44.8533 32.7548C44.8553 32.7576 44.8586 32.759 44.8619 32.7605C44.8652 32.7619 44.8685 32.7633 44.8705 32.7661C44.8729 32.7682 44.8733 32.771 44.8738 32.7737C44.8742 32.7764 44.8746 32.7792 44.877 32.7813L45.524 33.404C45.5279 33.4077 45.5331 33.4091 45.5384 33.4105C45.5424 33.4116 45.5466 33.4127 45.5502 33.4149C45.5528 33.417 45.5541 33.42 45.5556 33.4231C45.5573 33.4269 45.5592 33.4308 45.5632 33.4335L46.3311 33.8867C46.3362 33.8895 46.3418 33.8904 46.3475 33.8913C46.3516 33.892 46.3557 33.8927 46.3598 33.8942C46.3626 33.8953 46.3642 33.8974 46.3659 33.8995C46.3677 33.9018 46.3696 33.9042 46.3731 33.9055L47.3693 34.2395C47.3716 34.2404 47.3739 34.2404 47.3762 34.2401C47.3776 34.2398 47.3791 34.2394 47.3806 34.2391C47.384 34.2382 47.3876 34.2372 47.3913 34.2381C47.3961 34.2387 47.3993 34.2414 47.4026 34.244C47.4061 34.2468 47.4096 34.2496 47.4149 34.2498L52.2638 34.8278L55.8258 35.2615L55.8272 35.2614L57.223 35.4162L58.5364 35.5678L59.0928 35.634L58.875 38.1199L58.3942 40.5735L57.8415 40.5543ZM42.1916 35.386C42.1991 35.3806 42.2063 35.3754 42.2158 35.3742L42.8126 35.3068C42.8173 35.3064 42.8208 35.3082 42.8243 35.31C42.8273 35.3116 42.8302 35.3131 42.8337 35.313C42.8413 35.3129 42.8474 35.3051 42.8553 35.3055C42.8609 35.3058 42.8651 35.3087 42.8691 35.3116C42.8723 35.3139 42.8755 35.3161 42.8794 35.317C42.8836 35.318 42.8879 35.3169 42.8923 35.3158C42.8969 35.3147 42.9016 35.3136 42.9063 35.3149L43.0058 35.3421L42.9745 35.1019L42.7166 34.2056L42.3187 33.337L41.7623 32.5596L41.1094 31.8861L40.9125 31.7341L40.8873 31.8324C40.8869 31.836 40.8844 31.8384 40.8817 31.8407C40.8788 31.8431 40.8757 31.8456 40.8745 31.8496C40.8731 31.8534 40.8735 31.8572 40.874 31.861C40.8745 31.8651 40.875 31.8692 40.8732 31.8735C40.8712 31.8781 40.8673 31.8813 40.8633 31.8846C40.86 31.8872 40.8567 31.8899 40.8543 31.8935C40.8496 31.8998 40.853 31.907 40.8491 31.9134L40.4981 32.3917C40.4788 32.4175 40.4539 32.4375 40.428 32.4545L40.4249 32.4584L39.9007 32.7731L39.8967 32.7754C39.8825 32.7836 39.8678 32.7899 39.8518 32.7963C39.8499 32.7965 39.8484 32.7961 39.8471 32.7957C39.8452 32.7952 39.8436 32.7947 39.8416 32.7959C39.8357 32.7969 39.8307 32.7996 39.8252 32.8017C39.8223 32.8028 39.8194 32.8037 39.816 32.8042L39.2363 32.9103C39.2314 32.9111 39.2275 32.907 39.2223 32.9072C39.2193 32.9077 39.2163 32.909 39.2131 32.9102C39.2083 32.9121 39.2032 32.9141 39.1981 32.914C39.1944 32.9141 39.1914 32.9123 39.1884 32.9104C39.1855 32.9086 39.1825 32.9068 39.1788 32.9069C39.1706 32.9059 39.1635 32.9121 39.1551 32.9106L38.5855 32.8217C38.5799 32.8214 38.5761 32.8179 38.5723 32.8145C38.5693 32.8116 38.5662 32.8088 38.5622 32.8077C38.5592 32.8065 38.556 32.8063 38.5531 32.8051C38.5496 32.8037 38.5458 32.8048 38.5421 32.8058C38.5383 32.8069 38.5346 32.808 38.5311 32.8065C38.5249 32.8038 38.5247 32.7982 38.5197 32.7948C38.5162 32.793 38.5121 32.7924 38.5079 32.7918C38.5028 32.7911 38.4976 32.7904 38.4934 32.7874L38.0202 32.4672C38.0168 32.4648 38.0152 32.4609 38.0137 32.457C38.0122 32.4533 38.0107 32.4496 38.0077 32.447C38.0048 32.4445 38.001 32.4434 37.997 32.4423C37.9922 32.441 37.9872 32.4396 37.9835 32.4355C37.9796 32.43 37.9814 32.4227 37.9778 32.4177C37.9759 32.4157 37.9732 32.4144 37.9704 32.4131C37.9669 32.4115 37.9634 32.4099 37.9615 32.4067L37.6611 31.9358C37.6594 31.9329 37.6596 31.9293 37.6598 31.9255C37.66 31.9217 37.6601 31.9177 37.6584 31.9141C37.657 31.9116 37.6544 31.91 37.6517 31.9083C37.6487 31.9064 37.6456 31.9045 37.6441 31.9012C37.6427 31.8974 37.6435 31.8936 37.6444 31.8897C37.6453 31.8857 37.6461 31.8817 37.6449 31.8776C37.6442 31.8746 37.642 31.8722 37.6397 31.8695C37.637 31.8665 37.6342 31.8633 37.6333 31.8589L37.5442 31.3051C37.5425 31.2947 37.546 31.2861 37.5497 31.2772C37.5526 31.2702 37.5556 31.2631 37.5561 31.2547C37.5565 31.2476 37.5547 31.241 37.5529 31.2344C37.5505 31.2255 37.5481 31.2167 37.5512 31.2069L37.5845 31.0991L37.7043 30.6588C37.7052 30.6541 37.7083 30.651 37.7113 30.648C37.7139 30.6453 37.7166 30.6427 37.7179 30.639C37.7203 30.6352 37.7199 30.6313 37.7195 30.6271C37.719 30.6229 37.7186 30.6186 37.7209 30.6141C37.7226 30.6096 37.7267 30.607 37.7308 30.6044C37.7341 30.6023 37.7373 30.6002 37.7393 30.5972C37.7417 30.5938 37.742 30.5901 37.7422 30.5865C37.7426 30.5824 37.7429 30.5783 37.7462 30.5749L37.8166 30.4852L37.5554 30.4518L36.5576 30.4536L35.5597 30.6151L34.5903 30.9164L33.6671 31.3748L33.4523 31.5081L33.5364 31.5548C33.5385 31.5557 33.5394 31.5576 33.5403 31.5595C33.5412 31.5615 33.5422 31.5634 33.5442 31.5643C33.5463 31.5658 33.5486 31.5658 33.5508 31.5659C33.5529 31.566 33.5548 31.5661 33.5565 31.5671C33.5618 31.5713 33.5638 31.5766 33.5657 31.582C33.5674 31.5865 33.569 31.5911 33.5727 31.5951C33.5762 31.5978 33.5806 31.5994 33.5851 31.6011C33.5911 31.6033 33.5973 31.6056 33.6016 31.6108L33.9465 32.0667C33.9519 32.0736 33.9522 32.0819 33.9526 32.0902C33.9529 32.0964 33.9532 32.1027 33.9556 32.1086C33.9588 32.1147 33.9636 32.1192 33.9684 32.1236C33.9747 32.1294 33.9808 32.1351 33.9831 32.1442L34.1047 32.6806C34.1052 32.6842 34.1041 32.6878 34.1029 32.6916C34.1017 32.6955 34.1005 32.6996 34.1007 32.704C34.1016 32.7066 34.1032 32.7088 34.1049 32.7111C34.107 32.7139 34.1091 32.7167 34.1093 32.7201C34.1096 32.725 34.1078 32.7298 34.1059 32.7348C34.1044 32.7388 34.1028 32.743 34.1023 32.7474C34.1018 32.7505 34.1032 32.7532 34.1045 32.7558C34.1059 32.7585 34.1072 32.7611 34.1066 32.7639L34.0075 33.3252C34.0069 33.329 34.0041 33.3316 34.0015 33.334C33.9992 33.3361 33.997 33.3382 33.9961 33.3409C33.995 33.3447 33.9958 33.3482 33.9967 33.3518C33.9976 33.3556 33.9986 33.3595 33.9971 33.3636C33.9953 33.3676 33.9919 33.3708 33.9884 33.374C33.9853 33.3769 33.9822 33.3797 33.9802 33.3831C33.9783 33.3866 33.9784 33.3902 33.9784 33.394C33.9785 33.3983 33.9785 33.4026 33.9757 33.4068L33.6578 33.916C33.6543 33.921 33.6498 33.9248 33.6454 33.9285C33.6414 33.9319 33.6374 33.9352 33.6341 33.9395C33.6318 33.9419 33.631 33.9448 33.6302 33.9477C33.6294 33.9506 33.6286 33.9535 33.6262 33.956C33.6201 33.9624 33.6136 33.967 33.6068 33.9719C33.6036 33.9742 33.6003 33.9765 33.597 33.9791C33.5959 33.9811 33.596 33.9839 33.5937 33.9852L33.1156 34.3361C33.1082 34.3417 33.1 34.3472 33.092 34.3518C33.0874 34.3544 33.0823 34.3574 33.078 34.3591C33.078 34.3591 33.077 34.3591 33.0757 34.3593C33.0745 34.3595 33.073 34.3599 33.0719 34.3605C33.057 34.3676 33.0433 34.3741 33.0275 34.3783L32.4337 34.5298C32.4298 34.5309 32.4259 34.5297 32.4218 34.5284C32.4185 34.5274 32.415 34.5263 32.4113 34.5265C32.4067 34.5275 32.4023 34.5292 32.3978 34.5309C32.3904 34.5336 32.3827 34.5365 32.3739 34.5368C32.3692 34.5366 32.3674 34.5334 32.3639 34.5326C32.3613 34.5327 32.3588 34.5337 32.3563 34.5346C32.3537 34.5355 32.3512 34.5364 32.3486 34.5365L31.7689 34.4773C31.7643 34.4772 31.761 34.4748 31.7575 34.4721C31.7546 34.4699 31.7515 34.4676 31.7474 34.4664C31.7415 34.4654 31.7356 34.4645 31.7297 34.4637C31.7132 34.4614 31.6968 34.4592 31.6814 34.451L31.5819 34.3963L31.581 34.3947L31.1877 34.1833C31.1849 34.1819 31.1834 34.1793 31.1819 34.1764C31.1804 34.1737 31.1789 34.1709 31.1762 34.1688C31.1733 34.1671 31.1695 34.1663 31.1655 34.1654C31.1603 34.1643 31.1549 34.1631 31.1513 34.1599C31.148 34.157 31.1467 34.1525 31.1454 34.148C31.1441 34.1438 31.1429 34.1396 31.1402 34.1368C31.1377 34.1342 31.1341 34.1329 31.1303 34.1315C31.1254 34.1296 31.1201 34.1277 31.1168 34.1228L31.0548 34.0367L30.9354 34.2545L30.5695 35.1718L30.3614 36.1328L30.3012 37.0931L30.3955 38.0547L30.4534 38.2844L30.5695 38.1987C30.5734 38.195 30.5796 38.1978 30.5853 38.1945C30.5902 38.191 30.5897 38.185 30.5948 38.182C30.5982 38.1801 30.6018 38.1802 30.6055 38.1803C30.6093 38.1804 30.6133 38.1805 30.617 38.1784C30.6205 38.1774 30.6227 38.1747 30.6249 38.1719C30.6273 38.1689 30.6298 38.1658 30.634 38.1644L31.0611 38.0075C31.064 38.0058 31.066 38.0081 31.0681 38.0077C31.0688 38.0073 31.0694 38.0067 31.0699 38.0061C31.071 38.0048 31.0719 38.0034 31.0734 38.0025L31.2123 37.9599C31.2198 37.9576 31.2268 37.9592 31.2341 37.9609C31.2398 37.9622 31.2457 37.9636 31.2521 37.9631C31.2584 37.9622 31.2639 37.9593 31.2693 37.9564C31.2762 37.9526 31.283 37.9489 31.2915 37.9496L31.8586 37.9647C31.8616 37.9649 31.864 37.9664 31.8664 37.9679C31.869 37.9695 31.8717 37.9711 31.8753 37.9712C31.8782 37.9719 31.8808 37.9709 31.8835 37.9698C31.8866 37.9685 31.8899 37.9672 31.8941 37.9682C31.8987 37.9688 31.9022 37.9718 31.9057 37.975C31.9092 37.978 31.9127 37.9811 31.9174 37.9822C31.9215 37.9837 31.9258 37.9833 31.9302 37.9829C31.9355 37.9823 31.9408 37.9817 31.9459 37.9841L32.4781 38.2198C32.4818 38.2213 32.4837 38.2244 32.4856 38.2276C32.4874 38.2306 32.4892 38.2336 32.4925 38.2354C32.4998 38.2389 32.509 38.235 32.5146 38.2395C32.5186 38.242 32.52 38.2461 32.5213 38.2502C32.5224 38.2533 32.5234 38.2564 32.5257 38.2585C32.5284 38.2608 32.5323 38.2619 32.5363 38.2629C32.541 38.2642 32.5459 38.2655 32.5492 38.2689L32.9254 38.6829C32.9307 38.6883 32.9284 38.6987 32.9324 38.7042C32.9343 38.7068 32.9377 38.7085 32.9412 38.7103C32.9449 38.7121 32.9487 38.714 32.9505 38.717C32.9538 38.7228 32.9498 38.7329 32.9526 38.739C32.9538 38.7424 32.9567 38.7445 32.9597 38.7467C32.963 38.7491 32.9664 38.7516 32.9676 38.7557L33.1395 39.2871C33.1409 39.2918 33.1399 39.2965 33.1388 39.3014C33.1379 39.3054 33.137 39.3095 33.1374 39.3137C33.1387 39.3199 33.1467 39.3245 33.1478 39.3316C33.1489 39.3401 33.1422 39.3482 33.1416 39.3563C33.1414 39.3598 33.1428 39.3625 33.1443 39.3651C33.1459 39.368 33.1474 39.3708 33.1467 39.3744L33.0804 39.9422C33.0804 39.9473 33.0771 39.9506 33.0738 39.9539C33.071 39.9566 33.0683 39.9594 33.0674 39.9631C33.066 39.9683 33.067 39.973 33.068 39.9777C33.069 39.9828 33.0701 39.9877 33.068 39.993C33.067 39.996 33.0646 39.9982 33.0622 40.0003C33.0605 40.0019 33.0588 40.0034 33.0576 40.0053C33.0572 40.0074 33.0575 40.0093 33.0578 40.0112C33.0582 40.0138 33.0587 40.0164 33.0574 40.0195L32.7974 40.534C32.7859 40.5563 32.7679 40.5715 32.7499 40.5868C32.7444 40.5915 32.7389 40.5961 32.7336 40.601C32.7297 40.6042 32.7278 40.6086 32.7258 40.613C32.7236 40.6181 32.7213 40.6231 32.7163 40.6264L32.6123 40.6975L32.2865 40.9938C32.2721 41.007 32.2577 41.0174 32.2423 41.0263C32.2286 41.0341 32.2134 41.0408 32.1961 41.0464L32.0792 41.0862L32.2541 41.2579L33.0282 41.8033L33.9036 42.2426L34.8407 42.5416L35.8175 42.677L36.0678 42.6836L36.0324 42.6041C36.0308 42.6 36.0315 42.5961 36.0321 42.5923C36.0326 42.5892 36.0331 42.5861 36.0323 42.583C36.0314 42.5802 36.0292 42.5784 36.0269 42.5764C36.0244 42.5743 36.0218 42.5721 36.0209 42.5685C36.02 42.5643 36.0216 42.56 36.0233 42.5555C36.0249 42.5513 36.0266 42.5468 36.0262 42.5423C36.0254 42.5373 36.0228 42.5334 36.0204 42.5297C36.0175 42.5253 36.0148 42.5211 36.0152 42.5155L36.0216 42.0567L36.0237 41.9437C36.0239 41.9344 36.0286 41.9268 36.0333 41.9192C36.0369 41.9134 36.0405 41.9075 36.0422 41.9007C36.0435 41.894 36.0425 41.8877 36.0416 41.8815C36.0403 41.873 36.039 41.8647 36.0435 41.8556L36.2818 41.3261C36.2828 41.3244 36.2842 41.3236 36.2857 41.3228C36.2872 41.3219 36.2888 41.321 36.29 41.3192C36.2906 41.3183 36.2904 41.3171 36.2903 41.3157C36.2901 41.3143 36.29 41.3127 36.2907 41.3111C36.2942 41.3047 36.3004 41.3008 36.3065 41.297C36.3113 41.294 36.3159 41.291 36.3193 41.287C36.3228 41.2827 36.324 41.2773 36.3252 41.2718C36.3267 41.2654 36.3282 41.2588 36.3334 41.2535L36.7684 40.8283C36.7713 40.8252 36.7751 40.8241 36.7791 40.823C36.7828 40.8219 36.7867 40.8209 36.7898 40.818C36.7946 40.8148 36.7955 40.8075 36.7995 40.802C36.8006 40.8006 36.8019 40.7993 36.8035 40.7982C36.8068 40.7963 36.8103 40.7962 36.8138 40.796C36.8175 40.7959 36.8213 40.7957 36.8251 40.7935C36.8279 40.7919 36.8296 40.7892 36.8313 40.7865C36.8334 40.7833 36.8355 40.7801 36.8394 40.779L37.3778 40.532C37.3814 40.5299 37.3851 40.5301 37.3889 40.5306C37.3929 40.5311 37.397 40.5319 37.4013 40.5305C37.4051 40.5293 37.4078 40.5265 37.4105 40.5237C37.4138 40.5203 37.4172 40.5169 37.4226 40.5161C37.427 40.5144 37.4311 40.5157 37.4355 40.5171C37.4391 40.5182 37.4429 40.5194 37.4471 40.5189C37.4505 40.5182 37.4535 40.5164 37.4566 40.5144C37.4604 40.512 37.4643 40.5095 37.4694 40.5089L38.066 40.4803C38.0717 40.4798 38.0762 40.4823 38.0807 40.4847C38.0841 40.4866 38.0875 40.4884 38.0915 40.4889C38.0955 40.4892 38.0996 40.4876 38.1038 40.486C38.1086 40.4841 38.1136 40.4823 38.1186 40.4832C38.1218 40.4837 38.1241 40.486 38.1266 40.4884C38.1291 40.4909 38.1317 40.4935 38.1357 40.4944C38.1394 40.4952 38.1429 40.4944 38.1462 40.4936C38.1499 40.4926 38.1534 40.4917 38.1572 40.4933L38.6948 40.6886C38.6989 40.6892 38.7011 40.6924 38.7034 40.6958C38.7054 40.6986 38.7075 40.7016 38.7109 40.7032C38.7146 40.7051 38.7186 40.7051 38.7227 40.705C38.7271 40.7049 38.7315 40.7049 38.7354 40.7074C38.7389 40.7092 38.7404 40.7125 38.742 40.716C38.7433 40.7188 38.7446 40.7218 38.7472 40.7239C38.7506 40.7265 38.7547 40.7273 38.7586 40.7281C38.7625 40.7288 38.7661 40.7295 38.7686 40.7319L39.1789 41.1129C39.1855 41.1191 39.1873 41.1271 39.1892 41.1353C39.1906 41.1416 39.1921 41.148 39.1958 41.1539C39.1997 41.1589 39.2049 41.1622 39.2102 41.1654C39.2172 41.1698 39.2241 41.1742 39.2277 41.1827L39.4474 41.7007C39.4491 41.7042 39.4483 41.7084 39.4475 41.7128C39.4466 41.7172 39.4457 41.722 39.4473 41.7268C39.4479 41.7309 39.4507 41.7337 39.4535 41.7365C39.4566 41.7396 39.4597 41.7427 39.4601 41.7475C39.4609 41.7555 39.4565 41.7623 39.4564 41.7701C39.4567 41.7731 39.4581 41.7752 39.4596 41.7774C39.461 41.7796 39.4625 41.7817 39.4627 41.7848L39.4604 41.8937L39.6984 41.778L40.5459 41.2049L41.2866 40.5103L41.9274 39.7275L42.4291 38.865L42.5329 38.6281L42.4112 38.6425C42.406 38.6439 42.4016 38.642 42.3968 38.64C42.3932 38.6384 42.3894 38.6367 42.3849 38.6365C42.3799 38.637 42.3752 38.6386 42.3705 38.6402C42.3643 38.6423 42.3582 38.6443 42.3517 38.6436C42.3456 38.6422 42.3431 38.6366 42.337 38.6352C42.3317 38.634 42.327 38.6389 42.3214 38.6372L41.8786 38.5203L41.7682 38.4952C41.7612 38.4941 41.7568 38.4897 41.7524 38.4852C41.7488 38.4817 41.7454 38.4782 41.7407 38.4766C41.7331 38.4735 41.7254 38.4715 41.7177 38.4694C41.7041 38.4658 41.6907 38.4622 41.6793 38.4534L41.2475 38.1087C41.2453 38.1069 41.2445 38.1043 41.2438 38.1017C41.2431 38.0991 41.2423 38.0966 41.2401 38.0947C41.2353 38.0904 41.2287 38.0921 41.2251 38.0872C41.2223 38.0838 41.2217 38.0793 41.2211 38.0747C41.2204 38.0702 41.2198 38.0655 41.2171 38.0615C41.2108 38.0546 41.1991 38.0528 41.1939 38.0439L40.93 37.5414C40.9278 37.5376 40.9286 37.5334 40.9294 37.5289C40.9302 37.5247 40.9311 37.5202 40.9295 37.5157C40.928 37.5125 40.9253 37.5102 40.9225 37.5079C40.9189 37.5049 40.9153 37.5019 40.9142 37.4971C40.9132 37.4933 40.9144 37.4899 40.9156 37.4866C40.9167 37.4835 40.9179 37.4804 40.9171 37.4771C40.9167 37.4741 40.9146 37.4717 40.9125 37.4693C40.9101 37.4665 40.9075 37.4636 40.9075 37.4594L40.8715 36.9012C40.8715 36.897 40.8735 36.8931 40.8755 36.8893C40.8771 36.8861 40.8787 36.8831 40.879 36.88C40.8793 36.8768 40.8777 36.874 40.8762 36.8711C40.8744 36.868 40.8727 36.8648 40.8732 36.8608C40.8732 36.8558 40.8762 36.852 40.8793 36.8481C40.8819 36.8449 40.8845 36.8416 40.8855 36.8375C40.8879 36.8285 40.8804 36.8194 40.8847 36.8099L41.087 36.2652C41.0889 36.2604 41.0929 36.2573 41.0969 36.2542C41.1006 36.2513 41.1044 36.2484 41.1066 36.244C41.1108 36.2367 41.1067 36.2271 41.1119 36.2178C41.1137 36.2145 41.117 36.213 41.1203 36.2115C41.1231 36.2102 41.1258 36.209 41.1276 36.2067C41.1326 36.201 41.1295 36.1943 41.134 36.1889L41.5217 35.7515C41.5246 35.7486 41.5283 35.7477 41.5321 35.7466C41.5345 35.7459 41.537 35.7451 41.5391 35.7436C41.5415 35.7411 41.5424 35.7381 41.5434 35.7351C41.5443 35.7321 41.5452 35.7291 41.5476 35.7267C41.5544 35.7214 41.5646 35.7233 41.5726 35.7187C41.5754 35.7162 41.5772 35.7128 41.5791 35.7095C41.5816 35.705 41.5841 35.7004 41.5888 35.6981L42.1247 35.4034C42.1335 35.3983 42.1427 35.3986 42.1518 35.3988C42.1586 35.399 42.1654 35.3992 42.1721 35.3972C42.1795 35.3948 42.1856 35.3904 42.1916 35.386ZM39.1263 34.4407C39.1229 34.4395 39.1196 34.4382 39.117 34.4356C39.1146 34.4333 39.1138 34.4299 39.1129 34.4265C39.112 34.4226 39.111 34.4185 39.1077 34.4156L38.671 34.0364C38.6683 34.0342 38.6645 34.0336 38.6606 34.033C38.6564 34.0323 38.652 34.0316 38.6485 34.0289C38.6417 34.0251 38.6422 34.0142 38.6352 34.0113L38.1351 33.7339L38.133 33.7302C38.1254 33.7244 38.1168 33.7233 38.1081 33.7222C38.1011 33.7213 38.094 33.7204 38.0873 33.7171C38.0809 33.7138 38.0762 33.7091 38.0716 33.7044C38.0655 33.6981 38.0594 33.6919 38.0494 33.6897L37.4637 33.5467C37.4594 33.5457 37.4556 33.5469 37.4519 33.5481C37.4487 33.5492 37.4457 33.5501 37.4426 33.5496C37.4353 33.5489 37.4325 33.5414 37.4255 33.5412L36.8092 33.4924C36.8042 33.4918 36.7998 33.4941 36.7955 33.4963C36.7921 33.4981 36.7887 33.4998 36.7854 33.4998C36.7809 33.4996 36.7773 33.498 36.7739 33.4964C36.7696 33.4944 36.7654 33.4925 36.7597 33.4935L36.1394 33.573C36.1339 33.5738 36.13 33.5769 36.1262 33.5801C36.1232 33.5825 36.1202 33.5849 36.1166 33.5861C36.1119 33.5868 36.1078 33.5859 36.1038 33.5851C36.0994 33.5842 36.0951 33.5834 36.0907 33.5848L35.4884 33.7911C35.4838 33.7926 35.481 33.7963 35.4781 33.8C35.4757 33.803 35.4734 33.8061 35.4701 33.808C35.4617 33.8107 35.4526 33.8068 35.4458 33.8107L34.8929 34.1286C34.8884 34.1311 34.8861 34.1354 34.8838 34.1396C34.882 34.1429 34.8801 34.1462 34.8773 34.1488C34.8735 34.151 34.8695 34.1515 34.8656 34.1521C34.8613 34.1528 34.857 34.1534 34.8534 34.1562L34.3826 34.5669C34.3785 34.5704 34.3771 34.5751 34.3756 34.5797C34.3746 34.5831 34.3735 34.5865 34.3714 34.5895C34.3682 34.5923 34.3641 34.5939 34.3602 34.5954C34.3555 34.5972 34.351 34.5989 34.3485 34.6026L33.9693 35.0979C33.9663 35.1021 33.9658 35.1066 33.9654 35.111C33.9649 35.1152 33.9645 35.1193 33.9619 35.1232C33.9599 35.1262 33.9567 35.1283 33.9534 35.1304C33.9493 35.133 33.9452 35.1356 33.9436 35.1401L33.6778 35.6959C33.6762 35.699 33.6766 35.7022 33.6771 35.7054C33.6776 35.7085 33.6781 35.7116 33.6767 35.7149C33.6737 35.7215 33.6653 35.7242 33.6635 35.7316L33.495 36.3082C33.4931 36.3143 33.4947 36.3197 33.4963 36.3251C33.4976 36.3295 33.4989 36.3339 33.4982 36.3387C33.4973 36.3438 33.4947 36.348 33.4921 36.3522C33.489 36.3572 33.4859 36.3622 33.4858 36.3684L33.4824 36.9753C33.4824 36.9794 33.4845 36.9825 33.4866 36.9856C33.4885 36.9885 33.4904 36.9912 33.4905 36.9946C33.4914 36.9989 33.4897 37.0027 33.488 37.0064C33.4866 37.0098 33.4851 37.013 33.4856 37.0163L33.5971 37.5825C33.5977 37.5863 33.6005 37.5889 33.6033 37.5914C33.6058 37.5937 33.6083 37.596 33.6089 37.599C33.6095 37.6016 33.6089 37.6046 33.6082 37.6076C33.6073 37.6118 33.6064 37.6162 33.6084 37.6204L33.8326 38.1724C33.8345 38.1778 33.8392 38.1808 33.844 38.1837C33.8479 38.1861 33.8518 38.1886 33.8541 38.1924C33.8563 38.1963 33.8565 38.201 33.8567 38.2058C33.8569 38.2113 33.8571 38.2169 33.8607 38.2209L34.2287 38.6903C34.2312 38.6939 34.2352 38.6952 34.2391 38.6964C34.2422 38.6974 34.2453 38.6984 34.2475 38.7005C34.2501 38.703 34.2509 38.7064 34.2517 38.7098C34.2525 38.7131 34.2533 38.7163 34.2556 38.7184L34.6923 39.0976C34.6959 39.101 34.7008 39.102 34.7057 39.1029C34.7097 39.1037 34.7137 39.1045 34.7172 39.1065C34.7196 39.1083 34.7209 39.1111 34.7221 39.1139C34.7235 39.1171 34.7249 39.1201 34.7281 39.1213L35.2523 39.4129C35.2591 39.4169 35.2667 39.4177 35.2741 39.4185C35.2793 39.4191 35.2844 39.4196 35.2892 39.4213C35.2962 39.4243 35.2979 39.4324 35.3046 39.4335L35.8952 39.5849C35.8996 39.5862 35.9037 39.5848 35.9076 39.5834C35.9111 39.5822 35.9144 39.5811 35.9177 39.5818C35.9216 39.5825 35.9246 39.5846 35.9274 39.5867C35.9308 39.589 35.934 39.5913 35.9383 39.5911L36.5494 39.6309C36.5584 39.632 36.566 39.6255 36.5733 39.6249C36.5808 39.6247 36.5842 39.6306 36.5917 39.6304L37.2172 39.5599C37.2251 39.5591 37.2321 39.5561 37.2391 39.5531C37.2442 39.551 37.2493 39.5489 37.2548 39.5474C37.2578 39.5461 37.2605 39.5469 37.2632 39.5476C37.2654 39.5481 37.2677 39.5486 37.2702 39.5477L37.8628 39.347C37.8789 39.3406 37.8935 39.3343 37.9077 39.3261L38.4606 39.0082C38.4743 39.0004 38.4882 38.9916 38.5001 38.9806L38.9806 38.5643C38.9858 38.5614 38.9838 38.5554 38.9881 38.5509C38.9982 38.5422 39.0097 38.5357 39.0183 38.5244L39.3924 38.0202C39.3943 38.017 39.3944 38.0139 39.3946 38.0108C39.3947 38.0078 39.3948 38.0047 39.3967 38.0015C39.3987 37.9984 39.4018 37.9961 39.4048 37.9937C39.4084 37.9909 39.4121 37.988 39.4139 37.9839L39.6849 37.437C39.687 37.4332 39.6866 37.4292 39.6861 37.4253C39.6858 37.4216 39.6854 37.418 39.6871 37.4146C39.6882 37.4109 39.6912 37.4084 39.6941 37.406C39.6972 37.4034 39.7003 37.4008 39.7011 37.3967L39.8647 36.8116C39.8674 36.802 39.865 36.7944 39.8625 36.7866C39.8607 36.7807 39.8588 36.7748 39.859 36.7678C39.8599 36.7608 39.8612 36.7538 39.8626 36.7468C39.8661 36.729 39.8695 36.711 39.8646 36.6921L39.8594 36.674L39.8831 36.1651C39.8835 36.1609 39.8815 36.1577 39.8795 36.1545C39.8777 36.1516 39.876 36.1487 39.8762 36.1452C39.8755 36.1369 39.8793 36.1293 39.8806 36.1217C39.8809 36.1195 39.881 36.1173 39.8808 36.1151L39.7693 35.549C39.7684 35.5447 39.7655 35.542 39.7627 35.5393C39.7601 35.5368 39.7575 35.5344 39.7566 35.5309C39.7549 35.5242 39.7596 35.5151 39.7562 35.508L39.5229 34.9626C39.5197 34.9561 39.5136 34.9537 39.5088 34.9499C39.5071 34.9486 39.5055 34.947 39.5044 34.9451C39.5024 34.9416 39.5022 34.9375 39.5019 34.9334C39.5016 34.9286 39.5013 34.924 39.4984 34.9204L39.1368 34.4474C39.1341 34.4436 39.1302 34.4421 39.1263 34.4407Z" fill="#E1D8FC"/>
</svg>
