<svg width="20" height="45" viewBox="0 0 20 45" fill="none" xmlns="http://www.w3.org/2000/svg">
<g id="Frame 11" clip-path="url(#clip0_453_3704)">
<path id="Star 3" d="M-28.6837 30.3611C-36.8906 28.1924 -36.8906 16.7644 -28.6837 14.5957L-22.8822 13.0626C-20.0198 12.3061 -17.7839 10.1116 -17.0131 7.30222L-15.4511 1.60821C-13.2414 -6.44653 -1.59761 -6.44653 0.612066 1.60821L2.17411 7.30222C2.94483 10.1116 5.18075 12.3061 8.04321 13.0626L13.8447 14.5957C22.0516 16.7644 22.0516 28.1924 13.8447 30.3611L8.04321 31.8942C5.18075 32.6507 2.94483 34.8452 2.17411 37.6546L0.612068 43.3486C-1.59761 51.4033 -13.2414 51.4033 -15.4511 43.3486L-17.0131 37.6546C-17.7839 34.8452 -20.0198 32.6507 -22.8822 31.8942L-28.6837 30.3611Z" fill="#E1D8FC"/>
</g>
<defs>
<clipPath id="clip0_453_3704">
<rect width="45" height="20" fill="white" transform="translate(0 45) rotate(-90)"/>
</clipPath>
</defs>
</svg>
