<svg width="33" height="75" viewBox="0 0 33 75" fill="none" xmlns="http://www.w3.org/2000/svg">
<g clip-path="url(#clip0_134_10214)">
<path d="M-47.3279 24.3497C-60.8692 27.9676 -60.8692 47.0323 -47.3279 50.6503L-37.7554 53.2079C-33.0324 54.4698 -29.3431 58.1307 -28.0714 62.8175L-25.494 72.3164C-21.8481 85.7537 -2.63579 85.7537 1.01017 72.3164L3.58755 62.8175C4.85922 58.1307 8.5485 54.4698 13.2715 53.2079L22.844 50.6503C36.3853 47.0323 36.3853 27.9676 22.844 24.3497L13.2715 21.7921C8.54849 20.5302 4.85922 16.8693 3.58754 12.1825L1.01017 2.68355C-2.6358 -10.7537 -21.8481 -10.7537 -25.494 2.68355L-28.0714 12.1825C-29.3431 16.8693 -33.0324 20.5302 -37.7554 21.7921L-47.3279 24.3497Z" fill="url(#paint0_linear_134_10214)"/>
<path d="M26.3957 42.949L22.9821 41.0294V35.3333V35.2865V35.2866C22.9901 35.2166 22.9901 35.1459 22.9821 35.0759V35.0057C22.9573 34.9162 22.9219 34.8298 22.8761 34.7483C22.8304 34.6678 22.7728 34.5943 22.7049 34.5297L22.6478 34.475L22.4767 34.3501H22.436L17.2219 31.4711V28.1704C17.2219 27.7522 16.9889 27.3659 16.6108 27.1569C16.2328 26.9477 15.7668 26.9477 15.3888 27.1569C15.0107 27.3659 14.7777 27.7522 14.7777 28.1704V31.4711L9.6288 34.3191C9.56661 34.3536 9.50914 34.3956 9.45786 34.4438L9.40075 34.4985C9.33292 34.563 9.27527 34.6367 9.22963 34.7169C9.18398 34.7986 9.14834 34.885 9.12379 34.9745V35.0447C9.11579 35.1148 9.11579 35.1855 9.12379 35.2555V35.3023V40.9985L5.60417 42.949C5.22718 43.161 4.99696 43.5494 5.00003 43.9679C5.0031 44.3865 5.23917 44.7717 5.61925 44.9783C5.99933 45.185 6.46562 45.1819 6.84257 44.9701L10.2479 43.0584L15.389 45.8908H15.4379L15.6416 45.9688H15.7149C15.9025 46.0104 16.0975 46.0104 16.2851 45.9688H16.3584L16.5621 45.8908H16.611L21.7521 43.0505L25.1574 44.9623C25.5344 45.174 26.0007 45.1772 26.3807 44.9706C26.7608 44.7639 26.9968 44.3786 27 43.9601C27.0031 43.5415 26.7728 43.1531 26.3958 42.9413L26.3957 42.949ZM16 37.1673L12.6841 35.3336L16 33.4999L19.316 35.3336L16 37.1673ZM11.462 37.3623L14.7779 39.196V42.8634L11.462 41.0297V37.3623ZM17.2222 42.8636V39.1963L20.5382 37.3626V41.0299L17.2222 42.8636Z" fill="white"/>
</g>
<defs>
<linearGradient id="paint0_linear_134_10214" x1="-6.59995" y1="15.7777" x2="43.7121" y2="14.964" gradientUnits="userSpaceOnUse">
<stop stop-color="#F86161"/>
<stop offset="0.463168" stop-color="#A151E0"/>
<stop offset="1" stop-color="#4C13A9"/>
</linearGradient>
<clipPath id="clip0_134_10214">
<rect width="75" height="33" fill="white" transform="matrix(4.37114e-08 1 1 -4.37114e-08 0 0)"/>
</clipPath>
</defs>
</svg>
