<svg width="33" height="75" viewBox="0 0 33 75" fill="none" xmlns="http://www.w3.org/2000/svg">
<g clip-path="url(#clip0_134_10220)">
<path d="M-47.3279 24.3497C-60.8692 27.9676 -60.8692 47.0323 -47.3279 50.6503L-37.7554 53.2079C-33.0324 54.4698 -29.3431 58.1307 -28.0714 62.8175L-25.494 72.3164C-21.8481 85.7537 -2.63578 85.7537 1.01018 72.3164L3.58755 62.8175C4.85923 58.1307 8.5485 54.4698 13.2716 53.2079L22.8441 50.6503C36.3853 47.0323 36.3853 27.9676 22.844 24.3497L13.2716 21.7921C8.5485 20.5302 4.85923 16.8693 3.58755 12.1825L1.01017 2.68355C-2.63579 -10.7537 -21.8481 -10.7537 -25.494 2.68355L-28.0714 12.1825C-29.3431 16.8693 -33.0324 20.5302 -37.7554 21.7921L-47.3279 24.3497Z" fill="url(#paint0_linear_134_10220)"/>
<path fill-rule="evenodd" clip-rule="evenodd" d="M15.4861 29.9801C16.0582 28.6733 17.9418 28.6733 18.5139 29.9801L20.2162 33.8688L24.5017 34.2599C25.9419 34.3913 26.524 36.1535 25.4373 37.0926L22.2039 39.8869L23.1502 44.0173C23.4682 45.4054 21.9444 46.4945 20.7007 45.768L17 43.6063L13.2993 45.768C12.0556 46.4945 10.5318 45.4053 10.8498 44.0173L11.7961 39.8869L8.56265 37.0926C7.47601 36.1535 8.05807 34.3913 9.49827 34.2599L13.7838 33.8688L15.4861 29.9801ZM17 32.2364L15.7415 35.1112C15.5029 35.6563 14.9806 36.0296 14.3799 36.0844L11.2118 36.3734L13.6021 38.4392C14.0554 38.8309 14.2549 39.4349 14.1222 40.0139L13.4227 43.0673L16.1585 41.4692C16.6772 41.1662 17.3228 41.1662 17.8415 41.4692L20.5773 43.0673L19.8778 40.0139C19.7451 39.4349 19.9446 38.8309 20.3979 38.4392L22.7882 36.3734L19.6201 36.0844C19.0194 36.0296 18.4971 35.6563 18.2585 35.1112L17 32.2364Z" fill="white"/>
</g>
<defs>
<linearGradient id="paint0_linear_134_10220" x1="-6.59994" y1="15.7777" x2="43.7121" y2="14.964" gradientUnits="userSpaceOnUse">
<stop stop-color="#F86161"/>
<stop offset="0.463168" stop-color="#A151E0"/>
<stop offset="1" stop-color="#4C13A9"/>
</linearGradient>
<clipPath id="clip0_134_10220">
<rect width="75" height="33" fill="white" transform="matrix(4.37114e-08 1 1 -4.37114e-08 0 0)"/>
</clipPath>
</defs>
</svg>
