<svg width="90" height="90" viewBox="0 0 90 90" fill="none" xmlns="http://www.w3.org/2000/svg">
<g clip-path="url(#clip0_453_3502)">
<path d="M74.9853 0C71.1845 0.00334817 67.5269 1.45044 64.7526 4.04794C61.9775 6.64542 60.2917 10.2 60.0365 13.9928C59.7813 17.7857 60.9758 21.5336 63.3773 24.4801L57.6637 30.2103C54.1407 27.1714 49.643 25.5 44.9912 25.5C40.3394 25.5 35.8416 27.1714 32.3186 30.2103L21.4604 19.35C23.1061 17.2534 23.9986 14.6652 23.9952 12C23.9952 8.81724 22.7312 5.76496 20.4809 3.51497C18.2314 1.26428 15.1797 0 11.9976 0C8.81549 0 5.76382 1.26428 3.51427 3.51497C1.26403 5.76496 0 8.81724 0 12C0 15.1827 1.26403 18.235 3.51427 20.485C5.76382 22.7357 8.81549 24 11.9976 24C14.6623 24.0033 17.25 23.1107 19.3461 21.4647L30.2043 32.325C27.1734 35.8527 25.503 40.3487 25.4949 45.0001C25.5003 46.1271 25.6054 47.2515 25.8096 48.3604L19.8108 50.7457C18.2153 47.678 15.2112 45.5921 11.7794 45.1702C8.34757 44.7483 4.92825 46.0434 2.63654 48.6329C0.345513 51.2223 -0.524141 54.7748 0.312092 58.1303C1.14831 61.4859 3.58264 64.2146 6.82113 65.4261C10.0596 66.6376 13.687 66.1761 16.5196 64.1926C19.3516 62.2092 21.0261 58.9581 20.996 55.5C20.9899 54.8612 20.9303 54.2237 20.8158 53.595L26.5596 51.2846C27.8705 55.1344 30.3517 58.4793 33.657 60.8484C36.9617 63.2182 40.9245 64.4947 44.9912 64.5C46.1026 64.492 47.2113 64.3915 48.3053 64.2L49.2352 66.9897C45.5682 68.5801 42.9337 71.8915 42.2087 75.8222C41.4837 79.7528 42.7631 83.7869 45.6212 86.5813C48.4787 89.3751 52.5399 90.5624 56.4525 89.7481C60.365 88.9332 63.6155 86.2232 65.1205 82.5207C66.6263 78.8175 66.1898 74.6083 63.9563 71.2935C61.7228 67.9788 57.9856 65.994 53.9893 66C53.366 66.0014 52.7434 66.0569 52.1294 66.1647L51.2296 63.4647C57.3549 61.3848 62.0502 56.4021 63.7628 50.1629C65.4754 43.9238 63.983 37.2415 59.7779 32.3258L65.5069 26.6111C69.2829 29.7002 74.3242 30.7595 79.0242 29.4517C83.7235 28.1432 87.4928 24.6309 89.1298 20.0344C90.7674 15.4386 90.0671 10.3333 87.2532 6.34758C84.4393 2.36256 79.8634 -0.00617142 74.9853 0ZM10.4982 62.9999C8.50972 62.9999 6.60245 62.2097 5.19564 60.8035C3.78968 59.3966 2.99974 57.4888 2.99974 55.4999C2.99974 53.511 3.78977 51.6033 5.19564 50.1963C6.60228 48.79 8.50972 47.9999 10.4982 47.9999C12.4868 47.9999 14.394 48.7901 15.8008 50.1963C17.2068 51.6032 17.9967 53.511 17.9967 55.4999C17.9967 57.4888 17.2067 59.3965 15.8008 60.8035C14.3942 62.2098 12.4868 62.9999 10.4982 62.9999ZM62.9877 77.9999C62.9877 80.3872 62.0397 82.6759 60.3525 84.3641C58.6647 86.0516 56.3764 86.9998 53.9895 86.9998C51.6027 86.9998 49.3144 86.0516 47.6265 84.3641C45.9394 82.676 44.9913 80.3872 44.9913 77.9999C44.9913 75.6126 45.9394 73.3238 47.6265 71.6356C49.3144 69.9481 51.6027 68.9999 53.9895 68.9999C56.3764 68.9999 58.6647 69.9481 60.3525 71.6356C62.0397 73.3238 62.9877 75.6126 62.9877 77.9999ZM2.99974 12C2.99974 9.61267 3.94776 7.32393 5.63493 5.6357C7.32277 3.9482 9.6111 2.99999 11.9979 2.99999C14.3848 2.99999 16.6731 3.9482 18.361 5.6357C20.0481 7.32388 20.9961 9.61267 20.9961 12C20.9961 14.3873 20.0481 16.676 18.361 18.3643C16.6731 20.0518 14.3848 21 11.9979 21C9.6111 21 7.32282 20.0518 5.63493 18.3643C3.94776 16.6761 2.99974 14.3873 2.99974 12ZM44.9913 61.4999C40.6162 61.4999 36.4203 59.7614 33.3264 56.6672C30.2326 53.5727 28.4946 49.3761 28.4946 44.9999C28.4946 40.6237 30.2328 36.4271 33.3264 33.3327C36.4203 30.2382 40.616 28.5 44.9913 28.5C49.3667 28.5 53.5624 30.2384 56.6563 33.3327C59.7501 36.4271 61.488 40.6237 61.488 44.9999C61.488 49.3761 59.7499 53.5727 56.6563 56.6672C53.5624 59.7616 49.3667 61.4999 44.9913 61.4999ZM74.9853 27C71.8032 27 68.7515 25.7357 66.502 23.485C64.2518 21.235 62.9877 18.1827 62.9877 15C62.9877 11.8172 64.2518 8.76496 66.502 6.51496C68.7515 4.26428 71.8032 2.99999 74.9853 2.99999C78.1674 2.99999 81.2191 4.26428 83.4687 6.51496C85.7189 8.76496 86.9829 11.8172 86.9829 15C86.9829 18.1827 85.7189 21.235 83.4687 23.485C81.2191 25.7357 78.1674 27 74.9853 27Z" fill="url(#paint0_linear_453_3502)"/>
<path fill-rule="evenodd" clip-rule="evenodd" d="M2.99974 12C2.99974 9.61267 3.94776 7.32393 5.63493 5.6357C7.32277 3.9482 9.6111 2.99999 11.9979 2.99999C14.3848 2.99999 16.6731 3.9482 18.361 5.6357C20.0481 7.32388 20.9961 9.61267 20.9961 12C20.9961 14.3873 20.0481 16.676 18.361 18.3643C16.6731 20.0518 14.3848 21 11.9979 21C9.6111 21 7.32282 20.0518 5.63493 18.3643C3.94776 16.6761 2.99974 14.3873 2.99974 12ZM5.99914 12C5.99914 11.1716 6.67066 10.5 7.49884 10.5C7.89653 10.5 8.27815 10.658 8.55934 10.9393C8.84054 11.2205 8.99854 11.6022 8.99854 12V15C8.99854 15.8283 8.32702 16.5 7.49884 16.5C6.67066 16.5 5.99914 15.8283 5.99914 15V12ZM10.4982 8.99998C10.4982 8.17164 11.1698 7.49999 11.9979 7.49999C12.3956 7.49999 12.7772 7.65803 13.0584 7.93927C13.3396 8.22052 13.4976 8.60222 13.4976 8.99998V15C13.4976 15.8283 12.8261 16.5 11.9979 16.5C11.1698 16.5 10.4982 15.8283 10.4982 15V8.99998ZM14.9973 8.99998C14.9973 8.17164 15.6689 7.49999 16.497 7.49999C16.8947 7.49999 17.2764 7.65803 17.5575 7.93927C17.8387 8.22052 17.9967 8.60222 17.9967 8.99998V15C17.9967 15.8283 17.3252 16.5 16.497 16.5C15.6689 16.5 14.9973 15.8283 14.9973 15V8.99998Z" fill="url(#paint1_linear_453_3502)"/>
<path fill-rule="evenodd" clip-rule="evenodd" d="M44.9913 61.4999C40.6162 61.4999 36.4203 59.7614 33.3264 56.6672C30.2326 53.5727 28.4946 49.3761 28.4946 44.9999C28.4946 40.6237 30.2328 36.4271 33.3264 33.3327C36.4203 30.2382 40.616 28.5 44.9913 28.5C49.3667 28.5 53.5624 30.2384 56.6563 33.3327C59.7501 36.4271 61.488 40.6237 61.488 44.9999C61.488 49.3761 59.7499 53.5727 56.6563 56.6672C53.5624 59.7616 49.3667 61.4999 44.9913 61.4999ZM38.5197 52.3499C38.1389 52.3499 37.8187 52.2547 37.559 52.0642C37.3166 51.8565 37.1955 51.4558 37.1955 51.1614C37.1955 50.6985 37.3166 50.4475 37.559 50.257C37.8187 50.0666 38.1389 49.9714 38.5197 49.9714H40.0518V48.5902H38.5197C38.1389 48.5902 37.8187 48.4777 37.559 48.2526C37.3166 48.0275 37.1955 47.7332 37.1955 47.3696C37.1955 46.9887 37.3166 46.6857 37.559 46.4606C37.8187 46.2182 38.1389 46.097 38.5197 46.097H40.0518V36.6953C40.0518 36.2971 40.1816 35.9768 40.4412 35.7344C40.7009 35.4747 41.0212 35.3448 41.402 35.3448H46.5952C47.8936 35.3448 49.0447 35.6305 50.0487 36.2019C51.0528 36.7733 51.8318 37.5697 52.3857 38.5913C52.957 39.5955 53.2426 40.7555 53.2426 42.0714C53.2426 43.3354 52.957 44.4608 52.3857 45.4477C51.8318 46.4346 51.0528 47.2051 50.0487 47.7592C49.0447 48.3132 47.8936 48.5902 46.5952 48.5902H42.7522V49.9714H46.1019C46.5 49.9714 46.8203 50.0666 47.0626 50.257C47.3223 50.4475 47.4521 50.6985 47.4521 51.1614C47.4521 51.4558 47.3223 51.8565 47.0626 52.0642C46.8203 52.2547 46.5 52.3499 46.1019 52.3499H42.7522V54.278C42.7522 54.6589 42.6224 54.9792 42.3627 55.2389C42.1204 55.4986 41.8001 55.6285 41.402 55.6285C41.0212 55.6285 40.7009 55.4986 40.4412 55.2389C40.1816 54.9792 40.0518 54.6589 40.0518 54.278V52.3499H38.5197Z" fill="url(#paint2_linear_453_3502)"/>
<path d="M42.7522 46.097H46.5952C47.3915 46.097 48.0926 45.9238 48.6985 45.5776C49.3044 45.2313 49.7804 44.7551 50.1266 44.1491C50.4729 43.5431 50.646 42.8506 50.646 42.0714C50.646 41.2403 50.4729 40.5131 50.1266 39.8898C49.7804 39.2492 49.3044 38.7471 48.6985 38.3835C48.0926 38.0199 47.3915 37.8381 46.5952 37.8381H42.7522V46.097Z" fill="url(#paint3_linear_453_3502)"/>
<path fill-rule="evenodd" clip-rule="evenodd" d="M10.4982 62.9999C8.50972 62.9999 6.60245 62.2097 5.19564 60.8035C3.78968 59.3966 2.99974 57.4888 2.99974 55.4999C2.99974 53.511 3.78977 51.6033 5.19564 50.1963C6.60228 48.79 8.50972 47.9999 10.4982 47.9999C12.4868 47.9999 14.394 48.7901 15.8008 50.1963C17.2068 51.6032 17.9967 53.511 17.9967 55.4999C17.9967 57.4888 17.2067 59.3965 15.8008 60.8035C14.3942 62.2098 12.4868 62.9999 10.4982 62.9999ZM11.9979 50.9999V53.9999H14.9973C15.8255 53.9999 16.497 54.6716 16.497 55.4999C16.497 56.3282 15.8255 56.9999 14.9973 56.9999H11.9979V59.9999C11.9979 60.8282 11.3264 61.4999 10.4982 61.4999C9.67006 61.4999 8.99854 60.8282 8.99854 59.9999V56.9999H5.99914C5.17096 56.9999 4.49944 56.3282 4.49944 55.4999C4.49944 54.6716 5.17096 53.9999 5.99914 53.9999H8.99854V50.9999C8.99854 50.1716 9.67006 49.4999 10.4982 49.4999C11.3264 49.4999 11.9979 50.1716 11.9979 50.9999Z" fill="url(#paint4_linear_453_3502)"/>
<path fill-rule="evenodd" clip-rule="evenodd" d="M62.9877 77.9999C62.9877 80.3872 62.0397 82.6759 60.3525 84.3641C58.6647 86.0516 56.3764 86.9998 53.9895 86.9998C51.6027 86.9998 49.3144 86.0516 47.6265 84.3641C45.9394 82.676 44.9913 80.3872 44.9913 77.9999C44.9913 75.6126 45.9394 73.3238 47.6265 71.6356C49.3144 69.9481 51.6027 68.9999 53.9895 68.9999C56.3764 68.9999 58.6647 69.9481 60.3525 71.6356C62.0397 73.3238 62.9877 75.6126 62.9877 77.9999ZM50.9901 74.9999H49.4904C48.6623 74.9999 47.9907 74.3282 47.9907 73.4999C47.9907 72.6715 48.6623 71.9999 49.4904 71.9999H50.9901C51.8183 71.9999 52.4898 72.6715 52.4898 73.4999C52.4898 74.3282 51.8183 74.9999 50.9901 74.9999ZM53.9895 79.4999H49.4904C48.6623 79.4999 47.9907 78.8282 47.9907 77.9999C47.9907 77.1715 48.6623 76.4999 49.4904 76.4999H53.9895C54.8177 76.4999 55.4892 77.1715 55.4892 77.9999C55.4892 78.8282 54.8177 79.4999 53.9895 79.4999ZM58.4886 83.9998H49.4904C48.6623 83.9998 47.9907 83.3282 47.9907 82.4999C47.9907 81.6715 48.6623 80.9999 49.4904 80.9999H58.4886C59.3168 80.9999 59.9883 81.6715 59.9883 82.4999C59.9883 83.3282 59.3168 83.9998 58.4886 83.9998Z" fill="url(#paint5_linear_453_3502)"/>
<path fill-rule="evenodd" clip-rule="evenodd" d="M74.9853 27C71.8032 27 68.7515 25.7357 66.502 23.485C64.2518 21.235 62.9877 18.1827 62.9877 15C62.9877 11.8172 64.2518 8.76496 66.502 6.51496C68.7515 4.26428 71.8032 2.99999 74.9853 2.99999C78.1674 2.99999 81.2191 4.26428 83.4687 6.51496C85.7189 8.76496 86.9829 11.8172 86.9829 15C86.9829 18.1827 85.7189 21.235 83.4687 23.485C81.2191 25.7357 78.1674 27 74.9853 27ZM73.4856 12H68.9865C68.1584 12 67.4868 11.3283 67.4868 10.5C67.4868 9.67164 68.1584 8.99998 68.9865 8.99998H73.4856C74.3138 8.99998 74.9853 9.67164 74.9853 10.5C74.9853 11.3283 74.3138 12 73.4856 12ZM68.9865 13.5H80.9841C81.8123 13.5 82.4838 14.1716 82.4838 15C82.4838 15.8283 81.8123 16.5 80.9841 16.5H68.9865C68.1584 16.5 67.4868 15.8283 67.4868 15C67.4868 14.1716 68.1584 13.5 68.9865 13.5ZM68.9865 18H80.9841C81.8123 18 82.4838 18.6716 82.4838 19.5C82.4838 20.3283 81.8123 21 80.9841 21H68.9865C68.1584 21 67.4868 20.3283 67.4868 19.5C67.4868 18.6716 68.1584 18 68.9865 18Z" fill="url(#paint6_linear_453_3502)"/>
</g>
<defs>
<linearGradient id="paint0_linear_453_3502" x1="78" y1="-20.3049" x2="-36.1405" y2="114.277" gradientUnits="userSpaceOnUse">
<stop stop-color="#EB5858"/>
<stop offset="0.491918" stop-color="#A05ED4"/>
<stop offset="1" stop-color="#6124C5"/>
</linearGradient>
<linearGradient id="paint1_linear_453_3502" x1="78" y1="-20.3049" x2="-36.1405" y2="114.277" gradientUnits="userSpaceOnUse">
<stop stop-color="#EB5858"/>
<stop offset="0.491918" stop-color="#A05ED4"/>
<stop offset="1" stop-color="#6124C5"/>
</linearGradient>
<linearGradient id="paint2_linear_453_3502" x1="78" y1="-20.3049" x2="-36.1405" y2="114.277" gradientUnits="userSpaceOnUse">
<stop stop-color="#EB5858"/>
<stop offset="0.491918" stop-color="#A05ED4"/>
<stop offset="1" stop-color="#6124C5"/>
</linearGradient>
<linearGradient id="paint3_linear_453_3502" x1="78" y1="-20.3049" x2="-36.1405" y2="114.277" gradientUnits="userSpaceOnUse">
<stop stop-color="#EB5858"/>
<stop offset="0.491918" stop-color="#A05ED4"/>
<stop offset="1" stop-color="#6124C5"/>
</linearGradient>
<linearGradient id="paint4_linear_453_3502" x1="78" y1="-20.3049" x2="-36.1405" y2="114.277" gradientUnits="userSpaceOnUse">
<stop stop-color="#EB5858"/>
<stop offset="0.491918" stop-color="#A05ED4"/>
<stop offset="1" stop-color="#6124C5"/>
</linearGradient>
<linearGradient id="paint5_linear_453_3502" x1="78" y1="-20.3049" x2="-36.1405" y2="114.277" gradientUnits="userSpaceOnUse">
<stop stop-color="#EB5858"/>
<stop offset="0.491918" stop-color="#A05ED4"/>
<stop offset="1" stop-color="#6124C5"/>
</linearGradient>
<linearGradient id="paint6_linear_453_3502" x1="78" y1="-20.3049" x2="-36.1405" y2="114.277" gradientUnits="userSpaceOnUse">
<stop stop-color="#EB5858"/>
<stop offset="0.491918" stop-color="#A05ED4"/>
<stop offset="1" stop-color="#6124C5"/>
</linearGradient>
<clipPath id="clip0_453_3502">
<rect width="90" height="90" fill="white"/>
</clipPath>
</defs>
</svg>
