<svg width="90" height="90" viewBox="0 0 90 90" fill="none" xmlns="http://www.w3.org/2000/svg">
<g clip-path="url(#clip0_453_3496)">
<path d="M43.3388 45.1456L43.8536 46.4516L51.822 43.15C52.7074 42.8171 53.5575 42.395 54.3582 41.8902C55.3269 41.2802 56.0893 40.3924 56.5457 39.3429C57.0919 37.9445 56.9855 36.3755 56.2572 35.0631C55.5283 33.7506 54.2524 32.8314 52.7779 32.5561C51.6374 32.4176 50.4815 32.6023 49.4416 33.0898C49.055 32.0513 48.4241 31.1206 47.6029 30.3765C46.7977 29.8171 45.8463 29.506 44.8666 29.4816C43.8863 29.4573 42.9209 29.7203 42.0886 30.2386C41.2404 30.7678 40.5705 31.5401 40.1679 32.4549C39.7127 33.5056 39.5851 34.6691 39.7999 35.793C40.0147 36.72 40.3224 37.6232 40.7192 38.4878C41.5828 40.7131 43.3388 45.1456 43.3388 45.1456Z" fill="url(#paint0_linear_453_3496)"/>
<path d="M23.5941 10.2373C25.2854 11.9475 28.612 15.3594 28.612 15.3594L29.6327 16.362L35.7079 10.2372C36.3907 9.5868 37.0068 8.869 37.546 8.09472C38.1941 7.16202 38.5493 6.05745 38.5666 4.92206C38.5288 3.4223 37.8249 2.0174 36.6472 1.08925C35.4688 0.161049 33.9385 -0.193692 32.4728 0.121916C31.3592 0.42726 30.3553 1.04307 29.5775 1.89693C28.8146 1.08931 27.869 0.477362 26.82 0.112391C25.3545 -0.202576 23.8241 0.152163 22.6457 1.07972C21.468 2.00792 20.764 3.4134 20.7263 4.91319C20.7436 6.0486 21.0987 7.15326 21.7469 8.08585C22.2887 8.86332 22.9074 9.58424 23.5941 10.2373Z" fill="url(#paint1_linear_453_3496)"/>
<path d="M76.1019 16.4412C75.198 16.8645 74.4421 17.5503 73.933 18.4091C73.3893 19.4066 73.156 20.5433 73.2624 21.6736C73.3541 22.6095 73.5387 23.5338 73.8138 24.4326C74.4478 26.7502 75.6518 31.3663 75.6518 31.3663L76.0102 32.7275L84.2817 30.4009C85.1985 30.1834 86.0916 29.8755 86.9475 29.4816C87.9713 28.9916 88.8252 28.207 89.4016 27.2281C90.1113 25.9047 90.194 24.3331 89.6267 22.9424C89.0599 21.5517 87.902 20.4862 86.4692 20.0372C85.3543 19.764 84.1856 19.8121 83.0963 20.1752C82.8456 19.0923 82.3385 18.0858 81.6166 17.2418C80.8787 16.5791 79.9613 16.1493 78.9804 16.0069C77.9989 15.8645 76.9975 16.0159 76.1019 16.4412Z" fill="url(#paint2_linear_453_3496)"/>
<path d="M16.8928 24.8253C16.3196 23.434 15.156 22.3718 13.7193 21.9291C12.2819 21.4858 10.722 21.7084 9.46615 22.5352C8.54359 23.2434 7.84158 24.2006 7.44413 25.2942C6.43951 24.8228 5.33677 24.5982 4.22762 24.6412C2.74729 24.8824 1.45095 25.7715 0.692532 27.066C-0.0665448 28.3605 -0.209515 29.9257 0.302735 31.3363C0.731643 32.3883 1.46443 33.2884 2.40747 33.9201C3.20694 34.4371 4.05709 34.872 4.94435 35.2171C7.14083 36.1922 11.4791 38.1602 11.4791 38.1602L12.7569 38.7395L16.1484 30.8123C16.542 29.9559 16.8497 29.0624 17.0671 28.1451C17.3396 27.0456 17.2788 25.8903 16.8928 24.8253Z" fill="url(#paint3_linear_453_3496)"/>
<path d="M1.82554 64.4069H10.4481C11.0557 64.4069 11.5478 65.0119 11.5478 65.502V88.9049C11.5478 89.51 11.0553 90 10.4481 90H1.82554C1.21793 90 0.725806 89.395 0.725806 88.9049V65.502C0.725806 64.897 1.21833 64.4069 1.82554 64.4069Z" fill="url(#paint4_linear_453_3496)"/>
<path d="M40.2731 61.4119H29.1541V53.6746C29.1556 52.1445 28.5461 50.6766 27.4601 49.5942C26.3739 48.5117 24.9001 47.9032 23.3634 47.9032H20.9436C20.5064 47.9032 20.0867 48.0763 19.7771 48.3845C19.468 48.6924 19.2938 49.1102 19.2938 49.546V57.0313C19.2298 59.6412 18.2758 62.1518 16.5883 64.1499L14.9385 65.2778V87.126C14.9385 87.4163 15.0543 87.6951 15.2607 87.9002C15.4671 88.1057 15.7467 88.2211 16.0386 88.2211H38.9308C40.3593 88.2241 41.7421 87.7203 42.8315 86.8002C43.9209 85.8801 44.6456 84.6036 44.8756 83.1999L47.0751 69.2974C47.242 68.373 47.2044 67.4239 46.965 66.5156C46.5634 65.0535 45.6915 63.7625 44.4828 62.8408C43.2741 61.9191 41.7956 61.4168 40.2731 61.4119Z" fill="url(#paint5_linear_453_3496)"/>
<path fill-rule="evenodd" clip-rule="evenodd" d="M21.7742 43.1199V39.6421C21.7742 39.0048 22.4237 38.4878 23.2258 38.4878C24.028 38.4878 24.6774 39.0043 24.6774 39.6421V43.1199C24.6774 43.7572 24.028 44.2742 23.2258 44.2742C22.4229 44.2742 21.7742 43.7572 21.7742 43.1199Z" fill="url(#paint6_linear_453_3496)"/>
<path fill-rule="evenodd" clip-rule="evenodd" d="M29.8849 45.7235L32.5968 43.0117C33.0474 42.5611 33.8722 42.6547 34.4394 43.222C35.0066 43.7892 35.1007 44.6136 34.6496 45.0646L31.9378 47.7764C31.4872 48.227 30.6624 48.1334 30.0952 47.5661C29.5275 46.9984 29.4343 46.1741 29.8849 45.7235Z" fill="url(#paint7_linear_453_3496)"/>
<path fill-rule="evenodd" clip-rule="evenodd" d="M14.4773 47.7764L11.7655 45.0646C11.3149 44.614 11.4086 43.7892 11.9758 43.222C12.543 42.6547 13.3674 42.5607 13.8184 43.0117L16.5302 45.7235C16.9808 46.1741 16.8872 46.9989 16.32 47.5661C15.7523 48.1338 14.9279 48.227 14.4773 47.7764Z" fill="url(#paint8_linear_453_3496)"/>
</g>
<defs>
<linearGradient id="paint0_linear_453_3496" x1="78" y1="-20.3049" x2="-36.1405" y2="114.277" gradientUnits="userSpaceOnUse">
<stop stop-color="#EB5858"/>
<stop offset="0.491918" stop-color="#A05ED4"/>
<stop offset="1" stop-color="#6124C5"/>
</linearGradient>
<linearGradient id="paint1_linear_453_3496" x1="78" y1="-20.3049" x2="-36.1405" y2="114.277" gradientUnits="userSpaceOnUse">
<stop stop-color="#EB5858"/>
<stop offset="0.491918" stop-color="#A05ED4"/>
<stop offset="1" stop-color="#6124C5"/>
</linearGradient>
<linearGradient id="paint2_linear_453_3496" x1="78" y1="-20.3049" x2="-36.1405" y2="114.277" gradientUnits="userSpaceOnUse">
<stop stop-color="#EB5858"/>
<stop offset="0.491918" stop-color="#A05ED4"/>
<stop offset="1" stop-color="#6124C5"/>
</linearGradient>
<linearGradient id="paint3_linear_453_3496" x1="78" y1="-20.3049" x2="-36.1405" y2="114.277" gradientUnits="userSpaceOnUse">
<stop stop-color="#EB5858"/>
<stop offset="0.491918" stop-color="#A05ED4"/>
<stop offset="1" stop-color="#6124C5"/>
</linearGradient>
<linearGradient id="paint4_linear_453_3496" x1="78" y1="-20.3049" x2="-36.1405" y2="114.277" gradientUnits="userSpaceOnUse">
<stop stop-color="#EB5858"/>
<stop offset="0.491918" stop-color="#A05ED4"/>
<stop offset="1" stop-color="#6124C5"/>
</linearGradient>
<linearGradient id="paint5_linear_453_3496" x1="78" y1="-20.3049" x2="-36.1405" y2="114.277" gradientUnits="userSpaceOnUse">
<stop stop-color="#EB5858"/>
<stop offset="0.491918" stop-color="#A05ED4"/>
<stop offset="1" stop-color="#6124C5"/>
</linearGradient>
<linearGradient id="paint6_linear_453_3496" x1="78" y1="-20.3049" x2="-36.1405" y2="114.277" gradientUnits="userSpaceOnUse">
<stop stop-color="#EB5858"/>
<stop offset="0.491918" stop-color="#A05ED4"/>
<stop offset="1" stop-color="#6124C5"/>
</linearGradient>
<linearGradient id="paint7_linear_453_3496" x1="78" y1="-20.3049" x2="-36.1405" y2="114.277" gradientUnits="userSpaceOnUse">
<stop stop-color="#EB5858"/>
<stop offset="0.491918" stop-color="#A05ED4"/>
<stop offset="1" stop-color="#6124C5"/>
</linearGradient>
<linearGradient id="paint8_linear_453_3496" x1="78" y1="-20.3049" x2="-36.1405" y2="114.277" gradientUnits="userSpaceOnUse">
<stop stop-color="#EB5858"/>
<stop offset="0.491918" stop-color="#A05ED4"/>
<stop offset="1" stop-color="#6124C5"/>
</linearGradient>
<clipPath id="clip0_453_3496">
<rect width="90" height="90" fill="white"/>
</clipPath>
</defs>
</svg>
