<svg width="90" height="90" viewBox="0 0 90 90" fill="none" xmlns="http://www.w3.org/2000/svg">
<g clip-path="url(#clip0_453_3508)">
<path d="M22.8247 19.0503L16.7981 12.1858C16.1262 11.4518 14.9394 11.3026 14.2091 11.9744C13.4787 12.6462 13.3329 13.8357 14.0048 14.5696L20.0753 21.5427C20.6598 22.0604 21.4799 22.2314 22.1264 21.9704C22.3419 21.8834 22.5566 21.7967 22.6212 21.6453C23.459 20.9301 23.4966 19.7842 22.8247 19.0503ZM43.3415 1.34201C42.3495 1.36574 41.5118 2.08089 41.4297 3.11929L41.2775 12.3527C41.3037 13.3474 42.0191 14.1892 43.055 14.274C43.314 14.2948 43.5287 14.208 43.7442 14.121C44.3899 13.8603 44.8613 13.1677 44.9221 12.3885L45.0744 3.1551C45.2009 2.22493 44.4417 1.27458 43.3415 1.34201ZM75.9971 40.0476L85.7926 36.0921C86.7612 35.701 87.2095 34.64 86.817 33.6679C86.4244 32.6958 85.3651 32.2437 84.3965 32.6348L74.601 36.5902C73.6324 36.9813 73.1841 38.0423 73.5767 39.0144C73.9699 39.9862 75.0285 40.4387 75.9971 40.0476ZM62.1782 22.2574C62.7193 22.6674 63.3885 22.774 64.0342 22.5133C64.357 22.3829 64.6364 22.1448 64.8081 21.9492L70.6187 14.3257C71.2618 13.4376 71.0847 12.3785 70.3048 11.6883C69.4174 11.0413 68.3615 11.2162 67.675 11.9965L61.8643 19.62C61.1782 20.3992 61.2916 21.6102 62.1782 22.2574ZM57.6704 65.0385C64.1842 60.3976 68.2261 52.7347 68.23 44.0635C68.1215 29.5321 55.8609 17.7722 41.091 18.7105C28.0026 19.4723 17.6134 30.3267 17.1551 43.4532C16.9159 52.4712 21.2432 60.3979 28.0586 65.1848C28.9025 65.724 29.295 66.6961 29.3211 67.6908L29.3473 68.6855L34.092 68.6539C33.9786 67.4429 33.5548 64.2221 30.7791 61.0703C25.6627 55.2204 23.3629 47.354 25.3674 42.398C26.5838 39.5193 29.1204 37.7414 32.6787 37.5613C34.6081 34.8979 37.834 32.9669 42.4272 32.8711C47.2794 32.7961 50.6535 34.9517 52.5644 37.8242C56.5117 37.9893 58.5483 39.9312 59.4172 41.4648C62.7213 47.1666 58.0624 56.7125 55.881 60.6091C53.6349 64.6573 52.5466 67.2327 52.078 68.5525L56.413 68.4357L56.3868 67.441C56.4045 66.5548 56.7884 65.6462 57.6704 65.0385ZM48.2177 68.604C48.4506 67.63 49.4718 64.5794 52.7886 58.8423C56.5546 52.0444 57.9722 45.9444 56.4068 43.309C56.276 42.985 55.7114 42.2077 54.2864 41.7777C54.3738 41.994 54.3534 42.2529 54.4408 42.4692C54.9117 46.4253 53.1367 49.7802 50.1631 50.4788C48.4615 50.9144 46.7974 50.2042 45.5615 48.6937C43.9995 46.6854 43.5985 43.8325 44.7102 41.6245C45.2024 40.672 46.2086 39.1351 48.4048 38.3736C47.0837 37.2734 45.3124 36.6066 42.7034 36.6547C40.4608 36.6804 38.5866 37.3118 37.3187 38.2007C39.2416 38.9317 40.2826 40.2704 40.7828 41.1999C42.0219 43.3386 41.9046 46.1493 40.4473 48.1199C39.1612 49.896 37.1594 50.8297 35.0013 50.4443C32.1733 49.9526 30.4781 46.9936 30.6764 43.1442C30.7175 42.6254 30.7576 42.1061 30.9503 41.6514C29.8736 42.0862 29.144 42.7577 28.8031 43.7753C27.3746 47.3679 29.3665 53.8513 33.5283 58.5782C37.1703 62.6363 37.7283 66.8079 37.8445 68.6463L48.2177 68.604ZM50.4465 41.5695C49.3906 41.7443 48.4659 42.244 47.9737 43.1964C47.418 44.3008 47.834 45.6403 48.3977 46.4179C48.636 46.6986 48.9823 46.9356 49.349 46.9137C50.3611 46.6304 51.0217 44.8561 50.7546 42.9534C50.6881 42.4772 50.6212 42.002 50.4465 41.5695ZM37.5771 42.8714C37.1207 42.0504 36.1252 41.4471 34.9384 41.2979C34.7264 42.0119 34.5136 42.7263 34.4086 43.3962C34.2654 45.213 34.9408 46.5739 35.61 46.6806C36.3866 46.7439 36.9249 46.5265 37.4398 45.9418C38.0831 45.0545 38.0771 43.8002 37.5771 42.8714ZM29.2777 71.3516L29.3784 75.5838L56.488 75.4424L56.3873 71.2103L29.2777 71.3516ZM42.2635 89.5113C45.0242 89.5271 47.1281 87.2954 47.4859 85.3919L37.6305 85.4768C37.3792 87.3372 39.5028 89.4955 42.2635 89.5113ZM31.2452 82.997L54.7534 82.9278C55.7454 82.9041 56.5396 82.0812 56.5134 81.0864L56.479 78.2103L29.369 78.3509L29.4035 81.227C29.4297 82.2218 30.2531 83.0207 31.2452 82.997ZM1.18502 36.4585L10.5231 40.9806C11.0203 41.2821 11.5386 41.3243 12.0762 41.1072C12.5064 40.9335 12.8939 40.6517 13.0859 40.1973C13.5781 39.2448 13.1417 38.1642 12.19 37.6694L2.852 33.1473C1.90076 32.6514 0.824074 33.0862 0.332953 34.0391C-0.158756 34.9905 0.277627 36.0712 1.18502 36.4585Z" fill="url(#paint0_linear_453_3508)"/>
</g>
<defs>
<linearGradient id="paint0_linear_453_3508" x1="-2.99239" y1="-1.35646" x2="140.315" y2="71.7976" gradientUnits="userSpaceOnUse">
<stop stop-color="#EB5858"/>
<stop offset="0.491918" stop-color="#A05ED4"/>
<stop offset="1" stop-color="#6124C5"/>
</linearGradient>
<clipPath id="clip0_453_3508">
<rect width="90" height="90" fill="white"/>
</clipPath>
</defs>
</svg>
