<svg width="28" height="28" viewBox="0 0 28 28" fill="none" xmlns="http://www.w3.org/2000/svg">
<path d="M14.5 26C21.4035 26 27 20.4035 27 13.5C27 6.59646 21.4035 1 14.5 1C7.59646 1 2 6.59646 2 13.5C2 20.4035 7.59646 26 14.5 26Z" fill="white"/>
<path d="M6.65323 14.112C8.11447 13.3071 9.74562 12.6353 11.2697 11.9601C13.8917 10.8542 16.5241 9.76739 19.183 8.75562C19.7004 8.58322 20.6299 8.41463 20.721 9.18129C20.6711 10.2665 20.4658 11.3454 20.325 12.4242C19.9675 14.7967 19.5544 17.1611 19.1516 19.5258C19.0128 20.3134 18.026 20.7212 17.3947 20.2171C15.8774 19.1922 14.3484 18.1773 12.8505 17.1287C12.3598 16.6301 12.8148 15.9141 13.2531 15.5581C14.5028 14.3265 15.8281 13.2801 17.0124 11.9849C17.3319 11.2134 16.388 11.8636 16.0766 12.0629C14.3658 13.2418 12.6968 14.4928 10.8931 15.5289C9.97171 16.0361 8.89786 15.6026 7.97692 15.3196C7.15118 14.9778 5.94117 14.6333 6.65315 14.112L6.65323 14.112Z" fill="#734CA5"/>
</svg>
