<svg width="28" height="28" viewBox="0 0 28 28" fill="none" xmlns="http://www.w3.org/2000/svg">
<path fill-rule="evenodd" clip-rule="evenodd" d="M8.65911 25.2411L2.0125 27.3588L0 28L2.82723 19.6392C2.35279 18.766 1.97697 17.8411 1.70922 16.8832C1.38441 15.7208 1.22052 14.5196 1.22052 13.3127C1.22052 9.76131 2.6318 6.39444 5.14768 3.89579C7.67175 1.38901 11.0597 0 14.6142 0C18.1676 0 21.5538 1.39068 24.0757 3.89782C26.5905 6.39798 28 9.76564 28 13.317C28 16.8678 26.589 20.2343 24.0738 22.7328C21.5507 25.2392 18.1639 26.6286 14.6102 26.6286C13.4828 26.6286 12.3596 26.4893 11.2672 26.2095C10.3663 25.9787 9.49198 25.6536 8.65908 25.2411L8.65911 25.2411Z" fill="white"/>
<path fill-rule="evenodd" clip-rule="evenodd" d="M12.6096 9.97343C12.5555 9.86433 12.2433 9.10934 11.9555 8.41343C11.7715 7.96854 11.5961 7.54429 11.5617 7.46222C11.2376 6.68856 10.8794 6.71188 10.6046 6.72975C10.5866 6.73092 10.5692 6.73206 10.546 6.73206C10.4501 6.73206 10.3559 6.72609 10.2582 6.7199C10.1362 6.71214 10.0095 6.7041 9.8897 6.7041C9.7305 6.7041 9.51365 6.73717 9.28532 6.84418C9.11598 6.92353 8.94128 7.04301 8.7814 7.21889C8.75808 7.24411 8.74051 7.26261 8.72143 7.28268C8.34101 7.68305 7.51172 8.55579 7.51172 10.2319C7.51172 11.9901 8.77808 13.6622 8.96417 13.9077L8.9635 13.9082L8.96522 13.9105L8.96731 13.9126C8.97461 13.922 9.00148 13.9613 9.0412 14.0195C9.50889 14.7044 11.6589 17.8526 14.9274 19.1307C17.8925 20.2892 18.429 20.1591 18.9083 20.0431C18.9899 20.0233 19.0695 20.004 19.1557 19.996C19.5438 19.9595 20.1787 19.6935 20.7129 19.3199C21.1561 19.0101 21.543 18.6185 21.6911 18.2061C21.8233 17.8375 21.898 17.495 21.9327 17.2131C21.983 16.8035 21.9432 16.4813 21.8687 16.3569L21.8677 16.3558C21.7545 16.1692 21.5588 16.0767 21.2652 15.9379C21.2134 15.9134 21.1581 15.8872 21.1049 15.8615L21.1051 15.8611C20.9026 15.758 20.2022 15.4152 19.6035 15.1318C19.2166 14.9487 18.8728 14.7914 18.7367 14.7424C18.5452 14.6736 18.3783 14.6215 18.1995 14.6417C17.9967 14.6646 17.8198 14.7692 17.6558 15.0179L17.6553 15.0176C17.5729 15.1414 17.4278 15.3272 17.2692 15.5216C17.0181 15.8297 16.7184 16.1756 16.5908 16.3208V16.3219C16.5362 16.384 16.4892 16.4179 16.4431 16.4234C16.3791 16.4312 16.2912 16.4049 16.1694 16.345C16.0915 16.306 16.0157 16.2732 15.9221 16.2328C15.4486 16.0283 14.5264 15.6299 13.4753 14.6982C13.0994 14.365 12.7685 14.0008 12.4922 13.6591C12.0449 13.106 11.7427 12.6132 11.6226 12.4057C11.5278 12.2429 11.6331 12.1374 11.7304 12.04L11.7299 12.0394C11.8374 11.9319 11.9591 11.7854 12.0813 11.6385C12.1369 11.5715 12.1925 11.5046 12.2602 11.4265L12.2612 11.4255C12.4259 11.2337 12.4942 11.0941 12.5864 10.9056C12.6024 10.8728 12.6192 10.8384 12.6361 10.8046L12.6372 10.8036C12.7182 10.6401 12.739 10.4845 12.7239 10.3388C12.7098 10.2031 12.6645 10.0821 12.6092 9.97362L12.6096 9.97343L12.6096 9.97343Z" fill="#734CA5"/>
</svg>
