<svg width="28" height="28" viewBox="0 0 28 28" fill="none" xmlns="http://www.w3.org/2000/svg">
<path d="M14 27C21.1797 27 27 21.1797 27 14C27 6.8203 21.1797 1 14 1C6.8203 1 1 6.8203 1 14C1 21.1797 6.8203 27 14 27Z" fill="white"/>
<path d="M21 11.7088C21 10.765 20.1302 10 19.0572 10H9.94239C8.86959 10 8 10.7652 8 11.7088V16.2912C8 17.235 8.86975 18 9.94239 18H19.0571C20.1303 18 20.9998 17.2348 20.9998 16.2912V11.7088H21ZM13.1996 15.9331V11.6292L16.9122 13.7813L13.1996 15.9331Z" fill="#734CA5"/>
</svg>
