<svg width="33" height="75" viewBox="0 0 33 75" fill="none" xmlns="http://www.w3.org/2000/svg">
<g clip-path="url(#clip0_134_10208)">
<path d="M-47.3279 24.3497C-60.8692 27.9676 -60.8692 47.0323 -47.3279 50.6503L-37.7554 53.2079C-33.0324 54.4698 -29.3431 58.1307 -28.0714 62.8175L-25.494 72.3164C-21.8481 85.7537 -2.63578 85.7537 1.01018 72.3164L3.58756 62.8175C4.85924 58.1307 8.54851 54.4698 13.2716 53.2079L22.8441 50.6503C36.3853 47.0323 36.3853 27.9676 22.8441 24.3497L13.2716 21.7921C8.54851 20.5302 4.85923 16.8693 3.58756 12.1825L1.01018 2.68355C-2.63578 -10.7537 -21.8481 -10.7537 -25.494 2.68355L-28.0714 12.1825C-29.3431 16.8693 -33.0324 20.5302 -37.7554 21.7921L-47.3279 24.3497Z" fill="url(#paint0_linear_134_10208)"/>
<path fill-rule="evenodd" clip-rule="evenodd" d="M12.9049 45.9983H15.5908L20.1909 29.638L17.6856 29L12.9049 46V45.9983ZM12.2379 34.3557L8.58681 37.9897L12.2379 41.6227L10.3706 43.3334L5 37.9892L10.3706 32.6445L12.2379 34.3552V34.3557ZM22.6294 32.645L28 37.9897L22.6294 43.3339L20.7621 41.6232L24.4132 37.9902L20.7621 34.3563L22.6294 32.6456V32.645Z" fill="white"/>
</g>
<defs>
<linearGradient id="paint0_linear_134_10208" x1="-6.59993" y1="15.7777" x2="43.7121" y2="14.964" gradientUnits="userSpaceOnUse">
<stop stop-color="#F86161"/>
<stop offset="0.463168" stop-color="#A151E0"/>
<stop offset="1" stop-color="#4C13A9"/>
</linearGradient>
<clipPath id="clip0_134_10208">
<rect width="75" height="33" fill="white" transform="matrix(4.37114e-08 1 1 -4.37114e-08 0 0)"/>
</clipPath>
</defs>
</svg>
