<svg width="90" height="90" viewBox="0 0 90 90" fill="none" xmlns="http://www.w3.org/2000/svg">
<path d="M51.5676 52H1.43243L26.501 69.2076L51.5676 52Z" fill="url(#paint0_linear_453_3490)"/>
<path d="M26.4991 72.3222C26.1442 72.3222 25.7909 72.2164 25.4864 72.0025L0 54.1509V88.2322C0 89.21 0.79185 90 1.76667 90H51.2333C52.2105 90 53 89.21 53 88.2322V54.1509L27.5136 72.0025C27.2091 72.2164 26.8558 72.3222 26.5009 72.3222H26.4991Z" fill="url(#paint1_linear_453_3490)"/>
<path d="M89.8611 71.8889C90.0463 71.46 90.0463 70.9754 89.8611 70.5472C89.7685 70.3308 89.6353 70.1379 89.4663 69.9748L82.19 62.9488C81.4785 62.2618 80.3283 62.2618 79.6176 62.9488C78.906 63.6357 78.906 64.746 79.6176 65.4322L83.7893 69.4611H69.9864C68.98 69.4611 68.1669 70.2484 68.1669 71.2176C68.1669 72.1868 68.98 72.9741 69.9864 72.9741H83.7893L79.6176 77.0014C78.906 77.6883 78.906 78.7987 79.6176 79.4848C79.9717 79.8275 80.438 80 80.9034 80C81.3688 80 81.8351 79.8275 82.19 79.4856L89.4663 72.4596C89.6353 72.298 89.7677 72.1046 89.8611 71.8889Z" fill="url(#paint2_linear_453_3490)"/>
<path d="M65.0743 35.1512C65.5398 35.1512 66.006 34.9715 66.3609 34.6153L77.8103 23.0996V29.6618C77.8103 30.6714 78.6233 31.4916 79.6297 31.4916C80.6361 31.4916 81.4491 30.6714 81.4491 29.6618V18.6827C81.4491 18.445 81.402 18.2073 81.3094 17.9834C81.1242 17.5349 80.7709 17.1804 80.325 16.9933C80.1024 16.9002 79.8661 16.8528 79.6297 16.8528H69.3394C68.333 16.8528 67.52 17.673 67.52 18.6827C67.52 19.6923 68.333 20.5125 69.3394 20.5125H75.2379L63.7886 32.0274C63.077 32.743 63.077 33.8997 63.7886 34.6145C64.1427 34.9714 64.6089 35.1512 65.0743 35.1512Z" fill="url(#paint3_linear_453_3490)"/>
<path d="M27.4266 8.13955C26.9997 7.95348 26.5173 7.95348 26.0912 8.13955C25.8758 8.23258 25.6837 8.36641 25.5214 8.53615L18.5281 15.8465C17.8444 16.5614 17.8444 17.7169 18.5281 18.4309C19.2118 19.1458 20.317 19.1458 20.9999 18.4309L25.0101 14.2397V28.1072C25.0101 29.1183 25.7937 29.9352 26.7584 29.9352C27.7231 29.9352 28.5068 29.1183 28.5068 28.1072V14.2397L32.5153 18.4309C33.199 19.1458 34.3042 19.1458 34.9871 18.4309C35.3282 18.0751 35.4999 17.6067 35.4999 17.1391C35.4999 16.6715 35.3282 16.2031 34.9879 15.8464L27.9946 8.53613C27.8338 8.36639 27.6413 8.23339 27.4266 8.13955Z" fill="url(#paint4_linear_453_3490)"/>
<defs>
<linearGradient id="paint0_linear_453_3490" x1="78" y1="-10.5" x2="-24" y2="121.5" gradientUnits="userSpaceOnUse">
<stop stop-color="#EB5858"/>
<stop offset="0.491918" stop-color="#A05ED4"/>
<stop offset="1" stop-color="#6124C5"/>
</linearGradient>
<linearGradient id="paint1_linear_453_3490" x1="78" y1="-10.5" x2="-24" y2="121.5" gradientUnits="userSpaceOnUse">
<stop stop-color="#EB5858"/>
<stop offset="0.491918" stop-color="#A05ED4"/>
<stop offset="1" stop-color="#6124C5"/>
</linearGradient>
<linearGradient id="paint2_linear_453_3490" x1="78" y1="-10.5" x2="-24" y2="121.5" gradientUnits="userSpaceOnUse">
<stop stop-color="#EB5858"/>
<stop offset="0.491918" stop-color="#A05ED4"/>
<stop offset="1" stop-color="#6124C5"/>
</linearGradient>
<linearGradient id="paint3_linear_453_3490" x1="78" y1="-10.5" x2="-24" y2="121.5" gradientUnits="userSpaceOnUse">
<stop stop-color="#EB5858"/>
<stop offset="0.491918" stop-color="#A05ED4"/>
<stop offset="1" stop-color="#6124C5"/>
</linearGradient>
<linearGradient id="paint4_linear_453_3490" x1="78" y1="-10.5" x2="-24" y2="121.5" gradientUnits="userSpaceOnUse">
<stop stop-color="#EB5858"/>
<stop offset="0.491918" stop-color="#A05ED4"/>
<stop offset="1" stop-color="#6124C5"/>
</linearGradient>
</defs>
</svg>
