<svg width="172" height="90" viewBox="0 0 172 90" fill="none" xmlns="http://www.w3.org/2000/svg">
<g clip-path="url(#clip0_197_1558)">
<path d="M9.59502 18.689C9.59502 19.311 9.4704 19.8086 9.22118 20.3062C8.97196 20.8038 8.72274 21.0526 8.34891 21.4258C7.97508 21.6746 7.60125 21.9234 7.22741 22.1722C6.85358 22.2966 6.35514 22.4211 5.8567 22.4211V23.5407H3.73832V22.4211C3.11526 22.2967 2.49221 22.1722 1.99377 21.9234C1.49533 21.6746 1.1215 21.4258 0.872274 21.0526C0.623053 20.6794 0.373832 20.3062 0.249221 19.8086C0.124611 19.311 0 18.8134 0 18.1914V13.5885C0 12.9665 0.124611 12.4689 0.373832 11.9713C0.498442 11.5981 0.872274 11.2249 1.1215 10.9761C1.49533 10.6029 1.86916 10.4785 2.3676 10.2297C2.86604 9.98086 3.23988 9.98086 3.73832 9.98086V9.23445H5.98131V9.98086C6.47975 9.98086 6.85358 10.1053 7.35203 10.2297C7.72586 10.3541 8.09969 10.6029 8.47352 10.9761C8.84735 11.2249 9.09657 11.7225 9.34579 12.0957C9.59502 12.5933 9.71963 13.0909 9.71963 13.7129V18.689H9.59502ZM3.73832 11.7225C3.23988 11.8469 2.86604 11.9713 2.49221 12.2201C2.24299 12.5933 2.11838 12.9665 2.11838 13.4641V18.9378C2.11838 19.1866 2.11838 19.4354 2.24299 19.6842C2.3676 19.933 2.49221 20.0574 2.61682 20.1818C2.74143 20.3062 2.99065 20.4306 3.11526 20.555C3.36449 20.6794 3.4891 20.6794 3.73832 20.6794V11.7225ZM7.60125 13.4641C7.60125 12.9665 7.47663 12.5933 7.1028 12.2201C6.85358 11.9713 6.47975 11.8469 5.98131 11.7225V20.555C6.10592 20.555 6.35514 20.4306 6.47975 20.4306C6.72897 20.3062 6.85358 20.1818 6.97819 20.0574C7.1028 19.933 7.22741 19.8086 7.35203 19.5598C7.47664 19.311 7.47664 19.1866 7.47664 18.9378V13.4641H7.60125Z" fill="#8A7E95"/>
<path d="M20.6849 19.8084C20.6849 21.0524 20.4357 22.0477 19.8126 22.6697C19.1895 23.2917 18.3173 23.6649 17.1958 23.6649C15.9497 23.6649 15.0774 23.4161 14.579 22.7941C14.0805 22.1721 13.7067 21.3012 13.7067 20.1816V12.9663C13.7067 12.4687 13.8313 11.8467 13.9559 11.4735C14.0805 10.9759 14.3297 10.6027 14.579 10.2295C14.8282 9.85627 15.202 9.60746 15.7005 9.48306C16.1989 9.35866 16.6973 9.23426 17.3204 9.23426C17.9434 9.23426 18.5665 9.35866 18.9403 9.48306C19.3142 9.48306 19.688 9.73187 19.9372 10.1051C20.1864 10.4783 20.4357 10.8515 20.5603 11.3491C20.6849 11.8467 20.6849 12.3443 20.6849 12.9663V19.8084ZM18.4419 12.7175C18.4419 12.3443 18.3173 11.9711 18.1927 11.5979C18.0681 11.2247 17.6942 11.1003 17.1958 11.1003C16.9466 11.1003 16.6973 11.1003 16.5727 11.2247C16.3235 11.4735 16.1989 11.5979 16.1989 11.8467C16.0743 11.9711 16.0743 12.2199 16.0743 12.4687C16.0743 12.7175 16.0743 12.8419 16.0743 13.0907V20.306C16.0743 20.6792 16.1989 21.0524 16.3235 21.3012C16.4481 21.55 16.8219 21.7989 17.3204 21.7989C17.8188 21.7989 18.0681 21.6744 18.3173 21.3012C18.5665 21.0524 18.5665 20.6792 18.5665 20.1816V12.7175H18.4419Z" fill="#8A7E95"/>
<path d="M29.6579 23.5405V17.3204H27.041V23.5405H24.9226V9.23426H27.1656V15.2056H29.7825V9.23426H32.0255V23.5405H29.6579Z" fill="#8A7E95"/>
<path d="M37.259 23.541V26.2778H35.3899V21.675L36.2621 21.5506C36.636 21.1774 36.8852 20.6798 37.0098 20.1821C37.1344 19.6845 37.259 18.9381 37.259 18.0673L37.5082 9.35918H43.988V21.675H44.8603V26.4022H42.9911V23.6654H37.259V23.541ZM39.2528 17.9429C39.2528 18.8137 39.1282 19.4357 39.1282 20.0577C39.0036 20.6798 38.8789 21.1774 38.6297 21.5506H41.745V11.3496H39.502L39.2528 17.9429Z" fill="#8A7E95"/>
<path d="M58.3172 9.11086C58.9403 9.11086 59.4387 9.23526 59.8126 9.35966C60.1864 9.48406 60.5602 9.73287 60.9341 9.98167C61.1833 10.2305 61.4325 10.6037 61.5571 10.9769C61.6817 11.3501 61.8063 11.8477 61.8063 12.3453L59.6879 12.8429C59.6879 12.3453 59.5633 11.8477 59.4387 11.5989C59.1895 11.2257 58.9403 11.1013 58.4418 11.1013C58.1926 11.1013 57.9434 11.1013 57.8188 11.2257C57.6942 11.3501 57.5696 11.4745 57.445 11.5989C57.3203 11.7233 57.3203 11.9721 57.3203 12.0965C57.3203 12.3453 57.3203 12.4697 57.3203 12.7185V19.9338C57.3203 20.0582 57.3203 20.1826 57.3203 20.4314C57.3203 20.5558 57.445 20.8046 57.445 20.929C57.5696 21.0534 57.6942 21.1778 57.8188 21.3022C57.9434 21.4266 58.1926 21.4266 58.4418 21.4266C59.3141 21.4266 59.6879 20.8046 59.6879 19.685C60.0618 19.8094 60.4356 19.8094 60.8094 19.8094C61.1833 19.8094 61.5571 19.9338 61.9309 19.9338C61.9309 21.0534 61.5571 21.9243 61.0587 22.5463C60.4356 23.1683 59.6879 23.5415 58.5664 23.5415C57.3203 23.5415 56.4481 23.2927 55.9496 22.6707C55.3266 22.0487 55.0774 21.1778 55.0774 20.0582V12.9673C55.0774 12.4697 55.0773 11.9721 55.202 11.4745C55.3266 10.9769 55.5758 10.6037 55.825 10.2305C56.0742 9.85727 56.4481 9.60847 56.9465 9.35966C57.0711 9.23526 57.5696 9.11086 58.3172 9.11086Z" fill="#8A7E95"/>
<path d="M72.2737 19.8084C72.2737 21.0524 72.0245 22.0477 71.4014 22.6697C70.7784 23.2917 69.9061 23.6649 68.7846 23.6649C67.5385 23.6649 66.6662 23.4161 66.1678 22.7941C65.6693 22.1721 65.2955 21.3012 65.2955 20.1816V12.9663C65.2955 12.4687 65.4201 11.8467 65.5447 11.4735C65.6693 10.9759 65.9185 10.6027 66.1678 10.2295C66.417 9.85627 66.7908 9.60746 67.2893 9.48306C67.7877 9.35866 68.2861 9.23426 68.9092 9.23426C69.5322 9.23426 70.1553 9.35866 70.5291 9.48306C71.0276 9.60746 71.2768 9.85627 71.6506 10.2295C71.8998 10.6027 72.1491 10.9759 72.2737 11.4735C72.2737 11.7223 72.2737 12.3443 72.2737 12.8419V19.8084ZM70.0307 12.7175C70.0307 12.3443 69.9061 11.9711 69.7815 11.5979C69.6569 11.2247 69.283 11.1003 68.7846 11.1003C68.5354 11.1003 68.2861 11.1003 68.1615 11.2247C68.0369 11.3491 67.9123 11.4735 67.7877 11.5979C67.6631 11.7223 67.6631 11.9711 67.5385 12.2199C67.5385 12.4687 67.5385 12.5931 67.5385 12.8419V20.0572C67.5385 20.4304 67.6631 20.8036 67.7877 21.0524C68.0369 21.3012 68.2861 21.55 68.7846 21.55C69.283 21.55 69.5322 21.4256 69.7815 21.0524C70.0307 20.8036 70.0307 20.4304 70.0307 19.9328V12.7175Z" fill="#8A7E95"/>
<path d="M77.5078 23.5407V26.2775H75.6386V21.6746L76.5109 21.5502C76.8847 21.177 77.134 20.6794 77.2586 20.1818C77.3832 19.6842 77.5078 18.9378 77.5078 18.067L77.757 9.35885H84.2368V21.6746H85.109V26.4019H83.2399V23.6651H77.5078V23.5407ZM79.5016 17.9426C79.5016 18.8134 79.377 19.4354 79.377 20.0574C79.2523 20.6794 79.1277 21.177 78.8785 21.5502H81.9938V11.3493H79.7508L79.5016 17.9426Z" fill="#8A7E95"/>
<path d="M88.7222 23.5405V9.23426H95.0773V11.3491H90.9651V15.2056H94.5789V17.3204H90.9651V21.4256H95.0773V23.5405H88.7222Z" fill="#8A7E95"/>
<path d="M103.925 14.5837L100.935 23.5407H98.8162V9.23445H100.935V18.3158L103.925 9.23445H106.044V23.5407H103.801L103.925 14.5837ZM101.184 6C101.184 6.1244 101.184 6.2488 101.308 6.49761C101.433 6.62201 101.433 6.74641 101.558 6.99522C101.682 7.11962 101.807 7.24402 101.931 7.36842C102.056 7.49282 102.305 7.49282 102.43 7.49282C102.679 7.49282 102.804 7.49282 102.928 7.36842C103.053 7.24402 103.178 7.11962 103.302 6.99522C103.427 6.87081 103.551 6.74641 103.551 6.49761C103.551 6.37321 103.676 6.2488 103.676 6H105.296C105.296 6.2488 105.171 6.62201 105.047 6.99522C105.171 7.24402 104.922 7.61722 104.673 7.86603C104.424 8.11483 104.174 8.36364 103.801 8.61244C103.427 8.73684 103.053 8.86124 102.555 8.86124C102.056 8.86124 101.558 8.73684 101.184 8.61244C100.81 8.48804 100.561 8.23923 100.312 7.86603C100.062 7.61722 99.9377 7.24402 99.8131 6.99522C99.6885 6.62201 99.5639 6.2488 99.5639 6H101.184Z" fill="#8A7E95"/>
<path d="M113.769 9.11086C114.392 9.11086 114.89 9.23526 115.264 9.35966C115.638 9.48406 116.012 9.73287 116.386 9.98167C116.635 10.2305 116.884 10.6037 117.009 10.9769C117.133 11.3501 117.258 11.8477 117.258 12.3453L115.14 12.8429C115.14 12.3453 115.015 11.8477 114.89 11.5989C114.641 11.2257 114.392 11.1013 113.894 11.1013C113.644 11.1013 113.395 11.1013 113.271 11.2257C113.146 11.3501 113.021 11.4745 112.897 11.5989C112.772 11.7233 112.772 11.9721 112.772 12.0965C112.772 12.3453 112.772 12.4697 112.772 12.7185V19.9338C112.772 20.0582 112.772 20.1826 112.772 20.4314C112.772 20.5558 112.897 20.8046 112.897 20.929C113.021 21.0534 113.146 21.1778 113.271 21.3022C113.395 21.4266 113.644 21.4266 113.894 21.4266C114.766 21.4266 115.14 20.8046 115.14 19.685C115.514 19.8094 115.887 19.8094 116.261 19.8094C116.635 19.8094 117.009 19.9338 117.383 19.9338C117.383 21.0534 117.009 21.9243 116.51 22.5463C115.887 23.1683 115.14 23.5415 114.018 23.5415C112.772 23.5415 111.9 23.2927 111.401 22.6707C110.778 22.0487 110.529 21.1778 110.529 20.0582V12.9673C110.529 12.4697 110.529 11.9721 110.654 11.4745C110.778 10.9769 111.028 10.6037 111.277 10.2305C111.526 9.85727 111.9 9.60847 112.398 9.35966C112.523 9.23526 113.146 9.11086 113.769 9.11086Z" fill="#8A7E95"/>
<path d="M124.485 11.3491V23.5405H122.242V11.3491H119.875V9.23426H126.728V11.3491H124.485Z" fill="#8A7E95"/>
<path d="M135.451 16.0764C136.074 16.3252 136.573 16.6984 136.697 17.196C136.946 17.818 137.071 18.44 137.071 19.1864C137.071 20.6792 136.697 21.7989 136.074 22.4209C135.451 23.1673 134.454 23.4161 133.083 23.4161H130.093V9.23426H133.208C134.454 9.23426 135.451 9.60746 135.95 10.2295C136.573 10.8515 136.822 11.8467 136.822 13.0907C136.822 13.7127 136.697 14.3347 136.448 14.8323C136.448 15.33 135.95 15.7032 135.451 16.0764ZM134.828 13.2151C134.828 12.5931 134.703 12.0955 134.454 11.8467C134.205 11.5979 133.707 11.4735 133.208 11.4735H132.46V15.2056H133.208C133.831 15.2056 134.205 15.0811 134.454 14.7079C134.703 14.2103 134.828 13.7127 134.828 13.2151ZM134.953 18.9376C134.953 18.3156 134.828 17.818 134.579 17.4448C134.33 17.0716 133.956 16.9472 133.333 16.9472H132.46V21.4256H133.333C133.707 21.4256 133.956 21.3012 134.205 21.1768C134.454 21.0524 134.579 20.928 134.703 20.6792C134.828 20.4304 134.953 20.1816 134.953 19.9328C134.953 19.684 134.953 19.3108 134.953 18.9376Z" fill="#8A7E95"/>
<path d="M146.417 14.5837L143.427 23.5407H141.308V9.23445H143.427V18.3158H143.551L146.542 9.23445H148.66V23.5407H146.417V14.5837Z" fill="#8A7E95"/>
<path d="M152.399 23.541L153.147 19.0625C153.272 18.5649 153.396 18.1917 153.646 17.8185C153.895 17.4453 154.144 17.0721 154.518 16.9477C153.895 16.6989 153.396 16.2013 153.147 15.7037C152.898 15.2061 152.773 14.4597 152.773 13.7132C152.773 12.3448 153.147 11.2252 153.77 10.4788C154.393 9.73239 155.39 9.35918 156.636 9.35918H159.876V23.6654H157.633V17.4453H157.01C156.636 17.4453 156.262 17.5697 155.889 17.9429C155.515 18.1917 155.39 18.8137 155.141 19.5601L154.518 23.541H152.399ZM156.761 11.3496C156.138 11.3496 155.639 11.5984 155.39 11.9716C155.141 12.3448 155.016 12.8424 155.016 13.5888C155.016 14.3353 155.141 14.7085 155.515 15.0817C155.889 15.3305 156.262 15.4549 156.761 15.4549H157.633V11.3496H156.761Z" fill="#8A7E95"/>
<path d="M6.72952 35.3596L2.9912 46.4313H0.374381V28.7663H3.11581V39.9624H3.24042L6.97874 28.7663H9.72018V46.4313H6.85413L6.72952 35.3596Z" fill="#8A7E95"/>
<path d="M23.0535 46.4313V38.7184H19.9382V46.4313H17.1968V28.7663H19.9382V36.106H23.1781V28.7663H25.9195V46.4313H23.0535Z" fill="#8A7E95"/>
<path d="M39.5008 46.4313V38.7184H36.2609V46.4313H33.5195V28.7663H36.2609V36.106H39.5008V28.7663H42.2422V46.4313H39.5008Z" fill="#8A7E95"/>
<path d="M58.4419 41.9523C58.4419 43.4452 58.0681 44.6892 57.445 45.4356C56.6973 46.182 55.7005 46.5552 54.0805 46.5552C52.5852 46.5552 51.4637 46.182 50.8406 45.4356C50.2176 44.6892 49.8438 43.5696 49.8438 42.2011V33.3686C49.8438 32.6222 49.9684 32.0002 50.093 31.5026C50.2176 30.8806 50.4668 30.383 50.8406 30.0097C51.2145 29.6365 51.5883 29.2633 52.2114 29.0145C52.7098 28.7657 53.4575 28.6413 54.2051 28.6413C55.0774 28.6413 55.7004 28.7657 56.3235 29.0145C56.8219 29.2633 57.3204 29.5121 57.6942 29.8853C58.0681 30.2586 58.3173 30.7562 58.4419 31.3782C58.5665 32.0002 58.6911 32.6222 58.6911 33.3686V41.9523H58.4419ZM55.7004 33.1198C55.7004 32.6222 55.5758 32.249 55.3266 31.7514C55.0774 31.3782 54.7036 31.1294 54.0805 31.1294C53.7067 31.1294 53.4575 31.2538 53.3328 31.3782C53.0836 31.5026 52.959 31.7514 52.8344 31.8758C52.7098 32.1246 52.5852 32.3734 52.5852 32.6222C52.5852 32.871 52.4606 33.1198 52.4606 33.3686V42.3255C52.4606 42.8231 52.5852 43.1964 52.8344 43.5696C53.0836 43.9428 53.4575 44.0672 54.0805 44.0672C54.7036 44.0672 55.0774 43.8184 55.3266 43.4452C55.5758 43.0719 55.7004 42.5743 55.7004 42.0767V33.1198Z" fill="#8A7E95"/>
<path d="M72.524 37.2256C73.2717 37.4744 73.8947 37.972 74.1439 38.7184C74.3932 39.4648 74.6424 40.2112 74.6424 41.2064C74.6424 43.0725 74.2685 44.4409 73.3963 45.3117C72.6486 46.1825 71.4025 46.5557 69.7826 46.5557H66.0442V28.7663H69.9072C71.5271 28.7663 72.6486 29.1395 73.2717 30.0103C74.0193 30.8811 74.3932 32.0007 74.3932 33.6179C74.3932 34.4887 74.2685 35.1107 74.0193 35.7328C73.7701 36.3548 73.2717 36.8524 72.524 37.1012V37.2256ZM71.7763 33.6179C71.7763 32.7471 71.6517 32.2495 71.2779 31.8763C70.9041 31.5031 70.4056 31.3787 69.658 31.3787H68.7857V35.8572H69.658C70.4056 35.8572 70.9041 35.6084 71.2779 35.2352C71.6517 34.9863 71.7763 34.3643 71.7763 33.6179ZM71.9009 40.8332C71.9009 39.9624 71.7763 39.3404 71.4025 38.9672C71.1533 38.594 70.5302 38.3452 69.7826 38.3452H68.7857V43.8189H69.9072C70.4056 43.8189 70.6548 43.6945 71.0287 43.5701C71.2779 43.4457 71.5271 43.1969 71.6517 42.9481C71.7763 42.6993 71.9009 42.3261 71.9009 41.9529C71.9009 41.7041 71.9009 41.3308 71.9009 40.8332Z" fill="#8A7E95"/>
<path d="M88.5975 46.4313L87.8499 42.6993H84.61C84.4854 43.3213 84.3608 43.9433 84.2362 44.5653C84.1116 45.1873 83.987 45.8093 83.8623 46.4313H80.9963C81.6193 43.4457 82.2424 40.46 82.7408 37.5988C83.3639 34.6131 83.9869 31.7519 84.4854 28.7663H87.6007L91.2144 46.4313H88.5975ZM86.1053 32.8715C85.9807 34.1155 85.7315 35.3596 85.6069 36.4792C85.3577 37.7232 85.233 38.9672 84.9838 40.2112H87.476L86.3546 32.8715H86.1053Z" fill="#8A7E95"/>
<path d="M106.667 28.7663V43.9433H107.788V49.9146H105.421V46.5557H97.9439V28.7663H100.685V43.9433H103.801V28.7663H106.667Z" fill="#8A7E95"/>
<path d="M120.747 35.3596L117.009 46.4313H114.392V28.7663H117.133V39.9624L120.872 28.7663H123.613V46.4313H120.872L120.747 35.3596Z" fill="#8A7E95"/>
<path d="M130.467 46.4313L131.464 40.8332C131.589 40.2112 131.713 39.7136 132.087 39.216C132.336 38.7184 132.71 38.3452 133.209 38.0964C132.336 37.7232 131.838 37.2256 131.464 36.6036C131.215 35.8572 130.966 35.1107 130.966 34.1155C130.966 32.3739 131.34 31.0055 132.212 30.1347C133.084 29.2639 134.206 28.7663 135.701 28.7663H139.813V46.4313H137.072V38.8428H136.324C135.826 38.8428 135.452 38.9672 134.953 39.3404C134.579 39.7136 134.206 40.3356 134.081 41.3308L133.209 46.3069H130.467V46.4313ZM135.95 31.3787C135.078 31.3787 134.579 31.6275 134.206 32.1251C133.832 32.6227 133.707 33.2447 133.707 34.1155C133.707 34.9863 133.956 35.6084 134.33 35.8572C134.704 36.2304 135.327 36.3548 135.95 36.3548H137.072V31.3787H135.95Z" fill="#8A7E95"/>
<path d="M152.649 42.5743L151.402 39.3399L150.281 36.2298H150.156V46.4308H147.415V28.7657H150.156L152.15 33.7418L153.521 37.5983H153.645L157.01 28.6413H159.627V46.3064H156.885V36.1054H156.761L155.639 39.2155L154.393 42.4499H152.649V42.5743Z" fill="#8A7E95"/>
<path d="M159.751 51.7793C159.751 51.9037 159.751 51.9037 159.751 51.7793C159.128 52.2769 158.505 52.6501 158.007 53.0233C116.013 81.0137 57.6953 75.5401 32.6486 51.7793H16.3246C44.2374 82.8798 121.247 89.4731 159.751 51.7793Z" fill="#8A7E95"/>
<path d="M88.5163 72.2298C111.369 73.1505 136.356 67.6925 157.385 53.9545C157.657 53.8147 158.034 53.5648 158.314 53.2975C158.616 53.1149 158.889 52.9332 159.152 52.7578L159.156 52.7553C159.438 52.568 159.708 52.3878 160.008 52.2082L159.535 51.3284C156.968 52.5588 154.401 53.6188 151.891 54.6556C151.373 54.8696 150.857 55.0826 150.344 55.2959C131.333 62.614 113.451 65.8348 97.8165 65.9587C75.953 66.0826 58.7845 60.2499 49.6948 51.4206L49.5492 51.2793H49.3464H35.5146H32.6486H31.39L32.3054 52.143C44.8813 64.0073 65.6664 71.3093 88.5163 72.2298Z" fill="#8A7E95" stroke="#F1ECFF"/>
<path d="M160.143 52.0906L159.402 51.4214C140.276 70.0826 111.547 77.8368 84.0806 77.0307C56.6026 76.2243 30.5279 66.8561 16.6967 51.4453L16.5476 51.2793H16.3245H0.37439H-0.786652L0.0111141 52.1229C21.1903 74.5176 51.615 83.0026 77.1118 84.1257C79.7401 84.2506 82.3665 84.2506 84.8549 84.2506L84.8604 84.2506L84.8679 84.2505C101.377 84.0008 119.776 80.3807 135.809 71.8774C144.96 67.1219 153.365 60.6106 160.143 52.0906Z" fill="#8A7E95" stroke="#F1ECFF"/>
</g>
<defs>
<clipPath id="clip0_197_1558">
<rect width="160" height="78" fill="white" transform="translate(0 6)"/>
</clipPath>
</defs>
</svg>
