<svg width="307" height="90" viewBox="0 0 307 90" fill="none" xmlns="http://www.w3.org/2000/svg">
<g clip-path="url(#clip0_197_1571)">
<path fill-rule="evenodd" clip-rule="evenodd" d="M14.6003 56.0526C13.4958 55.8922 12.4684 56.6928 12.3103 57.8937V60.9331C10.6649 59.9805 8.83308 59.4067 6.94462 59.2523C2.36848 59.3346 0 61.6542 0 66.3783V72.5406C0 77.4224 2.28873 79.9037 6.8662 79.8242C8.75463 79.6697 10.5864 79.0959 12.2318 78.1435V83.8246C12.1547 85.105 13.1795 86.2264 14.4422 86.2264C15.7048 86.3073 16.8106 85.2654 16.8106 83.985V78.1435C18.4854 79.0252 20.3029 79.5945 22.1763 79.8242C26.7551 79.8242 29.0425 77.4224 29.0425 72.5406V66.3783C29.0425 61.6555 26.7551 59.3346 22.0965 59.255C20.2039 59.255 18.3085 59.8157 16.7309 60.9358V58.4558C16.8033 57.9143 16.6613 57.3658 16.336 56.9301C16.0108 56.4944 15.5286 56.207 14.9951 56.1308C14.9951 55.9717 14.8356 55.9717 14.6003 56.0513V56.0526ZM6.94462 75.0206C5.76171 75.181 4.7343 74.2995 4.5788 73.1794V66.2974C4.50679 65.7564 4.64875 65.2084 4.9737 64.773C5.29865 64.3377 5.78021 64.0504 6.31329 63.9738H12.2318V75.0192H6.94462V75.0206ZM24.6218 72.5406C24.7813 73.6593 23.9918 74.7806 22.8873 74.9397H16.8891V63.8956H22.2547C23.3605 63.7352 24.3866 64.4563 24.5447 65.5763V66.137L24.6232 72.5392L24.6218 72.5406ZM46.6426 59.1742C43.6268 59.2524 40.6428 59.8198 37.804 60.8549C37.3295 59.9748 36.5413 59.3346 35.5937 59.1742C35.0602 59.1019 34.5201 59.2464 34.0912 59.5761C33.6623 59.9058 33.3792 60.394 33.3036 60.9344V83.7437C33.2324 84.2848 33.3751 84.8324 33.7005 85.2672C34.0259 85.702 34.5077 85.9887 35.0408 86.0647H35.5937C36.6982 86.225 37.804 85.4244 37.8824 84.2235V78.0613C40.6942 79.0962 43.6523 79.6637 46.6426 79.742C50.7469 79.8229 54.2185 76.5409 54.3767 72.3788V67.1776C54.6133 63.095 51.6135 59.495 47.5105 59.2537C47.2739 59.1728 46.9576 59.1742 46.6426 59.1742ZM49.7992 71.7386C49.7195 73.5002 48.3784 74.8602 46.6426 75.0206H37.8824V63.9751H46.6426C48.3 64.056 49.6411 65.4173 49.7992 67.0967V71.7386ZM76.7909 59.1742C75.6851 59.0138 74.659 59.8144 74.4224 60.9344V74.9397H65.1106C64.8353 74.9817 64.5544 74.9671 64.2848 74.8966C64.0152 74.8262 63.7623 74.7014 63.5412 74.5297C63.3202 74.358 63.1355 74.1429 62.9982 73.8972C62.861 73.6516 62.7739 73.3804 62.7422 73.0999V61.4951C62.6624 60.2147 61.6377 59.1742 60.375 59.2537C59.1921 59.3346 58.1647 60.2942 58.1647 61.4951V72.4597C58.1647 77.3415 60.4534 79.742 65.0309 79.742C68.2673 79.6611 71.4239 79.1018 74.4224 78.0613C74.5819 79.1018 75.6067 79.9024 76.6327 79.742C77.1659 79.8142 77.7056 79.6697 78.1342 79.3399C78.5627 79.0102 78.8452 78.5219 78.9201 77.9817V61.5746C78.9914 61.0338 78.8489 60.4863 78.5237 60.0515C78.1986 59.6168 77.7171 59.33 77.1843 59.2537C77.1843 59.1728 77.0275 59.1742 76.7909 59.1742ZM99.2835 61.4951V74.9397H89.9704C89.6951 74.9817 89.4143 74.967 89.1448 74.8966C88.8752 74.8261 88.6224 74.7013 88.4015 74.5296C88.1806 74.3579 87.996 74.1428 87.8589 73.8972C87.7217 73.6515 87.6348 73.3804 87.6032 73.0999V61.4951C87.583 60.8933 87.333 60.3229 86.906 59.9044C86.479 59.4859 85.9084 59.2519 85.3145 59.2519C84.7206 59.2519 84.15 59.4859 83.723 59.9044C83.296 60.3229 83.046 60.8933 83.0258 61.4951V72.4597C83.0258 77.3415 85.3929 79.742 89.892 79.742C93.1284 79.6611 96.285 79.1018 99.3619 78.0613C99.5201 79.1018 100.466 79.9024 101.572 79.742H101.652C102.185 79.8138 102.725 79.6692 103.153 79.3395C103.582 79.0098 103.864 78.5218 103.939 77.9817V61.4951C103.861 60.2147 102.835 59.1742 101.572 59.2537C100.31 59.3346 99.2835 60.2942 99.2835 61.4951Z" fill="#8A7E95"/>
</g>
<g clip-path="url(#clip1_197_1571)">
<path d="M169.19 31.6729C168.88 31.4383 168.572 31.2827 168.341 31.0468C167.338 30.2638 166.335 29.403 165.409 28.6213C165.038 28.3222 164.701 27.9807 164.407 27.6037C163.713 26.8985 163.095 26.1155 162.478 25.4115C162.246 25.1769 162.093 24.8632 161.629 24.8632C161.553 24.8632 161.475 24.7854 161.398 24.7076C160.857 25.1769 160.395 25.6462 159.854 26.1155C159.792 25.9271 159.715 25.7441 159.623 25.5684C159.006 25.8808 158.543 26.2723 158.003 26.6638C157.462 26.9775 156.923 27.3677 156.383 27.7592C156.306 27.6815 156.228 27.6037 156.228 27.4468C156.074 27.5259 155.92 27.5259 155.842 27.6037C155.767 27.6815 155.612 27.6815 155.689 27.8383L155.226 28.3076C154.377 29.0128 153.528 29.639 152.756 30.3429C152.294 30.7344 152.294 30.7344 152.68 31.2827C153.683 32.535 154.763 33.7873 155.767 35.0395L155.997 35.2742H156.692C156.923 35.5866 157.155 35.9003 157.309 36.135C158.234 37.4663 159.237 38.8741 160.164 40.2055C160.242 40.361 160.473 40.5179 160.395 40.7525C160.242 40.6748 160.164 40.6748 160.009 40.597C159.546 40.3624 159.083 40.0486 158.621 39.814C158.389 39.6571 158.081 39.5794 157.772 39.5003C157.387 39.4212 157.001 39.4212 156.537 39.3434C157.001 39.8918 157.617 40.1264 158.081 40.5957C158.003 40.5957 157.926 40.6748 157.926 40.6748C156.537 40.4401 155.226 40.1264 153.837 39.8918C153.528 39.8127 153.22 39.6571 152.833 39.7349C153.22 39.8931 153.528 40.0486 153.914 40.0486C154.608 40.2833 155.303 40.5179 156.074 40.7525C156.923 40.9872 157.617 41.4578 158.389 41.927C157.926 41.927 157.462 42.0061 157.078 42.0061C156.614 42.0061 156.151 41.927 155.689 42.0839C155.767 42.163 155.767 42.163 155.842 42.163H158.467C158.775 42.163 159.083 42.2408 159.392 42.0839C159.546 41.8493 159.392 41.6924 159.314 41.5355C159.083 41.144 158.775 40.6748 158.543 40.2833L158.698 40.1264C159.006 40.2846 159.392 40.4401 159.701 40.6748C160.009 40.8316 160.242 40.9885 160.55 41.0663L161.243 41.5355C161.089 41.927 160.087 44.0401 159.701 44.5885C159.623 44.5094 159.623 44.4316 159.623 44.3538C159.623 44.2747 159.546 44.197 159.546 44.0401C159.469 44.4316 159.392 44.6662 159.237 44.9799C153.374 45.2924 147.511 45.6061 141.494 45.9185C142.034 45.527 142.574 45.527 142.96 45.2146C142.419 44.98 141.879 44.98 141.34 44.8231C141.494 45.0577 141.57 45.1368 141.646 45.2924C141.416 45.527 141.107 45.6839 140.799 45.8407C140.567 45.9976 140.259 46.1545 139.951 46.3891C140.104 46.5446 140.181 46.7015 140.259 46.8584C140.335 47.0152 140.335 47.1708 140.335 47.3276C140.413 48.1106 140.49 48.9714 140.645 49.7531C140.645 49.9904 140.799 50.2237 140.876 50.3805C141.107 50.8498 141.416 51.3204 141.646 51.7897C141.494 51.8688 141.416 51.9465 141.262 51.9465C141.107 51.9465 141.031 51.9465 140.876 52.0243C139.874 52.259 140.181 52.1812 139.41 51.6328C138.87 51.2413 138.407 50.772 137.867 50.3805C137.559 50.1459 137.404 49.9113 137.326 49.5975C136.94 48.4244 136.634 47.1721 136.247 45.9976C136.189 45.6443 136.028 45.3167 135.784 45.0577C135.476 44.7318 135.262 44.3258 135.167 43.8845C135.09 43.493 134.936 43.1793 134.859 42.7878C135.014 42.5532 135.244 42.3963 135.553 42.2408C135.706 42.1617 135.861 42.0826 136.015 41.927C136.479 42.0061 136.864 42.0061 137.326 42.0839C137.636 42.0839 137.945 42.163 138.176 42.3963C138.331 42.5545 138.484 42.5545 138.715 42.5545C138.87 42.5545 139.025 42.5545 139.179 42.4754C139.874 42.4754 140.104 42.4754 140.645 42.1617H139.874C139.796 42.1617 139.72 42.0826 139.565 42.0048C142.034 41.5355 144.502 41.144 146.971 40.6748C147.202 40.9094 147.357 41.2231 147.511 41.4578C147.588 41.8493 147.897 41.7702 148.205 41.6924L147.666 41.144C147.974 40.8316 148.36 40.5179 148.668 40.2833C149.054 39.9709 149.363 39.6571 149.747 39.4225C150.52 39.5794 151.136 39.9709 151.908 40.0486C151.908 39.9695 151.986 39.8918 151.986 39.814C151.986 39.3434 151.986 39.2656 151.522 39.1879C150.983 39.1088 150.442 38.9532 149.902 38.8741C149.537 38.7993 149.193 38.6386 148.9 38.4049C147.743 37.3872 146.585 36.3696 145.351 35.431C144.887 35.0395 144.58 34.648 144.426 34.0206V33.9428C144.348 33.7416 144.348 33.5179 144.426 33.3167C144.657 32.8474 144.965 32.299 145.196 31.752C145.274 31.5951 145.351 31.5174 145.196 31.3605C145.119 31.3605 145.041 31.3605 145.041 31.4396C144.657 31.9075 144.271 32.3781 143.885 32.9265C143.807 33.0043 143.807 33.1611 143.807 33.2389C143.807 33.3958 143.885 33.6304 143.885 33.7873C143.962 34.0219 144.04 34.3343 144.04 34.569C143.962 34.569 143.885 34.648 143.807 34.648C143.807 34.4134 143.576 34.3343 143.499 34.2565C142.342 33.3958 141.185 32.4559 140.026 31.5951C139.874 31.516 139.796 31.3605 139.642 31.2814C139.7 31.1637 139.779 31.0579 139.874 30.969C140.567 29.9514 141.185 29.0115 141.879 27.9952C142.187 27.5246 142.419 27.0553 142.727 26.5847C142.882 26.4292 142.96 26.1945 143.113 25.9599H144.81C145.119 25.9599 145.427 25.8808 145.737 25.7253C146.046 25.5671 146.277 25.4115 146.585 25.2547C146.662 25.1756 146.74 25.1756 146.816 25.0991C146.816 25.02 146.816 25.02 146.74 25.02H144.657V24.8632C145.119 24.473 145.582 24.0024 146.122 23.5318C146.277 23.5318 146.585 23.5318 146.894 23.4554C147.357 22.8279 147.897 22.2031 148.36 21.5756C148.9 21.5756 149.747 21.8116 150.366 22.124C149.441 22.5933 148.36 22.907 147.435 23.4554C147.743 23.5331 148.127 23.5331 148.436 23.4554C149.208 23.1416 149.902 22.7501 150.674 22.4377C150.752 22.4377 150.828 22.3586 150.906 22.2795C150.752 21.8894 150.752 21.4979 150.828 21.1064C150.906 20.7149 151.136 20.4025 151.291 20.011C150.983 20.011 150.752 20.011 150.442 19.9319C150.52 19.7763 150.52 19.6195 150.597 19.4626C151.291 18.3672 151.908 17.3495 152.449 16.175C152.527 16.0195 152.603 15.8626 152.603 15.7835C152.372 15.5489 152.141 15.7835 151.908 15.7835L151.831 15.7058C151.831 15.7058 151.753 15.6267 151.753 15.5489C151.677 14.6881 151.677 13.7496 151.6 12.8875C151.753 12.8097 151.831 12.9666 151.831 13.0457C152.141 13.5927 152.372 14.1398 152.68 14.6881C152.756 14.7672 152.756 14.9228 152.988 14.845C153.066 14.3757 152.988 13.9051 152.988 13.3581C152.756 13.1999 152.449 13.1221 152.449 12.8097C152.449 12.7306 152.294 12.5751 152.217 12.496C151.6 11.7921 151.06 11.0882 150.442 10.462C149.902 10.383 140.259 10.383 139.256 10.462C138.87 10.8522 138.484 11.3228 138.099 11.7934C138.021 11.949 137.867 12.0267 137.79 12.1836C137.636 12.2627 137.559 12.2627 137.404 12.1836C137.25 12.0267 137.018 12.0267 136.864 12.0267C136.787 11.9476 136.634 11.8699 136.479 11.7921C136.556 11.6352 136.556 11.4006 136.634 11.2437C136.556 11.2437 136.479 11.166 136.401 11.2437C135.992 11.3318 135.6 11.491 135.244 11.7143C134.936 11.949 134.55 12.1058 134.164 12.2614H134.009C133.778 11.7143 134.087 11.4006 134.473 11.0091C134.319 11.0091 134.241 10.93 134.164 11.0091C133.933 11.166 133.7 11.2437 133.47 11.4006C133.316 11.5575 133.084 11.6352 132.853 11.8699C133.008 11.166 133.316 10.6176 133.47 10.0705C133.548 9.75682 133.778 9.44441 134.009 9.20977C134.009 9.36532 134.087 9.52218 134.087 9.75682C134.164 9.44441 134.241 9.20977 134.319 8.97382C134.395 8.89605 134.473 8.73918 134.628 8.66141C134.936 8.50455 135.32 8.42677 135.63 8.34768C135.706 8.34768 135.861 8.42677 136.015 8.42677C136.093 8.19214 136.247 8.11305 136.479 8.11305C136.864 8.11305 137.326 8.03395 137.714 8.03395C138.021 8.03395 138.407 7.95618 138.715 7.80064C139.025 7.64377 139.41 7.566 139.796 7.566C139.796 7.25227 139.487 7.33005 139.41 7.1745L139.487 7.09541C140.335 7.09541 141.107 7.01764 141.956 7.01764C142.574 7.01764 143.19 6.93855 143.885 6.93855C143.73 7.1745 143.499 7.1745 143.345 7.25227C143.037 7.33136 142.727 7.33136 142.419 7.64377C142.727 7.72286 143.037 7.64377 143.345 7.56468C145.119 7.1745 146.816 6.86077 148.591 6.47059C148.822 6.3915 148.977 6.3915 149.208 6.3915C149.439 6.54836 149.208 6.70391 149.286 6.93986C149.441 7.09541 149.671 6.93986 149.825 6.93986C149.747 6.62614 149.747 6.31373 149.671 6C150.191 6.2587 150.683 6.57383 151.136 6.93986C151.213 6.93986 151.291 6.86077 151.368 6.86077C151.6 7.1745 151.446 7.72155 151.831 7.95618H151.908C152.063 7.48691 151.831 7.09541 151.908 6.54836C152.141 6.783 152.294 7.01764 152.449 7.25227H154.531C154.686 7.40914 154.841 7.566 154.917 7.72155C155.92 8.81827 156.847 9.99145 157.772 11.0882L158.234 11.7921C159.237 12.1058 160.395 12.3405 161.475 12.6529C161.862 13.826 162.015 15.0796 162.401 16.2541H162.864C162.787 15.7058 162.787 15.1574 162.709 14.6104C162.669 14.4341 162.668 14.2508 162.709 14.0744C162.749 13.8981 162.828 13.7333 162.94 13.5927C163.404 13.0444 163.943 12.4195 164.407 11.8699C164.638 11.6352 164.793 11.4797 165.101 11.4006C165.873 11.3215 166.644 11.166 167.415 11.0091C167.569 11.166 167.724 11.2437 167.879 11.3228C168.573 11.949 169.268 12.5751 170.039 13.2012C170.501 13.5927 170.655 14.1398 170.888 14.6104V14.7659C170.733 15.4711 170.81 16.2541 170.269 16.8012C170.193 16.8803 170.193 16.9594 170.116 17.0358C170.269 17.4273 170.193 17.8979 170.116 18.3672C170.116 18.524 170.039 18.6018 169.961 18.7587C169.268 19.6195 168.573 20.4025 167.879 21.2632C167.879 21.2632 167.801 21.2632 167.801 21.3423C167.724 21.2632 167.569 21.2632 167.493 21.1841C167.029 20.8717 166.568 20.4802 166.104 20.09C165.873 19.9319 165.718 19.9319 165.487 19.9319C165.101 20.011 164.638 20.09 164.174 20.2456C164.174 19.9319 164.56 19.9319 164.56 19.7763C164.174 19.6972 164.098 19.6972 163.249 20.011C162.941 20.09 162.632 20.09 162.246 20.1678C162.401 19.7763 162.632 19.5417 162.787 19.3057C162.864 19.228 162.941 19.0711 162.864 18.9155C162.864 18.9155 162.94 18.9155 162.94 18.8365L162.864 18.9155C162.632 19.0711 162.478 19.1502 162.246 19.3057L162.015 19.5417C161.553 20.4802 161.012 21.2632 160.395 22.0462H157.848C157.694 22.4377 157.54 22.6724 157.462 23.0639C157.386 23.2194 157.387 23.3763 157.387 23.6109L157.309 23.69V23.6109C157.54 23.5318 157.617 23.2985 157.694 23.0639C157.848 22.8292 157.926 22.5933 158.081 22.3586H159.778C159.932 22.3586 160.164 22.4377 160.318 22.2795C160.473 22.2795 160.626 22.2795 160.781 22.2018L161.321 21.6547C161.784 21.1855 162.17 20.7149 162.554 20.3234H163.327C163.789 20.4025 164.174 20.5593 164.638 20.6371C164.793 20.6371 164.948 20.7162 165.024 20.8717C165.409 21.5756 165.873 22.2031 166.181 22.9848C166.027 23.0639 165.949 23.2194 165.873 23.2985C165.873 23.3776 165.873 23.3776 165.949 23.4554C166.104 23.6109 166.259 23.8455 166.568 23.8455C166.644 23.8455 166.721 24.0037 166.799 24.0815C167.647 24.9423 168.419 25.803 169.268 26.7416C168.958 27.0553 169.113 27.369 169.19 27.6815C169.268 27.9952 169.268 28.3076 169.499 28.6213C169.73 28.5422 169.808 28.2298 169.961 28.073C170.116 28.152 170.193 28.2298 170.269 28.4645C170.347 28.7769 170.424 29.0906 170.655 29.4821C170.605 28.9094 170.448 28.3515 170.193 27.8383C170.193 27.7592 170.193 27.6037 170.269 27.5246C170.424 27.29 170.579 27.1331 170.81 26.9775C171.196 26.6638 171.428 26.1945 171.66 25.7253C172.199 24.7076 172.585 23.6109 172.971 22.4377C173.125 22.0462 173.202 21.6547 173.433 21.341H173.588C174.205 21.4201 174.899 21.4201 175.516 21.4992V21.7325C175.516 21.8116 175.439 21.8894 175.439 22.0462H175.748C175.67 22.2809 175.67 22.5155 175.516 22.7501C174.514 25.1756 173.51 27.6037 172.508 30.1082C172.353 30.4206 172.199 30.8121 172.044 31.1259C171.813 31.2036 171.505 31.2827 171.274 31.4383C171.274 31.6729 171.35 31.9089 171.35 32.2213C170.964 32.3781 170.655 32.535 170.269 32.6905C170.116 32.6115 170.116 32.4559 170.116 32.299C170.039 32.0644 170.039 31.8298 169.961 31.5174C169.576 31.5174 169.268 31.3592 168.88 31.5174C169.19 31.4383 169.19 31.5951 169.19 31.6729ZM158.312 25.0991C158.312 25.02 158.389 25.02 158.389 24.941C158.775 24.7854 158.775 24.7854 158.853 24.3939C158.621 24.5508 158.389 24.6272 158.389 24.941C158.312 24.941 158.312 24.9423 158.312 25.0991C158.234 25.0991 158.158 25.0991 158.081 25.1769C158.003 25.256 157.926 25.256 157.848 25.3338V25.4115L157.926 25.4906L158.081 25.3325C158.158 25.1769 158.234 25.0978 158.312 25.0978V25.0991ZM156.692 26.3514C156.692 26.4292 156.614 26.4292 156.614 26.507C156.692 26.507 156.692 26.4292 156.769 26.4292L156.923 26.2723C157.155 26.1932 157.309 25.9599 157.462 25.7253C157.462 25.7253 157.54 25.7253 157.54 25.6462L157.617 25.5671V25.4115L157.54 25.4906L157.387 25.6462C157.264 25.6934 157.152 25.7667 157.059 25.8613C156.965 25.9558 156.893 26.0694 156.847 26.1945C156.847 26.2736 156.769 26.3514 156.692 26.3514ZM145.505 31.5951C145.505 31.516 145.582 31.516 145.582 31.4383C145.582 31.4383 145.582 31.3592 145.505 31.3592H145.427L145.274 31.5174C145.274 31.5951 145.196 31.6729 145.196 31.752C145.427 31.752 145.505 31.6729 145.505 31.5951ZM152.449 29.3252C152.527 29.2461 152.603 29.2461 152.756 29.1684H152.911C152.911 29.1684 152.911 29.0893 152.988 29.0893H152.911C152.833 29.0893 152.833 29.1684 152.756 29.1684C152.603 29.2461 152.527 29.2461 152.449 29.3252H152.294C152.294 29.3252 152.294 29.4043 152.217 29.4043H152.294C152.372 29.4043 152.372 29.4043 152.449 29.3252ZM135.244 10.7745C135.167 10.7745 135.09 10.8535 135.014 10.8535L134.859 11.0091C134.936 11.0091 134.936 11.0091 135.014 11.0882C135.09 11.0091 135.244 10.93 135.32 10.8522C135.32 10.7745 135.398 10.7745 135.398 10.6967C135.32 10.7758 135.244 10.7745 135.244 10.7745ZM139.874 9.28755C140.104 9.05291 140.181 8.66141 140.259 8.34768L140.181 8.26991H140.026C139.874 8.66141 139.874 8.97382 139.874 9.28755L139.796 9.36664C139.796 9.36664 139.796 9.44441 139.874 9.44441V9.36532V9.28755ZM153.142 22.0462C152.68 21.888 152.217 21.6547 151.753 21.5756C151.291 22.0462 151.291 22.0462 151.136 22.3586H151.213C151.291 22.3586 151.368 22.3586 151.446 22.2795C151.908 21.9671 152.372 21.9671 152.833 22.124H152.911C153.528 22.2809 154.147 22.4377 154.917 22.5155C154.3 22.3586 153.761 22.2018 153.142 22.0462ZM155.381 21.1855C154.994 20.8717 154.531 20.6371 154.147 20.4025C153.992 20.3234 153.837 20.2456 153.683 20.2456C153.452 20.2456 153.374 20.2456 152.988 20.4025C153.761 20.7149 154.453 21.1064 155.226 21.4201C155.458 21.5756 155.689 21.7325 156.074 21.7325C155.92 21.4201 155.612 21.2632 155.381 21.1855ZM155.148 14.062C154.841 13.9051 154.608 13.8274 154.223 13.9051C154.531 14.2189 154.841 14.2189 155.148 14.2966C155.226 14.2966 155.381 14.3757 155.458 14.3757C155.997 14.5313 156.537 14.6104 156.923 15.0796C156.923 15.1587 157.078 15.0796 157.232 15.0796C157.001 14.3757 156.847 13.6705 156.537 13.0444C155.844 11.7921 155.226 10.6189 154.531 9.36664C154.147 8.66141 153.683 8.11436 153.22 7.566H153.066C153.142 7.72155 153.22 7.87841 153.374 8.03527C153.835 8.72184 154.223 9.45624 154.531 10.2261C155.148 11.4784 155.689 12.8097 156.383 13.9829C156.461 14.062 156.461 14.1411 156.461 14.2966C155.92 14.2175 155.534 14.062 155.148 14.062ZM151.908 29.639C151.6 29.7167 151.291 29.8736 150.983 30.1082C151.291 30.2638 151.522 30.4206 151.831 30.4997C151.908 30.5775 152.063 30.5775 152.141 30.4206C152.141 30.186 152.063 29.8736 151.908 29.639ZM158.081 13.5136C157.848 14.062 157.772 14.6104 157.617 15.1574C157.617 15.2365 157.694 15.3156 157.848 15.4711C158.003 14.7659 158.003 14.1398 158.081 13.5136ZM152.527 9.83591C152.603 9.28755 152.449 8.81827 152.372 8.42545L152.294 8.34768C152.217 8.34768 152.141 8.42677 152.141 8.42677C152.141 8.89605 152.294 9.28755 152.527 9.83591ZM153.683 35.352C154.3 35.5088 154.841 35.352 155.534 35.352C154.453 35.1951 154.147 35.1951 153.683 35.352ZM156.383 23.69C156.228 23.8455 156.151 24.0815 156.074 24.3939C156.383 24.3148 156.461 24.0815 156.537 23.9246C156.614 23.7678 156.537 23.69 156.383 23.69ZM146.585 35.352C146.122 35.1951 146.122 35.1951 145.582 35.352C145.968 35.431 146.277 35.431 146.585 35.352ZM139.41 8.34768C139.334 8.42677 139.334 8.50586 139.334 8.66141H139.41V8.34636V8.34768ZM170.964 29.5599V29.639C170.964 29.639 171.041 29.639 170.964 29.5599C171.041 29.5599 171.041 29.5599 170.964 29.5599ZM52.1553 19.5417C52.3879 19.4626 52.6191 19.3835 52.8504 19.3835C54.535 18.8359 56.2649 18.4432 58.0189 18.2103C59.4091 18.0535 60.8734 17.9757 62.2623 18.2894C64.423 18.7587 66.0432 20.011 67.1996 21.888C67.5854 22.5933 67.8167 23.2985 67.8167 24.1593V30.4206C67.8167 31.8311 67.3542 33.0043 66.6604 34.0997C65.8119 35.352 64.5776 36.2127 63.1887 36.7611C62.7249 36.918 62.1077 36.9957 61.5685 37.0748C59.3171 37.3215 57.04 37.1355 54.8565 36.5265C54.1614 36.3696 53.4663 36.0559 52.6958 35.8212C52.5412 35.7435 52.4645 35.7435 52.2333 35.6657C52.2333 35.9003 52.1553 36.0572 52.1553 36.2127V40.4401C52.1553 40.6748 52.1553 40.9094 52.0786 41.2231C51.9823 41.7528 51.7053 42.2313 51.2963 42.5747C50.8873 42.9181 50.3722 43.1046 49.8413 43.1015C48.685 43.0225 47.8352 42.1617 47.7586 41.0663V40.5179V20.7149C47.7586 20.4025 47.7586 20.0887 47.8365 19.8541C48.0665 18.9142 48.6837 18.3672 49.61 18.2103C50.5351 18.0535 51.2302 18.445 51.7707 19.1502C51.924 19.1502 52.002 19.3848 52.1553 19.5417ZM52.2333 22.5155C52.2333 22.6724 52.1553 22.8292 52.1553 22.9848V32.4559C52.1553 32.6128 52.1553 32.6905 52.2333 32.8474H60.2575C61.3359 32.8474 62.2623 32.3781 62.9574 31.516C63.342 31.0468 63.6512 30.4997 63.6512 29.7945V25.4115C63.6512 25.1769 63.5733 24.9423 63.4966 24.7076C63.1107 23.4554 62.1844 22.7501 60.9501 22.5155C60.4875 22.4364 60.025 22.5155 59.5624 22.5155H52.2333ZM111.249 28.62C110.708 28.6991 110.169 28.7782 109.552 28.856C108.394 29.0128 107.16 29.1684 105.926 29.1684C104.999 29.1684 104.151 29.0893 103.224 29.0115C102.454 28.9337 101.682 28.7769 100.834 28.6991H100.293C100.139 28.9337 100.215 29.1684 100.215 29.403V35.0395C100.139 36.2127 99.2136 37.1526 98.0559 37.1526C96.8996 37.1526 95.8965 36.2127 95.8186 35.0395V34.4912V20.794V20.2456C95.8965 19.0724 96.8216 18.1325 97.9793 18.1325C99.1356 18.1325 100.139 19.0711 100.139 20.2456V24.8632C100.293 25.0978 100.525 25.0214 100.679 25.0214H111.094C111.094 24.7854 111.172 24.6285 111.172 24.4717V20.7149C111.172 20.4025 111.172 20.0887 111.249 19.8541C111.398 19.3943 111.689 18.9949 112.077 18.7136C112.466 18.4323 112.932 18.2837 113.409 18.2894C114.411 18.2894 115.261 18.9933 115.492 19.9319C115.57 20.1678 115.57 20.4802 115.57 20.7149V34.7271C115.57 34.9605 115.57 35.1173 115.492 35.352C115.414 36.2918 114.566 37.3095 113.177 37.2304C112.02 37.1513 111.172 36.2127 111.094 35.0395V34.4912V29.403C111.325 29.0906 111.325 28.856 111.249 28.62ZM10.2603 37.1526H5.47772C4.55134 37.1526 3.62626 36.9957 2.77784 36.6042C1.54353 36.0572 0.771766 35.1173 0.385883 33.7873C0.0766569 32.7696 0 31.8298 0 30.8121V26.3527V23.69C0 22.7515 0.23127 21.8907 0.540496 21.0299C0.848423 20.1691 1.46558 19.543 2.16069 19.0724C3.08577 18.5254 4.0888 18.2116 5.1685 18.2116H15.1209C15.5847 18.2116 15.9693 18.2907 16.4332 18.3685C17.5895 18.6809 18.4392 19.3084 18.9797 20.4038C19.5956 21.4992 19.8269 22.7515 19.7502 24.0037C19.6722 25.1005 18.9018 25.8821 17.8221 25.8821C17.5129 25.8821 17.2049 25.8821 16.8957 25.8044C16.0473 25.5697 15.5068 24.8645 15.4301 24.0037C15.4301 23.6913 15.4301 23.3776 15.3522 23.143C15.2755 22.5946 14.8896 22.2031 14.4271 21.9698C14.0412 21.7338 13.5787 21.7338 13.1148 21.7338H6.01822C4.93723 21.8907 4.24342 22.5946 4.16546 23.6913V31.516C4.16546 31.8298 4.16546 32.2213 4.32137 32.535C4.6293 33.3167 5.1685 33.7082 5.94026 33.7873H13.0382C13.3474 33.7873 13.732 33.7873 14.0412 33.7082C14.813 33.4735 15.2755 32.9252 15.3535 32.1435V31.5174C15.3535 30.5775 16.2019 29.639 17.2816 29.639H17.8221C18.8238 29.7167 19.5956 30.4206 19.6735 31.4383C19.7515 32.6905 19.5176 33.9428 18.9018 35.1173C18.208 36.3696 17.127 37.0748 15.6614 37.2304C15.2755 37.3095 14.813 37.3095 14.4271 37.3095C13.1148 37.1513 11.6493 37.1526 10.2603 37.1526ZM28.3085 22.4377V34.4134C28.3085 34.7258 28.3085 35.0395 28.2305 35.2742C28.1539 36.2127 27.2275 37.2304 25.9932 37.1526C24.9148 37.1526 23.9871 36.2127 23.8338 35.1173V34.7258V20.5593C23.8338 20.2456 23.8338 19.9319 23.9118 19.6972C24.1417 18.8365 24.7589 18.2894 25.6073 18.1325C26.457 17.9757 27.1508 18.2894 27.6913 18.9933C27.846 19.1502 27.9226 19.307 28.0772 19.5417C28.2305 19.5417 28.3085 19.4626 28.3852 19.4626C29.6195 18.9933 30.8538 18.7587 32.166 18.524C33.9395 18.2103 35.791 18.1325 37.5658 18.0535C38.2609 18.0535 38.956 18.0535 39.5719 18.2116C40.7282 18.524 41.6546 19.1502 42.3497 20.1678C43.0435 21.1064 43.3527 22.2018 43.4294 23.3763C43.584 27.1331 43.5074 30.969 43.5074 34.7258V35.0395C43.4552 35.609 43.1983 36.1391 42.7857 36.5287C42.3731 36.9184 41.8336 37.1405 41.27 37.1526C40.3436 37.1526 39.186 36.5265 39.0314 35.0395V34.4134V25.6475C39.0314 25.0991 39.0314 24.5508 38.8781 24.0815C38.7234 23.7678 38.6468 23.3763 38.4155 23.0639C38.0296 22.5155 37.5658 22.2018 36.872 22.2018H28.8477C28.9256 22.36 28.6164 22.36 28.3085 22.4377ZM86.9485 32.8474C87.0264 32.6128 87.0264 32.3004 87.0264 32.0644V20.7149C87.0264 20.4025 87.0264 20.0887 87.1031 19.8541C87.2577 18.6809 88.3374 17.9757 89.4171 17.9757C90.4981 18.0548 91.4231 18.9155 91.4998 20.0887V34.4925C91.4998 34.8049 91.4998 35.1173 91.4231 35.352C91.1919 36.214 90.6514 36.7624 89.8029 36.9957C88.8779 37.2304 88.1828 36.9166 87.5656 36.214C87.411 36.0559 87.3343 35.9003 87.1797 35.7435H86.9485C85.6362 36.214 84.3252 36.5265 82.9363 36.6833C81.0849 36.918 79.1554 37.1526 77.2273 37.1526C76.6102 37.1526 75.993 37.0735 75.3759 36.918C74.2195 36.6042 73.3698 35.9003 72.676 34.9618C72.0588 34.0997 71.7496 33.082 71.6729 31.9866C71.5183 29.8736 71.595 27.8383 71.595 25.7253V20.558C71.595 20.3247 71.595 20.0887 71.6729 19.8541C71.9042 18.7587 72.7526 17.9757 73.8336 18.0548C74.99 18.0548 75.9164 18.9933 75.993 19.9332C75.993 20.1678 76.071 20.4802 76.071 20.794V29.5599C76.071 30.1082 76.071 30.6566 76.2243 31.1259C76.3022 31.4383 76.4569 31.6742 76.6102 31.9089C76.996 32.535 77.6132 32.9265 78.385 32.9265H86.6405C86.7172 32.9265 86.7938 32.9265 86.9485 32.8474Z" fill="#8A7E95"/>
<path d="M131.386 22.5155V35.2742C131.309 36.4474 130.383 37.3873 129.225 37.3873C127.835 37.3873 126.988 36.2141 126.988 35.2742V34.569V23.2985V22.5933C126.835 22.3587 126.604 22.4377 126.449 22.4377C124.674 22.2796 122.899 22.124 121.125 21.7325C120.258 21.5712 119.406 21.3357 118.578 21.0286C118.358 20.9559 118.151 20.8501 117.962 20.7149C117.739 20.5322 117.58 20.2805 117.511 19.9982C117.441 19.7158 117.464 19.4181 117.576 19.1502C117.807 18.5241 118.193 18.2103 118.811 18.1326H139.178C139.95 18.1326 140.412 18.6018 140.567 19.3057C140.639 19.6279 140.602 19.9653 140.462 20.2635C140.322 20.5617 140.087 20.8034 139.795 20.9495C139.564 21.0286 139.41 21.1077 139.178 21.1855C138.02 21.5757 136.786 21.8116 135.63 22.0463C134.317 22.2809 133.006 22.3587 131.617 22.4377C131.541 22.4377 131.464 22.4378 131.386 22.5155ZM135.939 42.1617C135.784 42.2408 135.63 42.3186 135.476 42.4754C135.476 42.3172 135.398 42.2395 135.244 42.3173C134.936 42.3963 134.549 42.4754 134.242 42.631H133.778C133.701 42.631 133.623 42.7101 133.469 42.7101H131.927V42.4754C132.236 42.2408 132.544 41.9271 132.852 41.6924C132.776 41.6133 132.776 41.6133 132.698 41.5356C132.776 41.4565 132.776 41.3787 132.852 41.3009C135.244 38.4827 137.712 35.7435 140.182 33.0043C140.413 33.1598 140.645 33.2389 140.798 33.3167C141.648 33.786 142.418 34.2566 143.268 34.7272C143.423 34.8036 143.654 34.8827 143.808 35.0396C143.808 35.0396 143.885 34.9605 143.962 34.9605C143.885 35.0396 143.885 35.1173 143.962 35.1951C144.193 35.3533 144.424 35.5088 144.734 35.6657C144.502 36.0572 144.116 36.2128 143.885 36.5265C143.345 36.9958 142.804 37.465 142.265 38.0134C142.034 38.0925 141.879 38.248 141.802 38.5618C142.11 38.4827 142.265 38.3258 142.418 38.0912C142.959 37.6219 143.577 37.1526 144.116 36.682C144.424 36.5265 144.579 36.2127 144.888 36.135C145.119 36.5265 145.274 36.918 145.429 37.3873C145.274 37.4663 145.197 37.6219 145.043 37.6997C143.577 38.7173 142.034 39.6572 140.568 40.6748C139.873 41.1441 139.256 41.5356 138.562 42.0062H138.407C138.407 41.848 138.329 41.6924 138.329 41.5356C137.559 41.5356 136.864 41.6924 136.169 42.0048C136.085 42.0455 136.007 42.0983 135.939 42.1617ZM140.723 39.4225L140.568 39.5794C140.413 39.5794 140.259 39.6572 140.259 39.814L140.104 39.9696C139.95 39.9696 139.873 39.9696 139.873 40.1278H139.796C139.796 40.1278 139.796 40.0487 139.873 40.0487C140.028 40.0487 140.104 40.0487 140.182 39.8918L140.337 39.7349C140.49 39.7349 140.568 39.5794 140.568 39.4225C140.645 39.5794 140.723 39.5016 140.723 39.4225C140.798 39.4225 140.876 39.4225 140.798 39.3434L140.723 39.4225ZM141.107 39.1879C141.339 39.1088 141.57 38.9533 141.724 38.5618C141.339 38.6395 141.184 38.8742 141.107 39.1879C141.029 39.1879 141.029 39.1879 140.953 39.2657C141.029 39.1866 141.107 39.1879 141.107 39.1879Z" fill="#8A7E95"/>
<path d="M133.471 42.71C133.548 42.6309 133.626 42.6309 133.779 42.6309H134.243C134.475 43.2584 134.707 43.8832 134.937 44.5106C135.014 44.7453 135.092 44.9021 135.168 45.1368C134.937 45.2936 134.784 45.3714 134.552 45.5283C133.087 46.389 131.543 47.3276 130.078 48.1897C129.922 48.2675 129.692 48.3452 129.614 48.5799C129.458 48.5021 129.383 48.5799 129.306 48.7381H129.151C128.842 48.8158 128.611 48.8936 128.456 49.1282C128.378 49.1282 128.378 49.2073 128.303 49.2073C126.528 50.2236 124.831 51.3204 123.057 52.338C122.902 52.4158 122.747 52.6504 122.439 52.5726C122.517 52.4158 122.517 52.2589 122.593 52.102C122.361 51.9465 122.13 52.0243 121.977 52.2602C121.668 52.7282 121.282 53.1988 120.974 53.5903C120.743 53.9027 120.51 54.2164 120.202 54.5288L119.893 54.8426C119.971 54.5288 119.971 54.2942 119.971 54.0596C120.124 53.1988 120.202 52.338 120.357 51.4759C120.433 51.1635 120.51 50.9289 120.819 50.772C121.822 50.1459 122.825 49.5197 123.828 48.8158C124.06 48.6576 124.291 48.5021 124.6 48.3452V48.5799L122.98 50.6942C122.902 50.8498 122.825 50.9289 122.747 51.0857C123.057 51.2413 123.211 51.1635 123.366 50.9276L124.753 49.0505C124.986 48.7367 125.141 48.5021 125.371 48.1897L125.139 47.9537C125.217 47.876 125.217 47.7982 125.294 47.7982C126.219 47.0152 126.991 46.0753 127.839 45.2146C128.226 44.823 128.533 44.4315 128.919 44.0414C129.153 43.8054 129.383 43.6499 129.692 43.5708C130.651 43.3994 131.603 43.1906 132.546 42.9446C133.009 42.9446 133.317 42.9446 133.471 42.71ZM117.883 55.155C118.345 54.9203 118.655 54.6066 119.195 54.451V54.6857C118.655 56.3295 118.037 58.051 117.497 59.6948C116.803 59.7739 115.8 59.7739 115.26 59.6948C115.338 59.3033 115.338 58.9118 115.414 58.5216L115.645 57.1111C115.645 56.7987 115.8 56.5641 116.031 56.4863C116.186 56.4072 116.339 56.2517 116.571 56.0948C116.571 55.3118 116.339 54.5288 116.417 53.668C117.342 53.2765 118.345 52.885 119.272 52.6504C119.272 52.6504 119.35 52.6504 119.425 52.7295C118.886 53.589 118.191 54.2942 117.652 55.155C117.496 55.2341 117.342 55.3896 117.42 55.5465H117.342L117.42 55.4674C117.652 55.4674 117.728 55.3118 117.883 55.155ZM173.816 21.1854H173.663C173.738 21.1063 173.738 20.9495 173.663 20.8717C173.508 20.637 173.354 20.4802 173.199 20.2455C173.123 20.1665 173.123 20.0109 173.123 19.9318C173.508 19.9318 173.893 19.7763 174.202 19.5416H173.663C173.432 19.5416 173.199 19.5416 172.968 19.6194V18.8364C172.968 18.1325 172.968 18.1325 173.432 17.4273C173.507 17.4962 173.567 17.5809 173.607 17.6756C173.647 17.7703 173.666 17.8727 173.663 17.9756C173.663 18.1325 173.586 18.288 173.586 18.4449C173.586 18.524 173.738 18.6018 173.816 18.6795C173.971 18.1325 174.048 17.741 174.124 17.2717C174.434 17.2717 174.665 17.4273 174.897 17.5064C175.129 17.5855 175.359 17.8188 175.668 17.741C175.745 17.8979 175.822 17.8979 175.977 17.8979C175.977 17.8979 176.054 17.8188 176.054 17.7397H176.208C176.208 17.8188 176.132 17.9756 176.208 17.9756C176.363 18.0547 176.594 18.1325 176.749 18.2103L176.826 18.1312C176.749 18.2894 176.672 18.524 176.518 18.6018C176.44 18.6809 176.285 18.7586 176.208 18.9155C176.44 18.8364 176.749 18.8364 176.979 18.7573C176.979 18.7573 177.057 18.7573 177.057 18.8364V18.9155C177.057 18.9933 176.979 19.071 176.979 19.1501C176.672 19.7763 176.285 20.4024 175.977 21.0285C175.437 21.0285 174.897 20.9495 174.279 20.9495C174.048 21.0285 173.893 21.0285 173.816 21.1854ZM120.966 55.7033V55.5465C121.43 54.9203 121.892 54.2942 122.433 53.668C122.586 53.5112 122.663 53.3556 122.817 53.1988L126.753 50.8498L126.908 51.008C125.211 52.6504 123.436 54.2164 121.506 55.5465C121.352 55.7033 121.121 55.7811 120.966 55.938V55.7033ZM115.258 61.5745C116.263 61.1039 117.034 60.8693 117.497 60.7902C117.419 61.2608 116.649 63.3738 116.263 64C116.185 64 116.108 63.9209 116.108 63.9209C115.8 63.6862 115.491 63.5307 115.26 63.2961V61.5732L115.258 61.5745ZM118.345 59.5379C118.192 59.0686 118.267 58.5994 118.423 58.1288C118.731 57.268 118.963 56.4072 119.194 55.5465C119.658 55.4674 120.044 55.3118 120.506 55.2327C120.506 55.3118 120.584 55.3909 120.584 55.3909C119.884 56.7984 119.137 58.1815 118.345 59.5379Z" fill="#8A7E95"/>
<path d="M131.313 48.4236C130.386 49.1275 129.461 49.8314 128.535 50.4576C128.535 50.4576 128.457 50.4576 128.382 50.5367C128.382 50.0674 128.612 49.6746 128.612 49.2053V49.0484C128.843 49.0484 129.075 48.9707 129.307 48.8138C129.383 48.736 129.538 48.8138 129.461 48.6582C129.616 48.736 129.771 48.736 129.771 48.5001C129.847 48.5792 129.924 48.6582 130.002 48.5792C130.386 48.4236 130.85 48.2667 131.236 48.1877C131.236 48.2667 131.236 48.3471 131.313 48.4236ZM137.244 12.1815C137.476 12.1815 137.631 12.1815 137.784 12.3397C137.784 12.4966 137.708 12.5743 137.631 12.7312C137.322 13.2005 137.013 13.7488 136.703 14.2181C136.703 14.2181 136.627 14.2181 136.55 14.2972C136.395 13.8266 136.241 13.4351 136.55 12.9658L136.781 12.4966C136.858 12.2606 137.013 12.1815 137.244 12.1815ZM175.827 16.8004C175.596 16.9573 175.363 17.0351 175.055 16.8004C174.979 16.4089 175.21 15.3135 175.441 14.6874C175.596 14.6874 175.827 14.7665 176.058 14.7665C175.982 15.0789 175.904 15.3926 175.904 15.705C175.827 15.9397 175.827 16.2534 175.75 16.488C175.75 16.6449 175.827 16.7227 175.827 16.8004Z" fill="#8A7E95"/>
<path d="M176.137 17.8973H175.596C175.596 17.7405 175.674 17.5058 175.674 17.349V16.8006C175.751 16.7228 175.829 16.645 175.829 16.4882L176.06 15.5483C176.369 15.5483 176.369 15.5483 176.601 15.7065C176.456 16.3938 176.276 17.0727 176.06 17.7405C176.291 17.8195 176.215 17.8195 176.137 17.8973ZM174.279 15.4705C174.511 15.4705 174.588 15.4705 174.819 15.5496C174.819 16.0176 174.743 16.4882 174.666 16.9575C174.511 16.9575 174.357 16.9575 174.202 17.0365C174.126 16.4882 174.279 16.0176 174.279 15.4705ZM133.393 13.513C133.162 13.3575 133.162 13.2006 133.24 13.0438C133.47 12.6523 133.701 12.183 134.011 11.7915C134.242 12.1052 134.242 12.4176 134.089 12.6523C133.925 12.9893 133.687 13.2837 133.393 13.513ZM176.751 18.2888C176.675 17.8182 176.906 17.349 177.061 16.9575C177.292 16.8006 177.447 16.9575 177.6 17.1143C177.523 17.5058 177.37 17.8973 177.292 18.2875H176.751V18.2888ZM173.82 21.1849C173.898 21.0267 174.053 21.0267 174.129 21.0267C174.67 21.0267 175.209 21.1058 175.826 21.1058C175.826 21.1849 175.75 21.2626 175.75 21.3404C175.133 21.3404 174.515 21.2626 173.82 21.1849ZM170.501 27.6809C170.732 28.1501 170.807 28.6985 170.962 29.3246C170.655 28.9331 170.655 28.6207 170.577 28.307C170.501 28.1501 170.501 27.9946 170.268 27.9155C170.268 27.7586 170.346 27.6809 170.501 27.6809ZM172.968 19.6189C173.199 19.6189 173.432 19.6189 173.663 19.5398C173.816 19.5398 173.971 19.462 174.202 19.5398C173.893 19.7757 173.508 19.8535 173.123 19.9313C173.046 19.8535 173.046 19.7757 172.968 19.6189ZM126.988 51.0061L126.833 50.8492C127.066 50.6146 127.297 50.4577 127.607 50.38C127.451 50.6937 127.221 50.8492 126.988 51.0061ZM131.315 48.4238C131.238 48.3447 131.16 48.2656 131.16 48.1878C131.315 48.11 131.469 48.0323 131.546 47.9532H131.779C131.624 48.2669 131.624 48.2669 131.315 48.4238ZM117.889 55.1544C117.811 55.3113 117.658 55.389 117.427 55.389C117.427 55.1544 117.505 55.0766 117.658 54.9975C117.736 55.0766 117.813 55.1544 117.889 55.1544ZM175.974 21.8888H175.665C175.665 21.8097 175.742 21.7319 175.742 21.575H175.897C175.974 21.7332 175.974 21.811 175.974 21.8888ZM132.003 42.5526V42.7872C131.927 42.8663 131.849 42.8663 131.772 42.7095C131.772 42.6304 131.927 42.5526 132.003 42.5526ZM124.829 48.7362V48.5015C124.907 48.5015 124.985 48.4225 125.06 48.4225V48.5806C124.905 48.6584 124.829 48.6584 124.829 48.7362ZM120.967 55.7028V55.9374C120.889 55.9374 120.889 56.0165 120.813 56.0165L120.735 55.9374L120.967 55.7028ZM175.977 21.8888V21.6541C176.132 21.7332 176.132 21.7332 175.977 21.8888ZM160.473 40.9879L160.318 40.8297C160.395 40.752 160.473 40.8297 160.473 40.9879ZM128.604 49.0499C128.682 49.0499 128.682 49.1277 128.604 49.2055H128.45C128.45 49.1264 128.526 49.1264 128.604 49.0499ZM169.116 31.6723C169.194 31.7514 169.194 31.7514 169.116 31.6723V31.6723ZM122.589 52.493V52.5721H122.512C122.512 52.5721 122.589 52.5721 122.589 52.493Z" fill="#8A7E95"/>
<path d="M120.813 56.0158C120.813 56.0158 120.735 56.0158 120.735 56.0948C120.735 56.0158 120.735 56.0158 120.813 56.0158ZM160.631 22.2018V22.3599C160.478 22.5155 160.323 22.4377 160.092 22.4377H158.394C158.239 22.6723 158.163 22.907 158.008 23.1416C157.931 23.2985 157.853 23.5331 157.622 23.69C157.622 23.5331 157.622 23.2985 157.699 23.1416C157.777 22.8292 157.931 22.5155 158.086 22.124H159.397C159.783 22.124 160.169 22.2018 160.631 22.2018ZM158.313 42.0839C158.313 42.163 158.39 42.2408 158.39 42.3185H155.766C155.766 42.3185 155.69 42.2394 155.614 42.2394C156.075 42.0839 156.539 42.1617 157.001 42.1617C157.464 42.0826 157.926 42.0826 158.313 42.0826V42.0839ZM152.986 22.2795L153.219 22.0462C153.759 22.1253 154.375 22.3586 154.992 22.6723C154.221 22.5933 153.527 22.5142 152.986 22.2795ZM152.529 9.83589C152.34 9.3849 152.211 8.91067 152.144 8.42544C152.144 8.42544 152.222 8.34767 152.299 8.34767C152.299 8.34767 152.374 8.34767 152.374 8.42676C152.452 8.81826 152.607 9.28753 152.529 9.83589ZM139.102 42.71C139.102 42.6309 139.412 42.6309 139.18 42.3963L139.257 42.3172H139.488C139.566 42.3963 139.643 42.3963 139.798 42.4754H140.569C140.029 42.71 139.721 42.71 139.102 42.71ZM155.146 14.062V14.2966C154.837 14.2175 154.451 14.2175 154.219 13.9051C154.529 13.826 154.837 13.9051 155.146 14.062ZM139.869 9.28753C139.792 8.9738 139.869 8.5823 140.022 8.26989C140.022 8.26989 140.1 8.1908 140.177 8.26989L140.255 8.34898C140.177 8.73917 140.177 9.05289 139.869 9.28753ZM153.676 35.3519C154.139 35.1951 154.448 35.1951 155.528 35.3519C154.834 35.3519 154.293 35.5088 153.676 35.3519ZM156.38 23.69C156.533 23.69 156.61 23.7691 156.61 23.9246C156.533 24.1593 156.457 24.3161 156.149 24.3939C156.149 24.0815 156.225 23.8468 156.38 23.69ZM147.507 41.7702C147.585 41.6911 147.585 41.6133 147.662 41.5355L148.202 42.0839C147.817 42.0839 147.585 42.163 147.507 41.7702ZM153.914 40.0486V40.2833C153.528 40.2833 153.222 40.1264 152.834 39.9708C153.298 39.7362 153.606 39.9708 153.914 40.0486ZM155.222 21.341L155.377 21.1841C155.608 21.2632 155.84 21.4201 156.071 21.6547C155.762 21.6547 155.454 21.4965 155.222 21.341ZM157.466 25.803C157.327 26.0225 157.143 26.2094 156.927 26.3514L156.849 26.2723C156.988 26.0531 157.172 25.8666 157.388 25.7253C157.466 25.7253 157.466 25.8043 157.466 25.8043V25.803ZM158.389 24.9423C158.389 24.6285 158.62 24.5508 158.851 24.3939C158.851 24.7076 158.851 24.7076 158.389 24.9423ZM146.584 35.3519C146.274 35.431 145.968 35.3519 145.582 35.3519C146.198 35.1951 146.198 35.1951 146.584 35.3519ZM158.151 25.1769C158.074 25.256 158.074 25.3338 157.996 25.3338C157.996 25.3338 157.92 25.3338 157.92 25.2547V25.1756C157.92 25.2547 157.996 25.1756 158.151 25.1756V25.1769ZM139.41 8.73917C139.453 8.73917 139.488 8.63371 139.488 8.50453C139.488 8.37535 139.453 8.26989 139.41 8.26989C139.367 8.26989 139.334 8.37535 139.334 8.50453C139.334 8.63371 139.367 8.73917 139.41 8.73917ZM135.319 10.8535C135.241 10.9313 135.086 11.0091 135.01 11.0882V10.8535C135.086 10.8535 135.164 10.7744 135.241 10.7744C135.241 10.7744 135.241 10.8535 135.319 10.8535ZM152.675 29.1683C152.753 29.1683 152.753 29.0893 152.829 29.0893H152.907C152.907 29.0893 152.907 29.1683 152.829 29.1683C152.753 29.2474 152.753 29.2474 152.675 29.1683ZM152.374 29.3252C152.451 29.2461 152.528 29.2461 152.606 29.1683V29.2474C152.606 29.2474 152.528 29.3252 152.374 29.3252Z" fill="#8A7E95"/>
<path d="M152.449 29.3253L152.371 29.4043H152.294C152.294 29.4043 152.294 29.3253 152.371 29.3253H152.449ZM170.963 29.5599C171.04 29.5599 171.04 29.5599 170.963 29.5599V29.5599ZM157.539 25.5684L157.616 25.4893V25.6475L157.539 25.7253C157.616 25.6462 157.616 25.6462 157.539 25.5671V25.5684ZM145.422 31.4383L145.575 31.2828H145.653L145.73 31.3605C145.73 31.4396 145.653 31.4396 145.653 31.5174C145.499 31.5174 145.422 31.5174 145.422 31.4383ZM139.873 9.28757V9.52353L139.796 9.44444C139.796 9.36535 139.873 9.36666 139.873 9.28757ZM156.772 26.4292C156.695 26.4292 156.695 26.5083 156.618 26.5083C156.618 26.4292 156.695 26.4292 156.695 26.3501L156.772 26.4292ZM135.241 10.7745H135.396C135.396 10.8536 135.319 10.8536 135.319 10.9313C135.241 10.8523 135.241 10.7745 135.241 10.7745Z" fill="#8A7E95"/>
<path d="M156.921 26.351L156.767 26.5065L156.689 26.4288C156.767 26.3497 156.844 26.2719 156.921 26.3497C156.844 26.2719 156.921 26.2719 156.921 26.3497V26.351ZM158.386 24.9419C158.386 25.0209 158.308 25.0209 158.308 25.0987L158.232 25.0196C158.308 24.9405 158.308 24.9419 158.386 24.9419ZM135.015 10.8518V11.0878C134.937 11.0878 134.937 11.0878 134.86 11.0087L135.015 10.8518Z" fill="#8A7E95"/>
<path d="M158.314 25.0977L158.159 25.2558L158.082 25.1767C158.159 25.0977 158.159 25.0199 158.314 25.0977C158.237 25.0199 158.237 25.0199 158.314 25.0977ZM145.508 31.595C145.43 31.6741 145.43 31.7518 145.354 31.6741C145.354 31.6741 145.354 31.5159 145.43 31.4381C145.43 31.5172 145.508 31.5172 145.508 31.595ZM157.543 25.5682V25.7251L157.467 25.8029L157.39 25.7238C157.467 25.646 157.543 25.646 157.543 25.5682ZM163.018 18.9932L163.096 18.9141C163.096 18.9141 163.018 18.9141 163.018 18.9932ZM141.11 39.1086C141.265 38.874 141.418 38.7171 141.727 38.5616C141.573 38.9531 141.341 39.0308 141.11 39.1086ZM142.182 38.0132L142.337 38.1701C142.182 38.4047 142.027 38.4825 141.719 38.6393C141.796 38.2478 142.027 38.1701 142.182 38.0132ZM140.57 39.5792C140.57 39.7347 140.492 39.8916 140.337 39.8916C140.26 39.657 140.415 39.5792 140.57 39.5792ZM139.875 40.1276C139.952 39.9694 140.029 39.9694 140.106 39.9694C140.106 40.0485 140.029 40.1276 139.875 40.1276Z" fill="#8A7E95"/>
<path d="M140.177 39.9696L140.332 39.8141C140.254 39.8932 140.177 39.8919 140.177 39.9696ZM140.722 39.4226C140.722 39.5017 140.645 39.5794 140.567 39.5794L140.722 39.4226ZM140.722 39.4226L140.798 39.3435C140.875 39.4226 140.722 39.4226 140.722 39.4226ZM141.102 39.1879C141.025 39.1879 141.025 39.2657 140.948 39.2657C141.025 39.1866 141.025 39.1102 141.102 39.1879C141.102 39.1102 141.102 39.1102 141.102 39.1879ZM129.304 48.8146C129.074 48.9728 128.919 49.0493 128.61 49.0493C128.683 48.9293 128.786 48.8304 128.907 48.762C129.029 48.6937 129.166 48.6583 129.305 48.6591V48.8146H129.304ZM129.691 48.5022C129.691 48.7369 129.613 48.7369 129.382 48.6591C129.46 48.5022 129.536 48.5022 129.691 48.5022Z" fill="#8A7E95"/>
<path d="M129.303 48.815V48.6595H129.456C129.456 48.815 129.379 48.815 129.303 48.815ZM175.665 17.8984H176.051C176.051 17.9775 176.051 18.0553 175.974 18.0553C175.819 18.0553 175.741 18.0553 175.665 17.8971V17.8984ZM158.391 40.2838L158.313 40.2047H158.391V40.2838Z" fill="#8A7E95"/>
<path d="M158.389 40.2058C158.466 40.2058 158.544 40.2058 158.544 40.2849C158.466 40.3614 158.466 40.3614 158.389 40.4404C158.466 40.3614 158.466 40.2836 158.389 40.2058Z" fill="#8A7E95"/>
</g>
<defs>
<clipPath id="clip0_197_1571">
<rect width="105" height="31" fill="white" transform="translate(0 56)"/>
</clipPath>
<clipPath id="clip1_197_1571">
<rect width="178" height="58" fill="white" transform="translate(0 6)"/>
</clipPath>
</defs>
</svg>
